<?xml version="1.0" encoding="UTF-8"?>
<svg width="22px" height="22px" viewBox="0 0 22 22" version="1.1" xmlns="http://www.w3.org/2000/svg" xmlns:xlink="http://www.w3.org/1999/xlink">
    <!-- Generator: sketchtool 48.2 (47327) - http://www.bohemiancoding.com/sketch -->
    <title>403BDCD4-9C6B-4039-8709-81252CEA7274</title>
    <desc>Created with sketchtool.</desc>
    <defs></defs>
    <g id="Contact-Popup-M-" stroke="none" stroke-width="1" fill="none" fill-rule="evenodd" transform="translate(-35.000000, -348.000000)" stroke-linecap="round" stroke-linejoin="round">
        <g id="close" transform="translate(36.000000, 349.000000)" fill="#0A7BB6" stroke="#0A7BB6" stroke-width="0.5">
            <path d="M19.7795365,0.474055093 C19.5204725,0.217809097 19.1059701,0.217809097 18.8728125,0.474055093 L10.1164493,9.10954516 L1.12692841,0.192184497 C0.867864406,-0.064061499 0.453362003,-0.064061499 0.220204401,0.192184497 C-0.0388596003,0.448430493 -0.0388596003,0.858424087 0.220204401,1.08904548 L9.20972526,10.0064061 L0.194298001,18.9237668 C-0.0647660004,19.1800128 -0.0647660004,19.5902627 0.194298001,19.8206278 C0.323830002,19.9487508 0.479268403,20 0.660613204,20 C0.841958006,20 0.997396407,19.9487508 1.12692841,19.8206278 L10.1423557,10.9032671 L18.8728125,19.5387572 C19.0023445,19.6668802 19.158042,19.7183857 19.3391277,19.7183857 C19.5204725,19.7183857 19.67617,19.6668802 19.805702,19.5387572 C20.064766,19.2825112 20.064766,18.8725176 19.805702,18.6418962 L11.0490797,10.0064061 L19.7795365,1.37091608 C20.0126941,1.11467008 20.0126941,0.704676489 19.7795365,0.474055093" id="Fill-1"></path>
        </g>
    </g>
</svg>