<?xml version="1.0" encoding="UTF-8"?>
<svg width="87px" height="99px" viewBox="0 0 87 99" version="1.1" xmlns="http://www.w3.org/2000/svg" xmlns:xlink="http://www.w3.org/1999/xlink">
    <!-- Generator: sketchtool 50.2 (55047) - http://www.bohemiancoding.com/sketch -->
    <title>94111F51-FBAC-4C15-A419-3F10C8DFC3DB</title>
    <desc>Created with sketchtool.</desc>
    <defs></defs>
    <g id="web" stroke="none" stroke-width="1" fill="none" fill-rule="evenodd">
        <g id="תוצאות-חיפוש-exemption-b" transform="translate(-222.000000, -634.000000)">
            <g id="Group-15" transform="translate(202.000000, 614.000000)">
                <g id="Group-12">
                    <g id="Group-11">
                        <g id="Group-14" transform="translate(20.000000, 20.000000)">
                            <g id="noun_1480832" fill="#DF7B11" fill-rule="nonzero">
                                <path d="M74.459,81.675 L77,79.0453125 L77,23.9765625 L51.59,0 L6.083,0 C2.695,0 0,2.784375 0,6.1875 L0,92.8125 C0,96.215625 2.695,99 6.083,99 L70.917,99 C74.305,99 77,96.215625 77,92.8125 L77,92.1164062 C76.23,92.5804687 75.383,92.8125 74.536,92.8125 C74.305,92.8125 74.074,92.8125 73.92,92.7351562 L73.92,92.8125 C73.92,94.5140625 72.534,95.90625 70.917,95.90625 L6.083,95.90625 C4.389,95.90625 3.08,94.5140625 3.08,92.8125 L3.08,6.1875 C3.08,4.4859375 4.466,3.09375 6.083,3.09375 L49.28,3.09375 L49.28,18.3304687 C49.28,22.7390625 52.745,26.296875 57.057,26.296875 L73.92,26.296875 L73.92,81.1335937 L74.459,81.675 Z M57.057,23.203125 C54.516,23.203125 52.36,21.0375 52.36,18.3304687 L52.36,4.95 L71.687,23.203125 L57.057,23.203125 Z" id="Shape"></path>
                            </g>
                            <rect id="Rectangle-2" fill="#FFFFFF" x="66" y="72" width="19" height="20"></rect>
                            <g id="noun_676637_ffffff" transform="translate(64.000000, 70.000000)" fill-rule="nonzero">
                                <path d="M10.9998694,15 C10.447578,15 10,14.4798021 10,13.837901 L10,6.162099 C10,5.52050138 10.447578,5 10.9998694,5 C11.5521609,5 12,5.52019788 12,6.162099 L12,13.8382045 C11.9997389,14.4801056 11.5518997,15 10.9998694,15 Z" id="Shape" fill="#DF6E11"></path>
                                <path d="M12,17 C12,17.5519169 11.5519766,18 10.9996007,18 C10.4482896,18 10,17.5519169 10,17 C10,16.4478168 10.4482896,16 10.9996007,16 C11.5519766,16 12,16.4478168 12,17 Z" id="Shape" fill="#DF6E11"></path>
                                <path d="M18.605321,29 C18.3453231,29 18.087705,28.9098567 17.8791712,28.7364811 L11.2816493,23.2317304 L2.55327487,23.2317304 C1.14559729,23.2317304 0,22.074591 0,20.6527307 L0,2.57899972 C0,1.15683898 1.14559729,0 2.55327487,0 L20.4467251,0 C21.8544027,0 23,1.15683898 23,2.57899972 L23,20.6527307 C23,22.074591 21.8544027,23.2317304 20.4467251,23.2317304 L19.7437788,23.2317304 L19.7437788,27.8494711 C19.7437788,28.2950794 19.489433,28.7007243 19.0902142,28.8900252 C18.9355243,28.9642432 18.7698277,29 18.605321,29 Z M2.55327487,2.30075741 C2.40155983,2.30075741 2.27810544,2.42545564 2.27810544,2.57869924 L2.27810544,20.6524302 C2.27810544,20.8056738 2.40155983,20.9303721 2.55327487,20.9303721 L11.6912799,20.9303721 C11.9560376,20.9303721 12.2124657,21.0238206 12.4168348,21.193891 L17.4656733,25.4068882 L17.4656733,22.080901 C17.4656733,21.4456913 17.9758523,20.9303721 18.6050235,20.9303721 L20.4467251,20.9303721 C20.5987376,20.9303721 20.7218946,20.8056738 20.7218946,20.6524302 L20.7218946,2.57869924 C20.7218946,2.42545564 20.5987376,2.30075741 20.4467251,2.30075741 L2.55327487,2.30075741 Z" id="Shape" fill="#DF7B11"></path>
                            </g>
                            <path d="M9.38235294,33.5 L47.6482231,33.5" id="Line-2" stroke="#DF7B11" stroke-width="3" stroke-linecap="round"></path>
                            <path d="M9.38235294,44.5 L47.6482231,44.5" id="Line-2-Copy" stroke="#DF7B11" stroke-width="3" stroke-linecap="round"></path>
                            <path d="M9.38235294,55.5 L47.6482231,55.5" id="Line-2-Copy" stroke="#DF7B11" stroke-width="3" stroke-linecap="round"></path>
                        </g>
                    </g>
                </g>
            </g>
        </g>
    </g>
</svg>