<?xml version="1.0" encoding="UTF-8"?>
<svg width="49px" height="51px" viewBox="0 0 49 51" version="1.1" xmlns="http://www.w3.org/2000/svg" xmlns:xlink="http://www.w3.org/1999/xlink">
    <!-- Generator: sketchtool 50.2 (55047) - http://www.bohemiancoding.com/sketch -->
    <title>D168CBBB-A5A5-45EB-9E5E-996094110577</title>
    <desc>Created with sketchtool.</desc>
    <defs>
        <rect id="path-1" x="0" y="0" width="381" height="205"></rect>
        <filter x="-2.2%" y="-3.2%" width="104.5%" height="108.3%" filterUnits="objectBoundingBox" id="filter-3">
            <feOffset dx="0" dy="2" in="SourceAlpha" result="shadowOffsetOuter1"></feOffset>
            <feGaussianBlur stdDeviation="2.5" in="shadowOffsetOuter1" result="shadowBlurOuter1"></feGaussianBlur>
            <feColorMatrix values="0 0 0 0 0   0 0 0 0 0   0 0 0 0 0  0 0 0 0.15 0" type="matrix" in="shadowBlurOuter1"></feColorMatrix>
        </filter>
    </defs>
    <g id="web" stroke="none" stroke-width="1" fill="none" fill-rule="evenodd">
        <g id="פטורים-מובייל-טופס-השגה" transform="translate(-306.000000, -280.000000)">
            <g id="Group-11" transform="translate(-6.000000, 260.000000)">
                <g id="Group-13">
                    <g id="stock-vector-thin-line-flat-design-concept-for-contact-banner-concept-for-website-banners-and-promotional-293651963">
                        <mask id="mask-2" fill="white">
                            <use xlink:href="#path-1"></use>
                        </mask>
                        <g id="Mask">
                            <use fill="black" fill-opacity="1" filter="url(#filter-3)" xlink:href="#path-1"></use>
                            <use fill="#FFFFFF" fill-rule="evenodd" xlink:href="#path-1"></use>
                        </g>
                    </g>
                </g>
            </g>
            <g id="Group-14" transform="translate(312.000000, 281.000000)">
                <g id="noun_1480832" fill="#DF7B11" fill-rule="nonzero">
                    <path d="M36.6649501,40.425 L37.9161842,39.1234375 L37.9161842,11.8671875 L25.4038434,0 L2.99537855,0 C1.32706645,0 0,1.378125 0,3.0625 L0,45.9375 C0,47.621875 1.32706645,49 2.99537855,49 L34.9208056,49 C36.5891177,49 37.9161842,47.621875 37.9161842,45.9375 L37.9161842,45.5929688 C37.5370223,45.8226563 37.1199443,45.9375 36.7028663,45.9375 C36.5891177,45.9375 36.4753692,45.9375 36.3995368,45.8992188 L36.3995368,45.9375 C36.3995368,46.7796875 35.7170455,47.46875 34.9208056,47.46875 L2.99537855,47.46875 C2.1612225,47.46875 1.51664737,46.7796875 1.51664737,45.9375 L1.51664737,3.0625 C1.51664737,2.2203125 2.19913868,1.53125 2.99537855,1.53125 L24.2663579,1.53125 L24.2663579,9.07265625 C24.2663579,11.2546875 25.9725862,13.015625 28.0958925,13.015625 L36.3995368,13.015625 L36.3995368,40.1570313 L36.6649501,40.425 Z M28.0958925,11.484375 C26.8446584,11.484375 25.7830052,10.4125 25.7830052,9.07265625 L25.7830052,2.45 L35.2999675,11.484375 L28.0958925,11.484375 Z" id="Shape"></path>
                </g>
                <rect id="Rectangle-2" fill="#FFFFFF" x="32" y="35" width="10" height="10"></rect>
                <g id="noun_676637_ffffff" transform="translate(31.000000, 34.000000)" fill-rule="nonzero">
                    <path d="M5.73906231,7.75862069 C5.45091027,7.75862069 5.2173913,7.48955282 5.2173913,7.157535 L5.2173913,3.18729259 C5.2173913,2.85543175 5.45091027,2.5862069 5.73906231,2.5862069 C6.02721436,2.5862069 6.26086957,2.85527477 6.26086957,3.18729259 L6.26086957,7.15769198 C6.26073332,7.4897098 6.02707812,7.75862069 5.73906231,7.75862069 Z" id="Shape" fill="#DF6E11"></path>
                    <path d="M6.26086957,8.79310345 C6.26086957,9.07857772 6.02711821,9.31034483 5.7389221,9.31034483 C5.45128155,9.31034483 5.2173913,9.07857772 5.2173913,8.79310345 C5.2173913,8.50749146 5.45128155,8.27586207 5.7389221,8.27586207 C6.02711821,8.27586207 6.26086957,8.50749146 6.26086957,8.79310345 Z" id="Shape" fill="#DF6E11"></path>
                    <path d="M9.70712401,15 C9.57147292,15 9.43706348,14.9533742 9.32826323,14.8636971 L5.88607791,12.0164123 L1.33214341,12.0164123 C0.597702933,12.0164123 0,11.4178919 0,10.6824469 L0,1.33396537 C0,0.598364987 0.597702933,0 1.33214341,0 L10.6678566,0 C11.4022971,0 12,0.598364987 12,1.33396537 L12,10.6824469 C12,11.4178919 11.4022971,12.0164123 10.6678566,12.0164123 L10.301102,12.0164123 L10.301102,14.4048988 C10.301102,14.6353859 10.1683998,14.8452022 9.96011175,14.9431165 C9.879404,14.9815051 9.79295359,15 9.70712401,15 Z M1.33214341,1.19004694 C1.25298774,1.19004694 1.18857675,1.25454602 1.18857675,1.33380995 L1.18857675,10.6822915 C1.18857675,10.7615554 1.25298774,10.8260545 1.33214341,10.8260545 L6.09979823,10.8260545 C6.23793264,10.8260545 6.37172125,10.87439 6.4783486,10.9623574 L9.11252522,13.1414939 L9.11252522,11.4211557 C9.11252522,11.0925989 9.37870557,10.8260545 9.7069688,10.8260545 L10.6678566,10.8260545 C10.7471675,10.8260545 10.8114233,10.7615554 10.8114233,10.6822915 L10.8114233,1.33380995 C10.8114233,1.25454602 10.7471675,1.19004694 10.6678566,1.19004694 L1.33214341,1.19004694 Z" id="Shape" fill="#DF7B11"></path>
                </g>
                <path d="M5.19607843,17 L24.8196016,17" id="Line-2" stroke="#DF7B11" stroke-width="1.5" stroke-linecap="round"></path>
                <path d="M5.19607843,22 L24.8196016,22" id="Line-2-Copy" stroke="#DF7B11" stroke-width="1.5" stroke-linecap="round"></path>
                <path d="M5.19607843,27 L24.8196016,27" id="Line-2-Copy" stroke="#DF7B11" stroke-width="1.5" stroke-linecap="round"></path>
            </g>
        </g>
    </g>
</svg>