<?xml version="1.0" encoding="UTF-8"?>
<svg width="156px" height="140px" viewBox="0 0 156 140" version="1.1" xmlns="http://www.w3.org/2000/svg" xmlns:xlink="http://www.w3.org/1999/xlink">
    <!-- Generator: sketchtool 50 (54983) - http://www.bohemiancoding.com/sketch -->
    <title>BE2A2DEB-C9F5-4CBB-9808-F627FEBEFA57</title>
    <desc>Created with sketchtool.</desc>
    <defs>
        <rect id="path-1" x="0" y="0" width="1231" height="892" rx="4"></rect>
        <filter x="-0.6%" y="-0.8%" width="101.2%" height="101.7%" filterUnits="objectBoundingBox" id="filter-3">
            <feOffset dx="0" dy="0" in="SourceAlpha" result="shadowOffsetOuter1"></feOffset>
            <feGaussianBlur stdDeviation="2.5" in="shadowOffsetOuter1" result="shadowBlurOuter1"></feGaussianBlur>
            <feColorMatrix values="0 0 0 0 0   0 0 0 0 0   0 0 0 0 0  0 0 0 0.15 0" type="matrix" in="shadowBlurOuter1"></feColorMatrix>
        </filter>
    </defs>
    <g id="Home.Desktop" stroke="none" stroke-width="1" fill="none" fill-rule="evenodd">
        <g id="Green-Rechesh--1" transform="translate(-231.000000, -622.000000)">
            <g id="Group-14" transform="translate(201.000000, 592.000000)">
                <g id="Group-13">
                    <g id="line">
                        <mask id="mask-2" fill="white">
                            <use xlink:href="#path-1"></use>
                        </mask>
                        <g id="Mask">
                            <use fill="black" fill-opacity="1" filter="url(#filter-3)" xlink:href="#path-1"></use>
                            <use fill="#FFFFFF" fill-rule="evenodd" xlink:href="#path-1"></use>
                        </g>
                        <g id="noun_1347316_33A38D" opacity="0.899999976" mask="url(#mask-2)">
                            <g transform="translate(30.000000, 30.000000)" id="Group">
                                <g>
                                    <path d="M77.09,139.481481 C72.93,139.481481 68.77,138.444444 65,136.5 L31.72,126.388889 L0.65,137.666667 L0.65,102.666667 L1.82,102.148148 C9.23,99.037037 46.02,84 54.21,87.2407407 L100.75,96.7037037 C103.74,97.3518519 106.21,99.2962963 107.51,102.018519 C108.81,104.740741 108.81,107.851852 107.38,110.574074 C105.3,114.722222 100.49,116.796296 96.07,115.5 L92.69,114.981481 L100.23,117.833333 L145.21,105 C147.68,104.351852 150.28,104.87037 152.23,106.425926 C154.31,107.981481 155.35,110.314815 155.35,112.777778 C155.35,116.407407 152.88,119.648148 149.37,120.555556 L80.08,139.481481 C79.04,139.481481 78.13,139.481481 77.09,139.481481 Z M31.59,122.240741 L66.56,133 C70.59,135.074074 75.01,135.981481 79.3,135.592593 L148.2,116.796296 C150.02,116.277778 151.32,114.592593 151.32,112.777778 C151.32,111.481481 150.67,110.314815 149.63,109.407407 C148.59,108.62963 147.29,108.37037 145.99,108.759259 L99.97,121.851852 L58.11,105.907407 L96.98,111.740741 C99.58,112.518519 102.57,111.351852 103.74,108.759259 C104.52,107.203704 104.65,105.259259 103.87,103.703704 C103.09,102.018519 101.66,100.851852 99.84,100.462963 L52.91,90.8703704 L52.78,90.7407407 C48.49,88.6666667 22.36,97.7407407 4.55,105.12963 L4.55,132.092593 L31.59,122.240741 Z" id="Shape" stroke="#33A38D" stroke-width="0.9" fill="#33A38D" fill-rule="nonzero"></path>
                                    <g transform="translate(52.901734, 0.000000)" fill="#33A38D" fill-rule="nonzero" stroke="#33A38D" stroke-width="0.9">
                                        <g transform="translate(0.000000, 0.000000)">
                                            <path d="M42.1282659,84.2592593 C18.9882659,84.2592593 0.138265896,65.462963 0.138265896,42.3888889 C0.138265896,19.3148148 18.9882659,0.518518519 42.1282659,0.518518519 C65.2682659,0.518518519 84.1182659,19.3148148 84.1182659,42.3888889 C84.1182659,65.462963 65.2682659,84.2592593 42.1282659,84.2592593 Z M42.1282659,4.40740741 C21.0682659,4.40740741 4.0382659,21.3888889 4.0382659,42.3888889 C4.0382659,63.3888889 21.0682659,80.3703704 42.1282659,80.3703704 C63.1882659,80.3703704 80.2182659,63.3888889 80.2182659,42.3888889 C80.2182659,21.3888889 63.0582659,4.40740741 42.1282659,4.40740741 Z" id="Shape"></path>
                                            <path d="M41.9982659,84.2592593 C30.4282659,84.2592593 21.1982659,65.8518519 21.1982659,42.3888889 C21.1982659,18.9259259 30.2982659,0.518518519 41.9982659,0.518518519 C53.5682659,0.518518519 62.7982659,18.9259259 62.7982659,42.3888889 C62.7982659,65.8518519 53.6982659,84.2592593 41.9982659,84.2592593 Z M41.9982659,4.40740741 C32.8982659,4.40740741 25.0982659,21.7777778 25.0982659,42.3888889 C25.2282659,63 32.8982659,80.3703704 41.9982659,80.3703704 C51.0982659,80.3703704 58.8982659,63 58.8982659,42.3888889 C58.8982659,21.7777778 51.2282659,4.40740741 41.9982659,4.40740741 Z" id="Shape"></path>
                                            <rect id="Rectangle-path" x="6.3782659" y="22.2962963" width="71.5" height="3.88888889"></rect>
                                            <rect id="Rectangle-path" x="2.2182659" y="40.7037037" width="79.56" height="3.88888889"></rect>
                                            <rect id="Rectangle-path" x="7.0282659" y="57.9444444" width="70.59" height="3.88888889"></rect>
                                        </g>
                                        <rect id="Rectangle-path" x="40.0482659" y="2.46296296" width="3.9" height="79.8518519"></rect>
                                    </g>
                                </g>
                            </g>
                        </g>
                    </g>
                </g>
            </g>
        </g>
    </g>
</svg>