<?xml version="1.0" encoding="UTF-8"?>
<svg width="88px" height="116px" viewBox="0 0 88 116" version="1.1" xmlns="http://www.w3.org/2000/svg" xmlns:xlink="http://www.w3.org/1999/xlink">
    <!-- Generator: sketchtool 48.2 (47327) - http://www.bohemiancoding.com/sketch -->
    <title>E14E1142-43B0-4642-ADAD-DA2D58088CFB</title>
    <desc>Created with sketchtool.</desc>
    <defs>
        <rect id="path-1" x="0" y="0" width="1600" height="296.45" rx="3"></rect>
        <filter x="-0.5%" y="-2.2%" width="101.1%" height="105.7%" filterUnits="objectBoundingBox" id="filter-3">
            <feOffset dx="0" dy="2" in="SourceAlpha" result="shadowOffsetOuter1"></feOffset>
            <feGaussianBlur stdDeviation="2.5" in="shadowOffsetOuter1" result="shadowBlurOuter1"></feGaussianBlur>
            <feColorMatrix values="0 0 0 0 0   0 0 0 0 0   0 0 0 0 0  0 0 0 0.1 0" type="matrix" in="shadowBlurOuter1"></feColorMatrix>
        </filter>
    </defs>
    <g id="Green-Rechesh" stroke="none" stroke-width="1" fill="none" fill-rule="evenodd" transform="translate(-1344.000000, -308.000000)">
        <g id="Group-26" transform="translate(0.000000, 228.000000)" opacity="0.970000029">
            <g id="Group-11">
                <g id="stock-vector-thin-line-flat-design-concept-for-contact-banner-concept-for-website-banners-and-promotional-293651963" transform="translate(0.000000, 3.700000)">
                    <mask id="mask-2" fill="white">
                        <use xlink:href="#path-1"></use>
                    </mask>
                    <g id="Mask">
                        <use fill="black" fill-opacity="1" filter="url(#filter-3)" xlink:href="#path-1"></use>
                        <use fill="#FFFFFF" fill-rule="evenodd" xlink:href="#path-1"></use>
                    </g>
                </g>
            </g>
        </g>
        <g id="Group-17" transform="translate(1344.000000, 308.000000)" fill="#33A38D" fill-rule="nonzero">
            <g id="noun_266076_70C041-(1)">
                <path d="M82.5541641,0 L34.0167734,0 L0.184421875,33.8339375 L0.184421875,111.166062 C0.184421875,113.835195 2.34741406,116 5.01654687,116 L82.5539375,116 C85.2230703,116 87.3896875,113.835195 87.3896875,111.166062 L87.3896875,4.8339375 C87.3899141,2.16480469 85.2232969,0 82.5541641,0 Z M82.5541641,111.166062 L5.01677344,111.166062 L5.01677344,35.8358438 L21.5451875,19.3074297 L82.5541641,19.3074297 L82.5541641,111.166062 Z M82.5541641,14.4753047 L26.3773125,14.4753047 L36.0168672,4.8339375 L82.5541641,4.8339375 L82.5541641,14.4753047 Z" id="Shape"></path>
                <path d="M4.19185937,23.0438984 L11.0240781,16.2098672 C11.9692969,15.2646484 11.9692969,13.7353516 11.0240781,12.7919453 C10.0824844,11.8467266 8.5531875,11.8467266 7.60796875,12.7919453 L0.772125,19.6259766 C-0.17309375,20.5711953 -0.17309375,22.1004922 0.772125,23.0438984 C1.71734375,23.9873047 3.24664062,23.9873047 4.19185937,23.0438984 Z" id="Shape"></path>
                <path d="M21.0071016,89.7753906 C21.0071016,91.1100703 22.0868984,92.1932656 23.4213516,92.1932656 C24.0903906,92.1932656 24.6957656,91.9225234 25.1312188,91.4834453 L33.5813203,83.0351563 C36.6825078,85.3750938 40.3852188,86.5486875 44.0917813,86.5486875 C48.5487188,86.5486875 53.0056563,84.8530938 56.4147422,81.4616797 C67.5693203,70.3671406 66.4154375,46.90025 66.4154375,46.90025 C66.4154375,46.90025 65.5905234,46.8560703 64.1817578,46.8560703 C58.0609453,46.8560703 40.8671172,47.7004688 31.8009922,56.71675 C25.5351797,62.9508438 24.9828203,72.7548828 30.1620391,79.6172344 L21.7155625,88.0655234 C21.2760312,88.5046016 21.0071016,89.1081641 21.0071016,89.7753906 Z M35.209625,60.1435078 C38.4451641,56.9274531 43.4578594,54.5662188 50.1167578,53.1289063 C54.4250703,52.1979609 58.5704844,51.8563047 61.5475156,51.7412109 C61.4589297,53.8122188 61.2536641,56.4353594 60.8182109,59.2920859 C59.9189844,65.1915469 57.8339297,73.2327031 53.0088281,78.0349219 C50.6228984,80.4086172 47.4544219,81.71475 44.0915547,81.71475 C41.5427266,81.71475 39.1108047,80.9659609 37.0434219,79.5730547 L47.3449922,69.2714844 C47.7840703,68.8324063 48.053,68.2288438 48.053,67.5616172 C48.053,66.2253516 46.9732031,65.1437422 45.63875,65.1437422 C44.9697109,65.1437422 44.3643359,65.4144844 43.9252578,65.8535625 L33.6307109,76.1515078 C30.3244844,71.2273984 30.8553203,64.4765156 35.209625,60.1435078 Z" id="Shape"></path>
            </g>
        </g>
    </g>
</svg>