<?xml version="1.0" encoding="UTF-8"?>
<svg width="102px" height="116px" viewBox="0 0 102 116" version="1.1" xmlns="http://www.w3.org/2000/svg" xmlns:xlink="http://www.w3.org/1999/xlink">
    <!-- Generator: sketchtool 48.2 (47327) - http://www.bohemiancoding.com/sketch -->
    <title>D830AD29-E606-439C-AAB0-228B6D369BCE</title>
    <desc>Created with sketchtool.</desc>
    <defs></defs>
    <g id="01_a-list_Mepharsemim-disabeld_Start" stroke="none" stroke-width="1" fill="none" fill-rule="evenodd" transform="translate(-1349.000000, -264.000000)">
        <g id="Group-12" transform="translate(1349.000000, 264.000000)" fill="#FFFFFF" fill-rule="nonzero">
            <g id="Group-13">
                <g id="noun_528357_ffffff">
                    <path d="M69.7810732,112.186614 L9.46107317,112.186614 C6.33756098,112.186614 3.80253659,109.629134 3.80253659,106.477953 L3.80253659,26.6251969 C3.80253659,23.4740157 6.33756098,20.9165354 9.46107317,20.9165354 L17.020878,20.9165354 C17.020878,20.9850394 17.020878,21.0535433 17.020878,21.0992126 L17.020878,26.6023622 L62.2439024,26.6023622 L62.2439024,21.0992126 C62.2439024,21.0307087 62.2439024,20.9622047 62.2439024,20.9165354 L69.8037073,20.9165354 C72.9272195,20.9165354 75.4622439,23.4740157 75.4622439,26.6251969 L75.4622439,53.2503937 L79.2421463,53.2503937 L79.2421463,26.6251969 C79.2421463,21.3732283 75.009561,17.1259843 69.8263415,17.1259843 L61.6780488,17.1259843 C60.1162927,12.0795276 55.7252683,8.28897638 50.3609756,7.69527559 C48.7539512,3.1511811 44.4760976,0 39.6097561,0 C34.7434146,0 30.465561,3.1511811 28.926439,7.69527559 C23.5621463,8.28897638 19.171122,12.0795276 17.6093659,17.1259843 L9.46107317,17.1259843 C4.25521951,17.1259843 0.0452682927,21.396063 0.0452682927,26.6251969 L0.0452682927,106.500787 C0.0452682927,111.752756 4.27785366,116 9.46107317,116 L69.7810732,116 C80.3512195,115.155118 79.196878,104.582677 79.196878,104.582677 L75.4169756,104.582677 C75.4396098,104.582677 76.5713171,111.455906 69.7810732,112.186614 Z M31.9141463,11.4173228 C31.9141463,11.4173228 32.8421463,3.81338583 39.6097561,3.81338583 C46.8074146,3.81338583 47.3053659,11.4173228 47.3053659,11.4173228 C47.3053659,11.4173228 58.6450732,10.184252 58.464,22.8346457 C58.464,22.9031496 20.7781463,22.9488189 20.7555122,22.8346457 C20.3028293,10.5267717 31.9141463,11.4173228 31.9141463,11.4173228 Z" id="Shape"></path>
                    <rect id="Rectangle-path" x="20.7781463" y="45.6464567" width="37.7084878" height="3.81338583"></rect>
                    <rect id="Rectangle-path" x="20.7781463" y="58.9590551" width="35.8072195" height="3.81338583"></rect>
                    <rect id="Rectangle-path" x="20.7781463" y="72.2716535" width="28.2700488" height="3.81338583"></rect>
                    <rect id="Rectangle-path" x="20.7781463" y="85.584252" width="3.77990244" height="3.81338583"></rect>
                    <rect id="Rectangle-path" x="28.3153171" y="85.584252" width="3.77990244" height="3.81338583"></rect>
                    <rect id="Rectangle-path" x="35.8524878" y="85.584252" width="3.77990244" height="3.81338583"></rect>
                    <path d="M78.268878,55.1456693 C75.2811707,55.1456693 72.4292683,55.7393701 69.7810732,56.7669291 L69.7810732,32.3338583 L9.46107317,32.3338583 L9.46107317,106.500787 L69.7810732,106.500787 L69.7810732,101.088976 C72.4066341,102.116535 75.2811707,102.710236 78.268878,102.710236 C91.260878,102.710236 101.831024,92.0464567 101.831024,78.9393701 C101.831024,65.8322835 91.260878,55.1456693 78.268878,55.1456693 Z M66.0011707,102.687402 L13.2183415,102.687402 L13.2183415,36.1244094 L66.0011707,36.1244094 L66.0011707,58.6393701 C59.233561,62.8181102 54.6840976,70.3307087 54.6840976,78.8937008 C54.6840976,87.4566929 59.233561,94.9692913 66.0011707,99.1480315 L66.0011707,102.687402 Z M78.268878,98.8740157 C67.3592195,98.8740157 58.4866341,89.9228346 58.4866341,78.9165354 C58.4866341,67.9102362 67.3592195,58.9590551 78.268878,58.9590551 C89.1785366,58.9590551 98.051122,67.9102362 98.051122,78.9165354 C98.051122,89.9228346 89.1785366,98.8740157 78.268878,98.8740157 Z" id="Shape"></path>
                    <polygon id="Shape" points="75.4396098 82.8897638 71.1164878 78.5283465 68.4456585 81.2228346 75.4396098 88.2559055 89.9480976 73.596063 87.2999024 70.9244094"></polygon>
                </g>
            </g>
        </g>
    </g>
</svg>