<?xml version="1.0" encoding="UTF-8"?>
<svg width="106px" height="124px" viewBox="0 0 106 124" version="1.1" xmlns="http://www.w3.org/2000/svg" xmlns:xlink="http://www.w3.org/1999/xlink">
    <!-- Generator: sketchtool 51 (57462) - http://www.bohemiancoding.com/sketch -->
    <title>5F05BFB2-BCEB-4BBE-952B-0AA7C9CB35C7</title>
    <desc>Created with sketchtool.</desc>
    <defs>
        <polygon id="path-1" points="0.000311133091 0.053907309 41.3658414 0.053907309 79.4631026 0.053907309 79.4631026 110.306242 0.000311133091 110.306242"></polygon>
    </defs>
    <g id="web" stroke="none" stroke-width="1" fill="none" fill-rule="evenodd">
        <g id="-תוצאות-חיפוש-מכרזים---אין-תוצאות-" transform="translate(-374.000000, -705.000000)">
            <rect fill="#FFFFFF" x="0" y="0" width="1600" height="1327"></rect>
            <g id="Group-37" transform="translate(441.857946, 771.880653) rotate(-25.000000) translate(-441.857946, -771.880653) translate(387.857946, 696.380653)">
                <path d="M21.5470909,66.1047453 C36.1527515,76.0321158 56.0277432,72.2033817 65.9397601,57.5649976 C75.8476453,42.923852 72.0285508,22.9973136 57.421513,13.065801 C42.8144752,3.13566907 22.93122,6.950596 13.0343528,21.5986452 C3.12371313,36.248075 6.9400531,56.1746134 21.5470909,66.1047453" id="Fill-1" fill="#E6F1F7"></path>
                <g id="Group-7">
                    <mask id="mask-2" fill="white">
                        <use xlink:href="#path-1"></use>
                    </mask>
                    <g id="Clip-6"></g>
                    <path d="M23.0765656,64.2224035 C29.6675414,68.7229727 37.6013023,70.3581611 45.4190201,68.8211117 C61.3998223,65.6751364 71.863048,50.1138932 68.7423156,34.1324494 C65.5980983,18.1275076 50.0414063,7.65843171 34.0619857,10.7947313 C18.0673688,13.9337954 7.60690603,29.5060965 10.7414531,45.5068916 C12.2375811,53.164494 16.6182107,59.8116798 23.0765656,64.2224035 Z M39.6638315,72.1495424 C33.2358688,72.1495424 26.9598674,70.2213194 21.5196531,66.5058618 C14.4575974,61.6818488 9.66667228,54.4126555 8.02963472,46.0390535 C4.60221683,28.5426761 16.0407578,11.5134954 33.5301211,8.08139675 C51.0056698,4.65206255 68.0170458,16.1011456 71.454134,33.6016697 C74.8663557,51.0773135 63.4264333,68.0940541 45.9522661,71.5344462 C43.8552003,71.9463533 41.7512271,72.1495424 39.6638315,72.1495424 Z M44.6978947,76.4773318 L50.6934584,107.06351 L56.4914725,105.931456 L50.4627536,75.2181123 L51.6093706,74.8310855 C69.0628158,68.9206328 79.5550524,50.8063948 76.0157357,32.6921567 C72.0896085,12.6883983 52.6219854,-0.401402117 32.6224978,3.51033339 C22.9522337,5.40676487 14.5874552,10.9744223 9.07126031,19.1863024 C3.55506537,27.3995647 1.56437244,37.2521621 3.468033,46.9292152 C7.10267083,65.4747118 24.6749222,78.5078404 43.4462862,76.6044977 L44.6978947,76.4773318 Z M48.5135046,110.306242 L42.4682081,79.4629674 C22.4410911,80.8659396 4.64642375,67.3089425 0.756214652,47.4613771 C-1.28973694,37.0614132 0.85015436,26.4707003 6.77940772,17.643724 C12.7058981,8.81951221 21.6964808,2.8358009 32.0906332,0.796998831 C53.5793415,-3.40915351 74.5071745,10.6606541 78.727554,32.161377 C82.4533687,51.230742 71.7097052,70.3001071 53.6373631,77.0426674 L59.7351554,108.115393 L48.5135046,110.306242 Z" id="Fill-5" fill="#117FB9" mask="url(#mask-2)"></path>
                </g>
                <path d="M47.9692229,133.7965 C49.8994853,130.385032 53.2564035,127.834114 57.3777001,127.099293 L64.8324591,125.769351 C66.0093811,125.559801 67.1766449,125.524876 68.3163138,125.619872 L62.3999697,98.1507047 L67.6885301,97.0568554 L65.7251538,87.3323538 L33.8447793,93.9317714 L35.8081556,103.656273 L41.096716,102.561027 L47.8298687,133.825837 L47.9692229,133.7965 Z" id="Fill-10" fill="#FFFFFF"></path>
                <path d="M42.4659017,101.069584 L48.8869034,131.940966 L67.5835476,127.580182 L60.9470795,97.2809068 L66.2182114,96.198624 L64.8171459,89.3198711 L35.8252352,95.266238 L37.2276716,102.144991 L42.4659017,101.069584 Z M47.0543226,135.082418 L40.3643035,104.308181 L35.0904298,105.390464 L32.591269,93.1236757 L66.9530168,86.0757732 L69.4535485,98.3425615 L64.2166893,99.4165931 L70.726868,129.742768 L47.0543226,135.082418 Z" id="Fill-12" fill="#0A7BB6"></path>
            </g>
        </g>
    </g>
</svg>