<?xml version="1.0" encoding="UTF-8"?>
<svg width="92px" height="92px" viewBox="0 0 92 92" version="1.1" xmlns="http://www.w3.org/2000/svg" xmlns:xlink="http://www.w3.org/1999/xlink">
    <!-- Generator: sketchtool 49.1 (51147) - http://www.bohemiancoding.com/sketch -->
    <title>6712C979-651E-4835-AB37-1D6D881B6678</title>
    <desc>Created with sketchtool.</desc>
    <defs></defs>
    <g id="Home.Desktop" stroke="none" stroke-width="1" fill="none" fill-rule="evenodd">
        <g id="תוצאות-חיפוש" transform="translate(-226.000000, -685.000000)" fill="#02448E">
            <g id="Group-18" transform="translate(226.000000, 685.000000)">
                <g id="icon-מכרזים" fill-rule="nonzero">
                    <path d="M92,48.009441 C92,47.6189499 91.8415556,47.2366367 91.5655556,46.9606351 C91.2895556,46.6846336 90.9072444,46.5261882 90.5167556,46.5261882 L71.4604889,46.5261882 L71.4604889,34.3984754 L71.6455111,34.2727414 C73.8596444,32.7618884 76.4673333,31.9328615 79.1476,31.8858391 C82.2132444,31.8326832 85.2052889,30.9361893 87.7956,29.2955134 L91.31,27.0691008 C92.0020444,26.630565 92.2075111,25.7136265 91.77,25.0215782 C91.3314667,24.3295298 90.4145333,24.1230398 89.7224889,24.5615756 L86.2080889,26.7879881 C84.0777778,28.1373291 81.6172889,28.8743554 79.0964889,28.917289 C75.8376444,28.9735115 72.6656889,29.9824506 69.9731556,31.8193942 L55.2194222,41.8852732 C54.3515556,42.476121 53.3784,42.7551892 52.4062667,42.7562114 C50.7901333,42.754167 49.2138667,41.9823848 48.2478667,40.5410434 L48.1354222,40.3774869 C47.5599111,39.5188154 47.288,38.5579211 47.2869778,37.598049 C47.2890222,35.9951955 48.0495556,34.4301645 49.4714667,33.4610924 L53.5756889,30.6612099 L53.5777333,30.6601877 L60.3775556,26.0213171 C61.0542667,25.5592701 61.2290667,24.6361982 60.7670222,23.9594833 C60.3049778,23.2827684 59.3819111,23.1079674 58.7052,23.5700144 L52.2887111,27.9471946 L33.5472889,27.9471946 L42.1758667,18.0571389 C45.6718667,14.0500052 50.7298222,11.7510145 56.0474222,11.7510145 L68.2108444,11.7510145 C71.0475111,11.7510145 73.8024,10.8064758 76.0441333,9.06766605 L84.3036889,2.65625214 C84.9507556,2.15331598 85.0683111,1.22206629 84.5664,0.573973746 C84.0634667,-0.073096567 83.1322222,-0.190652785 82.4841333,0.311261154 L74.2245778,6.72267506 C72.5041778,8.0577048 70.3892,8.78246444 68.2118667,8.78246444 L56.0474222,8.78246444 C49.8721778,8.78246444 43.9984889,11.4525239 39.9392444,16.1057057 L29.6076444,27.9461724 L21.9972,27.9461724 C21.6067111,27.9461724 21.2244,28.1046178 20.9473778,28.3806193 C20.6713778,28.6566209 20.5129333,29.0389341 20.5129333,29.4294252 L20.5129333,46.525166 L1.48324444,46.525166 C1.09275556,46.525166 0.710444444,46.6836113 0.433422222,46.9596129 C0.158444444,47.2366367 0,47.6179277 0,48.009441 L0,61.0673813 L0,69.970987 L0,90.5167472 C0,91.3355518 0.664444444,92 1.48426667,92 C2.30408889,92 2.96853333,91.3355518 2.96853333,90.515725 L2.96853333,71.4542398 L89.0335111,71.4542398 L89.0335111,90.515725 C89.0335111,91.3355518 89.6979556,92 90.5177778,92 C91.3355556,92 92,91.3355518 92,90.515725 L92,61.0673813 L92,61.0653368 L92,48.009441 Z M47.9391556,30.9137003 L47.7991111,31.0087675 C45.5410222,32.549265 44.3174222,35.055768 44.3194667,37.598049 C44.3184444,39.1232132 44.7590222,40.673933 45.6718667,42.0314518 L45.7822667,42.1960305 C47.3176444,44.4868434 49.8445778,45.7278282 52.4052444,45.7257837 C53.9498222,45.7268059 55.5209778,45.2739589 56.8907556,44.3386203 L68.4919556,36.4235091 L68.4919556,57.505939 L23.4814667,57.505939 L23.4814667,30.9137003 L47.9391556,30.9137003 Z M89.0324889,68.486712 L2.96751111,68.486712 L2.96751111,61.0673813 L2.96751111,61.0612479 L2.96751111,49.4926938 L20.5139556,49.4926938 L20.5139556,57.505939 L15.1575111,57.505939 C14.3376889,57.505939 13.6732444,58.1703872 13.6732444,58.990214 C13.6732444,59.8100408 14.3376889,60.474489 15.1575111,60.474489 L76.4509778,60.474489 C77.2708,60.474489 77.9352444,59.8100408 77.9352444,58.990214 C77.9352444,58.1703872 77.2708,57.505939 76.4509778,57.505939 L71.4604889,57.505939 L71.4604889,49.4926938 L89.0324889,49.4926938 L89.0324889,68.486712 Z" id="Shape"></path>
                </g>
                <text id="מכרזים" font-family="FbReforma-Medium, FbReforma" font-size="32" font-weight="400">
                    <tspan x="2" y="115">מכרזים</tspan>
                </text>
            </g>
        </g>
    </g>
</svg>