<?xml version="1.0" encoding="UTF-8"?>
<svg width="174px" height="169px" viewBox="0 0 174 169" version="1.1" xmlns="http://www.w3.org/2000/svg" xmlns:xlink="http://www.w3.org/1999/xlink">
    <!-- Generator: sketchtool 48.2 (47327) - http://www.bohemiancoding.com/sketch -->
    <title>912274FA-B57F-4489-82FF-F6000F8F14CE</title>
    <desc>Created with sketchtool.</desc>
    <defs>
        <polygon id="path-1" points="0 0 174 0 174 169 0 169"></polygon>
    </defs>
    <g id="contact-popup2" stroke="none" stroke-width="1" fill="none" fill-rule="evenodd" transform="translate(-747.000000, -338.000000)">
        <g id="Group-12" transform="translate(747.000000, 338.000000)">
            <g id="Group-13">
                <g id="Page-1">
                    <mask id="mask-2" fill="white">
                        <use xlink:href="#path-1"></use>
                    </mask>
                    <g id="Clip-2"></g>
                    <path d="M5.23987539,154.388961 C3.07165109,155.833652 2.1682243,158.178344 2.71028037,160.701593 C3.25233645,163.048089 5.23987539,164.851698 7.7694704,165.210617 C12.2866044,165.753503 20.4174455,166.112421 28.5482866,162.146284 C37.2211838,166.655308 47.1588785,169 57.2772586,169 C82.5732087,169 104.436137,154.749683 112.026729,133.467092 C112.930156,131.124204 111.663551,128.597347 109.316449,127.695542 C106.965732,126.793738 104.436137,128.056264 103.53271,130.400956 C97.3894081,147.895967 78.4174455,159.981953 57.2772586,159.981953 C47.8816199,159.981953 38.6666667,157.637261 30.7165109,153.128238 C29.271028,152.40499 27.6448598,152.40499 26.1993769,153.128238 C22.9470405,155.110404 19.3333333,156.012209 16.2616822,156.374735 C18.0685358,154.2086 19.3333333,151.683547 20.4174455,148.797772 C20.9595016,147.174523 20.5981308,145.370914 19.5140187,144.110191 C12.4672897,136.895754 8.85358255,127.877707 8.85358255,118.316774 C8.85358255,104.609342 16.623053,91.8055197 29.8130841,83.8678349 C31.9813084,82.6053084 32.7040498,79.8998943 31.4392523,77.7355631 C30.1744548,75.5712319 27.4641745,74.8497882 25.2959502,76.1141183 C9.39563863,85.4910833 0,101.364649 0,118.316774 C0,128.958069 3.79439252,139.601168 11.0218069,148.258492 C9.39563863,150.781742 7.58878505,152.946073 5.23987539,154.388961 M164.965732,60.0601915 C164.965732,31.9256892 138.58567,9.01804677 106.062305,9.01804677 C73.5389408,9.01804677 47.1588785,31.9256892 47.1588785,60.0601915 C47.1588785,88.198301 73.5389408,111.102336 106.062305,111.102336 C117.626168,111.102336 128.647975,108.216561 138.404984,102.805733 C139.850467,102.084289 141.476636,102.084289 142.922118,102.805733 C147.077882,105.33259 151.956386,106.775477 157.557632,106.954035 C154.847352,104.070063 152.859813,100.641402 151.233645,96.4931004 C150.691589,94.869852 151.05296,93.0662426 152.137072,91.8055197 C160.448598,82.7856693 164.965732,71.7836523 164.965732,60.0601915 M174,60.0601915 C174,72.8658179 169.302181,85.4910833 160.629283,95.7716567 C162.436137,99.1985144 164.785047,102.084289 167.856698,104.070063 C170.024922,105.511147 171.109034,108.216561 170.566978,110.743418 C170.024922,113.448832 168.03919,115.252441 165.32891,115.61136 C163.158879,115.972081 160.990654,116.154246 158.82243,116.154246 C152.137072,116.154246 145.993769,114.709555 140.392523,112.004141 C129.912773,117.414969 118.168224,120.302547 105.88162,120.302547 C68.2990654,120.302547 37.9439252,93.4269645 37.9439252,60.2405524 C37.9439252,27.0541403 68.4797508,0 106.062305,0 C143.464174,0 174,27.0541403 174,60.0601915" id="Fill-1" stroke="#FFFFFF" stroke-width="5" fill="#0A7BB6" mask="url(#mask-2)"></path>
                    <g mask="url(#mask-2)" fill="#0A7BB6" id="Fill-1">
                        <g transform="translate(103.000000, 40.000000)">
                            <path d="M3.5,23.375 C4.78333333,23.375 5.83333333,22.41875 5.83333333,21.25 L5.83333333,2.125 C5.83333333,0.9551875 4.78333333,0 3.5,0 C2.21666667,0 1.16666667,0.9551875 1.16666667,2.125 L1.16666667,21.25 C1.16666667,22.41875 2.21666667,23.375 3.5,23.375 M7,30.8125 C7,32.6176875 5.48333333,34 3.5,34 C1.51666667,34 0,32.6176875 0,30.8125 C0,29.00625 1.51666667,27.625 3.5,27.625 C5.48333333,27.625 7,29.00625 7,30.8125"></path>
                        </g>
                    </g>
                </g>
            </g>
        </g>
    </g>
</svg>