<?xml version="1.0" encoding="UTF-8"?>
<svg width="20px" height="20px" viewBox="0 0 20 20" version="1.1" xmlns="http://www.w3.org/2000/svg" xmlns:xlink="http://www.w3.org/1999/xlink">
    <!-- Generator: sketchtool 49.1 (51147) - http://www.bohemiancoding.com/sketch -->
    <title>BAAF14ED-FCE9-444C-8232-D128FDCAB9B4</title>
    <desc>Created with sketchtool.</desc>
    <defs></defs>
    <g id="Home.Desktop" stroke="none" stroke-width="1" fill="none" fill-rule="evenodd">
        <g id="תוצאות-חיפוש--date-open" transform="translate(-1201.000000, -1086.000000)" fill="#4E5665" fill-rule="nonzero">
            <g id="noun_684825_4E5665" transform="translate(1201.000000, 1086.000000)">
                <path d="M16.939,1.726 L15.338,1.726 L15.338,0.125 L14.27,0.125 L14.27,1.726 L5.73,1.726 L5.73,0.125 L4.662,0.125 L4.662,1.726 L3.061,1.726 C1.589,1.726 0.392,2.923 0.392,4.395 L0.392,17.206 C0.392,18.678 1.589,19.875 3.061,19.875 L16.939,19.875 C18.411,19.875 19.608,18.678 19.608,17.206 L19.608,7.064 L19.608,5.997 L19.608,4.395 C19.608,2.924 18.411,1.726 16.939,1.726 Z M18.541,17.206 C18.541,18.089 17.823,18.807 16.94,18.807 L3.061,18.807 C2.178,18.807 1.46,18.089 1.46,17.206 L1.46,7.064 L18.541,7.064 L18.541,17.206 Z M18.541,5.997 L1.459,5.997 L1.459,4.395 C1.459,3.512 2.177,2.794 3.06,2.794 L4.661,2.794 L4.661,3.862 L5.73,3.862 L5.73,2.794 L14.271,2.794 L14.271,3.862 L15.339,3.862 L15.339,2.794 L16.94,2.794 C17.823,2.794 18.541,3.512 18.541,4.395 L18.541,5.997 Z" id="Shape"></path>
                <path d="M8.932,12.402 L11.067,12.402 C11.656,12.402 12.135,11.923 12.135,11.334 L12.135,9.199 C12.135,8.61 11.656,8.131 11.067,8.131 L8.932,8.131 C8.343,8.131 7.864,8.61 7.864,9.199 L7.864,11.334 C7.865,11.923 8.344,12.402 8.932,12.402 Z M11.067,9.199 L11.068,11.334 L8.932,11.334 L8.932,9.199 L11.067,9.199 Z" id="Shape"></path>
                <path d="M14.27,12.402 L16.405,12.402 C16.994,12.402 17.473,11.923 17.473,11.334 L17.473,9.199 C17.473,8.61 16.994,8.131 16.405,8.131 L14.27,8.131 C13.681,8.131 13.202,8.61 13.202,9.199 L13.202,11.334 C13.203,11.923 13.682,12.402 14.27,12.402 Z M14.27,9.199 L16.405,9.199 L16.406,11.334 L14.27,11.334 L14.27,9.199 Z" id="Shape"></path>
                <path d="M3.595,17.74 L5.73,17.74 C6.319,17.74 6.798,17.261 6.798,16.672 L6.798,14.537 C6.798,13.948 6.319,13.469 5.73,13.469 L3.595,13.469 C3.006,13.469 2.527,13.948 2.527,14.537 L2.527,16.672 C2.527,17.261 3.006,17.74 3.595,17.74 Z M3.595,14.537 L5.73,14.537 L5.731,16.672 L3.595,16.672 L3.595,14.537 Z" id="Shape"></path>
                <path d="M8.932,17.74 L11.067,17.74 C11.656,17.74 12.135,17.261 12.135,16.672 L12.135,14.537 C12.135,13.948 11.656,13.469 11.067,13.469 L8.932,13.469 C8.343,13.469 7.864,13.948 7.864,14.537 L7.864,16.672 C7.865,17.261 8.344,17.74 8.932,17.74 Z M8.932,14.537 L11.067,14.537 L11.068,16.672 L8.932,16.672 L8.932,14.537 Z" id="Shape"></path>
                <path d="M14.27,17.74 L16.405,17.74 C16.994,17.74 17.473,17.261 17.473,16.672 L17.473,14.537 C17.473,13.948 16.994,13.469 16.405,13.469 L14.27,13.469 C13.681,13.469 13.202,13.948 13.202,14.537 L13.202,16.672 C13.203,17.261 13.682,17.74 14.27,17.74 Z M14.27,14.537 L16.405,14.537 L16.406,16.672 L14.27,16.672 L14.27,14.537 Z" id="Shape"></path>
            </g>
        </g>
    </g>
</svg>