<?xml version="1.0" encoding="UTF-8"?>
<svg width="20px" height="19px" viewBox="0 0 20 19" version="1.1" xmlns="http://www.w3.org/2000/svg" xmlns:xlink="http://www.w3.org/1999/xlink">
    <!-- Generator: sketchtool 48.2 (47327) - http://www.bohemiancoding.com/sketch -->
    <title>812AF0CD-A536-4D83-A5BC-E04813EEDCD6</title>
    <desc>Created with sketchtool.</desc>
    <defs></defs>
    <g id="375.Home.withGallery" stroke="none" stroke-width="1" fill="none" fill-rule="evenodd" transform="translate(-57.000000, -183.000000)">
        <g id="Search" transform="translate(27.000000, 163.000000)" fill="#0077BF" stroke="#0077BF">
            <g id="SearchIcn" transform="translate(31.000000, 21.000000)">
                <path d="M15.1613077,7.66130769 C15.1613077,3.531 11.7916154,0.161307692 7.66130769,0.161307692 C3.531,0.161307692 0.137769231,3.50746154 0.137769231,7.66130769 C0.137769231,11.7916154 3.50746154,15.1613077 7.66130769,15.1613077 C11.7925385,15.1613077 15.1613077,11.7925385 15.1613077,7.66130769 Z M7.66130769,14.6997692 C3.78415385,14.6997692 0.622846154,11.5384615 0.622846154,7.66130769 C0.622846154,3.78415385 3.76176923,0.599307692 7.66130769,0.599307692 C11.5384615,0.599307692 14.6997692,3.76061538 14.6997692,7.63776923 C14.6997692,11.5149231 11.5384615,14.6997692 7.66130769,14.6997692 Z" id="Fill-1"></path>
                <polygon id="Fill-2" points="12.8374615 13.1510769 13.1637923 12.8247462 17.8467923 17.5077462 17.5204615 17.8340769"></polygon>
            </g>
        </g>
    </g>
</svg>