<?xml version="1.0" encoding="utf-8"?>
<!-- Generator: Adobe Illustrator 21.0.0, SVG Export Plug-In . SVG Version: 6.00 Build 0)  -->
<svg version="1.1" id="Layer_1" xmlns="http://www.w3.org/2000/svg" xmlns:xlink="http://www.w3.org/1999/xlink" x="0px" y="0px"
	 viewBox="0 0 18 18" style="enable-background:new 0 0 18 18;" xml:space="preserve">
<style type="text/css">
	.st0{display:none;}
	.st1{display:inline;fill:none;stroke:#000000;stroke-miterlimit:10;}
</style>
<g id="Print_-_Grey">
	<path d="M18,8.1c0-0.7-0.8-1.3-1.7-1.3h-0.4V5.5c0-0.5-0.4-1-0.9-1.1V3.7L11.3,0H2.9v4.4C2.4,4.5,2.1,5,2.1,5.5v1.3H1.7
		C0.8,6.8,0,7.4,0,8.1c0,0.1,0,5.2,0,5.2C0,14.3,0.8,15,1.7,15h1.3v3h12.1v-3h1.3c0.9,0,1.7-0.8,1.7-1.7C18,13.3,18,8.2,18,8.1z
		 M13.7,3.6h-2.5V1.2L13.7,3.6z M10.4,1.1v3.3h3.5v2.4H4.1V1.1H10.4z M13.9,16.9H4.1v-4.6h9.9V16.9z M16.3,13.6h-1.3v-2.5H2.9v2.5
		H1.7c-0.2,0-0.3-0.1-0.3-0.3V9.4h15.2v3.9C16.6,13.5,16.5,13.6,16.3,13.6z"/>
	<g class="st0">
		<line class="st1" x1="4.3" y1="11.6" x2="9.3" y2="16.6"/>
		<line class="st1" x1="13.7" y1="11.6" x2="8.7" y2="16.6"/>
		<line class="st1" x1="9" y1="0" x2="9" y2="16.4"/>
		<line class="st1" x1="3.7" y1="18" x2="14.3" y2="18"/>
	</g>
</g>
</svg>
