<?xml version="1.0" standalone="no"?>
<!DOCTYPE svg PUBLIC "-//W3C//DTD SVG 1.1//EN" "http://www.w3.org/Graphics/SVG/1.1/DTD/svg11.dtd" >
<svg xmlns="http://www.w3.org/2000/svg" xmlns:xlink="http://www.w3.org/1999/xlink" version="1.1">
<metadata></metadata>
<defs>
<font id="fb_agolenglight" horiz-adv-x="700" >
<font-face units-per-em="2048" ascent="1638" descent="-410" />
<missing-glyph horiz-adv-x="630" />
<glyph unicode="&#xd;" horiz-adv-x="512" />
<glyph unicode=" "  horiz-adv-x="630" />
<glyph unicode="&#x09;" horiz-adv-x="630" />
<glyph unicode="&#xa0;" horiz-adv-x="630" />
<glyph unicode="!" horiz-adv-x="553" d="M338 1075l-35 -659h-45l-43 659v348h123v-348zM342 0h-127v176h127v-176z" />
<glyph unicode="&#x22;" horiz-adv-x="826" d="M738 1308q0 -51 -19.5 -113.5t-56 -129.5t-89.5 -134t-119 -126l-39 40q21 31 40.5 55.5t44.5 62.5q30 47 51.5 86.5t35 76t20 72.5t7.5 75q0 16 -1 34t-5 45l-2 15l123 5q4 -11 6.5 -24t2.5 -40zM398 1308q0 -51 -19.5 -113.5t-56 -129.5t-89.5 -134t-119 -126l-39 40 q21 31 40.5 55.5t44.5 62.5q30 47 51.5 86.5t35 76t20 72.5t7.5 75q0 16 -1 34t-5 45l-3 15l124 5q4 -11 6.5 -24t2.5 -40z" />
<glyph unicode="#" horiz-adv-x="1540" d="M1391 1014l-25 -88h-276l-86 -432h286l-22 -88h-281l-80 -406h-84l78 406h-364l-80 -406h-86l80 406h-301l24 88h293l84 432h-301l22 88h297l78 409h86l-80 -409h367l80 409h86l-80 -409h285zM1004 926h-367l-84 -432h365z" />
<glyph unicode="$" horiz-adv-x="1243" d="M1089 347q0 -84 -31.5 -152.5t-87.5 -117t-132.5 -75t-167.5 -26.5h-4v-188h-85v193q-81 7 -174 22.5t-191 53.5l16 97q98 -39 183.5 -56.5t165.5 -27.5v620l-38 11q-160 47 -244 138t-84 228q0 59 20 119t63.5 108.5t113 80t169.5 33.5v139h85v-137q51 -2 92 -7 t78.5 -12t74 -17t79.5 -23l-16 -95q-44 16 -80 27t-71 18t-72.5 11t-84.5 7v-543l68 -21q77 -24 142 -60.5t112.5 -86.5t74 -115t26.5 -146zM581 794v231v296q-54 -2 -103 -17t-86.5 -45.5t-59.5 -78t-22 -114.5q0 -51 16.5 -91t47 -71t74.5 -55t99 -43zM992 339 q0 74 -27 128t-69 92t-94 62t-101 38l-35 10v-603h14q55 -1 111 14.5t100.5 49.5t72.5 86t28 123z" />
<glyph unicode="%" horiz-adv-x="1767" d="M1582 331q0 -71 -19 -136.5t-56 -116t-91.5 -80.5t-125.5 -30q-73 0 -127.5 28t-91 76.5t-54.5 113t-18 137.5q0 69 19 134.5t55 116t89.5 81.5t122.5 31q72 0 127.5 -28t93 -76.5t57 -113t19.5 -137.5zM1341 1446l-813 -1444h-106l817 1444h102zM761 1097 q0 -71 -19 -137t-55.5 -117.5t-91 -82.5t-124.5 -31q-73 0 -128 28t-91.5 76.5t-54.5 113.5t-18 138q0 68 19 133t55 115.5t89 81.5t122 31q72 0 127.5 -27.5t93 -74.5t57 -111t19.5 -136zM1486 334q0 38 -8 84t-30.5 86t-62 67t-101.5 27q-60 0 -97 -26t-58 -66.5 t-28.5 -90t-7.5 -96.5q0 -38 7.5 -84t29 -86t60 -67t99.5 -27q43 0 75 13.5t53.5 35.5t35 51t21 60t10 62t2.5 57zM666 1096q0 38 -8 84t-30 86t-61.5 67t-101.5 27q-60 0 -97.5 -26t-58.5 -66.5t-28.5 -90t-7.5 -96.5q0 -38 7.5 -84t29 -86t60 -67t100.5 -27q64 0 103 29 t59.5 72t27 91t6.5 87z" />
<glyph unicode="&#x26;" horiz-adv-x="1393" d="M1282 53l-78 -66l-195 230q-57 -72 -115 -119t-116.5 -75t-116.5 -39t-116 -11q-38 0 -75.5 6.5t-72.5 18t-65 27.5t-53 34q-40 32 -66.5 67.5t-42.5 72.5t-23 74.5t-7 73.5q0 40 11 79t30 74.5t44.5 67.5t54.5 59q21 19 47.5 41t57 46t62.5 49t64 49q-85 98 -138 188.5 t-53 173.5q0 66 22.5 120t63 92t96.5 59t123 21q63 0 115.5 -22.5t90.5 -61.5t59 -91t21 -111q0 -100 -70.5 -194.5t-199.5 -182.5l372 -440q22 33 46 73t47 80.5t42 77.5t30 63h96q-13 -29 -36 -74t-50.5 -95t-58 -100.5t-58.5 -90.5zM818 1170q0 47 -16.5 85t-45 65 t-65.5 41.5t-79 14.5q-49 0 -86 -16t-61.5 -42.5t-37 -61.5t-12.5 -73q0 -47 23.5 -99.5t61.5 -99.5l94 -115q64 45 107.5 84.5t69 76t36.5 71t11 69.5zM949 283l-389 463q-66 -52 -125 -97.5t-103.5 -91t-70.5 -95t-26 -108.5q0 -69 26 -122.5t70 -90t101.5 -56 t120.5 -19.5q51 0 101 10.5t99 36t98 67t98 103.5z" />
<glyph unicode="'" horiz-adv-x="487" d="M398 1308q0 -51 -19.5 -113.5t-56 -129.5t-89.5 -134t-119 -126l-39 40q21 31 40.5 55.5t44.5 62.5q30 47 51.5 86.5t35 76t20 72.5t7.5 75q0 16 -1 34t-5 45l-3 15l124 5q4 -11 6.5 -24t2.5 -40z" />
<glyph unicode="(" horiz-adv-x="672" d="M526 1568q-62 -114 -110.5 -222.5t-83 -220.5t-52.5 -232t-18 -257q0 -118 16.5 -229.5t49.5 -220t82 -217.5t114 -222h-61q-149 197 -227 417.5t-78 471.5q0 265 78 493.5t227 438.5h63z" />
<glyph unicode=")" horiz-adv-x="672" d="M514 636q0 -248 -79.5 -471t-225.5 -418h-62q64 113 113.5 222t82.5 217.5t50 220t17 229.5q0 141 -18.5 262t-53 232.5t-83.5 218.5t-110 219h64q149 -210 227 -438.5t78 -493.5z" />
<glyph unicode="*" horiz-adv-x="1083" d="M940 1145l-360 -90l247 -295l-92 -68l-198 336l-189 -334l-90 66l238 295l-353 90l35 102l336 -139l-31 360h113l-35 -360l342 141z" />
<glyph unicode="+" horiz-adv-x="1161" d="M1018 571h-387v-391h-101v391h-387v97h387v387h101v-387h387v-97z" />
<glyph unicode="," horiz-adv-x="552" d="M440 278q1 -101 -80.5 -231.5t-252.5 -307.5l-39 40q10 16 26.5 38t34 46t34.5 48t29 43q30 47 51.5 84.5t35 72t20 69t7.5 73.5q0 16 -1 29t-5 40l-2 15l134 5q3 -11 5.5 -24t2.5 -40z" />
<glyph unicode="-" horiz-adv-x="791" d="M692 590h-600v96h600v-96z" />
<glyph unicode="." horiz-adv-x="553" d="M354 0h-188v257h188v-257z" />
<glyph unicode="/" horiz-adv-x="553" d="M553 1446l-473 -1470h-80l473 1470h80z" />
<glyph unicode="0" horiz-adv-x="1133" d="M983 702q0 -90 -6.5 -178.5t-24 -169t-48.5 -149.5t-79.5 -120t-116.5 -80t-161 -29q-94 0 -162.5 28t-117.5 77.5t-79.5 117.5t-47.5 148.5t-23.5 171t-6.5 183.5q0 87 6.5 175t24 168.5t48.5 150t79.5 121t117 81t161.5 29.5q94 0 163 -27t117.5 -75.5t79 -116 t47.5 -148t23 -171.5t6 -187zM875 702q0 61 -2.5 132t-12.5 141.5t-30.5 135.5t-57 115.5t-92 80.5t-135.5 30q-79 0 -134 -29.5t-91.5 -79t-57 -114.5t-30.5 -135.5t-12.5 -142t-2.5 -134.5q0 -61 2 -131.5t12 -141.5t31 -136.5t57.5 -116t92 -80.5t135.5 -30q79 0 134 29 t91 78t57 113.5t31 135t12.5 143t2.5 137.5z" />
<glyph unicode="1" horiz-adv-x="1137" d="M713 0h-103v1207q-26 -31 -67 -65.5t-87.5 -67.5t-94.5 -62.5t-87 -50.5v104q59 35 122.5 78t117.5 94q26 24 43.5 45.5t29.5 43.5t21.5 46.5t20.5 54.5h84v-1427z" />
<glyph unicode="2" horiz-adv-x="1135" d="M983 0h-867v84q5 15 17 34t28 40.5t35 45t38 46.5l459 552q51 60 79.5 124t28.5 126q0 73 -24.5 125.5t-67 86.5t-98.5 50.5t-119 16.5q-65 0 -142 -21t-156 -70l-23 97q57 39 142 67t188 28q89 0 163.5 -24t128.5 -71t84 -116.5t30 -159.5q0 -46 -11 -91t-30.5 -88 t-45 -82t-54.5 -73l-401 -478q-12 -14 -32.5 -37t-41.5 -46.5t-37.5 -43t-19.5 -26.5h749v-96z" />
<glyph unicode="3" horiz-adv-x="1133" d="M997 373q0 -87 -39.5 -160t-106 -125.5t-154 -82t-183.5 -29.5q-54 0 -107.5 4.5t-103.5 14t-94.5 24t-80.5 34.5l32 91q49 -27 96.5 -42.5t91.5 -23.5t82.5 -10t69.5 -2q74 0 144.5 19.5t125 57.5t87.5 94t33 129q0 87 -35 149.5t-93.5 103t-133.5 59.5t-155 19 q-9 0 -37.5 -0.5t-59.5 -0.5q-36 -1 -78 -1v90h183q58 0 118 17.5t109 53.5t80.5 89.5t31.5 125.5t-30.5 123t-77.5 83.5t-104.5 48t-112.5 15.5q-31 0 -67.5 -1t-77 -6.5t-84 -18t-88.5 -35.5l-14 82q60 35 152 52.5t196 17.5q82 0 156.5 -24t131.5 -69t90.5 -109 t33.5 -143q0 -42 -12 -88.5t-40.5 -91t-76.5 -85t-121 -70.5q82 -16 143 -53t101 -87.5t59.5 -112t19.5 -126.5z" />
<glyph unicode="4" horiz-adv-x="1135" d="M1072 369h-233v-369h-105v369h-655v88l629 966h131v-966h233v-88zM734 457v864l-557 -864h557z" />
<glyph unicode="5" horiz-adv-x="1133" d="M1001 432q0 -99 -34 -182.5t-96.5 -144.5t-150 -95t-195.5 -34q-54 0 -108.5 4.5t-105.5 14t-95.5 24t-78.5 34.5l33 91q42 -22 89 -36t92.5 -22.5t86.5 -12t72 -3.5q80 0 150 23.5t122.5 68.5t82.5 110t30 148q0 81 -27 145.5t-76 109.5t-117.5 69t-150.5 24 q-78 0 -154.5 -22.5t-131.5 -64.5l-56 30l60 692h673v-94h-583l-45 -501q49 29 117.5 41.5t139.5 12.5q108 0 192.5 -30t143.5 -86t90 -135.5t31 -178.5z" />
<glyph unicode="6" horiz-adv-x="1133" d="M997 418q0 -96 -31 -177t-87.5 -140t-135.5 -92t-174 -33q-85 0 -153 20t-120.5 57.5t-90 90.5t-62.5 118q-15 41 -25 90t-16 99t-8 97t-2 85q0 66 5.5 134.5t17.5 135t30.5 128.5t44.5 116q30 62 74 114.5t100.5 90.5t123.5 59t143 21q77 0 152 -20t132 -54l-20 -86 q-70 34 -139 52.5t-125 18.5q-118 0 -198.5 -49.5t-131.5 -140.5q-26 -46 -45.5 -102.5t-33 -120t-20.5 -130.5t-7 -134q34 49 81 84.5t99 58t105.5 33t100.5 10.5q103 0 181 -32.5t130 -90t78.5 -137.5t26.5 -174zM891 406q0 74 -20.5 138.5t-61 112t-102 74.5t-142.5 27 q-55 0 -109 -15t-100.5 -42.5t-83 -65.5t-57.5 -84q-8 -92 6.5 -179t56.5 -155t113 -109.5t176 -41.5q77 0 137 26.5t101.5 72.5t63.5 108t22 133z" />
<glyph unicode="7" horiz-adv-x="1133" d="M997 1339q-67 -92 -132.5 -200t-125.5 -225t-113.5 -238t-97 -239.5t-76 -229.5t-50.5 -207h-102q18 115 63.5 268t116.5 326t168 356.5t218 358.5h-753v96h884v-66z" />
<glyph unicode="8" horiz-adv-x="1133" d="M1002 389q0 -95 -35 -171.5t-96 -130t-144 -82.5t-178 -29q-97 0 -180 26t-143.5 76.5t-95 125t-34.5 171.5q0 133 70.5 231t204.5 146q-50 19 -89 53t-65.5 77t-40.5 91t-14 96q0 87 29 153.5t80.5 112t122 69t153.5 23.5q85 0 156.5 -23t123 -67t80.5 -107.5t29 -144.5 q0 -46 -11.5 -93t-36 -90.5t-62.5 -81t-91 -64.5q62 -26 111.5 -60t84 -79t53 -101.5t18.5 -126.5zM838 1065q0 68 -22.5 119t-62 85t-92 51t-112.5 17q-61 0 -113.5 -17.5t-91 -51t-60.5 -82.5t-22 -111q0 -65 22.5 -117t61.5 -88.5t91.5 -56.5t113.5 -20q56 0 108 19 t91.5 54.5t63.5 86t24 112.5zM895 381q0 78 -27.5 138t-75 101.5t-111 63t-136.5 21.5q-72 0 -134.5 -22.5t-109 -65t-73 -103.5t-26.5 -137q0 -78 27.5 -136t74.5 -97t111 -58.5t136 -19.5t134.5 20.5t109 60t73.5 98.5t27 136z" />
<glyph unicode="9" horiz-adv-x="1133" d="M1001 738q0 -121 -18 -234t-66 -223q-29 -68 -71 -124t-94.5 -96t-115 -62.5t-133.5 -22.5q-81 0 -151.5 19t-130.5 51l22 94q45 -22 80.5 -36t66.5 -22t58 -11t55 -3q33 0 72.5 9.5t80.5 33t81 64t73 103.5q27 51 44.5 112.5t28 125t13.5 124.5t2 111 q-24 -48 -63.5 -85.5t-87.5 -63.5t-99.5 -39.5t-98.5 -13.5q-100 0 -179 32.5t-134.5 89.5t-85 133.5t-29.5 164.5q0 96 32 180.5t89 147t136 99t174 36.5q83 0 150 -24t118.5 -65.5t86.5 -98t53 -122.5q13 -47 21 -92.5t12.5 -92t6 -96t1.5 -103.5zM874 848q9 25 12.5 60.5 t0.5 75.5t-12 81t-25 77q-20 44 -48.5 80t-66.5 62t-84 40.5t-100 14.5q-78 0 -138.5 -30t-102 -79.5t-62.5 -114.5t-21 -134q0 -75 25.5 -138t70 -108t105 -70.5t131.5 -25.5q45 0 93.5 13.5t92 40t77.5 65.5t52 90z" />
<glyph unicode=":" horiz-adv-x="553" d="M352 726h-168v239h168v-239zM352 0h-168v239h168v-239z" />
<glyph unicode=";" horiz-adv-x="553" d="M350 726h-168v239h168v-239zM330 278q1 -101 -80.5 -231.5t-251.5 -307.5l-39 40q10 16 26 38t33.5 46t34.5 48t29 43q30 47 51.5 84.5t35 72t20 69t7.5 73.5q0 16 -1 29t-5 40l-2 15l134 5q3 -11 5.5 -24t2.5 -40z" />
<glyph unicode="&#x3c;" horiz-adv-x="1161" d="M961 184l-781 375v125l781 371v-109l-685 -325l685 -328v-109z" />
<glyph unicode="=" horiz-adv-x="1161" d="M979 805h-797v104h797v-104zM979 332h-797v104h797v-104z" />
<glyph unicode="&#x3e;" horiz-adv-x="1161" d="M981 559l-780 -375v109l682 328l-682 325v109l780 -371v-125z" />
<glyph unicode="?" horiz-adv-x="1106" d="M909 1106q0 -85 -39.5 -159.5t-134.5 -149.5q-27 -21 -55 -43.5t-52 -47.5t-43 -53t-28 -61q-3 -10 -4.5 -27.5t-2 -39t0 -45.5t2.5 -46h-104q-2 21 -3 45t-0.5 49.5t4 50.5t9.5 46q10 36 31 67t47 59t56 52.5t60 48.5q29 23 57 48.5t49.5 56t34.5 66t13 77.5 q0 57 -23.5 101.5t-62.5 74.5t-89.5 45.5t-103.5 15.5q-92 0 -163 -29t-122 -67l-34 88q60 47 145.5 75t187.5 28q84 0 152 -24.5t115.5 -68t73.5 -103.5t26 -130zM565 0h-127v176h127v-176z" />
<glyph unicode="@" horiz-adv-x="1802" d="M1673 807q0 -58 -6 -107t-18.5 -93t-31 -84.5t-43.5 -82.5q-27 -45 -62.5 -78.5t-72 -55.5t-71.5 -33t-60 -11q-26 0 -52 7.5t-48.5 24t-39.5 42.5t-25 62q-29 -32 -64 -56.5t-72.5 -41.5t-75 -25.5t-71.5 -8.5q-78 0 -141.5 31.5t-109 86.5t-70.5 128t-25 157 q0 91 28 170.5t79 138.5t122.5 93t159.5 34q38 0 74.5 -6.5t72.5 -21.5t72 -40t74 -61l12 109h88l-57 -506q-4 -32 -6 -61t-2 -54q0 -51 21 -84t59 -34q24 0 50.5 10t53 29t51 44.5t43.5 55.5q43 67 62.5 145t19.5 164q0 97 -25 180t-70 150.5t-107 119t-136 86.5t-157 53 t-170 18q-147 0 -273.5 -54t-219 -150t-145 -228t-52.5 -287q0 -162 54.5 -293.5t151.5 -225t229 -144t287 -50.5q116 0 238.5 22.5t247.5 86.5l26 -76q-60 -30 -125.5 -52.5t-133 -37t-136 -21.5t-134.5 -7q-174 0 -321.5 56.5t-255 161t-168.5 251.5t-61 327q0 175 62 322 t169.5 253.5t252 166t309.5 59.5q96 0 188.5 -18.5t175 -55.5t152 -93t120 -130.5t79.5 -169t30 -207.5zM1179 882q-32 43 -69.5 68.5t-74.5 39t-71.5 17.5t-60.5 4q-67 0 -120.5 -28.5t-91 -76.5t-57.5 -110.5t-20 -130.5q0 -61 19 -117t53.5 -98.5t82.5 -68t105 -25.5 q36 0 73 8t71.5 26t65 46t55.5 68z" />
<glyph unicode="A" horiz-adv-x="1325" d="M1264 0h-119l-166 442h-657l-156 -442h-105l512 1423h140zM954 530l-315 809l-293 -809h608z" />
<glyph unicode="B" horiz-adv-x="1325" d="M1196 385q0 -101 -36 -173.5t-99 -119.5t-148.5 -69.5t-185.5 -22.5h-537v1423h508q85 0 159.5 -20t130 -62.5t87 -108.5t31.5 -157q0 -41 -7.5 -86.5t-30 -89.5t-63.5 -83t-108 -66q82 -15 139 -52.5t92.5 -88.5t51.5 -109.5t16 -114.5zM1010 1057q0 73 -24.5 125.5 t-67 87t-99.5 51t-121 16.5h-409v-551h432q62 0 115 17.5t91.5 51.5t60.5 84.5t22 117.5zM1090 385q0 94 -35 155.5t-89 96.5t-119 49t-124 14h-434v-614h438q39 0 81 5t82.5 18t76.5 34.5t63.5 54.5t43.5 79.5t16 107.5z" />
<glyph unicode="C" horiz-adv-x="1356" d="M1167 25q-84 -24 -167.5 -37.5t-180.5 -13.5q-169 0 -298.5 46.5t-218 140.5t-134 235t-45.5 329q0 186 51.5 322t144 224.5t220 131.5t280.5 43q90 0 176 -15.5t172 -39.5v-93q-59 15 -108 26t-92 18t-81 10.5t-75 3.5q-147 0 -257 -48.5t-182.5 -134t-108.5 -202.5 t-36 -254q0 -142 36 -262t108 -207t180 -136t252 -49q77 0 167.5 11.5t196.5 40.5v-90z" />
<glyph unicode="D" horiz-adv-x="1436" d="M1305 719q0 -165 -43 -298t-127 -226.5t-207 -144t-283 -50.5h-448v1423h426q165 0 292 -44.5t214 -133t131.5 -220.5t44.5 -306zM1200 723q0 160 -42 276t-118 191t-182.5 111t-236.5 36h-324v-1251h328q141 0 248.5 42t180 123.5t109.5 200t37 271.5z" />
<glyph unicode="E" horiz-adv-x="1290" d="M1102 0h-901v1423h901v-86h-801v-557h748v-86h-748v-608h801v-86z" />
<glyph unicode="F" horiz-adv-x="1163" d="M1020 1337h-713v-563h668v-86h-668v-688h-100v1423h813v-86z" />
<glyph unicode="G" horiz-adv-x="1462" d="M1257 59q-48 -18 -106 -33t-117 -26t-114 -17.5t-97 -6.5q-162 0 -290.5 48t-218.5 141t-137.5 229t-47.5 311q0 193 53.5 333t148 231t224 134t281.5 43q100 0 193.5 -14t174.5 -35v-86q-122 31 -213 41t-164 10q-147 0 -258 -49.5t-185 -136t-111 -204.5t-37 -255 q0 -144 36.5 -264t110 -206.5t183 -135t255.5 -48.5q53 0 99.5 5t88 14t79 20.5t73.5 24.5v541h-438v96h534v-705z" />
<glyph unicode="H" horiz-adv-x="1436" d="M1231 0h-101v692h-827v-692h-100v1423h100v-645h827v645h101v-1423z" />
<glyph unicode="I" horiz-adv-x="553" d="M330 0h-101v1423h101v-1423z" />
<glyph unicode="J" horiz-adv-x="895" d="M696 414q1 -95 -15.5 -175.5t-55.5 -139t-103.5 -91t-161.5 -32.5q-61 0 -120 16t-97 41l4 94q57 -29 111.5 -46.5t89.5 -17.5q47 0 92 13t80 50t56 102.5t20 170.5l-12 1024h104z" />
<glyph unicode="K" horiz-adv-x="1325" d="M1212 0h-137l-530 750l-256 -285v-465h-99v1423h99v-821l737 821h129l-528 -602z" />
<glyph unicode="L" horiz-adv-x="1106" d="M971 0h-781v1423h99v-1337h682v-86z" />
<glyph unicode="M" horiz-adv-x="1884" d="M1741 0h-92l-275 1323l-379 -1323h-108l-379 1323l-275 -1323h-90l306 1423h122l371 -1321l369 1321h123z" />
<glyph unicode="N" horiz-adv-x="1415" d="M1208 0h-92l-827 1260v-1260h-94v1423h92l829 -1259v1259h92v-1423z" />
<glyph unicode="O" horiz-adv-x="1546" d="M1434 688q0 -158 -52 -288.5t-142 -225t-212 -146.5t-262 -52q-92 0 -175.5 25t-155.5 71t-130.5 111t-99.5 144t-63.5 170.5t-22.5 190.5q0 161 47.5 300t134 241t208 160.5t269.5 58.5q151 0 272.5 -58t207 -160t131 -241t45.5 -301zM1327 688q0 139 -38 260.5 t-109 211.5t-173 142t-229 52q-93 0 -170 -26t-138.5 -71.5t-107.5 -108.5t-76.5 -137t-45.5 -156.5t-15 -166.5q0 -125 37.5 -237t107.5 -196.5t170.5 -134.5t225.5 -50q131 0 235 48.5t176.5 132.5t111 196.5t38.5 240.5z" />
<glyph unicode="P" horiz-adv-x="1325" d="M1184 1018q0 -90 -30 -164t-87 -127t-138.5 -82t-183.5 -29h-448v-616h-100v1423h532q98 0 181.5 -27.5t144 -79.5t95 -127.5t34.5 -170.5zM1077 1018q0 81 -29.5 140.5t-79 99.5t-113 59.5t-130.5 19.5h-428v-635h432q77 0 141 21t110 61t71.5 99t25.5 135z" />
<glyph unicode="Q" horiz-adv-x="1618" d="M1536 -120q-44 19 -92.5 44t-97 54.5t-95.5 63t-88 69.5q-95 -71 -192.5 -99.5t-194.5 -28.5q-145 0 -266 55.5t-208 152t-135 226t-48 277.5q0 107 21 204.5t61.5 181t98 152t131 116.5t161 74t186.5 26q157 0 279.5 -55t206 -153t127 -232.5t43.5 -294.5 q0 -152 -51 -286t-148 -249q40 -28 81 -52.5t80.5 -45t75 -37.5t64.5 -29v-134zM1327 713q0 126 -36.5 242t-106 205.5t-172 142.5t-234.5 53q-95 0 -172.5 -25t-139 -70t-107 -107t-75.5 -136t-44.5 -157t-14.5 -169q0 -124 36.5 -236t106.5 -197t172.5 -135t235.5 -50 q138 0 241.5 53t172.5 141.5t103 204t34 240.5z" />
<glyph unicode="R" horiz-adv-x="1370" d="M1235 0h-141l-793 680v-680h-100v1423h526q99 0 181.5 -23t142 -71.5t92.5 -123t33 -177.5q0 -105 -37 -178.5t-100.5 -119t-147.5 -66.5t-178 -21h-219zM1069 1028q0 86 -30.5 145.5t-80 96t-113 53t-130.5 16.5h-414v-612h408q72 0 137 14t114.5 48.5t79 92.5t29.5 146 z" />
<glyph unicode="S" horiz-adv-x="1325" d="M1180 340q0 -88 -33 -155.5t-93.5 -114t-147.5 -70.5t-195 -24q-118 0 -243.5 25t-246.5 62l6 97q57 -19 118 -36t124 -30t126.5 -20.5t125.5 -7.5q64 0 128.5 14.5t116 46.5t83.5 82.5t32 122.5q0 73 -24.5 127.5t-65.5 93.5t-95 64t-112 40l-249 62q-180 45 -263.5 136 t-83.5 228q0 75 25 141.5t79 115.5t139 77.5t204 28.5q64 0 121 -4.5t110 -12.5t102 -18.5t97 -21.5l-6 -95q-96 26 -206 47t-224 21q-62 0 -124 -14t-111.5 -46t-80 -84t-30.5 -128q0 -104 65.5 -170t190.5 -97l278 -69q86 -21 153.5 -58.5t114 -89.5t71 -118.5 t24.5 -147.5z" />
<glyph unicode="T" horiz-adv-x="1214" d="M1110 1337h-451v-1337h-100v1337h-448v86h999v-86z" />
<glyph unicode="U" horiz-adv-x="1436" d="M1235 553q0 -154 -37 -263.5t-105.5 -179t-165 -102t-216.5 -32.5q-119 0 -214 32t-161.5 99.5t-102.5 172.5t-36 250v893h100v-870q0 -245 102.5 -367.5t311.5 -122.5q103 0 182.5 27t133 85.5t81 149t27.5 218.5v880h100v-870z" />
<glyph unicode="V" horiz-adv-x="1370" d="M1229 1423l-516 -1423h-111l-510 1423h111l454 -1317l473 1317h99z" />
<glyph unicode="W" horiz-adv-x="1944" d="M1888 1423l-407 -1423h-125l-389 1294l-392 -1294h-122l-387 1423h90l356 -1323l399 1303h111l397 -1303l377 1323h92z" />
<glyph unicode="X" horiz-adv-x="1364" d="M1249 1423l-522 -698l504 -725h-125l-438 647l-455 -647h-117l518 721l-514 702h115l457 -624l471 624h106z" />
<glyph unicode="Y" horiz-adv-x="1329" d="M1210 1423l-512 -749v-674h-100v674l-512 749h123l446 -653l441 653h114z" />
<glyph unicode="Z" horiz-adv-x="1214" d="M1120 0h-1069l848 1337h-754v86h922l-852 -1337h905v-86z" />
<glyph unicode="[" horiz-adv-x="569" d="M500 -325h-324v1873h324v-78h-217v-1715h217v-80z" />
<glyph unicode="\" horiz-adv-x="686" d="M543 -24l-473 1470h80l473 -1470h-80z" />
<glyph unicode="]" horiz-adv-x="569" d="M399 -325h-323v80h217v1715h-217v78h323v-1873z" />
<glyph unicode="^" horiz-adv-x="961" d="M807 690l-328 699l-321 -699h-105l369 801h125l360 -801h-100z" />
<glyph unicode="_" horiz-adv-x="1139" d="M1161 -308v-99h-1191v99h1191z" />
<glyph unicode="a" horiz-adv-x="1128" d="M944 2h-94l-6 111q-58 -46 -114 -72.5t-104.5 -40.5t-88 -18t-64.5 -4q-74 0 -138 20t-111 58.5t-74 95t-27 130.5q0 73 26 137.5t88.5 114.5t165.5 82.5t257 41.5l182 11q0 9 -0.5 26.5t-0.5 36.5t-0.5 36t-0.5 25q-2 75 -23.5 122.5t-59 74t-88 36.5t-110.5 10 q-19 0 -53 -3t-78.5 -10t-98.5 -18.5t-112 -29.5l-4 92q53 17 105.5 28.5t100 18t86 9.5t62.5 3q77 0 145.5 -14t120 -55t81.5 -114.5t30 -192.5v-748zM844 206v383l-162 -10q-128 -8 -214.5 -31t-139 -59.5t-75 -87.5t-22.5 -115q0 -58 23 -99t59.5 -66.5t83 -37 t93.5 -11.5q75 0 164.5 30.5t189.5 103.5z" />
<glyph unicode="b" horiz-adv-x="1184" d="M1051 541q0 -114 -30.5 -216t-90.5 -179t-148 -122.5t-202 -45.5q-25 0 -60.5 5t-76 18.5t-83 38t-79.5 62.5l-7 -100h-88v1522h95v-514q46 27 89.5 44.5t83 28t73.5 15t61 4.5q115 0 202 -44t145 -120.5t87 -178.5t29 -218zM952 520q0 45 -4.5 92.5t-16 94t-30.5 90.5 t-47 82q-26 34 -58.5 58t-68.5 40t-74 23.5t-73 7.5q-69 0 -150 -25t-154 -76v-700q68 -71 146.5 -102t152.5 -31q80 0 149 28t119.5 83.5t79.5 139.5t29 195z" />
<glyph unicode="c" horiz-adv-x="1055" d="M913 51q-69 -39 -140.5 -54.5t-137.5 -15.5q-103 0 -196.5 35t-164.5 106t-113 177.5t-42 249.5q0 146 46 254.5t122.5 180.5t174.5 108t202 36q26 0 58.5 -3.5t66 -10t66 -16.5t58.5 -23l-2 -94q-30 11 -62.5 20t-64.5 15.5t-61 10t-53 3.5q-45 0 -95.5 -10.5 t-100 -33.5t-95.5 -60t-81 -90.5t-56 -124.5t-21 -162q0 -131 39 -220.5t102 -145.5t141 -80.5t156 -24.5q29 0 62 5t66 13t65.5 19.5t60.5 23.5v-88z" />
<glyph unicode="d" horiz-adv-x="1184" d="M985 2h-88l-6 100q-44 -36 -87 -60t-82 -38t-72.5 -20t-57.5 -6q-114 0 -202 42t-148 116.5t-90.5 178t-30.5 226.5q0 116 29 218t87 178.5t144.5 120.5t202.5 44q27 0 61 -4.5t73 -15t83 -28t90 -44.5v514h94v-1522zM895 207v700q-36 25 -75 44t-78.5 32t-77.5 19t-72 6 q-35 0 -73 -7.5t-74.5 -23.5t-69.5 -40t-58 -58q-28 -38 -47 -82t-30 -90.5t-16 -94t-5 -92.5q0 -111 29 -195t79.5 -139.5t119.5 -83.5t149 -28q74 0 148 33.5t151 99.5z" />
<glyph unicode="e" horiz-adv-x="1167" d="M1028 516l-811 -4q9 -134 49.5 -220t101 -135.5t134.5 -68t151 -18.5q56 0 137.5 22.5t184.5 85.5l2 -90q-42 -33 -91 -54t-94.5 -32.5t-83.5 -16t-59 -4.5q-111 0 -208 35t-168.5 105t-112.5 175.5t-41 246.5q0 124 32 231t92 185.5t146.5 123.5t196.5 45q106 0 188 -40 t138.5 -113.5t86 -177t29.5 -230.5v-51zM926 598q0 88 -20.5 168.5t-63.5 141t-109.5 96.5t-157.5 36q-84 0 -149 -40t-109.5 -104t-68 -142.5t-23.5 -155.5h701z" />
<glyph unicode="f" horiz-adv-x="678" d="M649 1534l-4 -92q-8 2 -16.5 3t-16.5 3q-27 5 -51.5 8.5t-38.5 3.5q-52 0 -88.5 -14.5t-60 -41.5t-33.5 -65t-10 -84l2 -178h284v-90h-282l4 -987h-94l-4 987h-162v90h162l-2 183q-1 60 12.5 112.5t44.5 92t80 62.5t119 23q31 0 73 -4t82 -12z" />
<glyph unicode="g" horiz-adv-x="1167" d="M977 33q0 -134 -35 -226t-96.5 -148.5t-146 -81.5t-183.5 -25q-20 0 -52 3.5t-69.5 11.5t-78.5 20t-78 29l2 92q68 -28 136 -46.5t130 -18.5q48 0 96 6t91.5 23.5t80 50t62 86.5t37.5 132t6 186q-79 -50 -157 -75t-147 -25q-219 0 -330.5 135.5t-111.5 404.5 q0 130 32.5 234t91.5 177t143 111.5t186 38.5q23 0 55.5 -3t71.5 -14t84.5 -32t93.5 -57l2 82h84v-1071zM887 225v699q-31 23 -68.5 44.5t-77.5 38.5t-81 27t-78 10q-80 0 -144.5 -32t-110 -92t-70 -147t-24.5 -198q0 -90 16.5 -174.5t56 -150t106.5 -105t168 -39.5 q36 0 76.5 10t81 26.5t79 38t70.5 44.5z" />
<glyph unicode="h" horiz-adv-x="1184" d="M993 0h-94v696q0 166 -62.5 240t-195.5 74q-25 0 -59.5 -4.5t-79.5 -17t-100 -34.5t-121 -57v-897h-95v1524h95v-535q103 53 195.5 84t170.5 31q97 0 163 -27.5t106.5 -80t58.5 -128t18 -172.5v-696z" />
<glyph unicode="i" horiz-adv-x="473" d="M283 1352h-95v172h95v-172zM283 0h-95v1077h95v-1077z" />
<glyph unicode="j" horiz-adv-x="473" d="M281 1352h-95v172h95v-172zM281 -110q0 -77 -15.5 -139.5t-48 -106.5t-82 -68t-117.5 -24q-26 0 -52 4.5t-57 12.5l4 90q12 -2 27 -3.5t29 -2.5t25.5 -1.5t17.5 -0.5q87 0 130.5 52.5t43.5 168.5v1211h95v-1193z" />
<glyph unicode="k" horiz-adv-x="1065" d="M973 0h-117l-422 586l-151 -164v-422h-95v1524h95v-969l514 522h125l-422 -428z" />
<glyph unicode="l" horiz-adv-x="473" d="M276 0h-94v1524h94v-1524z" />
<glyph unicode="m" horiz-adv-x="1774" d="M1591 0h-94v762q0 67 -13 118t-42 85.5t-74.5 52.5t-110.5 18q-36 0 -76.5 -9.5t-82 -28.5t-82.5 -49t-78 -70v-879h-96v772q0 120 -56.5 189t-173.5 69q-38 0 -81 -11t-86.5 -31.5t-85.5 -50t-78 -67.5v-870h-95v1104l97 2v-137q48 48 95.5 79t91 49t81.5 24.5t67 6.5 q41 0 83 -8t80.5 -27.5t71 -52.5t54.5 -82q84 82 174.5 126t184.5 44q73 0 132.5 -20t102.5 -62t66.5 -108.5t23.5 -159.5v-778z" />
<glyph unicode="n" horiz-adv-x="1184" d="M991 0h-94v727q0 51 -8.5 105t-36 98t-78.5 72t-135 28q-37 0 -83 -9.5t-94 -28t-95 -46t-86 -63.5v-883h-95v1104l95 2l4 -115q56 40 110 66.5t102.5 42t89 22t70.5 6.5q75 0 136.5 -21.5t105.5 -66.5t68 -115t24 -167v-758z" />
<glyph unicode="o" horiz-adv-x="1184" d="M1079 569q0 -131 -32.5 -240t-95.5 -187.5t-154.5 -122t-208.5 -43.5q-114 0 -205.5 42.5t-155 118.5t-97.5 182t-34 234q0 127 34.5 232.5t98 181.5t154.5 118.5t205 42.5t204.5 -41.5t154.5 -116t98 -177t34 -224.5zM979 559q0 85 -22.5 170.5t-69.5 154t-121.5 111.5 t-177.5 43q-106 0 -180.5 -43.5t-121 -112.5t-68 -155.5t-21.5 -173.5q0 -59 10.5 -118t31 -114.5t52.5 -103.5t75.5 -83.5t98 -56t121.5 -20.5q108 0 183 46t121.5 119t67.5 162t21 175z" />
<glyph unicode="p" horiz-adv-x="1184" d="M1051 573q0 -115 -29 -219t-87 -182.5t-145 -125t-202 -46.5q-27 0 -61 4.5t-73.5 15.5t-83 29t-89.5 45v-515h-95v1523h88l7 -101q43 36 86 60.5t82 38.5t72.5 20t58.5 6q114 0 202 -43t148 -117.5t90.5 -175.5t30.5 -217zM952 565q0 111 -29 198t-79.5 146t-119.5 90 t-149 31q-74 0 -149 -37t-150 -96v-700q73 -51 154 -76t150 -25q35 0 73 7t74 22.5t69 39.5t58 58q57 77 77.5 164.5t20.5 177.5z" />
<glyph unicode="q" horiz-adv-x="1184" d="M985 -421h-96v515q-92 -53 -173 -73.5t-134 -20.5q-116 0 -202.5 44t-144.5 121t-87 181.5t-29 226.5q0 116 30.5 217t90.5 175.5t148.5 117.5t203.5 43q24 0 56.5 -6t71.5 -20t82.5 -38.5t88.5 -60.5l6 101h88v-1523zM895 197v700q-75 59 -151 96t-150 37 q-80 0 -148.5 -31t-119 -90t-79 -146t-28.5 -198q0 -90 20 -177.5t76 -164.5q25 -34 58 -58t69.5 -39.5t74.5 -22.5t73 -7q68 0 149.5 25t155.5 76z" />
<glyph unicode="r" horiz-adv-x="709" d="M639 1098l-4 -115q-26 8 -51 15.5t-39 7.5q-63 0 -133 -44t-133 -141v-821h-95v752q0 22 -0.5 63.5t-1.5 91.5t-1.5 102t-0.5 95h92l9 -160q43 55 84.5 88.5t78 51t66.5 23t49 5.5q16 0 38.5 -4t41.5 -10z" />
<glyph unicode="s" horiz-adv-x="1024" d="M895 264q0 -69 -29 -122.5t-79.5 -90.5t-117.5 -56t-143 -19q-42 0 -89 5.5t-93.5 16.5t-91.5 27.5t-82 37.5l2 97q34 -17 73.5 -34t83 -31t90.5 -23t95 -9t98 10.5t90.5 34t66.5 61t26 91.5q0 63 -24.5 106.5t-65 73.5t-92.5 50t-107 36q-89 25 -156.5 54t-113.5 67 t-69.5 88.5t-23.5 118.5q0 70 27.5 122t76 85.5t114.5 50t143 16.5q81 0 157.5 -19t147.5 -56l-2 -90q-62 29 -139.5 53t-171.5 24q-39 0 -85.5 -9t-86.5 -30t-66.5 -55.5t-26.5 -85.5q0 -48 20.5 -84t57.5 -64t89 -49.5t116 -41.5q84 -26 154 -56.5t120.5 -72t78.5 -97 t28 -131.5z" />
<glyph unicode="t" horiz-adv-x="633" d="M555 14q-28 -13 -60 -20t-55 -7q-69 0 -114.5 19.5t-73 56.5t-38.5 90t-11 121v719h-149v88h149v277l94 55v-332h227v-88h-227v-729q0 -84 35.5 -133t120.5 -49q14 0 44.5 7t55.5 15z" />
<glyph unicode="u" horiz-adv-x="1184" d="M987 0l-94 -1l-4 114q-56 -40 -110 -66.5t-102.5 -42t-89.5 -22t-71 -6.5q-75 0 -137 21.5t-105.5 66.5t-67.5 115t-24 167v758h94v-727q0 -51 8.5 -105t36 -98t78.5 -72t136 -28q36 0 81.5 9.5t93.5 28t95 46t86 63.5v883h96v-1104z" />
<glyph unicode="v" horiz-adv-x="1098" d="M979 1104l-389 -1104h-103l-389 1104h103l344 -995l336 995h98z" />
<glyph unicode="w" horiz-adv-x="1642" d="M1548 1104l-313 -1104h-129l-295 1020l-301 -1020h-127l-309 1104h96l281 -1018l288 1010h144l286 -1010l293 1018h86z" />
<glyph unicode="x" horiz-adv-x="1065" d="M981 0h-117l-332 498l-344 -498h-104l391 563l-358 541h110l297 -463l318 463h100l-360 -529z" />
<glyph unicode="y" horiz-adv-x="1065" d="M995 1104l-422 -1171q-28 -78 -62.5 -144t-79 -114.5t-101 -76t-127.5 -27.5q-33 0 -76 12l6 78q28 -6 57 -6q41 0 77.5 15t67.5 40.5t56 59t43 69.5q17 35 38 88t40 108l-428 1069h100l379 -957l336 957h96z" />
<glyph unicode="z" horiz-adv-x="1065" d="M909 0h-788l622 1026h-571v78h719l-621 -1014h639v-90z" />
<glyph unicode="{" horiz-adv-x="684" d="M580 -261v-86h-21q-105 0 -169 25.5t-101 68.5q-48 54 -62 141t9 200q8 47 17 89.5t17 80.5q8 35 12.5 69.5t0.5 59.5q-7 42 -29.5 72.5t-54 51t-69.5 32.5t-77 18v101q37 6 74.5 21t69 38t54.5 54t32 69q5 21 2 54t-13 75q-8 35 -18 77t-18 87q-23 120 -9.5 208 t66.5 142q38 40 102 63t164 23h21v-86q-70 -2 -122.5 -17.5t-86.5 -52.5q-27 -29 -40.5 -66t-16.5 -81t3.5 -94.5t18.5 -104.5q16 -71 23 -123t7.5 -90t-5.5 -63.5t-15 -44.5q-9 -18 -27.5 -37t-43 -37t-53.5 -34.5t-60 -29.5q29 -4 58 -17t54 -31t44 -38.5t28 -38.5 q9 -19 15 -46.5t5.5 -67.5t-7.5 -94t-23 -125q-12 -53 -18.5 -102t-5 -92t13.5 -80t36 -65q36 -42 91 -58t127 -18z" />
<glyph unicode="|" horiz-adv-x="532" d="M303 1577v-1922h-74v1922h74z" />
<glyph unicode="}" horiz-adv-x="684" d="M84 1487v86h18q101 0 165 -23.5t102 -62.5q102 -110 57 -350q-8 -45 -17.5 -87t-17.5 -77q-9 -42 -13 -75t1 -54q8 -38 31 -69t55 -54t69.5 -38t75.5 -21v-101q-39 -6 -77.5 -18t-70.5 -32.5t-54.5 -51t-28.5 -72.5q-4 -25 0.5 -59.5t11.5 -69.5q8 -38 17.5 -81t17.5 -89 q21 -114 8 -200.5t-61 -140.5q-38 -43 -102 -68.5t-169 -25.5h-18v86q71 2 125.5 18t89.5 58q24 28 36.5 65t14.5 80t-4 92t-18 102q-17 71 -24 124t-8 91.5t4.5 65t14.5 44.5q9 19 29 38.5t46 37.5t55 32.5t57 24.5q-27 9 -56 24.5t-55 34.5t-46.5 39.5t-29.5 39.5 q-9 18 -14.5 44t-4.5 63.5t8 89.5t24 124q12 54 18 104.5t3 94.5t-16.5 81.5t-39.5 65.5q-35 38 -88 53t-121 17z" />
<glyph unicode="~" horiz-adv-x="1196" d="M834 596q-55 0 -107 12q-25 6 -66.5 23t-101.5 43t-112 40.5t-99 14.5q-74 0 -137 -31q-20 -9 -41.5 -24t-46.5 -35v109q48 49 107 73.5t135 24.5q27 0 56 -5.5t60 -13.5q32 -8 78 -24t105 -41q37 -16 64 -26t44 -15q39 -10 80 -10q38 0 76 12t76 33q36 19 69 45v-111 q-56 -50 -112.5 -72t-126.5 -22z" />
<glyph unicode="&#xa2;" horiz-adv-x="874" d="M769 299q-79 -319 -330 -319q-67 0 -137 30l-121 -334h-61l133 365q-143 135 -143 346q0 216 133 334q103 88 233 88q10 0 23 -0.5t30 -1.5l119 328h62l-123 -344q157 -72 157 -175q0 -71 -79 -71q-49 0 -74 33q-12 17 -21 59q-10 55 -16 65l-195 -538q79 -53 140 -53 q110 0 174 73q25 33 69 125zM507 739q-27 11 -51 11q-109 0 -164 -97q-45 -80 -45 -196q0 -117 67 -244z" />
<glyph unicode="&#xa3;" horiz-adv-x="874" d="M836 258q-15 -113 -72 -188q-68 -90 -174 -90q-72 0 -150 45q-15 9 -47 32t-82 60q-68 -137 -159 -137q-46 0 -73.5 31t-27.5 79q0 30 10.5 54.5t29.5 42t45 27t57 9.5q27 0 71 -6q1 6 2 15t2 22v29q0 74 -18 280h-166v82h166q-12 127 -12 170q0 225 159 324 q72 45 158 45q82 0 145 -45q72 -50 72 -129q0 -14 -5.5 -26.5t-15 -23t-21.5 -16.5t-25 -6q-33 0 -54 33q-9 12 -14 69q-4 51 -28.5 74t-73.5 23q-156 0 -156 -240q0 -29 2.5 -68.5t7.5 -91.5l8 -92h221v-82h-221q1 -20 1.5 -34t0.5 -23q0 -148 -53 -307q162 -54 191 -60 q43 -10 88 -10q141 0 180 137zM254 147q-38 23 -72 23q-82 0 -82 -74q0 -67 56 -67q70 0 98 118z" />
<glyph unicode="&#xa7;" horiz-adv-x="874" d="M741 412q0 -179 -188 -293q104 -116 104 -217q0 -103 -69 -173q-68 -71 -172 -71q-83 0 -150 56q-65 56 -65 136q0 15 5.5 28.5t14.5 24t21 17t26 6.5q64 0 64 -76q0 -14 -8 -46q-7 -29 -7 -46q0 -32 37 -51q31 -16 66 -16q58 0 104 43q47 44 47 98q0 109 -176 240 q-122 91 -174 153q-88 100 -88 205q0 175 189 291q-105 117 -105 221q0 101 69 172q70 70 173 70q86 0 151 -54q66 -53 66 -135q0 -77 -68 -77q-67 0 -67 67q0 11 6 40q6 28 6 42q0 80 -94 80q-62 0 -105 -43t-43 -107q0 -55 23 -90q38 -60 129 -125q125 -92 184 -157 q94 -104 94 -213zM655 332q0 119 -192 268q-37 29 -65 52t-48 42q-129 -78 -129 -190q0 -80 66 -158q20 -23 53.5 -51.5t79.5 -63.5q31 -23 56.5 -44.5t47.5 -41.5q131 78 131 187z" />
<glyph unicode="&#xa9;" horiz-adv-x="1421" d="M1378 651q0 -142 -44.5 -261.5t-143.5 -219.5q-199 -199 -481 -199q-284 0 -480 199q-99 100 -142.5 219.5t-43.5 261.5q0 285 193 477q198 199 473 199q282 0 481 -199q99 -99 143.5 -216.5t44.5 -260.5zM1282 651q0 123 -37 222.5t-123 185.5q-176 176 -413 176 q-240 0 -412 -172q-86 -86 -123 -187.5t-37 -224.5t37 -226t123 -189q168 -173 412 -173q240 0 413 173q86 86 123 189t37 226zM967 319q0 -12 -5.5 -23t-27.5 -20q-45 -14 -103.5 -25t-111.5 -11q-90 0 -154.5 15t-111.5 62q-24 24 -42.5 52.5t-31 67t-19 91.5t-6.5 127 q0 78 9.5 134.5t26.5 97.5t41.5 69.5t53.5 51.5q45 32 100.5 44.5t133.5 12.5q30 0 60.5 -3t60 -8.5t56.5 -12t48 -13.5q27 -6 27 -35v-35q0 -16 -6.5 -22t-26.5 -2q-26 6 -56 11.5t-62 10.5t-60 8t-53 3q-53 0 -96 -14.5t-74.5 -43t-48.5 -71t-17 -97.5v-180q0 -55 17 -97 t47.5 -70t74 -42t97.5 -14q75 0 125.5 9t95.5 18q39 7 39 -19v-27z" />
<glyph unicode="&#xab;" horiz-adv-x="1024" d="M961 -8h-60l-393 473l393 469h60l-244 -469zM508 -8h-57l-388 473l388 469h57l-244 -469z" />
<glyph unicode="&#xad;" horiz-adv-x="791" d="M692 590h-600v96h600v-96z" />
<glyph unicode="&#xb6;" horiz-adv-x="792" d="M797 1112h-115v-1491h-61v1491h-160v-1491h-62v893q-137 6 -209 31q-108 34 -159 125q-43 74 -43 170q0 189 170 278q84 41 215 41h424v-47z" />
<glyph unicode="&#xb7;" horiz-adv-x="512" d="M367 678q0 -48 -31.5 -79.5t-79.5 -31.5q-45 0 -78 33t-33 78q0 48 31.5 79t79.5 31t79.5 -31t31.5 -79z" />
<glyph unicode="&#xbb;" horiz-adv-x="1024" d="M961 463l-388 -471h-57l244 471l-244 471h57zM516 463l-393 -471h-60l244 471l-244 471h60z" />
<glyph unicode="&#xbc;" horiz-adv-x="1312" d="M1283 123h-92v-158h-100v158h-293v61l319 398h74v-389h92v-70zM1103 1184l-799 -1231h-76l799 1231h76zM405 567h-277v29q74 0 82 18q4 9 4 64v319q0 87 -12 101q-5 4 -17 4q-17 0 -57 -17l-14 23l176 76h28v-506q0 -51 7 -64q10 -18 80 -18v-29zM1091 193v268l-224 -268 h224z" />
<glyph unicode="&#xbd;" horiz-adv-x="1312" d="M1277 96l-53 -131h-422v27q323 251 323 389q0 55 -35.5 89t-89.5 34q-103 0 -141 -101h-39q27 179 207 179q78 0 137 -41q68 -45 68 -119q0 -134 -293 -373h160q110 0 139 47h39zM1082 1184l-798 -1231h-76l799 1231h75zM405 567h-277v29q74 0 82 18q4 9 4 64v319 q0 87 -12 101q-5 4 -17 4q-17 0 -57 -17l-14 23l176 76h28v-506q0 -51 7 -64q10 -18 80 -18v-29z" />
<glyph unicode="&#xbe;" horiz-adv-x="1312" d="M1283 123h-92v-158h-100v158h-293v61l319 398h74v-389h92v-70zM1091 1184l-797 -1231h-76l799 1231h74zM445 770q0 -107 -92 -166q-79 -49 -192 -49q-125 0 -125 53q0 39 49 39q23 0 71 -21q49 -20 76 -20q47 0 82 33t35 80q0 145 -198 141v25q59 0 107 36q48 37 48 97 q0 94 -104 94q-73 0 -125 -76l-33 15q66 133 197 133q63 0 112 -31q58 -37 58 -96q0 -58 -90 -131q124 -45 124 -156zM1091 193v268l-222 -268h222z" />
<glyph unicode="&#xd7;" horiz-adv-x="987" d="M844 281l-49 -50l-303 304l-302 -304l-49 50l301 301l-301 301l52 49l299 -299l301 299l49 -47l-301 -301z" />
<glyph unicode="&#xf7;" horiz-adv-x="1124" d="M648 987q0 -18 -7 -33.5t-19 -27t-28 -18.5t-34 -7t-34 7t-28 18.5t-19 27t-7 33.5q0 37 25.5 62.5t62.5 25.5q39 0 63.5 -24.5t24.5 -63.5zM1101 641h-1079v82h1079v-82zM648 367q0 -37 -25.5 -62.5t-62.5 -25.5q-18 0 -34 7t-28 19t-19 28t-7 34t7 34t19 28t28 19t34 7 q39 0 63.5 -26t24.5 -62z" />
<glyph unicode="&#x591;" horiz-adv-x="756" d="M657 770q0 -119 -83 -202t-203 -83q-118 0 -200 84q-83 85 -83 201q0 118 83 203q82 84 200 84q120 0 203 -84q83 -85 83 -203zM578 770q0 88 -60 148q-58 61 -147 61q-86 0 -146 -61q-59 -61 -59 -148q0 -84 59 -146q60 -61 146 -61q89 0 147 61q60 61 60 146z" />
<glyph unicode="&#x592;" horiz-adv-x="756" d="M657 770q0 -119 -83 -202t-203 -83q-118 0 -200 84q-83 85 -83 201q0 118 83 203q82 84 200 84q120 0 203 -84q83 -85 83 -203zM578 770q0 88 -60 148q-58 61 -147 61q-86 0 -146 -61q-59 -61 -59 -148q0 -84 59 -146q60 -61 146 -61q89 0 147 61q60 61 60 146z" />
<glyph unicode="&#x593;" horiz-adv-x="756" d="M657 770q0 -119 -83 -202t-203 -83q-118 0 -200 84q-83 85 -83 201q0 118 83 203q82 84 200 84q120 0 203 -84q83 -85 83 -203zM578 770q0 88 -60 148q-58 61 -147 61q-86 0 -146 -61q-59 -61 -59 -148q0 -84 59 -146q60 -61 146 -61q89 0 147 61q60 61 60 146z" />
<glyph unicode="&#x594;" horiz-adv-x="756" d="M657 770q0 -119 -83 -202t-203 -83q-118 0 -200 84q-83 85 -83 201q0 118 83 203q82 84 200 84q120 0 203 -84q83 -85 83 -203zM578 770q0 88 -60 148q-58 61 -147 61q-86 0 -146 -61q-59 -61 -59 -148q0 -84 59 -146q60 -61 146 -61q89 0 147 61q60 61 60 146z" />
<glyph unicode="&#x595;" horiz-adv-x="756" d="M657 770q0 -119 -83 -202t-203 -83q-118 0 -200 84q-83 85 -83 201q0 118 83 203q82 84 200 84q120 0 203 -84q83 -85 83 -203zM578 770q0 88 -60 148q-58 61 -147 61q-86 0 -146 -61q-59 -61 -59 -148q0 -84 59 -146q60 -61 146 -61q89 0 147 61q60 61 60 146z" />
<glyph unicode="&#x596;" horiz-adv-x="756" d="M657 770q0 -119 -83 -202t-203 -83q-118 0 -200 84q-83 85 -83 201q0 118 83 203q82 84 200 84q120 0 203 -84q83 -85 83 -203zM578 770q0 88 -60 148q-58 61 -147 61q-86 0 -146 -61q-59 -61 -59 -148q0 -84 59 -146q60 -61 146 -61q89 0 147 61q60 61 60 146z" />
<glyph unicode="&#x597;" horiz-adv-x="756" d="M657 770q0 -119 -83 -202t-203 -83q-118 0 -200 84q-83 85 -83 201q0 118 83 203q82 84 200 84q120 0 203 -84q83 -85 83 -203zM578 770q0 88 -60 148q-58 61 -147 61q-86 0 -146 -61q-59 -61 -59 -148q0 -84 59 -146q60 -61 146 -61q89 0 147 61q60 61 60 146z" />
<glyph unicode="&#x598;" horiz-adv-x="756" d="M657 770q0 -119 -83 -202t-203 -83q-118 0 -200 84q-83 85 -83 201q0 118 83 203q82 84 200 84q120 0 203 -84q83 -85 83 -203zM578 770q0 88 -60 148q-58 61 -147 61q-86 0 -146 -61q-59 -61 -59 -148q0 -84 59 -146q60 -61 146 -61q89 0 147 61q60 61 60 146z" />
<glyph unicode="&#x599;" horiz-adv-x="756" d="M657 770q0 -119 -83 -202t-203 -83q-118 0 -200 84q-83 85 -83 201q0 118 83 203q82 84 200 84q120 0 203 -84q83 -85 83 -203zM578 770q0 88 -60 148q-58 61 -147 61q-86 0 -146 -61q-59 -61 -59 -148q0 -84 59 -146q60 -61 146 -61q89 0 147 61q60 61 60 146z" />
<glyph unicode="&#x59a;" horiz-adv-x="756" d="M657 770q0 -119 -83 -202t-203 -83q-118 0 -200 84q-83 85 -83 201q0 118 83 203q82 84 200 84q120 0 203 -84q83 -85 83 -203zM578 770q0 88 -60 148q-58 61 -147 61q-86 0 -146 -61q-59 -61 -59 -148q0 -84 59 -146q60 -61 146 -61q89 0 147 61q60 61 60 146z" />
<glyph unicode="&#x59b;" horiz-adv-x="756" d="M657 770q0 -119 -83 -202t-203 -83q-118 0 -200 84q-83 85 -83 201q0 118 83 203q82 84 200 84q120 0 203 -84q83 -85 83 -203zM578 770q0 88 -60 148q-58 61 -147 61q-86 0 -146 -61q-59 -61 -59 -148q0 -84 59 -146q60 -61 146 -61q89 0 147 61q60 61 60 146z" />
<glyph unicode="&#x59c;" horiz-adv-x="756" d="M657 770q0 -119 -83 -202t-203 -83q-118 0 -200 84q-83 85 -83 201q0 118 83 203q82 84 200 84q120 0 203 -84q83 -85 83 -203zM578 770q0 88 -60 148q-58 61 -147 61q-86 0 -146 -61q-59 -61 -59 -148q0 -84 59 -146q60 -61 146 -61q89 0 147 61q60 61 60 146z" />
<glyph unicode="&#x59d;" horiz-adv-x="756" d="M657 770q0 -119 -83 -202t-203 -83q-118 0 -200 84q-83 85 -83 201q0 118 83 203q82 84 200 84q120 0 203 -84q83 -85 83 -203zM578 770q0 88 -60 148q-58 61 -147 61q-86 0 -146 -61q-59 -61 -59 -148q0 -84 59 -146q60 -61 146 -61q89 0 147 61q60 61 60 146z" />
<glyph unicode="&#x59e;" horiz-adv-x="756" d="M657 770q0 -119 -83 -202t-203 -83q-118 0 -200 84q-83 85 -83 201q0 118 83 203q82 84 200 84q120 0 203 -84q83 -85 83 -203zM578 770q0 88 -60 148q-58 61 -147 61q-86 0 -146 -61q-59 -61 -59 -148q0 -84 59 -146q60 -61 146 -61q89 0 147 61q60 61 60 146z" />
<glyph unicode="&#x59f;" horiz-adv-x="756" d="M657 770q0 -119 -83 -202t-203 -83q-118 0 -200 84q-83 85 -83 201q0 118 83 203q82 84 200 84q120 0 203 -84q83 -85 83 -203zM578 770q0 88 -60 148q-58 61 -147 61q-86 0 -146 -61q-59 -61 -59 -148q0 -84 59 -146q60 -61 146 -61q89 0 147 61q60 61 60 146z" />
<glyph unicode="&#x5a0;" horiz-adv-x="756" d="M657 770q0 -119 -83 -202t-203 -83q-118 0 -200 84q-83 85 -83 201q0 118 83 203q82 84 200 84q120 0 203 -84q83 -85 83 -203zM578 770q0 88 -60 148q-58 61 -147 61q-86 0 -146 -61q-59 -61 -59 -148q0 -84 59 -146q60 -61 146 -61q89 0 147 61q60 61 60 146z" />
<glyph unicode="&#x5a1;" horiz-adv-x="756" d="M657 770q0 -119 -83 -202t-203 -83q-118 0 -200 84q-83 85 -83 201q0 118 83 203q82 84 200 84q120 0 203 -84q83 -85 83 -203zM578 770q0 88 -60 148q-58 61 -147 61q-86 0 -146 -61q-59 -61 -59 -148q0 -84 59 -146q60 -61 146 -61q89 0 147 61q60 61 60 146z" />
<glyph unicode="&#x5a3;" horiz-adv-x="756" d="M657 770q0 -119 -83 -202t-203 -83q-118 0 -200 84q-83 85 -83 201q0 118 83 203q82 84 200 84q120 0 203 -84q83 -85 83 -203zM578 770q0 88 -60 148q-58 61 -147 61q-86 0 -146 -61q-59 -61 -59 -148q0 -84 59 -146q60 -61 146 -61q89 0 147 61q60 61 60 146z" />
<glyph unicode="&#x5a4;" horiz-adv-x="756" d="M657 770q0 -119 -83 -202t-203 -83q-118 0 -200 84q-83 85 -83 201q0 118 83 203q82 84 200 84q120 0 203 -84q83 -85 83 -203zM578 770q0 88 -60 148q-58 61 -147 61q-86 0 -146 -61q-59 -61 -59 -148q0 -84 59 -146q60 -61 146 -61q89 0 147 61q60 61 60 146z" />
<glyph unicode="&#x5a5;" horiz-adv-x="756" d="M657 770q0 -119 -83 -202t-203 -83q-118 0 -200 84q-83 85 -83 201q0 118 83 203q82 84 200 84q120 0 203 -84q83 -85 83 -203zM578 770q0 88 -60 148q-58 61 -147 61q-86 0 -146 -61q-59 -61 -59 -148q0 -84 59 -146q60 -61 146 -61q89 0 147 61q60 61 60 146z" />
<glyph unicode="&#x5a6;" horiz-adv-x="756" d="M657 770q0 -119 -83 -202t-203 -83q-118 0 -200 84q-83 85 -83 201q0 118 83 203q82 84 200 84q120 0 203 -84q83 -85 83 -203zM578 770q0 88 -60 148q-58 61 -147 61q-86 0 -146 -61q-59 -61 -59 -148q0 -84 59 -146q60 -61 146 -61q89 0 147 61q60 61 60 146z" />
<glyph unicode="&#x5a7;" horiz-adv-x="756" d="M657 770q0 -119 -83 -202t-203 -83q-118 0 -200 84q-83 85 -83 201q0 118 83 203q82 84 200 84q120 0 203 -84q83 -85 83 -203zM578 770q0 88 -60 148q-58 61 -147 61q-86 0 -146 -61q-59 -61 -59 -148q0 -84 59 -146q60 -61 146 -61q89 0 147 61q60 61 60 146z" />
<glyph unicode="&#x5a8;" horiz-adv-x="756" d="M657 770q0 -119 -83 -202t-203 -83q-118 0 -200 84q-83 85 -83 201q0 118 83 203q82 84 200 84q120 0 203 -84q83 -85 83 -203zM578 770q0 88 -60 148q-58 61 -147 61q-86 0 -146 -61q-59 -61 -59 -148q0 -84 59 -146q60 -61 146 -61q89 0 147 61q60 61 60 146z" />
<glyph unicode="&#x5a9;" horiz-adv-x="756" d="M657 770q0 -119 -83 -202t-203 -83q-118 0 -200 84q-83 85 -83 201q0 118 83 203q82 84 200 84q120 0 203 -84q83 -85 83 -203zM578 770q0 88 -60 148q-58 61 -147 61q-86 0 -146 -61q-59 -61 -59 -148q0 -84 59 -146q60 -61 146 -61q89 0 147 61q60 61 60 146z" />
<glyph unicode="&#x5aa;" horiz-adv-x="756" d="M657 770q0 -119 -83 -202t-203 -83q-118 0 -200 84q-83 85 -83 201q0 118 83 203q82 84 200 84q120 0 203 -84q83 -85 83 -203zM578 770q0 88 -60 148q-58 61 -147 61q-86 0 -146 -61q-59 -61 -59 -148q0 -84 59 -146q60 -61 146 -61q89 0 147 61q60 61 60 146z" />
<glyph unicode="&#x5ab;" horiz-adv-x="756" d="M657 770q0 -119 -83 -202t-203 -83q-118 0 -200 84q-83 85 -83 201q0 118 83 203q82 84 200 84q120 0 203 -84q83 -85 83 -203zM578 770q0 88 -60 148q-58 61 -147 61q-86 0 -146 -61q-59 -61 -59 -148q0 -84 59 -146q60 -61 146 -61q89 0 147 61q60 61 60 146z" />
<glyph unicode="&#x5ac;" horiz-adv-x="756" d="M657 770q0 -119 -83 -202t-203 -83q-118 0 -200 84q-83 85 -83 201q0 118 83 203q82 84 200 84q120 0 203 -84q83 -85 83 -203zM578 770q0 88 -60 148q-58 61 -147 61q-86 0 -146 -61q-59 -61 -59 -148q0 -84 59 -146q60 -61 146 -61q89 0 147 61q60 61 60 146z" />
<glyph unicode="&#x5ad;" horiz-adv-x="756" d="M657 770q0 -119 -83 -202t-203 -83q-118 0 -200 84q-83 85 -83 201q0 118 83 203q82 84 200 84q120 0 203 -84q83 -85 83 -203zM578 770q0 88 -60 148q-58 61 -147 61q-86 0 -146 -61q-59 -61 -59 -148q0 -84 59 -146q60 -61 146 -61q89 0 147 61q60 61 60 146z" />
<glyph unicode="&#x5ae;" horiz-adv-x="756" d="M657 770q0 -119 -83 -202t-203 -83q-118 0 -200 84q-83 85 -83 201q0 118 83 203q82 84 200 84q120 0 203 -84q83 -85 83 -203zM578 770q0 88 -60 148q-58 61 -147 61q-86 0 -146 -61q-59 -61 -59 -148q0 -84 59 -146q60 -61 146 -61q89 0 147 61q60 61 60 146z" />
<glyph unicode="&#x5af;" horiz-adv-x="756" d="M657 770q0 -119 -83 -202t-203 -83q-118 0 -200 84q-83 85 -83 201q0 118 83 203q82 84 200 84q120 0 203 -84q83 -85 83 -203zM578 770q0 88 -60 148q-58 61 -147 61q-86 0 -146 -61q-59 -61 -59 -148q0 -84 59 -146q60 -61 146 -61q89 0 147 61q60 61 60 146z" />
<glyph unicode="&#x5b0;" d="M609 712q0 -110 -77 -187q-76 -76 -187 -76q-108 0 -185 77t-77 186q0 110 77 187t185 77q110 0 187 -77t77 -187zM536 712q0 81 -56 137q-55 55 -135 55t-135 -55t-55 -137q0 -79 55 -135q56 -56 135 -56t135 56q56 58 56 135z" />
<glyph unicode="&#x5b1;" d="M609 712q0 -110 -77 -187q-76 -76 -187 -76q-108 0 -185 77t-77 186q0 110 77 187t185 77q110 0 187 -77t77 -187zM536 712q0 81 -56 137q-55 55 -135 55t-135 -55t-55 -137q0 -79 55 -135q56 -56 135 -56t135 56q56 58 56 135z" />
<glyph unicode="&#x5b2;" d="M609 712q0 -110 -77 -187q-76 -76 -187 -76q-108 0 -185 77t-77 186q0 110 77 187t185 77q110 0 187 -77t77 -187zM536 712q0 81 -56 137q-55 55 -135 55t-135 -55t-55 -137q0 -79 55 -135q56 -56 135 -56t135 56q56 58 56 135z" />
<glyph unicode="&#x5b3;" d="M609 712q0 -110 -77 -187q-76 -76 -187 -76q-108 0 -185 77t-77 186q0 110 77 187t185 77q110 0 187 -77t77 -187zM536 712q0 81 -56 137q-55 55 -135 55t-135 -55t-55 -137q0 -79 55 -135q56 -56 135 -56t135 56q56 58 56 135z" />
<glyph unicode="&#x5b4;" d="M609 712q0 -110 -77 -187q-76 -76 -187 -76q-108 0 -185 77t-77 186q0 110 77 187t185 77q110 0 187 -77t77 -187zM536 712q0 81 -56 137q-55 55 -135 55t-135 -55t-55 -137q0 -79 55 -135q56 -56 135 -56t135 56q56 58 56 135z" />
<glyph unicode="&#x5b5;" d="M609 712q0 -110 -77 -187q-76 -76 -187 -76q-108 0 -185 77t-77 186q0 110 77 187t185 77q110 0 187 -77t77 -187zM536 712q0 81 -56 137q-55 55 -135 55t-135 -55t-55 -137q0 -79 55 -135q56 -56 135 -56t135 56q56 58 56 135z" />
<glyph unicode="&#x5b6;" d="M609 712q0 -110 -77 -187q-76 -76 -187 -76q-108 0 -185 77t-77 186q0 110 77 187t185 77q110 0 187 -77t77 -187zM536 712q0 81 -56 137q-55 55 -135 55t-135 -55t-55 -137q0 -79 55 -135q56 -56 135 -56t135 56q56 58 56 135z" />
<glyph unicode="&#x5b7;" d="M609 712q0 -110 -77 -187q-76 -76 -187 -76q-108 0 -185 77t-77 186q0 110 77 187t185 77q110 0 187 -77t77 -187zM536 712q0 81 -56 137q-55 55 -135 55t-135 -55t-55 -137q0 -79 55 -135q56 -56 135 -56t135 56q56 58 56 135z" />
<glyph unicode="&#x5b8;" d="M609 712q0 -110 -77 -187q-76 -76 -187 -76q-108 0 -185 77t-77 186q0 110 77 187t185 77q110 0 187 -77t77 -187zM536 712q0 81 -56 137q-55 55 -135 55t-135 -55t-55 -137q0 -79 55 -135q56 -56 135 -56t135 56q56 58 56 135z" />
<glyph unicode="&#x5b9;" d="M609 712q0 -110 -77 -187q-76 -76 -187 -76q-108 0 -185 77t-77 186q0 110 77 187t185 77q110 0 187 -77t77 -187zM536 712q0 81 -56 137q-55 55 -135 55t-135 -55t-55 -137q0 -79 55 -135q56 -56 135 -56t135 56q56 58 56 135z" />
<glyph unicode="&#x5bb;" horiz-adv-x="2204" d="M1800 1124q-12 5 -17 5l-7 -2q-43 -20 -70.5 -33.5t-38.5 -20.5q-13 -7 -16 -24l-6 -42q-12 -67 -47 -138q-38 -74 -78 -117q-22 -25 -47 -25q-17 0 -26 13q-72 108 -130.5 200t-105.5 170q-34 57 -86 148.5t-123 219.5q-26 47 -71 69l-124 60q139 45 288 45 q213 0 402 -91q190 -92 324 -255q98 -122 150 -265zM2032 725q0 -190 -62 -346q-11 -26 -29.5 -56.5t-44.5 -65.5q-51 -68 -90 -99q-23 32 -48.5 74t-51.5 94l-68 134q55 13 100 36q86 42 157 114q88 88 120 195h15q1 -10 1.5 -29.5t0.5 -50.5zM790 1176q-198 -17 -351 -110 q-11 -8 -36 -26t-63 -47q-30 -23 -72 -58.5t-96 -84.5q29 199 135 368q109 172 276 281q45 -62 96 -142.5t111 -180.5zM1588 -71q-227 -141 -493 -141q-386 0 -659 273q-172 171 -238 403l213 -81q39 -16 63 -16q48 0 71 56l13 42q79 190 238 346q103 102 151 102 q12 0 17 -8q157 -228 363 -603q61 -111 141 -270q31 -59 120 -103z" />
<glyph unicode="&#x5bc;" d="M609 712q0 -110 -77 -187q-76 -76 -187 -76q-108 0 -185 77t-77 186q0 110 77 187t185 77q110 0 187 -77t77 -187zM536 712q0 81 -56 137q-55 55 -135 55t-135 -55t-55 -137q0 -79 55 -135q56 -56 135 -56t135 56q56 58 56 135z" />
<glyph unicode="&#x5bd;" d="M609 712q0 -110 -77 -187q-76 -76 -187 -76q-108 0 -185 77t-77 186q0 110 77 187t185 77q110 0 187 -77t77 -187zM536 712q0 81 -56 137q-55 55 -135 55t-135 -55t-55 -137q0 -79 55 -135q56 -56 135 -56t135 56q56 58 56 135z" />
<glyph unicode="&#x5be;" d="M609 712q0 -110 -77 -187q-76 -76 -187 -76q-108 0 -185 77t-77 186q0 110 77 187t185 77q110 0 187 -77t77 -187zM536 712q0 81 -56 137q-55 55 -135 55t-135 -55t-55 -137q0 -79 55 -135q56 -56 135 -56t135 56q56 58 56 135z" />
<glyph unicode="&#x5bf;" d="M609 712q0 -110 -77 -187q-76 -76 -187 -76q-108 0 -185 77t-77 186q0 110 77 187t185 77q110 0 187 -77t77 -187zM536 712q0 81 -56 137q-55 55 -135 55t-135 -55t-55 -137q0 -79 55 -135q56 -56 135 -56t135 56q56 58 56 135z" />
<glyph unicode="&#x5c0;" d="M609 712q0 -110 -77 -187q-76 -76 -187 -76q-108 0 -185 77t-77 186q0 110 77 187t185 77q110 0 187 -77t77 -187zM536 712q0 81 -56 137q-55 55 -135 55t-135 -55t-55 -137q0 -79 55 -135q56 -56 135 -56t135 56q56 58 56 135z" />
<glyph unicode="&#x5c1;" d="M609 712q0 -110 -77 -187q-76 -76 -187 -76q-108 0 -185 77t-77 186q0 110 77 187t185 77q110 0 187 -77t77 -187zM536 712q0 81 -56 137q-55 55 -135 55t-135 -55t-55 -137q0 -79 55 -135q56 -56 135 -56t135 56q56 58 56 135z" />
<glyph unicode="&#x5c2;" d="M609 712q0 -110 -77 -187q-76 -76 -187 -76q-108 0 -185 77t-77 186q0 110 77 187t185 77q110 0 187 -77t77 -187zM536 712q0 81 -56 137q-55 55 -135 55t-135 -55t-55 -137q0 -79 55 -135q56 -56 135 -56t135 56q56 58 56 135z" />
<glyph unicode="&#x5c3;" d="M609 712q0 -110 -77 -187q-76 -76 -187 -76q-108 0 -185 77t-77 186q0 110 77 187t185 77q110 0 187 -77t77 -187zM536 712q0 81 -56 137q-55 55 -135 55t-135 -55t-55 -137q0 -79 55 -135q56 -56 135 -56t135 56q56 58 56 135z" />
<glyph unicode="&#x5c4;" d="M609 712q0 -110 -77 -187q-76 -76 -187 -76q-108 0 -185 77t-77 186q0 110 77 187t185 77q110 0 187 -77t77 -187zM536 712q0 81 -56 137q-55 55 -135 55t-135 -55t-55 -137q0 -79 55 -135q56 -56 135 -56t135 56q56 58 56 135z" />
<glyph unicode="&#x5d0;" d="M609 712q0 -110 -77 -187q-76 -76 -187 -76q-108 0 -185 77t-77 186q0 110 77 187t185 77q110 0 187 -77t77 -187zM536 712q0 81 -56 137q-55 55 -135 55t-135 -55t-55 -137q0 -79 55 -135q56 -56 135 -56t135 56q56 58 56 135z" />
<glyph unicode="&#x5d1;" d="M609 712q0 -110 -77 -187q-76 -76 -187 -76q-108 0 -185 77t-77 186q0 110 77 187t185 77q110 0 187 -77t77 -187zM536 712q0 81 -56 137q-55 55 -135 55t-135 -55t-55 -137q0 -79 55 -135q56 -56 135 -56t135 56q56 58 56 135z" />
<glyph unicode="&#x5d2;" d="M609 712q0 -110 -77 -187q-76 -76 -187 -76q-108 0 -185 77t-77 186q0 110 77 187t185 77q110 0 187 -77t77 -187zM536 712q0 81 -56 137q-55 55 -135 55t-135 -55t-55 -137q0 -79 55 -135q56 -56 135 -56t135 56q56 58 56 135z" />
<glyph unicode="&#x5d3;" d="M609 712q0 -110 -77 -187q-76 -76 -187 -76q-108 0 -185 77t-77 186q0 110 77 187t185 77q110 0 187 -77t77 -187zM536 712q0 81 -56 137q-55 55 -135 55t-135 -55t-55 -137q0 -79 55 -135q56 -56 135 -56t135 56q56 58 56 135z" />
<glyph unicode="&#x5d4;" d="M609 712q0 -110 -77 -187q-76 -76 -187 -76q-108 0 -185 77t-77 186q0 110 77 187t185 77q110 0 187 -77t77 -187zM536 712q0 81 -56 137q-55 55 -135 55t-135 -55t-55 -137q0 -79 55 -135q56 -56 135 -56t135 56q56 58 56 135z" />
<glyph unicode="&#x5d5;" d="M609 712q0 -110 -77 -187q-76 -76 -187 -76q-108 0 -185 77t-77 186q0 110 77 187t185 77q110 0 187 -77t77 -187zM536 712q0 81 -56 137q-55 55 -135 55t-135 -55t-55 -137q0 -79 55 -135q56 -56 135 -56t135 56q56 58 56 135z" />
<glyph unicode="&#x5d6;" d="M609 712q0 -110 -77 -187q-76 -76 -187 -76q-108 0 -185 77t-77 186q0 110 77 187t185 77q110 0 187 -77t77 -187zM536 712q0 81 -56 137q-55 55 -135 55t-135 -55t-55 -137q0 -79 55 -135q56 -56 135 -56t135 56q56 58 56 135z" />
<glyph unicode="&#x5d7;" d="M609 712q0 -110 -77 -187q-76 -76 -187 -76q-108 0 -185 77t-77 186q0 110 77 187t185 77q110 0 187 -77t77 -187zM536 712q0 81 -56 137q-55 55 -135 55t-135 -55t-55 -137q0 -79 55 -135q56 -56 135 -56t135 56q56 58 56 135z" />
<glyph unicode="&#x5d8;" d="M609 712q0 -110 -77 -187q-76 -76 -187 -76q-108 0 -185 77t-77 186q0 110 77 187t185 77q110 0 187 -77t77 -187zM536 712q0 81 -56 137q-55 55 -135 55t-135 -55t-55 -137q0 -79 55 -135q56 -56 135 -56t135 56q56 58 56 135z" />
<glyph unicode="&#x5d9;" d="M609 712q0 -110 -77 -187q-76 -76 -187 -76q-108 0 -185 77t-77 186q0 110 77 187t185 77q110 0 187 -77t77 -187zM536 712q0 81 -56 137q-55 55 -135 55t-135 -55t-55 -137q0 -79 55 -135q56 -56 135 -56t135 56q56 58 56 135z" />
<glyph unicode="&#x5da;" d="M609 712q0 -110 -77 -187q-76 -76 -187 -76q-108 0 -185 77t-77 186q0 110 77 187t185 77q110 0 187 -77t77 -187zM536 712q0 81 -56 137q-55 55 -135 55t-135 -55t-55 -137q0 -79 55 -135q56 -56 135 -56t135 56q56 58 56 135z" />
<glyph unicode="&#x5db;" d="M609 712q0 -110 -77 -187q-76 -76 -187 -76q-108 0 -185 77t-77 186q0 110 77 187t185 77q110 0 187 -77t77 -187zM536 712q0 81 -56 137q-55 55 -135 55t-135 -55t-55 -137q0 -79 55 -135q56 -56 135 -56t135 56q56 58 56 135z" />
<glyph unicode="&#x5dc;" d="M609 712q0 -110 -77 -187q-76 -76 -187 -76q-108 0 -185 77t-77 186q0 110 77 187t185 77q110 0 187 -77t77 -187zM536 712q0 81 -56 137q-55 55 -135 55t-135 -55t-55 -137q0 -79 55 -135q56 -56 135 -56t135 56q56 58 56 135z" />
<glyph unicode="&#x5dd;" d="M609 712q0 -110 -77 -187q-76 -76 -187 -76q-108 0 -185 77t-77 186q0 110 77 187t185 77q110 0 187 -77t77 -187zM536 712q0 81 -56 137q-55 55 -135 55t-135 -55t-55 -137q0 -79 55 -135q56 -56 135 -56t135 56q56 58 56 135z" />
<glyph unicode="&#x5de;" d="M609 712q0 -110 -77 -187q-76 -76 -187 -76q-108 0 -185 77t-77 186q0 110 77 187t185 77q110 0 187 -77t77 -187zM536 712q0 81 -56 137q-55 55 -135 55t-135 -55t-55 -137q0 -79 55 -135q56 -56 135 -56t135 56q56 58 56 135z" />
<glyph unicode="&#x5df;" d="M609 712q0 -110 -77 -187q-76 -76 -187 -76q-108 0 -185 77t-77 186q0 110 77 187t185 77q110 0 187 -77t77 -187zM536 712q0 81 -56 137q-55 55 -135 55t-135 -55t-55 -137q0 -79 55 -135q56 -56 135 -56t135 56q56 58 56 135z" />
<glyph unicode="&#x5e0;" d="M609 712q0 -110 -77 -187q-76 -76 -187 -76q-108 0 -185 77t-77 186q0 110 77 187t185 77q110 0 187 -77t77 -187zM536 712q0 81 -56 137q-55 55 -135 55t-135 -55t-55 -137q0 -79 55 -135q56 -56 135 -56t135 56q56 58 56 135z" />
<glyph unicode="&#x5e1;" d="M609 712q0 -110 -77 -187q-76 -76 -187 -76q-108 0 -185 77t-77 186q0 110 77 187t185 77q110 0 187 -77t77 -187zM536 712q0 81 -56 137q-55 55 -135 55t-135 -55t-55 -137q0 -79 55 -135q56 -56 135 -56t135 56q56 58 56 135z" />
<glyph unicode="&#x5e2;" d="M609 712q0 -110 -77 -187q-76 -76 -187 -76q-108 0 -185 77t-77 186q0 110 77 187t185 77q110 0 187 -77t77 -187zM536 712q0 81 -56 137q-55 55 -135 55t-135 -55t-55 -137q0 -79 55 -135q56 -56 135 -56t135 56q56 58 56 135z" />
<glyph unicode="&#x5e3;" d="M609 712q0 -110 -77 -187q-76 -76 -187 -76q-108 0 -185 77t-77 186q0 110 77 187t185 77q110 0 187 -77t77 -187zM536 712q0 81 -56 137q-55 55 -135 55t-135 -55t-55 -137q0 -79 55 -135q56 -56 135 -56t135 56q56 58 56 135z" />
<glyph unicode="&#x5e4;" d="M609 712q0 -110 -77 -187q-76 -76 -187 -76q-108 0 -185 77t-77 186q0 110 77 187t185 77q110 0 187 -77t77 -187zM536 712q0 81 -56 137q-55 55 -135 55t-135 -55t-55 -137q0 -79 55 -135q56 -56 135 -56t135 56q56 58 56 135z" />
<glyph unicode="&#x5e5;" d="M609 712q0 -110 -77 -187q-76 -76 -187 -76q-108 0 -185 77t-77 186q0 110 77 187t185 77q110 0 187 -77t77 -187zM536 712q0 81 -56 137q-55 55 -135 55t-135 -55t-55 -137q0 -79 55 -135q56 -56 135 -56t135 56q56 58 56 135z" />
<glyph unicode="&#x5e6;" d="M609 712q0 -110 -77 -187q-76 -76 -187 -76q-108 0 -185 77t-77 186q0 110 77 187t185 77q110 0 187 -77t77 -187zM536 712q0 81 -56 137q-55 55 -135 55t-135 -55t-55 -137q0 -79 55 -135q56 -56 135 -56t135 56q56 58 56 135z" />
<glyph unicode="&#x5e7;" d="M609 712q0 -110 -77 -187q-76 -76 -187 -76q-108 0 -185 77t-77 186q0 110 77 187t185 77q110 0 187 -77t77 -187zM536 712q0 81 -56 137q-55 55 -135 55t-135 -55t-55 -137q0 -79 55 -135q56 -56 135 -56t135 56q56 58 56 135z" />
<glyph unicode="&#x5e8;" d="M609 712q0 -110 -77 -187q-76 -76 -187 -76q-108 0 -185 77t-77 186q0 110 77 187t185 77q110 0 187 -77t77 -187zM536 712q0 81 -56 137q-55 55 -135 55t-135 -55t-55 -137q0 -79 55 -135q56 -56 135 -56t135 56q56 58 56 135z" />
<glyph unicode="&#x5e9;" d="M609 712q0 -110 -77 -187q-76 -76 -187 -76q-108 0 -185 77t-77 186q0 110 77 187t185 77q110 0 187 -77t77 -187zM536 712q0 81 -56 137q-55 55 -135 55t-135 -55t-55 -137q0 -79 55 -135q56 -56 135 -56t135 56q56 58 56 135z" />
<glyph unicode="&#x5ea;" d="M609 712q0 -110 -77 -187q-76 -76 -187 -76q-108 0 -185 77t-77 186q0 110 77 187t185 77q110 0 187 -77t77 -187zM536 712q0 81 -56 137q-55 55 -135 55t-135 -55t-55 -137q0 -79 55 -135q56 -56 135 -56t135 56q56 58 56 135z" />
<glyph unicode="&#x5f0;" d="M609 712q0 -110 -77 -187q-76 -76 -187 -76q-108 0 -185 77t-77 186q0 110 77 187t185 77q110 0 187 -77t77 -187zM536 712q0 81 -56 137q-55 55 -135 55t-135 -55t-55 -137q0 -79 55 -135q56 -56 135 -56t135 56q56 58 56 135z" />
<glyph unicode="&#x5f1;" d="M609 712q0 -110 -77 -187q-76 -76 -187 -76q-108 0 -185 77t-77 186q0 110 77 187t185 77q110 0 187 -77t77 -187zM536 712q0 81 -56 137q-55 55 -135 55t-135 -55t-55 -137q0 -79 55 -135q56 -56 135 -56t135 56q56 58 56 135z" />
<glyph unicode="&#x5f2;" d="M609 712q0 -110 -77 -187q-76 -76 -187 -76q-108 0 -185 77t-77 186q0 110 77 187t185 77q110 0 187 -77t77 -187zM536 712q0 81 -56 137q-55 55 -135 55t-135 -55t-55 -137q0 -79 55 -135q56 -56 135 -56t135 56q56 58 56 135z" />
<glyph unicode="&#x5f3;" d="M609 712q0 -110 -77 -187q-76 -76 -187 -76q-108 0 -185 77t-77 186q0 110 77 187t185 77q110 0 187 -77t77 -187zM536 712q0 81 -56 137q-55 55 -135 55t-135 -55t-55 -137q0 -79 55 -135q56 -56 135 -56t135 56q56 58 56 135z" />
<glyph unicode="&#x5f4;" d="M609 712q0 -110 -77 -187q-76 -76 -187 -76q-108 0 -185 77t-77 186q0 110 77 187t185 77q110 0 187 -77t77 -187zM536 712q0 81 -56 137q-55 55 -135 55t-135 -55t-55 -137q0 -79 55 -135q56 -56 135 -56t135 56q56 58 56 135z" />
<glyph unicode="&#x2000;" horiz-adv-x="826" />
<glyph unicode="&#x2001;" horiz-adv-x="1652" />
<glyph unicode="&#x2002;" horiz-adv-x="826" />
<glyph unicode="&#x2003;" horiz-adv-x="1652" />
<glyph unicode="&#x2004;" horiz-adv-x="550" />
<glyph unicode="&#x2005;" horiz-adv-x="413" />
<glyph unicode="&#x2006;" horiz-adv-x="275" />
<glyph unicode="&#x2007;" horiz-adv-x="275" />
<glyph unicode="&#x2008;" horiz-adv-x="206" />
<glyph unicode="&#x2009;" horiz-adv-x="330" />
<glyph unicode="&#x200a;" horiz-adv-x="91" />
<glyph unicode="&#x200c;" horiz-adv-x="756" d="M657 770q0 -119 -83 -202t-203 -83q-118 0 -200 84q-83 85 -83 201q0 118 83 203q82 84 200 84q120 0 203 -84q83 -85 83 -203zM578 770q0 88 -60 148q-58 61 -147 61q-86 0 -146 -61q-59 -61 -59 -148q0 -84 59 -146q60 -61 146 -61q89 0 147 61q60 61 60 146z" />
<glyph unicode="&#x200d;" horiz-adv-x="756" d="M657 770q0 -119 -83 -202t-203 -83q-118 0 -200 84q-83 85 -83 201q0 118 83 203q82 84 200 84q120 0 203 -84q83 -85 83 -203zM578 770q0 88 -60 148q-58 61 -147 61q-86 0 -146 -61q-59 -61 -59 -148q0 -84 59 -146q60 -61 146 -61q89 0 147 61q60 61 60 146z" />
<glyph unicode="&#x200e;" horiz-adv-x="756" d="M657 770q0 -119 -83 -202t-203 -83q-118 0 -200 84q-83 85 -83 201q0 118 83 203q82 84 200 84q120 0 203 -84q83 -85 83 -203zM578 770q0 88 -60 148q-58 61 -147 61q-86 0 -146 -61q-59 -61 -59 -148q0 -84 59 -146q60 -61 146 -61q89 0 147 61q60 61 60 146z" />
<glyph unicode="&#x200f;" horiz-adv-x="756" d="M657 770q0 -119 -83 -202t-203 -83q-118 0 -200 84q-83 85 -83 201q0 118 83 203q82 84 200 84q120 0 203 -84q83 -85 83 -203zM578 770q0 88 -60 148q-58 61 -147 61q-86 0 -146 -61q-59 -61 -59 -148q0 -84 59 -146q60 -61 146 -61q89 0 147 61q60 61 60 146z" />
<glyph unicode="&#x2010;" horiz-adv-x="791" d="M692 590h-600v96h600v-96z" />
<glyph unicode="&#x2011;" horiz-adv-x="791" d="M692 590h-600v96h600v-96z" />
<glyph unicode="&#x2012;" horiz-adv-x="791" d="M692 590h-600v96h600v-96z" />
<glyph unicode="&#x2013;" horiz-adv-x="791" d="M692 590h-600v96h600v-96z" />
<glyph unicode="&#x2014;" horiz-adv-x="1217" d="M1096 590h-1003v96h1003v-96z" />
<glyph unicode="&#x2018;" horiz-adv-x="487" d="M75 869q0 51 19.5 113.5t56 129.5t89.5 134t119 126l39 -40q-21 -31 -40.5 -55.5t-44.5 -62.5q-30 -47 -51.5 -86.5t-35 -76t-20 -72.5t-7.5 -75q0 -16 1 -34t5 -45l3 -15l-124 -5q-4 11 -6.5 24t-2.5 40z" />
<glyph unicode="&#x2019;" horiz-adv-x="487" d="M398 1308q0 -51 -19.5 -113.5t-56 -129.5t-89.5 -134t-119 -126l-39 40q21 31 40.5 55.5t44.5 62.5q30 47 51.5 86.5t35 76t20 72.5t7.5 75q0 16 -1 34t-5 45l-3 15l124 5q4 -11 6.5 -24t2.5 -40z" />
<glyph unicode="&#x201c;" horiz-adv-x="826" d="M75 869q0 51 19.5 113.5t56 129.5t89.5 134t119 126l39 -40q-21 -31 -40.5 -55.5t-44.5 -62.5q-30 -47 -51.5 -86.5t-35 -76t-20 -72.5t-7.5 -75q0 -16 1 -34t5 -45l2 -15l-123 -5q-4 11 -6.5 24t-2.5 40zM415 869q0 51 19.5 113.5t56 129.5t89.5 134t119 126l39 -40 q-21 -31 -40.5 -55.5t-44.5 -62.5q-30 -47 -51.5 -86.5t-35 -76t-20 -72.5t-7.5 -75q0 -16 1 -34t5 -45l3 -15l-124 -5q-4 11 -6.5 24t-2.5 40z" />
<glyph unicode="&#x201d;" horiz-adv-x="826" d="M738 1308q0 -51 -19.5 -113.5t-56 -129.5t-89.5 -134t-119 -126l-39 40q21 31 40.5 55.5t44.5 62.5q30 47 51.5 86.5t35 76t20 72.5t7.5 75q0 16 -1 34t-5 45l-2 15l123 5q4 -11 6.5 -24t2.5 -40zM398 1308q0 -51 -19.5 -113.5t-56 -129.5t-89.5 -134t-119 -126l-39 40 q21 31 40.5 55.5t44.5 62.5q30 47 51.5 86.5t35 76t20 72.5t7.5 75q0 16 -1 34t-5 45l-3 15l124 5q4 -11 6.5 -24t2.5 -40z" />
<glyph unicode="&#x2022;" horiz-adv-x="612" d="M524 580q0 -92 -63 -153q-62 -62 -150 -62q-89 0 -153 62q-62 62 -62 153q0 90 61 151q62 62 154 62q89 0 151 -62t62 -151z" />
<glyph unicode="&#x202f;" horiz-adv-x="330" />
<glyph unicode="&#x2039;" horiz-adv-x="681" d="M562 -8h-57l-387 473l387 469h57l-244 -469z" />
<glyph unicode="&#x203a;" horiz-adv-x="681" d="M566 463l-395 -471h-57l243 471l-243 471h57z" />
<glyph unicode="&#x205f;" horiz-adv-x="413" />
<glyph unicode="&#x20aa;" d="M609 712q0 -110 -77 -187q-76 -76 -187 -76q-108 0 -185 77t-77 186q0 110 77 187t185 77q110 0 187 -77t77 -187zM536 712q0 81 -56 137q-55 55 -135 55t-135 -55t-55 -137q0 -79 55 -135q56 -56 135 -56t135 56q56 58 56 135z" />
<glyph unicode="&#x22c5;" horiz-adv-x="662" d="M565 627q0 -98 -68 -166q-68 -66 -161 -66q-99 0 -166 66q-68 68 -68 166t67 164q67 67 167 67q96 0 162 -67q67 -66 67 -164z" />
<glyph unicode="&#x25a0;" horiz-adv-x="756" d="M657 770q0 -119 -83 -202t-203 -83q-118 0 -200 84q-83 85 -83 201q0 118 83 203q82 84 200 84q120 0 203 -84q83 -85 83 -203zM578 770q0 88 -60 148q-58 61 -147 61q-86 0 -146 -61q-59 -61 -59 -148q0 -84 59 -146q60 -61 146 -61q89 0 147 61q60 61 60 146z" />
<glyph unicode="&#x25a1;" horiz-adv-x="756" d="M657 770q0 -119 -83 -202t-203 -83q-118 0 -200 84q-83 85 -83 201q0 118 83 203q82 84 200 84q120 0 203 -84q83 -85 83 -203zM578 770q0 88 -60 148q-58 61 -147 61q-86 0 -146 -61q-59 -61 -59 -148q0 -84 59 -146q60 -61 146 -61q89 0 147 61q60 61 60 146z" />
<glyph unicode="&#x25c6;" horiz-adv-x="756" d="M657 770q0 -119 -83 -202t-203 -83q-118 0 -200 84q-83 85 -83 201q0 118 83 203q82 84 200 84q120 0 203 -84q83 -85 83 -203zM578 770q0 88 -60 148q-58 61 -147 61q-86 0 -146 -61q-59 -61 -59 -148q0 -84 59 -146q60 -61 146 -61q89 0 147 61q60 61 60 146z" />
<glyph unicode="&#x25c7;" horiz-adv-x="756" d="M657 770q0 -119 -83 -202t-203 -83q-118 0 -200 84q-83 85 -83 201q0 118 83 203q82 84 200 84q120 0 203 -84q83 -85 83 -203zM578 770q0 88 -60 148q-58 61 -147 61q-86 0 -146 -61q-59 -61 -59 -148q0 -84 59 -146q60 -61 146 -61q89 0 147 61q60 61 60 146z" />
<glyph unicode="&#x25cb;" horiz-adv-x="756" d="M657 770q0 -119 -83 -202t-203 -83q-118 0 -200 84q-83 85 -83 201q0 118 83 203q82 84 200 84q120 0 203 -84q83 -85 83 -203zM578 770q0 88 -60 148q-58 61 -147 61q-86 0 -146 -61q-59 -61 -59 -148q0 -84 59 -146q60 -61 146 -61q89 0 147 61q60 61 60 146z" />
<glyph unicode="&#x25cc;" horiz-adv-x="756" d="M657 770q0 -119 -83 -202t-203 -83q-118 0 -200 84q-83 85 -83 201q0 118 83 203q82 84 200 84q120 0 203 -84q83 -85 83 -203zM578 770q0 88 -60 148q-58 61 -147 61q-86 0 -146 -61q-59 -61 -59 -148q0 -84 59 -146q60 -61 146 -61q89 0 147 61q60 61 60 146z" />
<glyph unicode="&#x25fc;" horiz-adv-x="1105" d="M0 1105h1105v-1105h-1105v1105z" />
<glyph unicode="&#x2605;" horiz-adv-x="756" d="M657 770q0 -119 -83 -202t-203 -83q-118 0 -200 84q-83 85 -83 201q0 118 83 203q82 84 200 84q120 0 203 -84q83 -85 83 -203zM578 770q0 88 -60 148q-58 61 -147 61q-86 0 -146 -61q-59 -61 -59 -148q0 -84 59 -146q60 -61 146 -61q89 0 147 61q60 61 60 146z" />
<glyph unicode="&#x274f;" horiz-adv-x="756" d="M657 770q0 -119 -83 -202t-203 -83q-118 0 -200 84q-83 85 -83 201q0 118 83 203q82 84 200 84q120 0 203 -84q83 -85 83 -203zM578 770q0 88 -60 148q-58 61 -147 61q-86 0 -146 -61q-59 -61 -59 -148q0 -84 59 -146q60 -61 146 -61q89 0 147 61q60 61 60 146z" />
<glyph unicode="&#xe802;" d="M609 712q0 -110 -77 -187q-76 -76 -187 -76q-108 0 -185 77t-77 186q0 110 77 187t185 77q110 0 187 -77t77 -187zM536 712q0 81 -56 137q-55 55 -135 55t-135 -55t-55 -137q0 -79 55 -135q56 -56 135 -56t135 56q56 58 56 135z" />
<glyph unicode="&#xe803;" d="M609 712q0 -110 -77 -187q-76 -76 -187 -76q-108 0 -185 77t-77 186q0 110 77 187t185 77q110 0 187 -77t77 -187zM536 712q0 81 -56 137q-55 55 -135 55t-135 -55t-55 -137q0 -79 55 -135q56 -56 135 -56t135 56q56 58 56 135z" />
<glyph unicode="&#xe804;" d="M609 712q0 -110 -77 -187q-76 -76 -187 -76q-108 0 -185 77t-77 186q0 110 77 187t185 77q110 0 187 -77t77 -187zM536 712q0 81 -56 137q-55 55 -135 55t-135 -55t-55 -137q0 -79 55 -135q56 -56 135 -56t135 56q56 58 56 135z" />
<glyph unicode="&#xe805;" d="M609 712q0 -110 -77 -187q-76 -76 -187 -76q-108 0 -185 77t-77 186q0 110 77 187t185 77q110 0 187 -77t77 -187zM536 712q0 81 -56 137q-55 55 -135 55t-135 -55t-55 -137q0 -79 55 -135q56 -56 135 -56t135 56q56 58 56 135z" />
<glyph unicode="&#xfb1d;" d="M609 712q0 -110 -77 -187q-76 -76 -187 -76q-108 0 -185 77t-77 186q0 110 77 187t185 77q110 0 187 -77t77 -187zM536 712q0 81 -56 137q-55 55 -135 55t-135 -55t-55 -137q0 -79 55 -135q56 -56 135 -56t135 56q56 58 56 135z" />
<glyph unicode="&#xfb1e;" d="M609 712q0 -110 -77 -187q-76 -76 -187 -76q-108 0 -185 77t-77 186q0 110 77 187t185 77q110 0 187 -77t77 -187zM536 712q0 81 -56 137q-55 55 -135 55t-135 -55t-55 -137q0 -79 55 -135q56 -56 135 -56t135 56q56 58 56 135z" />
<glyph unicode="&#xfb1f;" d="M609 712q0 -110 -77 -187q-76 -76 -187 -76q-108 0 -185 77t-77 186q0 110 77 187t185 77q110 0 187 -77t77 -187zM536 712q0 81 -56 137q-55 55 -135 55t-135 -55t-55 -137q0 -79 55 -135q56 -56 135 -56t135 56q56 58 56 135z" />
<glyph unicode="&#xfb20;" d="M609 712q0 -110 -77 -187q-76 -76 -187 -76q-108 0 -185 77t-77 186q0 110 77 187t185 77q110 0 187 -77t77 -187zM536 712q0 81 -56 137q-55 55 -135 55t-135 -55t-55 -137q0 -79 55 -135q56 -56 135 -56t135 56q56 58 56 135z" />
<glyph unicode="&#xfb21;" d="M609 712q0 -110 -77 -187q-76 -76 -187 -76q-108 0 -185 77t-77 186q0 110 77 187t185 77q110 0 187 -77t77 -187zM536 712q0 81 -56 137q-55 55 -135 55t-135 -55t-55 -137q0 -79 55 -135q56 -56 135 -56t135 56q56 58 56 135z" />
<glyph unicode="&#xfb22;" d="M609 712q0 -110 -77 -187q-76 -76 -187 -76q-108 0 -185 77t-77 186q0 110 77 187t185 77q110 0 187 -77t77 -187zM536 712q0 81 -56 137q-55 55 -135 55t-135 -55t-55 -137q0 -79 55 -135q56 -56 135 -56t135 56q56 58 56 135z" />
<glyph unicode="&#xfb23;" d="M609 712q0 -110 -77 -187q-76 -76 -187 -76q-108 0 -185 77t-77 186q0 110 77 187t185 77q110 0 187 -77t77 -187zM536 712q0 81 -56 137q-55 55 -135 55t-135 -55t-55 -137q0 -79 55 -135q56 -56 135 -56t135 56q56 58 56 135z" />
<glyph unicode="&#xfb24;" d="M609 712q0 -110 -77 -187q-76 -76 -187 -76q-108 0 -185 77t-77 186q0 110 77 187t185 77q110 0 187 -77t77 -187zM536 712q0 81 -56 137q-55 55 -135 55t-135 -55t-55 -137q0 -79 55 -135q56 -56 135 -56t135 56q56 58 56 135z" />
<glyph unicode="&#xfb25;" d="M609 712q0 -110 -77 -187q-76 -76 -187 -76q-108 0 -185 77t-77 186q0 110 77 187t185 77q110 0 187 -77t77 -187zM536 712q0 81 -56 137q-55 55 -135 55t-135 -55t-55 -137q0 -79 55 -135q56 -56 135 -56t135 56q56 58 56 135z" />
<glyph unicode="&#xfb26;" d="M609 712q0 -110 -77 -187q-76 -76 -187 -76q-108 0 -185 77t-77 186q0 110 77 187t185 77q110 0 187 -77t77 -187zM536 712q0 81 -56 137q-55 55 -135 55t-135 -55t-55 -137q0 -79 55 -135q56 -56 135 -56t135 56q56 58 56 135z" />
<glyph unicode="&#xfb27;" d="M609 712q0 -110 -77 -187q-76 -76 -187 -76q-108 0 -185 77t-77 186q0 110 77 187t185 77q110 0 187 -77t77 -187zM536 712q0 81 -56 137q-55 55 -135 55t-135 -55t-55 -137q0 -79 55 -135q56 -56 135 -56t135 56q56 58 56 135z" />
<glyph unicode="&#xfb28;" d="M609 712q0 -110 -77 -187q-76 -76 -187 -76q-108 0 -185 77t-77 186q0 110 77 187t185 77q110 0 187 -77t77 -187zM536 712q0 81 -56 137q-55 55 -135 55t-135 -55t-55 -137q0 -79 55 -135q56 -56 135 -56t135 56q56 58 56 135z" />
<glyph unicode="&#xfb29;" d="M609 712q0 -110 -77 -187q-76 -76 -187 -76q-108 0 -185 77t-77 186q0 110 77 187t185 77q110 0 187 -77t77 -187zM536 712q0 81 -56 137q-55 55 -135 55t-135 -55t-55 -137q0 -79 55 -135q56 -56 135 -56t135 56q56 58 56 135z" />
<glyph unicode="&#xfb2a;" d="M609 712q0 -110 -77 -187q-76 -76 -187 -76q-108 0 -185 77t-77 186q0 110 77 187t185 77q110 0 187 -77t77 -187zM536 712q0 81 -56 137q-55 55 -135 55t-135 -55t-55 -137q0 -79 55 -135q56 -56 135 -56t135 56q56 58 56 135z" />
<glyph unicode="&#xfb2b;" d="M609 712q0 -110 -77 -187q-76 -76 -187 -76q-108 0 -185 77t-77 186q0 110 77 187t185 77q110 0 187 -77t77 -187zM536 712q0 81 -56 137q-55 55 -135 55t-135 -55t-55 -137q0 -79 55 -135q56 -56 135 -56t135 56q56 58 56 135z" />
<glyph unicode="&#xfb2c;" d="M609 712q0 -110 -77 -187q-76 -76 -187 -76q-108 0 -185 77t-77 186q0 110 77 187t185 77q110 0 187 -77t77 -187zM536 712q0 81 -56 137q-55 55 -135 55t-135 -55t-55 -137q0 -79 55 -135q56 -56 135 -56t135 56q56 58 56 135z" />
<glyph unicode="&#xfb2d;" d="M609 712q0 -110 -77 -187q-76 -76 -187 -76q-108 0 -185 77t-77 186q0 110 77 187t185 77q110 0 187 -77t77 -187zM536 712q0 81 -56 137q-55 55 -135 55t-135 -55t-55 -137q0 -79 55 -135q56 -56 135 -56t135 56q56 58 56 135z" />
<glyph unicode="&#xfb31;" d="M609 712q0 -110 -77 -187q-76 -76 -187 -76q-108 0 -185 77t-77 186q0 110 77 187t185 77q110 0 187 -77t77 -187zM536 712q0 81 -56 137q-55 55 -135 55t-135 -55t-55 -137q0 -79 55 -135q56 -56 135 -56t135 56q56 58 56 135z" />
<glyph unicode="&#xfb32;" d="M609 712q0 -110 -77 -187q-76 -76 -187 -76q-108 0 -185 77t-77 186q0 110 77 187t185 77q110 0 187 -77t77 -187zM536 712q0 81 -56 137q-55 55 -135 55t-135 -55t-55 -137q0 -79 55 -135q56 -56 135 -56t135 56q56 58 56 135z" />
<glyph unicode="&#xfb33;" d="M609 712q0 -110 -77 -187q-76 -76 -187 -76q-108 0 -185 77t-77 186q0 110 77 187t185 77q110 0 187 -77t77 -187zM536 712q0 81 -56 137q-55 55 -135 55t-135 -55t-55 -137q0 -79 55 -135q56 -56 135 -56t135 56q56 58 56 135z" />
<glyph unicode="&#xfb34;" d="M609 712q0 -110 -77 -187q-76 -76 -187 -76q-108 0 -185 77t-77 186q0 110 77 187t185 77q110 0 187 -77t77 -187zM536 712q0 81 -56 137q-55 55 -135 55t-135 -55t-55 -137q0 -79 55 -135q56 -56 135 -56t135 56q56 58 56 135z" />
<glyph unicode="&#xfb35;" d="M609 712q0 -110 -77 -187q-76 -76 -187 -76q-108 0 -185 77t-77 186q0 110 77 187t185 77q110 0 187 -77t77 -187zM536 712q0 81 -56 137q-55 55 -135 55t-135 -55t-55 -137q0 -79 55 -135q56 -56 135 -56t135 56q56 58 56 135z" />
<glyph unicode="&#xfb36;" d="M609 712q0 -110 -77 -187q-76 -76 -187 -76q-108 0 -185 77t-77 186q0 110 77 187t185 77q110 0 187 -77t77 -187zM536 712q0 81 -56 137q-55 55 -135 55t-135 -55t-55 -137q0 -79 55 -135q56 -56 135 -56t135 56q56 58 56 135z" />
<glyph unicode="&#xfb38;" d="M609 712q0 -110 -77 -187q-76 -76 -187 -76q-108 0 -185 77t-77 186q0 110 77 187t185 77q110 0 187 -77t77 -187zM536 712q0 81 -56 137q-55 55 -135 55t-135 -55t-55 -137q0 -79 55 -135q56 -56 135 -56t135 56q56 58 56 135z" />
<glyph unicode="&#xfb39;" d="M609 712q0 -110 -77 -187q-76 -76 -187 -76q-108 0 -185 77t-77 186q0 110 77 187t185 77q110 0 187 -77t77 -187zM536 712q0 81 -56 137q-55 55 -135 55t-135 -55t-55 -137q0 -79 55 -135q56 -56 135 -56t135 56q56 58 56 135z" />
<glyph unicode="&#xfb3a;" d="M609 712q0 -110 -77 -187q-76 -76 -187 -76q-108 0 -185 77t-77 186q0 110 77 187t185 77q110 0 187 -77t77 -187zM536 712q0 81 -56 137q-55 55 -135 55t-135 -55t-55 -137q0 -79 55 -135q56 -56 135 -56t135 56q56 58 56 135z" />
<glyph unicode="&#xfb3b;" d="M609 712q0 -110 -77 -187q-76 -76 -187 -76q-108 0 -185 77t-77 186q0 110 77 187t185 77q110 0 187 -77t77 -187zM536 712q0 81 -56 137q-55 55 -135 55t-135 -55t-55 -137q0 -79 55 -135q56 -56 135 -56t135 56q56 58 56 135z" />
<glyph unicode="&#xfb3c;" d="M609 712q0 -110 -77 -187q-76 -76 -187 -76q-108 0 -185 77t-77 186q0 110 77 187t185 77q110 0 187 -77t77 -187zM536 712q0 81 -56 137q-55 55 -135 55t-135 -55t-55 -137q0 -79 55 -135q56 -56 135 -56t135 56q56 58 56 135z" />
<glyph unicode="&#xfb3e;" d="M609 712q0 -110 -77 -187q-76 -76 -187 -76q-108 0 -185 77t-77 186q0 110 77 187t185 77q110 0 187 -77t77 -187zM536 712q0 81 -56 137q-55 55 -135 55t-135 -55t-55 -137q0 -79 55 -135q56 -56 135 -56t135 56q56 58 56 135z" />
<glyph unicode="&#xfb40;" d="M609 712q0 -110 -77 -187q-76 -76 -187 -76q-108 0 -185 77t-77 186q0 110 77 187t185 77q110 0 187 -77t77 -187zM536 712q0 81 -56 137q-55 55 -135 55t-135 -55t-55 -137q0 -79 55 -135q56 -56 135 -56t135 56q56 58 56 135z" />
<glyph unicode="&#xfb41;" d="M609 712q0 -110 -77 -187q-76 -76 -187 -76q-108 0 -185 77t-77 186q0 110 77 187t185 77q110 0 187 -77t77 -187zM536 712q0 81 -56 137q-55 55 -135 55t-135 -55t-55 -137q0 -79 55 -135q56 -56 135 -56t135 56q56 58 56 135z" />
<glyph unicode="&#xfb43;" d="M609 712q0 -110 -77 -187q-76 -76 -187 -76q-108 0 -185 77t-77 186q0 110 77 187t185 77q110 0 187 -77t77 -187zM536 712q0 81 -56 137q-55 55 -135 55t-135 -55t-55 -137q0 -79 55 -135q56 -56 135 -56t135 56q56 58 56 135z" />
<glyph unicode="&#xfb44;" d="M609 712q0 -110 -77 -187q-76 -76 -187 -76q-108 0 -185 77t-77 186q0 110 77 187t185 77q110 0 187 -77t77 -187zM536 712q0 81 -56 137q-55 55 -135 55t-135 -55t-55 -137q0 -79 55 -135q56 -56 135 -56t135 56q56 58 56 135z" />
<glyph unicode="&#xfb46;" d="M609 712q0 -110 -77 -187q-76 -76 -187 -76q-108 0 -185 77t-77 186q0 110 77 187t185 77q110 0 187 -77t77 -187zM536 712q0 81 -56 137q-55 55 -135 55t-135 -55t-55 -137q0 -79 55 -135q56 -56 135 -56t135 56q56 58 56 135z" />
<glyph unicode="&#xfb47;" d="M609 712q0 -110 -77 -187q-76 -76 -187 -76q-108 0 -185 77t-77 186q0 110 77 187t185 77q110 0 187 -77t77 -187zM536 712q0 81 -56 137q-55 55 -135 55t-135 -55t-55 -137q0 -79 55 -135q56 -56 135 -56t135 56q56 58 56 135z" />
<glyph unicode="&#xfb48;" d="M609 712q0 -110 -77 -187q-76 -76 -187 -76q-108 0 -185 77t-77 186q0 110 77 187t185 77q110 0 187 -77t77 -187zM536 712q0 81 -56 137q-55 55 -135 55t-135 -55t-55 -137q0 -79 55 -135q56 -56 135 -56t135 56q56 58 56 135z" />
<glyph unicode="&#xfb49;" d="M609 712q0 -110 -77 -187q-76 -76 -187 -76q-108 0 -185 77t-77 186q0 110 77 187t185 77q110 0 187 -77t77 -187zM536 712q0 81 -56 137q-55 55 -135 55t-135 -55t-55 -137q0 -79 55 -135q56 -56 135 -56t135 56q56 58 56 135z" />
<glyph unicode="&#xfb4a;" d="M609 712q0 -110 -77 -187q-76 -76 -187 -76q-108 0 -185 77t-77 186q0 110 77 187t185 77q110 0 187 -77t77 -187zM536 712q0 81 -56 137q-55 55 -135 55t-135 -55t-55 -137q0 -79 55 -135q56 -56 135 -56t135 56q56 58 56 135z" />
<glyph unicode="&#xfb4b;" d="M609 712q0 -110 -77 -187q-76 -76 -187 -76q-108 0 -185 77t-77 186q0 110 77 187t185 77q110 0 187 -77t77 -187zM536 712q0 81 -56 137q-55 55 -135 55t-135 -55t-55 -137q0 -79 55 -135q56 -56 135 -56t135 56q56 58 56 135z" />
<glyph horiz-adv-x="0" />
<glyph d="M609 712q0 -110 -77 -187q-76 -76 -187 -76q-108 0 -185 77t-77 186q0 110 77 187t185 77q110 0 187 -77t77 -187zM536 712q0 81 -56 137q-55 55 -135 55t-135 -55t-55 -137q0 -79 55 -135q56 -56 135 -56t135 56q56 58 56 135z" />
<glyph d="M609 712q0 -110 -77 -187q-76 -76 -187 -76q-108 0 -185 77t-77 186q0 110 77 187t185 77q110 0 187 -77t77 -187zM536 712q0 81 -56 137q-55 55 -135 55t-135 -55t-55 -137q0 -79 55 -135q56 -56 135 -56t135 56q56 58 56 135z" />
<glyph d="M609 712q0 -110 -77 -187q-76 -76 -187 -76q-108 0 -185 77t-77 186q0 110 77 187t185 77q110 0 187 -77t77 -187zM536 712q0 81 -56 137q-55 55 -135 55t-135 -55t-55 -137q0 -79 55 -135q56 -56 135 -56t135 56q56 58 56 135z" />
<glyph d="M609 712q0 -110 -77 -187q-76 -76 -187 -76q-108 0 -185 77t-77 186q0 110 77 187t185 77q110 0 187 -77t77 -187zM536 712q0 81 -56 137q-55 55 -135 55t-135 -55t-55 -137q0 -79 55 -135q56 -56 135 -56t135 56q56 58 56 135z" />
<glyph horiz-adv-x="756" d="M657 770q0 -119 -83 -202t-203 -83q-118 0 -200 84q-83 85 -83 201q0 118 83 203q82 84 200 84q120 0 203 -84q83 -85 83 -203zM578 770q0 88 -60 148q-58 61 -147 61q-86 0 -146 -61q-59 -61 -59 -148q0 -84 59 -146q60 -61 146 -61q89 0 147 61q60 61 60 146z" />
<glyph horiz-adv-x="756" d="M657 770q0 -119 -83 -202t-203 -83q-118 0 -200 84q-83 85 -83 201q0 118 83 203q82 84 200 84q120 0 203 -84q83 -85 83 -203zM578 770q0 88 -60 148q-58 61 -147 61q-86 0 -146 -61q-59 -61 -59 -148q0 -84 59 -146q60 -61 146 -61q89 0 147 61q60 61 60 146z" />
<glyph horiz-adv-x="756" d="M657 770q0 -119 -83 -202t-203 -83q-118 0 -200 84q-83 85 -83 201q0 118 83 203q82 84 200 84q120 0 203 -84q83 -85 83 -203zM578 770q0 88 -60 148q-58 61 -147 61q-86 0 -146 -61q-59 -61 -59 -148q0 -84 59 -146q60 -61 146 -61q89 0 147 61q60 61 60 146z" />
<glyph horiz-adv-x="0" d="M934 -299q0 -39 -26 -66.5t-68 -27.5q-39 0 -65.5 27.5t-26.5 66.5t26.5 64.5t65.5 25.5t66.5 -25.5t27.5 -64.5zM934 -600q0 -42 -26 -68t-68 -26q-39 0 -65.5 26t-26.5 68q0 18 7.5 35t20 29.5t29.5 20t35 7.5q42 0 68 -26.5t26 -65.5zM639 -672h-94v445h94v-445z M418 -346h-170l-6 -100q0 -23 29 -67q30 -44 30 -65q0 -40 -26.5 -67t-65.5 -27q-20 0 -36.5 7.5t-29 20.5t-19.5 30t-7 36q0 25 30 67q31 41 31 67l-8 98h-170v119h418v-119z" />
<glyph horiz-adv-x="756" d="M657 770q0 -119 -83 -202t-203 -83q-118 0 -200 84q-83 85 -83 201q0 118 83 203q82 84 200 84q120 0 203 -84q83 -85 83 -203zM578 770q0 88 -60 148q-58 61 -147 61q-86 0 -146 -61q-59 -61 -59 -148q0 -84 59 -146q60 -61 146 -61q89 0 147 61q60 61 60 146z" />
<glyph horiz-adv-x="756" d="M657 770q0 -119 -83 -202t-203 -83q-118 0 -200 84q-83 85 -83 201q0 118 83 203q82 84 200 84q120 0 203 -84q83 -85 83 -203zM578 770q0 88 -60 148q-58 61 -147 61q-86 0 -146 -61q-59 -61 -59 -148q0 -84 59 -146q60 -61 146 -61q89 0 147 61q60 61 60 146z" />
<glyph horiz-adv-x="756" d="M657 770q0 -119 -83 -202t-203 -83q-118 0 -200 84q-83 85 -83 201q0 118 83 203q82 84 200 84q120 0 203 -84q83 -85 83 -203zM578 770q0 88 -60 148q-58 61 -147 61q-86 0 -146 -61q-59 -61 -59 -148q0 -84 59 -146q60 -61 146 -61q89 0 147 61q60 61 60 146z" />
<glyph horiz-adv-x="756" d="M657 770q0 -119 -83 -202t-203 -83q-118 0 -200 84q-83 85 -83 201q0 118 83 203q82 84 200 84q120 0 203 -84q83 -85 83 -203zM578 770q0 88 -60 148q-58 61 -147 61q-86 0 -146 -61q-59 -61 -59 -148q0 -84 59 -146q60 -61 146 -61q89 0 147 61q60 61 60 146z" />
</font>
</defs>
</svg>
