<?xml version="1.0" standalone="no"?>
<!DOCTYPE svg PUBLIC "-//W3C//DTD SVG 1.1//EN" "http://www.w3.org/Graphics/SVG/1.1/DTD/svg11.dtd" >
<svg xmlns="http://www.w3.org/2000/svg" xmlns:xlink="http://www.w3.org/1999/xlink" version="1.1">
<metadata></metadata>
<defs>
<font id="fb_agolengregular" horiz-adv-x="700" >
<font-face units-per-em="2048" ascent="1638" descent="-410" />
<missing-glyph horiz-adv-x="717" />
<glyph unicode="&#xd;" horiz-adv-x="512" />
<glyph unicode=" "  horiz-adv-x="717" />
<glyph unicode="&#x09;" horiz-adv-x="717" />
<glyph unicode="&#xa0;" horiz-adv-x="717" />
<glyph unicode="!" horiz-adv-x="629" d="M426 958l-59 -445h-112l-62 445v456h233v-456zM435 0h-241v297h241v-297z" />
<glyph unicode="&#x22;" horiz-adv-x="859" d="M776 1334q0 -52 -19.5 -116t-56.5 -132.5t-90 -138t-118 -132.5l-72 49v12q20 31 42.5 67t45.5 74q16 27 31.5 63t27.5 75t19.5 78.5t8.5 74.5q1 25 2 47t-1 42l6 11l167 10q8 -11 7.5 -30.5t-0.5 -53.5zM396 1334q0 -52 -19.5 -116t-56.5 -132.5t-90 -138t-118 -132.5 l-72 49v12q20 31 42.5 67t45.5 74q16 27 31.5 63t27.5 75t19.5 78.5t8.5 74.5q1 25 1 46v43l6 11l167 10q4 -11 5.5 -30.5t1.5 -53.5z" />
<glyph unicode="#" horiz-adv-x="1540" d="M1429 1031l-40 -145h-276l-73 -352h290l-40 -145h-279l-80 -389h-145l79 389h-305l-80 -389h-145l79 389h-303l40 145h292l72 352h-304l39 145h294l79 392h146l-79 -392h306l79 392h146l-79 -392h287zM966 886h-305l-72 -352h305z" />
<glyph unicode="$" horiz-adv-x="1218" d="M1100 380q0 -93 -27 -168t-80 -128t-131 -82.5t-181 -30.5v-132h-123v139q-47 5 -91 14.5t-86.5 22.5t-85.5 30t-88 38l13 181q46 -20 87 -38t81.5 -33t82 -26t87.5 -18v511l-54 14q-86 22 -147.5 57t-100.5 82t-57.5 105.5t-18.5 127.5q0 82 20 150t64.5 118t116.5 79.5 t177 34.5v113h123v-115q50 -3 91.5 -9t78.5 -14t72.5 -17.5t74.5 -19.5l-11 -179q-36 11 -71.5 22t-72 21t-76.5 17.5t-86 12.5v-438l92 -26q75 -21 135 -54t103 -83t66 -118.5t23 -160.5zM558 851v412q-103 -6 -157.5 -53t-54.5 -138q0 -42 8.5 -75t29 -58.5t55 -44.5 t87.5 -34zM932 365q0 58 -15.5 101t-43.5 74t-66.5 51t-83.5 32l-42 11v-495h2q56 0 102 15.5t78.5 44.5t50.5 71t18 95z" />
<glyph unicode="%" horiz-adv-x="1767" d="M1665 349q0 -72 -20 -140.5t-60.5 -121.5t-102.5 -85.5t-146 -32.5q-88 0 -149 32t-99.5 85.5t-55.5 122t-17 140.5q0 70 20.5 137t61 119t100.5 83.5t138 31.5q87 0 149.5 -30.5t102.5 -82t59 -118.5t19 -140zM1401 1447l-873 -1447h-166l877 1447h162zM744 1075 q0 -72 -20 -140t-60.5 -121.5t-102.5 -86t-145 -32.5q-89 0 -150 32.5t-99 85.5t-55 122t-17 141q0 70 19.5 136.5t59.5 118.5t99.5 84t140.5 32q90 0 153 -30.5t102.5 -82t57 -119t17.5 -140.5zM1503 350q0 38 -7 77t-25.5 70.5t-50 51.5t-80.5 20q-52 0 -84 -22 t-49.5 -55.5t-23.5 -74.5t-6 -80q0 -37 7 -76t25 -70.5t49.5 -51.5t80.5 -20q52 0 84 21.5t50 55.5t24 74.5t6 79.5zM582 1077q0 38 -7 77t-25 70.5t-50 51.5t-81 20q-52 0 -83.5 -22t-49 -56t-23 -75t-5.5 -79t6.5 -76.5t24.5 -70t49.5 -51.5t80.5 -20q51 0 83 21.5 t50 55.5t24 75t6 79z" />
<glyph unicode="&#x26;" horiz-adv-x="1402" d="M1332 78l-133 -105l-181 207q-47 -50 -102 -88t-114 -63.5t-121.5 -38.5t-123.5 -13q-104 0 -189 27.5t-145 78t-93 120.5t-33 155q0 84 35.5 154.5t105.5 138.5q42 40 98 84t116 84q-32 36 -63 73.5t-55 78t-38.5 83t-14.5 87.5q0 71 25.5 129.5t71 100t107.5 64.5 t136 23q68 0 124.5 -19t97.5 -55t64 -88t23 -118q0 -54 -16 -102.5t-46.5 -93t-74.5 -87.5t-101 -86l337 -381q26 50 50 105.5t41 107.5l160 2q-10 -43 -27.5 -90t-38.5 -91.5t-43 -83.5t-40 -65zM783 1158q0 37 -13.5 67t-37 51t-54.5 32.5t-66 11.5q-40 0 -70.5 -13 t-51 -34.5t-31 -49.5t-10.5 -59q0 -35 22.5 -80t59.5 -87l76 -85q53 35 87 67.5t54 63t27.5 59t7.5 56.5zM915 290l-377 426q-70 -45 -120 -84t-81.5 -78t-46.5 -80t-15 -90q0 -59 24.5 -107t66 -82t95 -52.5t111.5 -18.5q40 0 84.5 9t89.5 29t88 51.5t81 76.5z" />
<glyph unicode="'" horiz-adv-x="488" d="M406 1334q0 -52 -19.5 -116t-56.5 -132.5t-90 -138t-118 -132.5l-72 49v12q20 31 42.5 67t45.5 74q16 27 31.5 63t27.5 75t19.5 78.5t8.5 74.5q1 25 1 46v43l6 11l167 10q4 -11 5.5 -30.5t1.5 -53.5z" />
<glyph unicode="(" horiz-adv-x="672" d="M590 -254h-164q-155 195 -238.5 417.5t-83.5 474.5q0 132 24 255t68.5 238.5t108 224t141.5 213.5h144q-68 -117 -125 -226t-98 -220.5t-64 -230.5t-23 -255q0 -117 21.5 -227.5t61.5 -219t97.5 -218.5t129.5 -226z" />
<glyph unicode=")" horiz-adv-x="672" d="M568 628q0 -125 -23 -243.5t-66 -230t-104.5 -216.5t-138.5 -202h-154q72 116 129.5 226t97.5 218.5t61.5 219t21.5 227.5q0 140 -23.5 259.5t-65 230.5t-98 218.5t-123.5 223.5h164q78 -105 138.5 -213.5t101 -224t61.5 -238.5t21 -255z" />
<glyph unicode="*" horiz-adv-x="1083" d="M949 1117l-316 -79l218 -260l-141 -100l-173 292l-164 -292l-139 100l210 260l-310 79l54 159l292 -123l-25 315h170l-29 -314l299 122z" />
<glyph unicode="+" horiz-adv-x="1160" d="M1050 538h-387v-390h-165v390h-387v163h387v387h165v-387h387v-163z" />
<glyph unicode="," horiz-adv-x="552" d="M440 269q0 -52 -21 -119t-60 -139t-93.5 -144.5t-119.5 -135.5l-82 59v12q20 31 42.5 66.5t45.5 74.5q16 27 31.5 64.5t27.5 78t19.5 81.5t8.5 76q0 14 -1 29.5t-4 39.5l-4 30l6 11l187 10q8 -11 12.5 -35.5t4.5 -58.5z" />
<glyph unicode="-" horiz-adv-x="791" d="M723 540h-660v196h660v-196z" />
<glyph unicode="." horiz-adv-x="593" d="M409 0h-255v329h255v-329z" />
<glyph unicode="/" horiz-adv-x="854" d="M694 1447l-452 -1470h-182l453 1470h181z" />
<glyph unicode="0" horiz-adv-x="1146" d="M1024 701q0 -82 -5.5 -167.5t-23 -165.5t-48.5 -151.5t-81.5 -124.5t-124 -84t-174.5 -31t-174 30t-123.5 81.5t-82 121.5t-48.5 150.5t-23 167.5t-6 173q0 80 5.5 165t22.5 165.5t48 153t82 126.5t124.5 85.5t174.5 31.5t174 -29.5t124 -80.5t82 -120.5t48 -150.5 t23 -169.5t6 -176.5zM838 701q0 48 -1 107.5t-8.5 120.5t-23.5 119t-46.5 102.5t-77.5 72t-116 27.5q-68 0 -114.5 -27.5t-76.5 -72.5t-45.5 -102.5t-23 -118.5t-8.5 -120.5t-1 -107.5t1 -107t8 -120t23 -118.5t46.5 -102.5t77 -72.5t115.5 -27.5q68 0 114.5 27.5t76.5 72.5 t46.5 103t24 119t8.5 120t1 106z" />
<glyph unicode="1" horiz-adv-x="1146" d="M795 0h-185v1118q-43 -41 -90 -78t-93 -67.5t-87.5 -54t-74.5 -38.5v188q66 36 131 79t120 91q28 24 48.5 47t36 45.5t27.5 46.5t24 51h143v-1428z" />
<glyph unicode="2" horiz-adv-x="1146" d="M1024 0h-906v151q5 9 18.5 27t31 40.5t38 47.5t40.5 48q53 60 109.5 124.5t113 128.5t110.5 126t102 117q45 52 65.5 109t20.5 99q0 55 -18 97.5t-51.5 71.5t-80 44t-103.5 15q-62 0 -142 -23t-165 -83l-29 180q24 21 62.5 40.5t86 35.5t101.5 25.5t110 9.5q90 0 166 -27 t131 -78.5t86 -127t31 -171.5q0 -50 -12 -97.5t-33 -91t-49.5 -84t-60.5 -76.5q-98 -112 -185 -210.5t-178 -195.5q-10 -11 -24 -26t-28 -29q-16 -17 -32 -35h674v-182z" />
<glyph unicode="3" horiz-adv-x="1146" d="M1035 403q0 -99 -37 -178t-100 -134.5t-148.5 -85t-182.5 -29.5q-56 0 -115.5 5.5t-117 18t-109.5 33.5t-92 53l84 170q40 -29 84.5 -48.5t88 -31.5t83 -17t70.5 -5q67 0 122.5 16t95.5 46.5t61.5 74.5t21.5 100q0 69 -22.5 118.5t-63.5 81.5t-99.5 47.5t-131.5 15.5 q-12 0 -33 -0.5t-44.5 -1t-46 -1.5t-37.5 -2v174q11 0 36.5 -0.5t52.5 -0.5h48h23q52 0 98.5 13.5t80.5 39.5t53.5 65t19.5 90q-1 59 -21 101.5t-55 70.5t-82 41.5t-101 13.5q-50 0 -92.5 -5t-80.5 -15.5t-72.5 -25.5t-68.5 -34l-29 171q31 18 67.5 33t80 26.5t96 17.5 t115.5 6q91 -1 168 -24t133.5 -69t88.5 -114.5t34 -159.5q1 -45 -7.5 -88.5t-29 -83.5t-54.5 -75t-84 -63q54 -16 99.5 -48t79.5 -77.5t53 -102.5t19 -123z" />
<glyph unicode="4" horiz-adv-x="1146" d="M1053 327h-203v-327h-183v327h-624v171l608 925h199v-922h203v-174zM667 501v669l-446 -669h446z" />
<glyph unicode="5" horiz-adv-x="1146" d="M1049 439q0 -98 -33.5 -182.5t-95.5 -146.5t-149.5 -98t-193.5 -36q-56 0 -114 7t-113.5 21.5t-106 37t-90.5 54.5l84 170q43 -33 87.5 -54.5t87.5 -34t81.5 -18t69.5 -5.5q67 0 121 19.5t92.5 55t59.5 86t21 112.5q0 65 -19 119.5t-56 94t-91.5 61.5t-124.5 22 q-41 0 -75.5 -8.5t-63.5 -24t-52 -37t-42 -45.5l-156 31l72 763h683v-181h-519l-39 -390q41 31 101.5 51t125.5 21q112 2 196 -32.5t140 -96.5t84 -148t28 -188z" />
<glyph unicode="6" horiz-adv-x="1146" d="M1035 438q0 -99 -35.5 -183t-97 -146t-146 -97t-182.5 -35q-86 0 -155 21t-123 59t-92 90.5t-61 115.5q-15 40 -23 85.5t-12 92t-5 90.5t-1 80q0 52 6 114.5t19 128.5t34 131.5t50 124.5q40 81 94.5 141.5t118.5 100t136.5 59.5t150.5 20q43 0 73.5 -1.5t55 -3.5t46.5 -6 t48 -8l-3 -179q-32 7 -60 11t-54.5 6.5t-52 4t-53.5 1.5q-51 1 -102 -14t-96 -41t-81 -61t-58 -75q-42 -78 -65.5 -164t-28.5 -166q30 39 69.5 67.5t84.5 47t93.5 27.5t95.5 8q97 -1 173.5 -32.5t129.5 -90t81 -140.5t28 -184zM853 427q0 63 -20 115t-56.5 90t-89 59 t-117.5 21q-47 0 -89.5 -13t-78.5 -36t-64 -54t-44 -67q-13 -41 -13 -85.5t12 -87.5t36 -82t59 -69t80.5 -47.5t102.5 -17.5q58 0 109.5 20t89.5 56t60.5 86.5t22.5 111.5z" />
<glyph unicode="7" horiz-adv-x="1146" d="M1039 1276q-116 -159 -205.5 -328t-155.5 -335.5t-110.5 -323t-71.5 -289.5h-194q23 126 66.5 277t107 311.5t145.5 323t183 310.5h-693v182h928v-128z" />
<glyph unicode="8" horiz-adv-x="1146" d="M1042 388q0 -101 -37.5 -178t-102 -128.5t-150.5 -78t-182 -26.5q-98 0 -184 26.5t-150 79t-101 130.5t-37 180q0 133 59 225t183 134q-50 19 -86.5 49.5t-59.5 69t-34 83.5t-11 94q0 93 33 164t90 119t133 72.5t162 24.5q87 0 164 -24t134 -70.5t90.5 -114.5t33.5 -156 q0 -47 -11.5 -93.5t-34.5 -87.5t-58.5 -75t-84.5 -56q123 -46 182.5 -134t59.5 -229zM811 1036q0 53 -20 95t-53.5 71t-77 44t-91.5 15q-46 0 -89.5 -16t-77 -44.5t-54 -68t-20.5 -86.5q0 -51 19 -91t52 -68t77 -43t95 -15q47 0 90.5 14.5t76.5 41t53 65t20 86.5zM857 400 q0 62 -22 111t-61 82.5t-92 51.5t-116 18q-62 0 -113.5 -17.5t-89 -50.5t-58.5 -80.5t-21 -108.5q0 -63 21.5 -110.5t60 -79t91.5 -47.5t115 -16t114 15.5t90 46t59.5 77t21.5 108.5z" />
<glyph unicode="9" horiz-adv-x="1146" d="M1041 746q0 -58 -4.5 -120t-15 -123.5t-27.5 -121t-42 -113.5q-64 -135 -173.5 -210t-257.5 -75q-86 0 -155.5 11.5t-128.5 31.5l23 187q63 -33 127 -45t119 -12q34 0 72 9.5t74.5 28.5t68.5 47.5t54 66.5q84 148 87 355q-25 -27 -57.5 -51.5t-71 -43t-82 -29.5 t-90.5 -11q-104 0 -186 34t-138.5 93t-86.5 138.5t-30 169.5q0 97 33 182.5t91.5 149t139 100t175.5 36.5q89 0 158.5 -23.5t122.5 -64.5t89.5 -97t59.5 -122q15 -41 25 -92t16 -102.5t8.5 -99.5t2.5 -84zM833 858q10 44 8.5 90.5t-13.5 90.5t-34.5 82.5t-56 67.5 t-77.5 46.5t-98 18.5q-57 1 -104 -20.5t-81 -59t-53 -89t-19 -111.5q0 -62 21 -112.5t58 -86t87.5 -54.5t109.5 -19q36 0 74 11t72 31.5t61.5 49t44.5 64.5z" />
<glyph unicode=":" horiz-adv-x="552" d="M378 684h-260v306h260v-306zM379 0h-260v305h260v-305z" />
<glyph unicode=";" horiz-adv-x="552" d="M356 704h-230v286h230v-286zM360 249q0 -52 -21 -114t-60 -129t-93.5 -134.5t-119.5 -130.5l-71 49v12q19 31 42.5 70.5t44.5 80.5q15 28 28 61t23.5 68t17.5 70.5t8 70.5q0 14 -1 29.5t-4 39.5l-4 30l6 11l187 10q8 -11 12.5 -35.5t4.5 -58.5z" />
<glyph unicode="&#x3c;" horiz-adv-x="1160" d="M989 117l-839 403v204l839 397v-194l-644 -306l644 -310v-194z" />
<glyph unicode="=" horiz-adv-x="1160" d="M1009 775h-857v183h857v-183zM1009 302h-857v184h857v-184z" />
<glyph unicode="&#x3e;" horiz-adv-x="1160" d="M1010 520l-840 -403v194l644 310l-644 306v194l840 -397v-204z" />
<glyph unicode="?" horiz-adv-x="1057" d="M869 1077q0 -88 -44.5 -168t-134.5 -148q-54 -40 -90.5 -79t-47.5 -82q-3 -12 -4.5 -19.5t-1.5 -15v-17.5v-26h-178q-4 18 -3.5 41t4 46.5t9.5 46.5t15 43q18 42 53 85t99 89t100 94t35 106q-1 44 -17 76.5t-43 54.5t-63 32.5t-76 10.5q-41 0 -75 -13.5t-61.5 -34 t-47 -46t-29.5 -49.5l-135 104q16 40 48 80t78.5 72.5t105 52.5t126.5 20q72 0 140.5 -20t121 -63t84.5 -110.5t32 -162.5zM578 0h-240v297h240v-297z" />
<glyph unicode="@" horiz-adv-x="1803" d="M1695 759q0 -115 -29 -217t-89 -184q-30 -41 -64 -70.5t-69.5 -48.5t-70 -27.5t-65.5 -8.5q-64 0 -118 28.5t-86 82.5q-47 -50 -102.5 -78t-131.5 -28q-87 0 -156 32t-117.5 87.5t-74 130.5t-25.5 160q0 93 28.5 176t82.5 145.5t131 98t173 34.5q62 -1 124 -29t115 -62 l16 72h161l-63 -525q-4 -29 -5.5 -55.5t-1.5 -49.5q0 -75 62 -75q17 0 37.5 7.5t41.5 23t41 38.5t38 54q70 121 70 276q0 130 -48.5 233t-131.5 174.5t-194 108.5t-235 36q-152 -1 -273.5 -51.5t-207 -138.5t-131 -208t-45.5 -260q0 -147 44 -265.5t126.5 -202t200.5 -128.5 t266 -45q58 0 125 4.5t136 16.5t138 33.5t131 54.5l15 8l52 -133l-12 -6q-65 -33 -137.5 -57t-148 -39.5t-151.5 -22.5t-147 -7q-180 0 -329.5 52.5t-256.5 153.5t-166.5 247t-59.5 334q0 117 29.5 222t83.5 195t129.5 162.5t168 123.5t198 78.5t220.5 27.5q159 0 297 -48 t240.5 -137.5t161.5 -217t59 -286.5zM1124 819q-21 24 -48 42t-55.5 30.5t-56.5 18.5t-51 6q-57 0 -101.5 -23t-75.5 -62.5t-47.5 -92.5t-16.5 -114q0 -51 16 -97t44.5 -80.5t68.5 -55t88 -20.5q30 0 60 6.5t56.5 18.5t47.5 29t35 39z" />
<glyph unicode="A" horiz-adv-x="1299" d="M1299 0h-206l-162 432h-586l-153 -432h-192l527 1423h214zM875 582l-247 658l-231 -658h478z" />
<glyph unicode="B" horiz-adv-x="1299" d="M1213 404q0 -108 -40.5 -184.5t-109 -125.5t-159.5 -71.5t-191 -22.5h-568v1423h540q86 0 166 -19.5t141 -63t97.5 -112.5t36.5 -168q0 -88 -47 -167t-150 -136q66 -23 119 -58t89.5 -80.5t56 -100t19.5 -114.5zM948 1037q0 56 -19 97.5t-54 69t-83.5 41t-107.5 13.5 h-359v-435h382q55 0 99.5 13.5t76 40.5t48.5 67t17 93zM1026 404q0 75 -28.5 124t-74 78t-102 41t-113.5 12h-383v-495h388q56 0 112 10.5t100.5 37.5t72.5 73.5t28 118.5z" />
<glyph unicode="C" horiz-adv-x="1329" d="M1185 37q-88 -28 -182.5 -45t-200.5 -17q-175 0 -306.5 44.5t-219.5 136t-132.5 230.5t-44.5 329q0 177 53 313.5t147 229.5t222.5 141t280.5 48q61 0 112.5 -4t97 -12t88 -19.5t85.5 -25.5v-167q-65 22 -117 35t-97.5 19.5t-88 8.5t-87.5 2q-126 0 -221.5 -44 t-159.5 -121t-96.5 -180.5t-32.5 -222.5q0 -123 35.5 -229t102.5 -183.5t162 -122t214 -44.5q52 0 96 4t88.5 12t93 20.5t108.5 29.5v-166z" />
<glyph unicode="D" horiz-adv-x="1407" d="M1320 719q0 -162 -41.5 -295t-125 -227t-208.5 -145.5t-292 -51.5h-501v1423h479q340 0 514.5 -179.5t174.5 -524.5zM1134 722q0 142 -34.5 243.5t-99.5 166.5t-159 95.5t-213 30.5h-295v-1094h299q257 0 379.5 142.5t122.5 415.5z" />
<glyph unicode="E" horiz-adv-x="1265" d="M1121 0h-965v1423h965v-165h-785v-441h733v-163h-733v-490h785v-164z" />
<glyph unicode="F" horiz-adv-x="1139" d="M1040 1258h-698v-446h655v-164h-655v-648h-180v1423h878v-165z" />
<glyph unicode="G" horiz-adv-x="1432" d="M1274 67q-48 -19 -104 -35.5t-116.5 -28.5t-123.5 -19t-124 -7q-183 0 -315.5 45t-218 135.5t-126 227.5t-40.5 320q0 184 56 323t153.5 232t230 140t286.5 47q110 0 206 -16.5t184 -39.5v-167q-135 35 -233 49t-172 14q-125 0 -223 -42.5t-165 -118t-102 -180.5 t-35 -230q0 -283 124 -428.5t389 -145.5q98 0 168.5 12t124.5 37v427h-430v164l606 1v-716z" />
<glyph unicode="H" horiz-adv-x="1407" d="M1248 0h-181v652h-728v-652h-181v1423h181v-606h728v606h181v-1423z" />
<glyph unicode="I" horiz-adv-x="541" d="M364 0h-180v1423h180v-1423z" />
<glyph unicode="J" horiz-adv-x="876" d="M723 450q1 -91 -13.5 -176.5t-55 -151.5t-113.5 -106t-189 -40q-35 0 -71 5.5t-70 15t-63 23.5t-49 32l8 178q34 -21 68.5 -37.5t65.5 -28t57 -17t43 -5.5q37 0 73.5 12t65.5 43t46.5 84t16.5 136l-13 1006h185z" />
<glyph unicode="K" horiz-adv-x="1299" d="M1272 0h-239l-503 683l-205 -220v-463h-180v1423h180v-726l663 726h238l-559 -612z" />
<glyph unicode="L" horiz-adv-x="1083" d="M992 0h-847v1423h180v-1259h667v-164z" />
<glyph unicode="M" horiz-adv-x="1847" d="M1757 0h-174l-264 1201l-300 -1201h-196l-314 1221l-255 -1221h-174l297 1423h256l290 -1186l291 1186h245z" />
<glyph unicode="N" horiz-adv-x="1387" d="M1225 0h-174l-728 1126v-1126h-173v1423h174l728 -1125v1125h173v-1423z" />
<glyph unicode="O" horiz-adv-x="1515" d="M1425 690q0 -157 -50.5 -288t-140.5 -225.5t-213.5 -147t-269.5 -52.5q-97 0 -183 25.5t-158.5 72t-130.5 111.5t-99 144t-62.5 170t-21.5 190q0 158 45.5 296.5t131.5 241t209.5 161.5t279.5 59q159 0 282.5 -59t208 -161.5t128.5 -240.5t44 -297zM1239 690 q0 126 -32 235.5t-93.5 190.5t-150 127t-200.5 46q-124 0 -214.5 -50t-150 -133.5t-88 -191.5t-28.5 -224q0 -112 31.5 -213t91.5 -177t147 -121t198 -45q118 0 209 43.5t153.5 119t94.5 177t32 216.5z" />
<glyph unicode="P" horiz-adv-x="1299" d="M1193 1012q0 -103 -28.5 -183t-84.5 -135.5t-138.5 -84.5t-190.5 -29h-418v-580h-181v1423h583q102 0 186 -23.5t144.5 -73.5t94 -127.5t33.5 -186.5zM1007 1006q0 65 -20.5 112.5t-57.5 78.5t-88 46t-111 15h-397v-514h401q135 0 204 68.5t69 193.5z" />
<glyph unicode="Q" horiz-adv-x="1586" d="M1508 76l-3 -215q-51 18 -104 43.5t-103 55t-96 62t-84 64.5q-82 -57 -169.5 -83t-187.5 -26q-152 0 -275 56.5t-209.5 154t-133.5 227.5t-47 278q0 158 45.5 296t131 240t209 160.5t280.5 58.5q165 0 289 -56.5t207.5 -155.5t125 -234.5t41.5 -292.5q0 -148 -47 -277 t-125 -220q29 -20 62 -39.5t66.5 -37.5t66 -33.5t60.5 -25.5zM1239 710q0 115 -30.5 219.5t-90.5 184.5t-149 127.5t-206 47.5q-127 0 -218 -48.5t-149.5 -131t-86 -191t-27.5 -228.5q0 -112 30 -213t90 -177t149.5 -121t208.5 -45q123 0 213.5 47t149.5 126.5t87.5 183.5 t28.5 219z" />
<glyph unicode="R" horiz-adv-x="1360" d="M1279 0h-255l-688 729v-729h-181v1423h577q101 0 186 -22.5t146.5 -71.5t95.5 -126t34 -186q0 -75 -20.5 -137t-58.5 -109.5t-92.5 -79.5t-122.5 -45q-20 -5 -81.5 -11t-148.5 -6zM1007 1017q0 67 -25.5 115t-67 78.5t-94.5 44.5t-109 14h-375v-492h369q143 0 222.5 56.5 t79.5 183.5z" />
<glyph unicode="S" horiz-adv-x="1299" d="M1197 390q0 -101 -39 -178t-108.5 -129t-165 -79t-207.5 -27q-126 0 -252 27.5t-252 84.5l23 179q114 -54 233 -88.5t248 -34.5q65 0 126.5 13t109.5 40.5t77 70.5t29 104q0 54 -19 95t-53 71.5t-79.5 50.5t-97.5 32l-271 59q-93 20 -159 54.5t-109 81t-63 105.5t-20 129 q0 81 29.5 153t89.5 125.5t151 85t214 31.5q69 0 129 -5t115 -14t107.5 -22.5t106.5 -29.5l-9 -177q-59 23 -115 39t-111.5 26.5t-112 15.5t-117.5 5t-115.5 -13.5t-96.5 -39.5t-67 -64.5t-27 -88.5q-4 -86 49 -138t169 -79l288 -67q85 -20 153.5 -53t117 -81.5t75 -115.5 t26.5 -154z" />
<glyph unicode="T" horiz-adv-x="1190" d="M1129 1258h-441v-1258h-181v1258h-440v165h1062v-165z" />
<glyph unicode="U" horiz-adv-x="1407" d="M1252 561q0 -150 -40 -260t-112.5 -182t-175 -107t-228.5 -35q-124 0 -224.5 33.5t-172 102.5t-110 175.5t-38.5 252.5v882h181v-862q0 -217 89.5 -318t274.5 -101q93 0 163 22t117.5 71t71 127t23.5 190v871h181v-862z" />
<glyph unicode="V" horiz-adv-x="1343" d="M1263 1423l-525 -1423h-187l-519 1423h196l417 -1215l434 1215h184z" />
<glyph unicode="W" horiz-adv-x="1905" d="M1825 1424l-356 -1423h-235l-310 1165l-311 -1165h-226l-355 1423h173l304 -1220l319 1220h196l333 -1240l294 1240h174z" />
<glyph unicode="X" horiz-adv-x="1338" d="M1265 1423l-507 -691l507 -732h-224l-393 586l-398 -586h-217l518 722l-493 701h215l383 -557l414 557h195z" />
<glyph unicode="Y" horiz-adv-x="1303" d="M1222 1423l-496 -760v-663h-181v663l-497 760h220l375 -580l369 580h210z" />
<glyph unicode="Z" horiz-adv-x="1190" d="M1139 0h-1098v7l747 1251h-666v165h975v-7l-752 -1252h794v-164z" />
<glyph unicode="[" horiz-adv-x="786" d="M663 -271h-487v1839h487v-149h-309v-1541h309v-149z" />
<glyph unicode="\" horiz-adv-x="686" d="M623 -23h-141l-412 1470h140z" />
<glyph unicode="]" horiz-adv-x="786" d="M610 -271h-487v149h309v1541h-309v149h487v-1839z" />
<glyph unicode="^" horiz-adv-x="961" d="M907 690h-181l-247 597l-240 -597h-185l353 801h145z" />
<glyph unicode="_" horiz-adv-x="1139" d="M1162 -406h-1192v130h1192v-130z" />
<glyph unicode="a" horiz-adv-x="1160" d="M1000 0h-154l-13 93q-68 -39 -124.5 -62t-103 -35t-84 -15t-68.5 -3q-67 0 -129.5 20.5t-110.5 60.5t-77 99t-29 135q0 80 26.5 143t80.5 108.5t137 75.5t196 44l282 35q6 76 -12.5 129t-53.5 86t-83 47.5t-100 14.5q-20 0 -56.5 -3t-86 -10.5t-109 -21t-125.5 -33.5 l-5 154q57 18 114 30.5t108.5 20t93.5 11t69 3.5q80 0 155.5 -15t133.5 -57.5t93 -118.5t35 -199v-737zM834 568l-243 -31q-92 -12 -152 -34.5t-95.5 -53t-50 -68.5t-14.5 -80q0 -45 19 -76t49 -51t68 -29t76 -9q29 0 66.5 5t81 17.5t92 34t99.5 53.5z" />
<glyph unicode="b" horiz-adv-x="1226" d="M1108 551q0 -120 -36 -224t-101 -180.5t-156.5 -120t-203.5 -43.5q-26 0 -61 3.5t-73.5 13t-77.5 25.5t-72 41l-14 -66h-141v1525h165v-473q70 36 144.5 53t149.5 17q120 0 209.5 -43t149 -119t89 -181t29.5 -228zM938 527q0 41 -4.5 84.5t-15.5 85.5t-29 81t-46 72 q-95 110 -259 110q-32 0 -65.5 -4.5t-66.5 -13t-64 -21.5t-56 -30v-646q23 -24 53.5 -43.5t64.5 -32.5t69.5 -20t68.5 -7q71 0 134.5 22t111.5 69t76 120t28 174z" />
<glyph unicode="c" horiz-adv-x="1094" d="M970 61q-80 -46 -161 -63t-154 -17q-110 0 -206.5 35.5t-168.5 107t-113.5 178t-41.5 247.5q0 145 44 254t120 181.5t178 108.5t217 36q29 0 67 -4t77 -12t76 -20t66 -28l-4 -157q-32 14 -69.5 25.5t-75 20t-72 13.5t-60.5 5q-41 0 -85.5 -9t-88.5 -29.5t-83.5 -53 t-69.5 -79.5t-48 -109.5t-18 -142.5q0 -114 36 -193t93.5 -128t130 -70.5t144.5 -21.5q65 0 131.5 21t134.5 53z" />
<glyph unicode="d" horiz-adv-x="1226" d="M1042 0h-140l-14 92q-51 -35 -97 -57t-86 -34.5t-73 -17.5t-59 -5q-74 0 -138 20t-116 55t-91.5 82.5t-64.5 102.5q-32 69 -44.5 146.5t-12.5 166.5q0 125 30.5 230t91 180.5t151.5 118t211 42.5q74 0 149.5 -17t137.5 -40v460h165v-1525zM882 247v648q-29 16 -64 28.5 t-70.5 20.5t-68 12t-57.5 4q-102 0 -169 -34.5t-106 -93t-55 -136.5t-16 -165q0 -84 23 -155.5t65 -123t101 -81t131 -29.5q33 0 70 7.5t74.5 21t74 33t67.5 43.5z" />
<glyph unicode="e" horiz-adv-x="1208" d="M1084 495l-809 -2q7 -105 44.5 -174t93.5 -109.5t125 -57t141 -16.5q28 0 64 4.5t80 16.5t95.5 33.5t110.5 56.5l5 -148q-46 -33 -100 -56t-105 -36.5t-93.5 -19.5t-66.5 -6q-117 0 -220 30.5t-179.5 98t-121 174.5t-44.5 260q0 121 33.5 227.5t98 186t157.5 125.5 t213 46q115 0 204.5 -40.5t150 -112.5t92 -172t31.5 -218v-91zM909 638q-3 76 -22 139t-57 108t-96 70t-139 25q-72 0 -130 -29t-99 -77t-63 -109.5t-23 -126.5h629z" />
<glyph unicode="f" horiz-adv-x="722" d="M708 1529l-7 -154q-16 3 -37 6.5t-41 6.5q-25 5 -50 8t-39 3q-83 0 -116 -38.5t-32 -111.5l3 -151h285v-151h-283l4 -947h-164l-5 947h-161v151h162l-3 140q-1 61 15 118t51 100t91 69t136 26q18 0 41.5 -2t48.5 -5t51 -7t50 -8z" />
<glyph unicode="g" horiz-adv-x="1207" d="M1033 47q0 -137 -38.5 -231.5t-105 -153t-157 -84.5t-195.5 -26q-23 0 -60 4.5t-79.5 13.5t-88 23t-86.5 34l3 157q85 -37 160 -57t141 -20q49 0 94.5 5.5t85 21t71 43t53 71t31.5 105t5 144.5q-75 -41 -147 -66t-146 -25q-120 0 -206 43.5t-141.5 118.5t-82 175 t-26.5 214q0 129 31 234.5t90.5 180t146.5 115.5t199 41q52 0 124 -20.5t170 -78.5l10 76h144v-1058zM873 263v603q-26 18 -55.5 35.5t-62 31.5t-66 22.5t-66.5 8.5q-78 0 -140 -24.5t-105.5 -74t-66.5 -124.5t-23 -176q0 -84 16 -157t54 -126.5t102.5 -84t160.5 -30.5 q64 0 123.5 24t128.5 72z" />
<glyph unicode="h" horiz-adv-x="1225" d="M1049 0h-165v699q0 73 -15 124t-45 83.5t-74.5 47t-102.5 14.5q-43 0 -118.5 -17t-191.5 -68v-883h-165v1525h165v-491q87 42 173 66t169 24q107 0 178.5 -30.5t114 -86t60 -134t17.5 -174.5v-699z" />
<glyph unicode="i" horiz-adv-x="513" d="M337 1348h-165v187h165v-187zM337 0h-165v1098h165v-1098z" />
<glyph unicode="j" horiz-adv-x="559" d="M381 1347h-165v188h165v-188zM381 -66q0 -77 -15 -146t-49.5 -121.5t-89.5 -83t-134 -30.5q-35 0 -76 6t-79 19l8 152q34 -10 68.5 -14.5t49.5 -4.5q78 0 115 48.5t37 135.5v1205h165v-1166z" />
<glyph unicode="k" horiz-adv-x="1036" d="M1023 0h-203l-408 539l-114 -115v-424h-165v1525h165v-896l486 469h205l-454 -447z" />
<glyph unicode="l" horiz-adv-x="513" d="M333 0h-165v1525h165v-1525z" />
<glyph unicode="m" horiz-adv-x="1814" d="M1646 0h-164v731q0 119 -50 179t-159 60q-63 0 -137.5 -32t-142.5 -90v-848h-165v720q0 66 -15 112.5t-43.5 75.5t-70 42t-95.5 13q-67 0 -135 -33.5t-132 -89.5v-840h-165v1104l154 5l11 -118q54 42 101 68.5t88.5 41.5t77.5 21t68 6q89 0 162 -35t121 -106q34 28 74 54 t85 45.5t93.5 31t99.5 11.5q80 0 143 -20.5t106.5 -63.5t66.5 -110.5t23 -161.5v-773z" />
<glyph unicode="n" horiz-adv-x="1225" d="M1047 0h-165v717q0 47 -9 92t-33.5 80t-69.5 56.5t-117 21.5q-33 0 -74.5 -9.5t-84.5 -26t-84 -40t-73 -51.5v-840h-165v1104l154 5l11 -108q112 73 204 100t157 27q166 0 257.5 -93.5t91.5 -288.5v-746z" />
<glyph unicode="o" horiz-adv-x="1229" d="M1119 568q0 -128 -31.5 -236.5t-94.5 -187.5t-158 -123.5t-222 -44.5q-125 0 -219.5 43.5t-158.5 120.5t-96.5 182.5t-32.5 229.5t33 230t97 183t159 120.5t218 43.5q122 0 216.5 -42.5t159 -118t97.5 -178t33 -222.5zM949 559q0 78 -18 153.5t-58.5 135t-104.5 95.5 t-155 36q-94 0 -158.5 -36.5t-104 -96.5t-56.5 -136.5t-17 -157.5t19.5 -158t60 -137t104 -96.5t152.5 -36.5q95 0 159.5 38t103.5 99.5t56 139.5t17 158z" />
<glyph unicode="p" horiz-adv-x="1224" d="M1108 552q0 -125 -33.5 -228.5t-97 -178.5t-154.5 -116.5t-206 -41.5q-36 0 -70 5.5t-68 16.5t-69 27.5t-73 38.5v-495h-165v1523h140l15 -87q47 36 92 57t85 32.5t74.5 15t60.5 3.5q74 0 138.5 -20t117 -55t92 -82t64.5 -102q32 -69 44.5 -146.5t12.5 -166.5zM938 563 q0 89 -25.5 163.5t-71 128t-109 83t-139.5 29.5q-38 0 -74 -9.5t-69 -24.5t-62.5 -34.5t-55.5 -39.5v-610q34 -26 71.5 -45t74 -32t69.5 -19t59 -6q91 0 154.5 32.5t103 88.5t57 132t17.5 163z" />
<glyph unicode="q" horiz-adv-x="1206" d="M1040 -420h-165v471q-72 -32 -145.5 -50t-148.5 -18q-120 0 -209.5 46.5t-149 124.5t-89 181t-29.5 217q0 112 31 216t90.5 183.5t146.5 127t199 47.5q52 0 134.5 -20.5t181.5 -78.5l7 76h146v-1523zM880 217v647q-26 18 -59 35.5t-69 31.5t-73 22.5t-70 8.5 q-71 0 -132.5 -23t-106.5 -71t-70.5 -121.5t-25.5 -174.5q0 -83 19.5 -165t70.5 -148q46 -59 114 -87.5t150 -28.5q63 0 128.5 18t123.5 56z" />
<glyph unicode="r" horiz-adv-x="752" d="M697 1086l-8 -166q-16 6 -34 11.5t-35 9t-31.5 6t-22.5 2.5q-32 0 -66 -10.5t-65.5 -32.5t-57.5 -56.5t-41 -82.5v-767h-165v739q0 23 -1 68t-1.5 98t-1.5 106t-1 93h154l15 -152q39 55 73.5 87t65 48.5t57 20.5t50.5 4q11 0 26.5 -2t31.5 -5.5t31 -8t27 -10.5z" />
<glyph unicode="s" horiz-adv-x="1064" d="M950 300q0 -85 -36 -146t-95.5 -100.5t-135 -58.5t-154.5 -19q-46 0 -99 6t-105.5 17t-101.5 26t-86 33l3 166q36 -18 81 -35t95 -30.5t103.5 -21.5t106.5 -8q40 0 84.5 8.5t82 27t62 47.5t24.5 71q0 44 -19.5 77.5t-54.5 59.5t-83 45.5t-105 34.5q-87 24 -157.5 50 t-121 62.5t-77.5 88t-27 126.5q0 86 35 144t93 93t132.5 50t152.5 15q92 0 174.5 -15.5t157.5 -52.5l-4 -156q-39 16 -76 29.5t-77 23.5t-85 16t-98 6q-32 0 -74.5 -4t-80.5 -18.5t-64.5 -42t-26.5 -74.5q0 -34 17 -58.5t50.5 -44t83.5 -36.5t116 -36q81 -24 152 -53 t124 -71t83.5 -100.5t30.5 -141.5z" />
<glyph unicode="t" horiz-adv-x="674" d="M604 29q-17 -11 -37.5 -19t-42 -13.5t-41.5 -8t-34 -2.5q-75 0 -125.5 22.5t-80.5 63.5t-42 98t-11 126l9 655h-140v148h148l2 248l166 91l-4 -339h231v-148h-239l-9 -651q0 -33 6.5 -61t21.5 -48t39 -31.5t59 -11.5q15 0 50.5 7.5t71.5 22.5z" />
<glyph unicode="u" horiz-adv-x="1221" d="M1039 0h-151l-16 102q-110 -71 -197.5 -98t-151.5 -27q-83 0 -149.5 23t-113.5 70.5t-72 119t-25 168.5v746h165v-717q0 -48 10.5 -93t37.5 -80t73.5 -56t118.5 -21q33 0 72.5 9.5t80.5 26.5t80.5 40.5t71.5 51.5v839h166v-1104z" />
<glyph unicode="v" horiz-adv-x="1141" d="M1051 1104l-404 -1104h-172l-406 1104h179l317 -894l313 894h173z" />
<glyph unicode="w" horiz-adv-x="1685" d="M1606 1104l-343 -1104h-179l-252 864l-253 -864h-180l-341 1104h171l271 -894l259 886h155l260 -861l273 869h159z" />
<glyph unicode="x" horiz-adv-x="1109" d="M1076 0h-203l-323 450l-321 -450h-186l407 571l-392 533h195l300 -411l297 411h190l-388 -532z" />
<glyph unicode="y" horiz-adv-x="1109" d="M1068 1104l-442 -1144q-32 -82 -68 -153t-83.5 -123.5t-108.5 -82.5t-142 -30q-24 0 -52.5 4.5t-60.5 15.5l11 160q28 -8 51.5 -12t44.5 -4q66 0 119 38.5t87 105.5q8 16 18 38t20.5 46t20.5 48.5t18 46.5l-456 1046h183l358 -841l309 841h173z" />
<glyph unicode="z" horiz-adv-x="1105" d="M985 1101l-624 -944h614v-157h-890l626 957h-543v147h817v-3z" />
<glyph unicode="{" horiz-adv-x="853" d="M731 -294h-138q-110 0 -181.5 22.5t-116.5 71.5q-57 63 -66 151t20 200q27 101 43.5 174.5t12.5 108.5q-5 34 -19.5 58t-38 39.5t-56.5 23.5t-76 12v163q78 2 128.5 37.5t61.5 104.5q3 18 -1 45.5t-12 63t-19 77.5t-24 88q-32 116 -22 208t73 154q45 45 116.5 65 t176.5 20h138v-149h-130q-19 0 -38.5 -1.5t-39.5 -7.5t-39.5 -17t-37.5 -29q-21 -21 -28.5 -49.5t-6 -64.5t11 -80t23.5 -96q18 -65 28.5 -116t13.5 -90t-1.5 -68.5t-16.5 -52.5q-23 -45 -69.5 -75.5t-102.5 -47.5q56 -17 102.5 -47.5t69.5 -75.5q12 -23 17.5 -51.5t3 -67.5 t-13.5 -90.5t-31 -118.5q-15 -50 -25.5 -92.5t-12.5 -78t5 -63.5t27 -50q28 -31 70.5 -45t90.5 -14h130v-149z" />
<glyph unicode="|" horiz-adv-x="532" d="M345 -325h-157v1921h157v-1921z" />
<glyph unicode="}" horiz-adv-x="853" d="M739 567q-43 -4 -76 -12t-56.5 -23.5t-38 -39.5t-19.5 -58q-5 -35 12 -108t43 -175q29 -112 20 -200t-66 -151q-45 -49 -116.5 -71.5t-180.5 -22.5h-138v149h129q49 0 91.5 14t69.5 45q19 22 26.5 50t5.5 63.5t-12 78t-25 92.5q-20 67 -31 118.5t-13.5 90.5t2.5 67.5 t17 51.5q23 45 69.5 75.5t102.5 47.5q-56 17 -102.5 47.5t-69.5 75.5q-12 23 -16 52.5t-1 68.5t13.5 90t28.5 116q14 52 23.5 96t11 80t-6 64.5t-28.5 49.5q-37 37 -77.5 46t-78.5 9h-129v149h138q104 0 175.5 -20t116.5 -65q63 -62 73 -154t-22 -208q-12 -46 -23.5 -88 t-19 -77.5t-11.5 -63t-1 -45.5q11 -69 61.5 -104.5t128.5 -37.5v-163z" />
<glyph unicode="~" horiz-adv-x="1196" d="M1110 673q-64 -60 -129.5 -87t-147.5 -27q-30 0 -58.5 3.5t-56.5 10.5q-27 7 -70 24t-103 43q-120 53 -197 53q-65 0 -121 -28q-57 -27 -140 -108v205q106 120 278 120q60 0 126 -18q67 -17 188 -69q35 -14 60.5 -23.5t42.5 -14.5q34 -9 70 -9q65 0 134 39q69 38 124 98 v-212z" />
<glyph unicode="&#xa2;" horiz-adv-x="1139" d="M1034 369q-33 -185 -157 -291q-121 -105 -291 -105q-47 0 -103 14l-118 -395l-112 32l115 397q-114 55 -188 183q-73 128 -73 322q0 179 58 305q58 127 175 192q116 64 238 64q18 0 43 -2t57 -6l113 387l110 -32l-112 -387q99 -43 152 -115.5t74 -181.5l-175 -27 q-26 112 -96 171l-222 -766q33 -9 61 -9q103 0 179 71q76 70 93 199zM638 940q-32 3 -50 3q-83 0 -154 -46q-71 -45 -106.5 -140.5t-35.5 -221.5q0 -133 31.5 -223t91.5 -135z" />
<glyph unicode="&#xa3;" horiz-adv-x="1139" d="M1082 38q-46 -20 -81.5 -32t-61.5 -18q-50 -12 -100 -12q-21 0 -42 2t-43 6q-14 2 -46 11t-84 24q-51 16 -84 25.5t-48 12.5q-23 4 -47 6t-47 2q-36 0 -75 -6.5t-78.5 -18.5t-77.5 -29t-71 -38l-69 172q48 26 88.5 64t74.5 87q67 98 67 241q0 59 -17 124h-196v148h154 q-33 113 -42 163q-9 52 -9 101q0 208 154 325q124 93 300 93q180 0 298 -100t145 -279l-179 -27q-15 120 -90 189q-74 69 -178 69q-112 0 -185 -72q-73 -70 -73 -172q0 -112 57 -290h315v-148h-284q19 -42 19 -88q0 -88 -41 -184t-137 -198q78 22 144 22q42 0 88.5 -6 t98.5 -19q87 -20 144.5 -30.5t88.5 -10.5q72 0 192 56z" />
<glyph unicode="&#xa7;" horiz-adv-x="1139" d="M1045 464q0 -114 -73 -193q-42 -47 -154 -93q159 -120 159 -280q0 -87 -50 -166q-25 -40 -60.5 -69.5t-83.5 -50.5q-48 -20 -98 -31t-105 -11q-96 0 -172 24.5t-131.5 71t-89 113.5t-44.5 152l181 26q28 -130 89 -182q62 -53 166 -53q103 0 159 52q58 52 58 122 q0 50 -36 94q-62 74 -340 244q-150 93 -207 142q-58 52 -95 122t-37 146q0 96 60 174q59 77 165 109q-71 68 -100 125.5t-29 122.5q0 128 100 222t265 94q188 0 292.5 -88.5t125.5 -258.5l-187 -19q-11 61 -29 103t-44.5 67.5t-61.5 36.5t-80 11q-91 0 -149 -50 q-56 -50 -56 -109q0 -53 36 -96q57 -69 306 -220q79 -48 131.5 -83t80.5 -58q72 -60 105 -124t33 -139zM875 431q0 58 -52 120t-225 169q-137 84 -204 138q-81 -46 -115.5 -91.5t-34.5 -102.5q0 -64 46 -120q47 -58 207 -152q67 -40 124.5 -76.5t106.5 -71.5q75 38 111 88.5 t36 98.5z" />
<glyph unicode="&#xa9;" horiz-adv-x="1529" d="M1519 736q0 -105 -27 -202t-76 -180.5t-118 -152t-153 -117t-180 -75t-200 -26.5q-105 0 -202 27t-181 76t-152.5 118t-117.5 152.5t-75.5 179.5t-26.5 200q0 105 27 202t76.5 180.5t119 152.5t153.5 117.5t180 75.5t199 27q105 0 202 -27t180.5 -76.5t152 -118.5 t117.5 -153t75.5 -180.5t26.5 -199.5zM1394 736q0 87 -22.5 167.5t-64 150.5t-99 127.5t-127.5 98.5t-150 63.5t-166 22.5q-87 0 -167.5 -22.5t-150.5 -64t-127.5 -99t-98.5 -127.5t-63.5 -150.5t-22.5 -166.5q0 -88 22.5 -168.5t64 -150.5t99 -127t127.5 -98t150.5 -63 t166.5 -22q88 0 169 22.5t150.5 63.5t127 98.5t98 127.5t62.5 150.5t22 166.5zM1019 379q-23 -19 -53 -33.5t-63 -24t-66 -14t-61 -4.5q-80 0 -155 27.5t-132.5 81.5t-92.5 134t-35 185q0 108 37 188.5t98.5 134.5t140 80.5t161.5 26.5q23 0 52.5 -4t59.5 -12.5t59 -21 t50 -29.5l-3 -127q-25 17 -53.5 29.5t-57.5 20.5t-55.5 12t-47.5 4q-44 0 -97 -15t-99 -50.5t-77 -93.5t-31 -143q0 -82 29 -139t74 -92.5t100.5 -51.5t108.5 -16q51 0 101.5 18.5t105.5 53.5z" />
<glyph unicode="&#xab;" horiz-adv-x="1139" d="M991 72h-152l-313 456l313 456h152l-264 -456zM601 984l-261 -456l259 -456h-146l-319 456l319 456h148z" />
<glyph unicode="&#xad;" horiz-adv-x="791" d="M723 540h-660v196h660v-196z" />
<glyph unicode="&#xb6;" horiz-adv-x="1100" d="M1107 1293h-144v-1699h-170v1699h-223v-1699h-165v1044q-94 5 -168 34.5t-128 86.5q-55 56 -81.5 127t-26.5 158q0 193 120 307q121 115 353 115h633v-173z" />
<glyph unicode="&#xb7;" horiz-adv-x="512" d="M367 678q0 -47 -32 -79t-79 -32q-45 0 -78 33t-33 78q0 47 32 78.5t79 31.5t79 -31.5t32 -78.5z" />
<glyph unicode="&#xbb;" horiz-adv-x="1024" d="M961 463l-388 -471h-57l244 471l-244 471h57zM516 463l-393 -471h-60l244 471l-244 471h60z" />
<glyph unicode="&#xbc;" horiz-adv-x="1708" d="M1678 123h-104v-153h-144v153h-383v123l405 474h122v-489h104v-108zM1510 1491l-1101 -1547h-157l1102 1547h156zM476 733h-145v554q-103 -82 -224 -113v123q31 10 65.5 28.5t72.5 44.5q76 52 123 114h108v-751zM1430 231v263l-230 -263h230z" />
<glyph unicode="&#xbd;" horiz-adv-x="1708" d="M1672 -30h-623q6 55 48 112q62 87 206 191q72 52 114.5 85.5t56.5 49.5q37 42 37 84q0 48 -34.5 78.5t-103.5 30.5q-66 0 -99 -24q-32 -23 -53 -89l-151 15q15 56 39.5 97t61.5 67.5t88 39.5t117 13q150 0 221 -59t71 -144q0 -83 -59 -159q-23 -28 -73.5 -71t-130.5 -101 q-86 -63 -119 -96h386v-120zM1486 1491l-1101 -1547h-157l1101 1547h157zM476 733h-145v554q-103 -82 -224 -113v123q31 10 65.5 28.5t72.5 44.5q76 52 123 114h108v-751z" />
<glyph unicode="&#xbe;" horiz-adv-x="1708" d="M1678 123h-104v-153h-145v153h-382v123l404 474h123v-489h104v-108zM1510 1491l-1101 -1547h-157l1101 1547h157zM646 946q0 -93 -79 -162q-80 -69 -225 -69q-140 0 -214 55.5t-95 158.5l146 15q19 -58 52 -82q43 -30 102 -30q70 0 114 39q43 39 43 94q0 50 -36 80.5 t-120 29.5q-25 0 -39.5 -1.5t-18.5 -1.5l22 110q40 0 69.5 7.5t49 21.5t28.5 33t9 40q0 37 -29.5 63t-89.5 26q-56 0 -87.5 -22t-54.5 -80l-143 23q40 105 103 148q63 42 183 42q143 0 209 -54t66 -133q0 -55 -35.5 -98t-102.5 -62q90 -22 131.5 -72t41.5 -119zM1429 231 v263l-229 -263h229z" />
<glyph unicode="&#xd7;" horiz-adv-x="987" d="M844 281l-49 -50l-303 304l-302 -304l-49 50l301 301l-301 301l52 49l299 -299l301 299l49 -47l-301 -301z" />
<glyph unicode="&#xf7;" horiz-adv-x="1124" d="M648 987q0 -35 -25.5 -60.5t-62.5 -25.5q-35 0 -61.5 25.5t-26.5 60.5q0 37 25.5 62.5t62.5 25.5q39 0 63.5 -24.5t24.5 -63.5zM1101 641h-1079v82h1079v-82zM648 367q0 -37 -25.5 -62.5t-62.5 -25.5q-35 0 -61.5 25.5t-26.5 62.5q0 36 26.5 62t61.5 26q39 0 63.5 -26 t24.5 -62z" />
<glyph unicode="&#x591;" horiz-adv-x="756" d="M657 770q0 -119 -82.5 -202t-203.5 -83q-117 0 -200 84t-83 201q0 119 83 203t200 84q121 0 203.5 -84t82.5 -203zM578 770q0 88 -59.5 148.5t-147.5 60.5q-86 0 -145.5 -60.5t-59.5 -148.5q0 -84 59.5 -145.5t145.5 -61.5q88 0 147.5 61.5t59.5 145.5z" />
<glyph unicode="&#x592;" horiz-adv-x="756" d="M657 770q0 -119 -82.5 -202t-203.5 -83q-117 0 -200 84t-83 201q0 119 83 203t200 84q121 0 203.5 -84t82.5 -203zM578 770q0 88 -59.5 148.5t-147.5 60.5q-86 0 -145.5 -60.5t-59.5 -148.5q0 -84 59.5 -145.5t145.5 -61.5q88 0 147.5 61.5t59.5 145.5z" />
<glyph unicode="&#x593;" horiz-adv-x="756" d="M657 770q0 -119 -82.5 -202t-203.5 -83q-117 0 -200 84t-83 201q0 119 83 203t200 84q121 0 203.5 -84t82.5 -203zM578 770q0 88 -59.5 148.5t-147.5 60.5q-86 0 -145.5 -60.5t-59.5 -148.5q0 -84 59.5 -145.5t145.5 -61.5q88 0 147.5 61.5t59.5 145.5z" />
<glyph unicode="&#x594;" horiz-adv-x="756" d="M657 770q0 -119 -82.5 -202t-203.5 -83q-117 0 -200 84t-83 201q0 119 83 203t200 84q121 0 203.5 -84t82.5 -203zM578 770q0 88 -59.5 148.5t-147.5 60.5q-86 0 -145.5 -60.5t-59.5 -148.5q0 -84 59.5 -145.5t145.5 -61.5q88 0 147.5 61.5t59.5 145.5z" />
<glyph unicode="&#x595;" horiz-adv-x="756" d="M657 770q0 -119 -82.5 -202t-203.5 -83q-117 0 -200 84t-83 201q0 119 83 203t200 84q121 0 203.5 -84t82.5 -203zM578 770q0 88 -59.5 148.5t-147.5 60.5q-86 0 -145.5 -60.5t-59.5 -148.5q0 -84 59.5 -145.5t145.5 -61.5q88 0 147.5 61.5t59.5 145.5z" />
<glyph unicode="&#x596;" horiz-adv-x="756" d="M657 770q0 -119 -82.5 -202t-203.5 -83q-117 0 -200 84t-83 201q0 119 83 203t200 84q121 0 203.5 -84t82.5 -203zM578 770q0 88 -59.5 148.5t-147.5 60.5q-86 0 -145.5 -60.5t-59.5 -148.5q0 -84 59.5 -145.5t145.5 -61.5q88 0 147.5 61.5t59.5 145.5z" />
<glyph unicode="&#x597;" horiz-adv-x="756" d="M657 770q0 -119 -82.5 -202t-203.5 -83q-117 0 -200 84t-83 201q0 119 83 203t200 84q121 0 203.5 -84t82.5 -203zM578 770q0 88 -59.5 148.5t-147.5 60.5q-86 0 -145.5 -60.5t-59.5 -148.5q0 -84 59.5 -145.5t145.5 -61.5q88 0 147.5 61.5t59.5 145.5z" />
<glyph unicode="&#x598;" horiz-adv-x="756" d="M657 770q0 -119 -82.5 -202t-203.5 -83q-117 0 -200 84t-83 201q0 119 83 203t200 84q121 0 203.5 -84t82.5 -203zM578 770q0 88 -59.5 148.5t-147.5 60.5q-86 0 -145.5 -60.5t-59.5 -148.5q0 -84 59.5 -145.5t145.5 -61.5q88 0 147.5 61.5t59.5 145.5z" />
<glyph unicode="&#x599;" horiz-adv-x="756" d="M657 770q0 -119 -82.5 -202t-203.5 -83q-117 0 -200 84t-83 201q0 119 83 203t200 84q121 0 203.5 -84t82.5 -203zM578 770q0 88 -59.5 148.5t-147.5 60.5q-86 0 -145.5 -60.5t-59.5 -148.5q0 -84 59.5 -145.5t145.5 -61.5q88 0 147.5 61.5t59.5 145.5z" />
<glyph unicode="&#x59a;" horiz-adv-x="756" d="M657 770q0 -119 -82.5 -202t-203.5 -83q-117 0 -200 84t-83 201q0 119 83 203t200 84q121 0 203.5 -84t82.5 -203zM578 770q0 88 -59.5 148.5t-147.5 60.5q-86 0 -145.5 -60.5t-59.5 -148.5q0 -84 59.5 -145.5t145.5 -61.5q88 0 147.5 61.5t59.5 145.5z" />
<glyph unicode="&#x59b;" horiz-adv-x="756" d="M657 770q0 -119 -82.5 -202t-203.5 -83q-117 0 -200 84t-83 201q0 119 83 203t200 84q121 0 203.5 -84t82.5 -203zM578 770q0 88 -59.5 148.5t-147.5 60.5q-86 0 -145.5 -60.5t-59.5 -148.5q0 -84 59.5 -145.5t145.5 -61.5q88 0 147.5 61.5t59.5 145.5z" />
<glyph unicode="&#x59c;" horiz-adv-x="756" d="M657 770q0 -119 -82.5 -202t-203.5 -83q-117 0 -200 84t-83 201q0 119 83 203t200 84q121 0 203.5 -84t82.5 -203zM578 770q0 88 -59.5 148.5t-147.5 60.5q-86 0 -145.5 -60.5t-59.5 -148.5q0 -84 59.5 -145.5t145.5 -61.5q88 0 147.5 61.5t59.5 145.5z" />
<glyph unicode="&#x59d;" horiz-adv-x="756" d="M657 770q0 -119 -82.5 -202t-203.5 -83q-117 0 -200 84t-83 201q0 119 83 203t200 84q121 0 203.5 -84t82.5 -203zM578 770q0 88 -59.5 148.5t-147.5 60.5q-86 0 -145.5 -60.5t-59.5 -148.5q0 -84 59.5 -145.5t145.5 -61.5q88 0 147.5 61.5t59.5 145.5z" />
<glyph unicode="&#x59e;" horiz-adv-x="756" d="M657 770q0 -119 -82.5 -202t-203.5 -83q-117 0 -200 84t-83 201q0 119 83 203t200 84q121 0 203.5 -84t82.5 -203zM578 770q0 88 -59.5 148.5t-147.5 60.5q-86 0 -145.5 -60.5t-59.5 -148.5q0 -84 59.5 -145.5t145.5 -61.5q88 0 147.5 61.5t59.5 145.5z" />
<glyph unicode="&#x59f;" horiz-adv-x="756" d="M657 770q0 -119 -82.5 -202t-203.5 -83q-117 0 -200 84t-83 201q0 119 83 203t200 84q121 0 203.5 -84t82.5 -203zM578 770q0 88 -59.5 148.5t-147.5 60.5q-86 0 -145.5 -60.5t-59.5 -148.5q0 -84 59.5 -145.5t145.5 -61.5q88 0 147.5 61.5t59.5 145.5z" />
<glyph unicode="&#x5a0;" horiz-adv-x="756" d="M657 770q0 -119 -82.5 -202t-203.5 -83q-117 0 -200 84t-83 201q0 119 83 203t200 84q121 0 203.5 -84t82.5 -203zM578 770q0 88 -59.5 148.5t-147.5 60.5q-86 0 -145.5 -60.5t-59.5 -148.5q0 -84 59.5 -145.5t145.5 -61.5q88 0 147.5 61.5t59.5 145.5z" />
<glyph unicode="&#x5a1;" horiz-adv-x="756" d="M657 770q0 -119 -82.5 -202t-203.5 -83q-117 0 -200 84t-83 201q0 119 83 203t200 84q121 0 203.5 -84t82.5 -203zM578 770q0 88 -59.5 148.5t-147.5 60.5q-86 0 -145.5 -60.5t-59.5 -148.5q0 -84 59.5 -145.5t145.5 -61.5q88 0 147.5 61.5t59.5 145.5z" />
<glyph unicode="&#x5a3;" horiz-adv-x="756" d="M657 770q0 -119 -82.5 -202t-203.5 -83q-117 0 -200 84t-83 201q0 119 83 203t200 84q121 0 203.5 -84t82.5 -203zM578 770q0 88 -59.5 148.5t-147.5 60.5q-86 0 -145.5 -60.5t-59.5 -148.5q0 -84 59.5 -145.5t145.5 -61.5q88 0 147.5 61.5t59.5 145.5z" />
<glyph unicode="&#x5a4;" horiz-adv-x="756" d="M657 770q0 -119 -82.5 -202t-203.5 -83q-117 0 -200 84t-83 201q0 119 83 203t200 84q121 0 203.5 -84t82.5 -203zM578 770q0 88 -59.5 148.5t-147.5 60.5q-86 0 -145.5 -60.5t-59.5 -148.5q0 -84 59.5 -145.5t145.5 -61.5q88 0 147.5 61.5t59.5 145.5z" />
<glyph unicode="&#x5a5;" horiz-adv-x="756" d="M657 770q0 -119 -82.5 -202t-203.5 -83q-117 0 -200 84t-83 201q0 119 83 203t200 84q121 0 203.5 -84t82.5 -203zM578 770q0 88 -59.5 148.5t-147.5 60.5q-86 0 -145.5 -60.5t-59.5 -148.5q0 -84 59.5 -145.5t145.5 -61.5q88 0 147.5 61.5t59.5 145.5z" />
<glyph unicode="&#x5a6;" horiz-adv-x="756" d="M657 770q0 -119 -82.5 -202t-203.5 -83q-117 0 -200 84t-83 201q0 119 83 203t200 84q121 0 203.5 -84t82.5 -203zM578 770q0 88 -59.5 148.5t-147.5 60.5q-86 0 -145.5 -60.5t-59.5 -148.5q0 -84 59.5 -145.5t145.5 -61.5q88 0 147.5 61.5t59.5 145.5z" />
<glyph unicode="&#x5a7;" horiz-adv-x="756" d="M657 770q0 -119 -82.5 -202t-203.5 -83q-117 0 -200 84t-83 201q0 119 83 203t200 84q121 0 203.5 -84t82.5 -203zM578 770q0 88 -59.5 148.5t-147.5 60.5q-86 0 -145.5 -60.5t-59.5 -148.5q0 -84 59.5 -145.5t145.5 -61.5q88 0 147.5 61.5t59.5 145.5z" />
<glyph unicode="&#x5a8;" horiz-adv-x="756" d="M657 770q0 -119 -82.5 -202t-203.5 -83q-117 0 -200 84t-83 201q0 119 83 203t200 84q121 0 203.5 -84t82.5 -203zM578 770q0 88 -59.5 148.5t-147.5 60.5q-86 0 -145.5 -60.5t-59.5 -148.5q0 -84 59.5 -145.5t145.5 -61.5q88 0 147.5 61.5t59.5 145.5z" />
<glyph unicode="&#x5a9;" horiz-adv-x="756" d="M657 770q0 -119 -82.5 -202t-203.5 -83q-117 0 -200 84t-83 201q0 119 83 203t200 84q121 0 203.5 -84t82.5 -203zM578 770q0 88 -59.5 148.5t-147.5 60.5q-86 0 -145.5 -60.5t-59.5 -148.5q0 -84 59.5 -145.5t145.5 -61.5q88 0 147.5 61.5t59.5 145.5z" />
<glyph unicode="&#x5aa;" horiz-adv-x="756" d="M657 770q0 -119 -82.5 -202t-203.5 -83q-117 0 -200 84t-83 201q0 119 83 203t200 84q121 0 203.5 -84t82.5 -203zM578 770q0 88 -59.5 148.5t-147.5 60.5q-86 0 -145.5 -60.5t-59.5 -148.5q0 -84 59.5 -145.5t145.5 -61.5q88 0 147.5 61.5t59.5 145.5z" />
<glyph unicode="&#x5ab;" horiz-adv-x="756" d="M657 770q0 -119 -82.5 -202t-203.5 -83q-117 0 -200 84t-83 201q0 119 83 203t200 84q121 0 203.5 -84t82.5 -203zM578 770q0 88 -59.5 148.5t-147.5 60.5q-86 0 -145.5 -60.5t-59.5 -148.5q0 -84 59.5 -145.5t145.5 -61.5q88 0 147.5 61.5t59.5 145.5z" />
<glyph unicode="&#x5ac;" horiz-adv-x="756" d="M657 770q0 -119 -82.5 -202t-203.5 -83q-117 0 -200 84t-83 201q0 119 83 203t200 84q121 0 203.5 -84t82.5 -203zM578 770q0 88 -59.5 148.5t-147.5 60.5q-86 0 -145.5 -60.5t-59.5 -148.5q0 -84 59.5 -145.5t145.5 -61.5q88 0 147.5 61.5t59.5 145.5z" />
<glyph unicode="&#x5ad;" horiz-adv-x="756" d="M657 770q0 -119 -82.5 -202t-203.5 -83q-117 0 -200 84t-83 201q0 119 83 203t200 84q121 0 203.5 -84t82.5 -203zM578 770q0 88 -59.5 148.5t-147.5 60.5q-86 0 -145.5 -60.5t-59.5 -148.5q0 -84 59.5 -145.5t145.5 -61.5q88 0 147.5 61.5t59.5 145.5z" />
<glyph unicode="&#x5ae;" horiz-adv-x="756" d="M657 770q0 -119 -82.5 -202t-203.5 -83q-117 0 -200 84t-83 201q0 119 83 203t200 84q121 0 203.5 -84t82.5 -203zM578 770q0 88 -59.5 148.5t-147.5 60.5q-86 0 -145.5 -60.5t-59.5 -148.5q0 -84 59.5 -145.5t145.5 -61.5q88 0 147.5 61.5t59.5 145.5z" />
<glyph unicode="&#x5af;" horiz-adv-x="756" d="M657 770q0 -119 -82.5 -202t-203.5 -83q-117 0 -200 84t-83 201q0 119 83 203t200 84q121 0 203.5 -84t82.5 -203zM578 770q0 88 -59.5 148.5t-147.5 60.5q-86 0 -145.5 -60.5t-59.5 -148.5q0 -84 59.5 -145.5t145.5 -61.5q88 0 147.5 61.5t59.5 145.5z" />
<glyph unicode="&#x5b0;" d="M609 712q0 -111 -76.5 -187t-187.5 -76q-108 0 -185 77t-77 186q0 110 77 187t185 77q111 0 187.5 -77t76.5 -187zM536 712q0 82 -55.5 137t-135.5 55t-135 -55t-55 -137q0 -78 55 -134.5t135 -56.5t135.5 56.5t55.5 134.5z" />
<glyph unicode="&#x5b1;" d="M609 712q0 -111 -76.5 -187t-187.5 -76q-108 0 -185 77t-77 186q0 110 77 187t185 77q111 0 187.5 -77t76.5 -187zM536 712q0 82 -55.5 137t-135.5 55t-135 -55t-55 -137q0 -78 55 -134.5t135 -56.5t135.5 56.5t55.5 134.5z" />
<glyph unicode="&#x5b2;" d="M609 712q0 -111 -76.5 -187t-187.5 -76q-108 0 -185 77t-77 186q0 110 77 187t185 77q111 0 187.5 -77t76.5 -187zM536 712q0 82 -55.5 137t-135.5 55t-135 -55t-55 -137q0 -78 55 -134.5t135 -56.5t135.5 56.5t55.5 134.5z" />
<glyph unicode="&#x5b3;" d="M609 712q0 -111 -76.5 -187t-187.5 -76q-108 0 -185 77t-77 186q0 110 77 187t185 77q111 0 187.5 -77t76.5 -187zM536 712q0 82 -55.5 137t-135.5 55t-135 -55t-55 -137q0 -78 55 -134.5t135 -56.5t135.5 56.5t55.5 134.5z" />
<glyph unicode="&#x5b4;" d="M609 712q0 -111 -76.5 -187t-187.5 -76q-108 0 -185 77t-77 186q0 110 77 187t185 77q111 0 187.5 -77t76.5 -187zM536 712q0 82 -55.5 137t-135.5 55t-135 -55t-55 -137q0 -78 55 -134.5t135 -56.5t135.5 56.5t55.5 134.5z" />
<glyph unicode="&#x5b5;" d="M609 712q0 -111 -76.5 -187t-187.5 -76q-108 0 -185 77t-77 186q0 110 77 187t185 77q111 0 187.5 -77t76.5 -187zM536 712q0 82 -55.5 137t-135.5 55t-135 -55t-55 -137q0 -78 55 -134.5t135 -56.5t135.5 56.5t55.5 134.5z" />
<glyph unicode="&#x5b6;" d="M609 712q0 -111 -76.5 -187t-187.5 -76q-108 0 -185 77t-77 186q0 110 77 187t185 77q111 0 187.5 -77t76.5 -187zM536 712q0 82 -55.5 137t-135.5 55t-135 -55t-55 -137q0 -78 55 -134.5t135 -56.5t135.5 56.5t55.5 134.5z" />
<glyph unicode="&#x5b7;" d="M609 712q0 -111 -76.5 -187t-187.5 -76q-108 0 -185 77t-77 186q0 110 77 187t185 77q111 0 187.5 -77t76.5 -187zM536 712q0 82 -55.5 137t-135.5 55t-135 -55t-55 -137q0 -78 55 -134.5t135 -56.5t135.5 56.5t55.5 134.5z" />
<glyph unicode="&#x5b8;" d="M609 712q0 -111 -76.5 -187t-187.5 -76q-108 0 -185 77t-77 186q0 110 77 187t185 77q111 0 187.5 -77t76.5 -187zM536 712q0 82 -55.5 137t-135.5 55t-135 -55t-55 -137q0 -78 55 -134.5t135 -56.5t135.5 56.5t55.5 134.5z" />
<glyph unicode="&#x5b9;" d="M609 712q0 -111 -76.5 -187t-187.5 -76q-108 0 -185 77t-77 186q0 110 77 187t185 77q111 0 187.5 -77t76.5 -187zM536 712q0 82 -55.5 137t-135.5 55t-135 -55t-55 -137q0 -78 55 -134.5t135 -56.5t135.5 56.5t55.5 134.5z" />
<glyph unicode="&#x5bb;" horiz-adv-x="2204" d="M1971 1041l-171 83q-10 5 -17 5q-4 -1 -7 -2q-86 -40 -109 -54q-13 -8 -16 -24l-6 -42q-12 -69 -47 -138q-37 -73 -78 -117q-23 -25 -47 -25q-17 0 -26 13q-143 215 -236 370q-68 114 -209 368q-25 46 -71 69l-124 60q140 45 288 45q212 0 402.5 -91t323.5 -255 q97 -121 150 -265zM2032 725q0 -191 -62 -346q-22 -53 -73.5 -121.5t-90.5 -99.5q-47 65 -100 168l-68 134q55 14 100 36q87 42 157 114q88 89 120 195h15q2 -19 2 -80zM790 1176q-197 -16 -351 -110q-23 -15 -99 -73q-60 -45 -168 -143q28 198 135.5 368.5t275.5 280.5 q89 -123 207 -323zM1588 -71q-226 -141 -493 -141q-386 0 -659 273q-172 171 -238 403l213 -81q40 -16 63 -16q49 0 71 56l13 42q78 188 238 346q103 102 151 102q12 0 17 -8q158 -228 363 -603q61 -111 141 -270q31 -60 120 -103z" />
<glyph unicode="&#x5bc;" d="M609 712q0 -111 -76.5 -187t-187.5 -76q-108 0 -185 77t-77 186q0 110 77 187t185 77q111 0 187.5 -77t76.5 -187zM536 712q0 82 -55.5 137t-135.5 55t-135 -55t-55 -137q0 -78 55 -134.5t135 -56.5t135.5 56.5t55.5 134.5z" />
<glyph unicode="&#x5bd;" d="M609 712q0 -111 -76.5 -187t-187.5 -76q-108 0 -185 77t-77 186q0 110 77 187t185 77q111 0 187.5 -77t76.5 -187zM536 712q0 82 -55.5 137t-135.5 55t-135 -55t-55 -137q0 -78 55 -134.5t135 -56.5t135.5 56.5t55.5 134.5z" />
<glyph unicode="&#x5be;" d="M609 712q0 -111 -76.5 -187t-187.5 -76q-108 0 -185 77t-77 186q0 110 77 187t185 77q111 0 187.5 -77t76.5 -187zM536 712q0 82 -55.5 137t-135.5 55t-135 -55t-55 -137q0 -78 55 -134.5t135 -56.5t135.5 56.5t55.5 134.5z" />
<glyph unicode="&#x5bf;" d="M609 712q0 -111 -76.5 -187t-187.5 -76q-108 0 -185 77t-77 186q0 110 77 187t185 77q111 0 187.5 -77t76.5 -187zM536 712q0 82 -55.5 137t-135.5 55t-135 -55t-55 -137q0 -78 55 -134.5t135 -56.5t135.5 56.5t55.5 134.5z" />
<glyph unicode="&#x5c0;" d="M609 712q0 -111 -76.5 -187t-187.5 -76q-108 0 -185 77t-77 186q0 110 77 187t185 77q111 0 187.5 -77t76.5 -187zM536 712q0 82 -55.5 137t-135.5 55t-135 -55t-55 -137q0 -78 55 -134.5t135 -56.5t135.5 56.5t55.5 134.5z" />
<glyph unicode="&#x5c1;" d="M609 712q0 -111 -76.5 -187t-187.5 -76q-108 0 -185 77t-77 186q0 110 77 187t185 77q111 0 187.5 -77t76.5 -187zM536 712q0 82 -55.5 137t-135.5 55t-135 -55t-55 -137q0 -78 55 -134.5t135 -56.5t135.5 56.5t55.5 134.5z" />
<glyph unicode="&#x5c2;" d="M609 712q0 -111 -76.5 -187t-187.5 -76q-108 0 -185 77t-77 186q0 110 77 187t185 77q111 0 187.5 -77t76.5 -187zM536 712q0 82 -55.5 137t-135.5 55t-135 -55t-55 -137q0 -78 55 -134.5t135 -56.5t135.5 56.5t55.5 134.5z" />
<glyph unicode="&#x5c3;" d="M609 712q0 -111 -76.5 -187t-187.5 -76q-108 0 -185 77t-77 186q0 110 77 187t185 77q111 0 187.5 -77t76.5 -187zM536 712q0 82 -55.5 137t-135.5 55t-135 -55t-55 -137q0 -78 55 -134.5t135 -56.5t135.5 56.5t55.5 134.5z" />
<glyph unicode="&#x5c4;" d="M609 712q0 -111 -76.5 -187t-187.5 -76q-108 0 -185 77t-77 186q0 110 77 187t185 77q111 0 187.5 -77t76.5 -187zM536 712q0 82 -55.5 137t-135.5 55t-135 -55t-55 -137q0 -78 55 -134.5t135 -56.5t135.5 56.5t55.5 134.5z" />
<glyph unicode="&#x5d0;" d="M609 712q0 -111 -76.5 -187t-187.5 -76q-108 0 -185 77t-77 186q0 110 77 187t185 77q111 0 187.5 -77t76.5 -187zM536 712q0 82 -55.5 137t-135.5 55t-135 -55t-55 -137q0 -78 55 -134.5t135 -56.5t135.5 56.5t55.5 134.5z" />
<glyph unicode="&#x5d1;" d="M609 712q0 -111 -76.5 -187t-187.5 -76q-108 0 -185 77t-77 186q0 110 77 187t185 77q111 0 187.5 -77t76.5 -187zM536 712q0 82 -55.5 137t-135.5 55t-135 -55t-55 -137q0 -78 55 -134.5t135 -56.5t135.5 56.5t55.5 134.5z" />
<glyph unicode="&#x5d2;" d="M609 712q0 -111 -76.5 -187t-187.5 -76q-108 0 -185 77t-77 186q0 110 77 187t185 77q111 0 187.5 -77t76.5 -187zM536 712q0 82 -55.5 137t-135.5 55t-135 -55t-55 -137q0 -78 55 -134.5t135 -56.5t135.5 56.5t55.5 134.5z" />
<glyph unicode="&#x5d3;" d="M609 712q0 -111 -76.5 -187t-187.5 -76q-108 0 -185 77t-77 186q0 110 77 187t185 77q111 0 187.5 -77t76.5 -187zM536 712q0 82 -55.5 137t-135.5 55t-135 -55t-55 -137q0 -78 55 -134.5t135 -56.5t135.5 56.5t55.5 134.5z" />
<glyph unicode="&#x5d4;" d="M609 712q0 -111 -76.5 -187t-187.5 -76q-108 0 -185 77t-77 186q0 110 77 187t185 77q111 0 187.5 -77t76.5 -187zM536 712q0 82 -55.5 137t-135.5 55t-135 -55t-55 -137q0 -78 55 -134.5t135 -56.5t135.5 56.5t55.5 134.5z" />
<glyph unicode="&#x5d5;" d="M609 712q0 -111 -76.5 -187t-187.5 -76q-108 0 -185 77t-77 186q0 110 77 187t185 77q111 0 187.5 -77t76.5 -187zM536 712q0 82 -55.5 137t-135.5 55t-135 -55t-55 -137q0 -78 55 -134.5t135 -56.5t135.5 56.5t55.5 134.5z" />
<glyph unicode="&#x5d6;" d="M609 712q0 -111 -76.5 -187t-187.5 -76q-108 0 -185 77t-77 186q0 110 77 187t185 77q111 0 187.5 -77t76.5 -187zM536 712q0 82 -55.5 137t-135.5 55t-135 -55t-55 -137q0 -78 55 -134.5t135 -56.5t135.5 56.5t55.5 134.5z" />
<glyph unicode="&#x5d7;" d="M609 712q0 -111 -76.5 -187t-187.5 -76q-108 0 -185 77t-77 186q0 110 77 187t185 77q111 0 187.5 -77t76.5 -187zM536 712q0 82 -55.5 137t-135.5 55t-135 -55t-55 -137q0 -78 55 -134.5t135 -56.5t135.5 56.5t55.5 134.5z" />
<glyph unicode="&#x5d8;" d="M609 712q0 -111 -76.5 -187t-187.5 -76q-108 0 -185 77t-77 186q0 110 77 187t185 77q111 0 187.5 -77t76.5 -187zM536 712q0 82 -55.5 137t-135.5 55t-135 -55t-55 -137q0 -78 55 -134.5t135 -56.5t135.5 56.5t55.5 134.5z" />
<glyph unicode="&#x5d9;" d="M609 712q0 -111 -76.5 -187t-187.5 -76q-108 0 -185 77t-77 186q0 110 77 187t185 77q111 0 187.5 -77t76.5 -187zM536 712q0 82 -55.5 137t-135.5 55t-135 -55t-55 -137q0 -78 55 -134.5t135 -56.5t135.5 56.5t55.5 134.5z" />
<glyph unicode="&#x5da;" d="M609 712q0 -111 -76.5 -187t-187.5 -76q-108 0 -185 77t-77 186q0 110 77 187t185 77q111 0 187.5 -77t76.5 -187zM536 712q0 82 -55.5 137t-135.5 55t-135 -55t-55 -137q0 -78 55 -134.5t135 -56.5t135.5 56.5t55.5 134.5z" />
<glyph unicode="&#x5db;" d="M609 712q0 -111 -76.5 -187t-187.5 -76q-108 0 -185 77t-77 186q0 110 77 187t185 77q111 0 187.5 -77t76.5 -187zM536 712q0 82 -55.5 137t-135.5 55t-135 -55t-55 -137q0 -78 55 -134.5t135 -56.5t135.5 56.5t55.5 134.5z" />
<glyph unicode="&#x5dc;" d="M609 712q0 -111 -76.5 -187t-187.5 -76q-108 0 -185 77t-77 186q0 110 77 187t185 77q111 0 187.5 -77t76.5 -187zM536 712q0 82 -55.5 137t-135.5 55t-135 -55t-55 -137q0 -78 55 -134.5t135 -56.5t135.5 56.5t55.5 134.5z" />
<glyph unicode="&#x5dd;" d="M609 712q0 -111 -76.5 -187t-187.5 -76q-108 0 -185 77t-77 186q0 110 77 187t185 77q111 0 187.5 -77t76.5 -187zM536 712q0 82 -55.5 137t-135.5 55t-135 -55t-55 -137q0 -78 55 -134.5t135 -56.5t135.5 56.5t55.5 134.5z" />
<glyph unicode="&#x5de;" d="M609 712q0 -111 -76.5 -187t-187.5 -76q-108 0 -185 77t-77 186q0 110 77 187t185 77q111 0 187.5 -77t76.5 -187zM536 712q0 82 -55.5 137t-135.5 55t-135 -55t-55 -137q0 -78 55 -134.5t135 -56.5t135.5 56.5t55.5 134.5z" />
<glyph unicode="&#x5df;" d="M609 712q0 -111 -76.5 -187t-187.5 -76q-108 0 -185 77t-77 186q0 110 77 187t185 77q111 0 187.5 -77t76.5 -187zM536 712q0 82 -55.5 137t-135.5 55t-135 -55t-55 -137q0 -78 55 -134.5t135 -56.5t135.5 56.5t55.5 134.5z" />
<glyph unicode="&#x5e0;" d="M609 712q0 -111 -76.5 -187t-187.5 -76q-108 0 -185 77t-77 186q0 110 77 187t185 77q111 0 187.5 -77t76.5 -187zM536 712q0 82 -55.5 137t-135.5 55t-135 -55t-55 -137q0 -78 55 -134.5t135 -56.5t135.5 56.5t55.5 134.5z" />
<glyph unicode="&#x5e1;" d="M609 712q0 -111 -76.5 -187t-187.5 -76q-108 0 -185 77t-77 186q0 110 77 187t185 77q111 0 187.5 -77t76.5 -187zM536 712q0 82 -55.5 137t-135.5 55t-135 -55t-55 -137q0 -78 55 -134.5t135 -56.5t135.5 56.5t55.5 134.5z" />
<glyph unicode="&#x5e2;" d="M609 712q0 -111 -76.5 -187t-187.5 -76q-108 0 -185 77t-77 186q0 110 77 187t185 77q111 0 187.5 -77t76.5 -187zM536 712q0 82 -55.5 137t-135.5 55t-135 -55t-55 -137q0 -78 55 -134.5t135 -56.5t135.5 56.5t55.5 134.5z" />
<glyph unicode="&#x5e3;" d="M609 712q0 -111 -76.5 -187t-187.5 -76q-108 0 -185 77t-77 186q0 110 77 187t185 77q111 0 187.5 -77t76.5 -187zM536 712q0 82 -55.5 137t-135.5 55t-135 -55t-55 -137q0 -78 55 -134.5t135 -56.5t135.5 56.5t55.5 134.5z" />
<glyph unicode="&#x5e4;" d="M609 712q0 -111 -76.5 -187t-187.5 -76q-108 0 -185 77t-77 186q0 110 77 187t185 77q111 0 187.5 -77t76.5 -187zM536 712q0 82 -55.5 137t-135.5 55t-135 -55t-55 -137q0 -78 55 -134.5t135 -56.5t135.5 56.5t55.5 134.5z" />
<glyph unicode="&#x5e5;" d="M609 712q0 -111 -76.5 -187t-187.5 -76q-108 0 -185 77t-77 186q0 110 77 187t185 77q111 0 187.5 -77t76.5 -187zM536 712q0 82 -55.5 137t-135.5 55t-135 -55t-55 -137q0 -78 55 -134.5t135 -56.5t135.5 56.5t55.5 134.5z" />
<glyph unicode="&#x5e6;" d="M609 712q0 -111 -76.5 -187t-187.5 -76q-108 0 -185 77t-77 186q0 110 77 187t185 77q111 0 187.5 -77t76.5 -187zM536 712q0 82 -55.5 137t-135.5 55t-135 -55t-55 -137q0 -78 55 -134.5t135 -56.5t135.5 56.5t55.5 134.5z" />
<glyph unicode="&#x5e7;" d="M609 712q0 -111 -76.5 -187t-187.5 -76q-108 0 -185 77t-77 186q0 110 77 187t185 77q111 0 187.5 -77t76.5 -187zM536 712q0 82 -55.5 137t-135.5 55t-135 -55t-55 -137q0 -78 55 -134.5t135 -56.5t135.5 56.5t55.5 134.5z" />
<glyph unicode="&#x5e8;" d="M609 712q0 -111 -76.5 -187t-187.5 -76q-108 0 -185 77t-77 186q0 110 77 187t185 77q111 0 187.5 -77t76.5 -187zM536 712q0 82 -55.5 137t-135.5 55t-135 -55t-55 -137q0 -78 55 -134.5t135 -56.5t135.5 56.5t55.5 134.5z" />
<glyph unicode="&#x5e9;" d="M609 712q0 -111 -76.5 -187t-187.5 -76q-108 0 -185 77t-77 186q0 110 77 187t185 77q111 0 187.5 -77t76.5 -187zM536 712q0 82 -55.5 137t-135.5 55t-135 -55t-55 -137q0 -78 55 -134.5t135 -56.5t135.5 56.5t55.5 134.5z" />
<glyph unicode="&#x5ea;" d="M609 712q0 -111 -76.5 -187t-187.5 -76q-108 0 -185 77t-77 186q0 110 77 187t185 77q111 0 187.5 -77t76.5 -187zM536 712q0 82 -55.5 137t-135.5 55t-135 -55t-55 -137q0 -78 55 -134.5t135 -56.5t135.5 56.5t55.5 134.5z" />
<glyph unicode="&#x5f0;" d="M609 712q0 -111 -76.5 -187t-187.5 -76q-108 0 -185 77t-77 186q0 110 77 187t185 77q111 0 187.5 -77t76.5 -187zM536 712q0 82 -55.5 137t-135.5 55t-135 -55t-55 -137q0 -78 55 -134.5t135 -56.5t135.5 56.5t55.5 134.5z" />
<glyph unicode="&#x5f1;" d="M609 712q0 -111 -76.5 -187t-187.5 -76q-108 0 -185 77t-77 186q0 110 77 187t185 77q111 0 187.5 -77t76.5 -187zM536 712q0 82 -55.5 137t-135.5 55t-135 -55t-55 -137q0 -78 55 -134.5t135 -56.5t135.5 56.5t55.5 134.5z" />
<glyph unicode="&#x5f2;" d="M609 712q0 -111 -76.5 -187t-187.5 -76q-108 0 -185 77t-77 186q0 110 77 187t185 77q111 0 187.5 -77t76.5 -187zM536 712q0 82 -55.5 137t-135.5 55t-135 -55t-55 -137q0 -78 55 -134.5t135 -56.5t135.5 56.5t55.5 134.5z" />
<glyph unicode="&#x5f3;" d="M609 712q0 -111 -76.5 -187t-187.5 -76q-108 0 -185 77t-77 186q0 110 77 187t185 77q111 0 187.5 -77t76.5 -187zM536 712q0 82 -55.5 137t-135.5 55t-135 -55t-55 -137q0 -78 55 -134.5t135 -56.5t135.5 56.5t55.5 134.5z" />
<glyph unicode="&#x5f4;" d="M609 712q0 -111 -76.5 -187t-187.5 -76q-108 0 -185 77t-77 186q0 110 77 187t185 77q111 0 187.5 -77t76.5 -187zM536 712q0 82 -55.5 137t-135.5 55t-135 -55t-55 -137q0 -78 55 -134.5t135 -56.5t135.5 56.5t55.5 134.5z" />
<glyph unicode="&#x2000;" horiz-adv-x="826" />
<glyph unicode="&#x2001;" horiz-adv-x="1652" />
<glyph unicode="&#x2002;" horiz-adv-x="826" />
<glyph unicode="&#x2003;" horiz-adv-x="1652" />
<glyph unicode="&#x2004;" horiz-adv-x="550" />
<glyph unicode="&#x2005;" horiz-adv-x="413" />
<glyph unicode="&#x2006;" horiz-adv-x="275" />
<glyph unicode="&#x2007;" horiz-adv-x="275" />
<glyph unicode="&#x2008;" horiz-adv-x="206" />
<glyph unicode="&#x2009;" horiz-adv-x="330" />
<glyph unicode="&#x200a;" horiz-adv-x="91" />
<glyph unicode="&#x200c;" horiz-adv-x="756" d="M657 770q0 -119 -82.5 -202t-203.5 -83q-117 0 -200 84t-83 201q0 119 83 203t200 84q121 0 203.5 -84t82.5 -203zM578 770q0 88 -59.5 148.5t-147.5 60.5q-86 0 -145.5 -60.5t-59.5 -148.5q0 -84 59.5 -145.5t145.5 -61.5q88 0 147.5 61.5t59.5 145.5z" />
<glyph unicode="&#x200d;" horiz-adv-x="756" d="M657 770q0 -119 -82.5 -202t-203.5 -83q-117 0 -200 84t-83 201q0 119 83 203t200 84q121 0 203.5 -84t82.5 -203zM578 770q0 88 -59.5 148.5t-147.5 60.5q-86 0 -145.5 -60.5t-59.5 -148.5q0 -84 59.5 -145.5t145.5 -61.5q88 0 147.5 61.5t59.5 145.5z" />
<glyph unicode="&#x200e;" horiz-adv-x="756" d="M657 770q0 -119 -82.5 -202t-203.5 -83q-117 0 -200 84t-83 201q0 119 83 203t200 84q121 0 203.5 -84t82.5 -203zM578 770q0 88 -59.5 148.5t-147.5 60.5q-86 0 -145.5 -60.5t-59.5 -148.5q0 -84 59.5 -145.5t145.5 -61.5q88 0 147.5 61.5t59.5 145.5z" />
<glyph unicode="&#x200f;" horiz-adv-x="756" d="M657 770q0 -119 -82.5 -202t-203.5 -83q-117 0 -200 84t-83 201q0 119 83 203t200 84q121 0 203.5 -84t82.5 -203zM578 770q0 88 -59.5 148.5t-147.5 60.5q-86 0 -145.5 -60.5t-59.5 -148.5q0 -84 59.5 -145.5t145.5 -61.5q88 0 147.5 61.5t59.5 145.5z" />
<glyph unicode="&#x2010;" horiz-adv-x="791" d="M723 540h-660v196h660v-196z" />
<glyph unicode="&#x2011;" horiz-adv-x="791" d="M723 540h-660v196h660v-196z" />
<glyph unicode="&#x2012;" horiz-adv-x="791" d="M723 540h-660v196h660v-196z" />
<glyph unicode="&#x2013;" horiz-adv-x="741" d="M692 608h-643v172h643v-172z" />
<glyph unicode="&#x2014;" horiz-adv-x="1008" d="M958 610h-909v172h909v-172z" />
<glyph unicode="&#x2018;" horiz-adv-x="488" d="M50 899q0 52 19.5 116t56.5 132.5t90 138t118 132.5l72 -49v-12q-20 -31 -42.5 -67t-45.5 -74q-16 -27 -31.5 -63t-27.5 -75t-19.5 -78.5t-8.5 -74.5q-1 -25 -1 -46v-43l-6 -11l-167 -10q-4 11 -5.5 30.5t-1.5 53.5z" />
<glyph unicode="&#x2019;" horiz-adv-x="488" d="M406 1334q0 -52 -19.5 -116t-56.5 -132.5t-90 -138t-118 -132.5l-72 49v12q20 31 42.5 67t45.5 74q16 27 31.5 63t27.5 75t19.5 78.5t8.5 74.5q1 25 1 46v43l6 11l167 10q4 -11 5.5 -30.5t1.5 -53.5z" />
<glyph unicode="&#x201c;" horiz-adv-x="859" d="M41 899q0 52 19.5 116t56.5 132.5t90 138t118 132.5l72 -49v-12q-20 -31 -42.5 -67t-45.5 -74q-16 -27 -31.5 -63t-27.5 -75t-19.5 -78.5t-8.5 -74.5q-1 -25 -2 -47t1 -42l-6 -11l-167 -10q-8 11 -7.5 30.5t0.5 53.5zM421 899q0 52 19.5 116t56.5 132.5t90 138t118 132.5 l72 -49v-12q-20 -31 -42.5 -67t-45.5 -74q-16 -27 -31.5 -63t-27.5 -75t-19.5 -78.5t-8.5 -74.5q-1 -25 -1 -46v-43l-6 -11l-167 -10q-4 11 -5.5 30.5t-1.5 53.5z" />
<glyph unicode="&#x201d;" horiz-adv-x="859" d="M776 1334q0 -52 -19.5 -116t-56.5 -132.5t-90 -138t-118 -132.5l-72 49v12q20 31 42.5 67t45.5 74q16 27 31.5 63t27.5 75t19.5 78.5t8.5 74.5q1 25 2 47t-1 42l6 11l167 10q8 -11 7.5 -30.5t-0.5 -53.5zM396 1334q0 -52 -19.5 -116t-56.5 -132.5t-90 -138t-118 -132.5 l-72 49v12q20 31 42.5 67t45.5 74q16 27 31.5 63t27.5 75t19.5 78.5t8.5 74.5q1 25 1 46v43l6 11l167 10q4 -11 5.5 -30.5t1.5 -53.5z" />
<glyph unicode="&#x2022;" horiz-adv-x="612" d="M524 580q0 -91 -62.5 -153t-150.5 -62q-90 0 -152.5 62t-62.5 153q0 90 61.5 151.5t153.5 61.5q90 0 151.5 -61.5t61.5 -151.5z" />
<glyph unicode="&#x202f;" horiz-adv-x="330" />
<glyph unicode="&#x2039;" horiz-adv-x="681" d="M562 -8h-57l-387 473l387 469h57l-244 -469z" />
<glyph unicode="&#x203a;" horiz-adv-x="681" d="M566 463l-395 -471h-57l243 471l-243 471h57z" />
<glyph unicode="&#x205f;" horiz-adv-x="413" />
<glyph unicode="&#x20aa;" d="M609 712q0 -111 -76.5 -187t-187.5 -76q-108 0 -185 77t-77 186q0 110 77 187t185 77q111 0 187.5 -77t76.5 -187zM536 712q0 82 -55.5 137t-135.5 55t-135 -55t-55 -137q0 -78 55 -134.5t135 -56.5t135.5 56.5t55.5 134.5z" />
<glyph unicode="&#x22c5;" horiz-adv-x="662" d="M565 627q0 -99 -67.5 -165.5t-161.5 -66.5q-98 0 -166 66.5t-68 165.5q0 98 67 164.5t167 66.5q96 0 162.5 -66.5t66.5 -164.5z" />
<glyph unicode="&#x25a0;" horiz-adv-x="756" d="M657 770q0 -119 -82.5 -202t-203.5 -83q-117 0 -200 84t-83 201q0 119 83 203t200 84q121 0 203.5 -84t82.5 -203zM578 770q0 88 -59.5 148.5t-147.5 60.5q-86 0 -145.5 -60.5t-59.5 -148.5q0 -84 59.5 -145.5t145.5 -61.5q88 0 147.5 61.5t59.5 145.5z" />
<glyph unicode="&#x25a1;" horiz-adv-x="756" d="M657 770q0 -119 -82.5 -202t-203.5 -83q-117 0 -200 84t-83 201q0 119 83 203t200 84q121 0 203.5 -84t82.5 -203zM578 770q0 88 -59.5 148.5t-147.5 60.5q-86 0 -145.5 -60.5t-59.5 -148.5q0 -84 59.5 -145.5t145.5 -61.5q88 0 147.5 61.5t59.5 145.5z" />
<glyph unicode="&#x25c6;" horiz-adv-x="756" d="M657 770q0 -119 -82.5 -202t-203.5 -83q-117 0 -200 84t-83 201q0 119 83 203t200 84q121 0 203.5 -84t82.5 -203zM578 770q0 88 -59.5 148.5t-147.5 60.5q-86 0 -145.5 -60.5t-59.5 -148.5q0 -84 59.5 -145.5t145.5 -61.5q88 0 147.5 61.5t59.5 145.5z" />
<glyph unicode="&#x25c7;" horiz-adv-x="756" d="M657 770q0 -119 -82.5 -202t-203.5 -83q-117 0 -200 84t-83 201q0 119 83 203t200 84q121 0 203.5 -84t82.5 -203zM578 770q0 88 -59.5 148.5t-147.5 60.5q-86 0 -145.5 -60.5t-59.5 -148.5q0 -84 59.5 -145.5t145.5 -61.5q88 0 147.5 61.5t59.5 145.5z" />
<glyph unicode="&#x25cb;" horiz-adv-x="756" d="M657 770q0 -119 -82.5 -202t-203.5 -83q-117 0 -200 84t-83 201q0 119 83 203t200 84q121 0 203.5 -84t82.5 -203zM578 770q0 88 -59.5 148.5t-147.5 60.5q-86 0 -145.5 -60.5t-59.5 -148.5q0 -84 59.5 -145.5t145.5 -61.5q88 0 147.5 61.5t59.5 145.5z" />
<glyph unicode="&#x25cc;" horiz-adv-x="756" d="M657 770q0 -119 -82.5 -202t-203.5 -83q-117 0 -200 84t-83 201q0 119 83 203t200 84q121 0 203.5 -84t82.5 -203zM578 770q0 88 -59.5 148.5t-147.5 60.5q-86 0 -145.5 -60.5t-59.5 -148.5q0 -84 59.5 -145.5t145.5 -61.5q88 0 147.5 61.5t59.5 145.5z" />
<glyph unicode="&#x25fc;" horiz-adv-x="1105" d="M0 1105h1105v-1105h-1105v1105z" />
<glyph unicode="&#x2605;" horiz-adv-x="756" d="M657 770q0 -119 -82.5 -202t-203.5 -83q-117 0 -200 84t-83 201q0 119 83 203t200 84q121 0 203.5 -84t82.5 -203zM578 770q0 88 -59.5 148.5t-147.5 60.5q-86 0 -145.5 -60.5t-59.5 -148.5q0 -84 59.5 -145.5t145.5 -61.5q88 0 147.5 61.5t59.5 145.5z" />
<glyph unicode="&#x274f;" horiz-adv-x="756" d="M657 770q0 -119 -82.5 -202t-203.5 -83q-117 0 -200 84t-83 201q0 119 83 203t200 84q121 0 203.5 -84t82.5 -203zM578 770q0 88 -59.5 148.5t-147.5 60.5q-86 0 -145.5 -60.5t-59.5 -148.5q0 -84 59.5 -145.5t145.5 -61.5q88 0 147.5 61.5t59.5 145.5z" />
<glyph unicode="&#xe802;" d="M609 712q0 -111 -76.5 -187t-187.5 -76q-108 0 -185 77t-77 186q0 110 77 187t185 77q111 0 187.5 -77t76.5 -187zM536 712q0 82 -55.5 137t-135.5 55t-135 -55t-55 -137q0 -78 55 -134.5t135 -56.5t135.5 56.5t55.5 134.5z" />
<glyph unicode="&#xe803;" d="M609 712q0 -111 -76.5 -187t-187.5 -76q-108 0 -185 77t-77 186q0 110 77 187t185 77q111 0 187.5 -77t76.5 -187zM536 712q0 82 -55.5 137t-135.5 55t-135 -55t-55 -137q0 -78 55 -134.5t135 -56.5t135.5 56.5t55.5 134.5z" />
<glyph unicode="&#xe804;" d="M609 712q0 -111 -76.5 -187t-187.5 -76q-108 0 -185 77t-77 186q0 110 77 187t185 77q111 0 187.5 -77t76.5 -187zM536 712q0 82 -55.5 137t-135.5 55t-135 -55t-55 -137q0 -78 55 -134.5t135 -56.5t135.5 56.5t55.5 134.5z" />
<glyph unicode="&#xe805;" d="M609 712q0 -111 -76.5 -187t-187.5 -76q-108 0 -185 77t-77 186q0 110 77 187t185 77q111 0 187.5 -77t76.5 -187zM536 712q0 82 -55.5 137t-135.5 55t-135 -55t-55 -137q0 -78 55 -134.5t135 -56.5t135.5 56.5t55.5 134.5z" />
<glyph unicode="&#xfb1d;" d="M609 712q0 -111 -76.5 -187t-187.5 -76q-108 0 -185 77t-77 186q0 110 77 187t185 77q111 0 187.5 -77t76.5 -187zM536 712q0 82 -55.5 137t-135.5 55t-135 -55t-55 -137q0 -78 55 -134.5t135 -56.5t135.5 56.5t55.5 134.5z" />
<glyph unicode="&#xfb1e;" d="M609 712q0 -111 -76.5 -187t-187.5 -76q-108 0 -185 77t-77 186q0 110 77 187t185 77q111 0 187.5 -77t76.5 -187zM536 712q0 82 -55.5 137t-135.5 55t-135 -55t-55 -137q0 -78 55 -134.5t135 -56.5t135.5 56.5t55.5 134.5z" />
<glyph unicode="&#xfb1f;" d="M609 712q0 -111 -76.5 -187t-187.5 -76q-108 0 -185 77t-77 186q0 110 77 187t185 77q111 0 187.5 -77t76.5 -187zM536 712q0 82 -55.5 137t-135.5 55t-135 -55t-55 -137q0 -78 55 -134.5t135 -56.5t135.5 56.5t55.5 134.5z" />
<glyph unicode="&#xfb20;" d="M609 712q0 -111 -76.5 -187t-187.5 -76q-108 0 -185 77t-77 186q0 110 77 187t185 77q111 0 187.5 -77t76.5 -187zM536 712q0 82 -55.5 137t-135.5 55t-135 -55t-55 -137q0 -78 55 -134.5t135 -56.5t135.5 56.5t55.5 134.5z" />
<glyph unicode="&#xfb21;" d="M609 712q0 -111 -76.5 -187t-187.5 -76q-108 0 -185 77t-77 186q0 110 77 187t185 77q111 0 187.5 -77t76.5 -187zM536 712q0 82 -55.5 137t-135.5 55t-135 -55t-55 -137q0 -78 55 -134.5t135 -56.5t135.5 56.5t55.5 134.5z" />
<glyph unicode="&#xfb22;" d="M609 712q0 -111 -76.5 -187t-187.5 -76q-108 0 -185 77t-77 186q0 110 77 187t185 77q111 0 187.5 -77t76.5 -187zM536 712q0 82 -55.5 137t-135.5 55t-135 -55t-55 -137q0 -78 55 -134.5t135 -56.5t135.5 56.5t55.5 134.5z" />
<glyph unicode="&#xfb23;" d="M609 712q0 -111 -76.5 -187t-187.5 -76q-108 0 -185 77t-77 186q0 110 77 187t185 77q111 0 187.5 -77t76.5 -187zM536 712q0 82 -55.5 137t-135.5 55t-135 -55t-55 -137q0 -78 55 -134.5t135 -56.5t135.5 56.5t55.5 134.5z" />
<glyph unicode="&#xfb24;" d="M609 712q0 -111 -76.5 -187t-187.5 -76q-108 0 -185 77t-77 186q0 110 77 187t185 77q111 0 187.5 -77t76.5 -187zM536 712q0 82 -55.5 137t-135.5 55t-135 -55t-55 -137q0 -78 55 -134.5t135 -56.5t135.5 56.5t55.5 134.5z" />
<glyph unicode="&#xfb25;" d="M609 712q0 -111 -76.5 -187t-187.5 -76q-108 0 -185 77t-77 186q0 110 77 187t185 77q111 0 187.5 -77t76.5 -187zM536 712q0 82 -55.5 137t-135.5 55t-135 -55t-55 -137q0 -78 55 -134.5t135 -56.5t135.5 56.5t55.5 134.5z" />
<glyph unicode="&#xfb26;" d="M609 712q0 -111 -76.5 -187t-187.5 -76q-108 0 -185 77t-77 186q0 110 77 187t185 77q111 0 187.5 -77t76.5 -187zM536 712q0 82 -55.5 137t-135.5 55t-135 -55t-55 -137q0 -78 55 -134.5t135 -56.5t135.5 56.5t55.5 134.5z" />
<glyph unicode="&#xfb27;" d="M609 712q0 -111 -76.5 -187t-187.5 -76q-108 0 -185 77t-77 186q0 110 77 187t185 77q111 0 187.5 -77t76.5 -187zM536 712q0 82 -55.5 137t-135.5 55t-135 -55t-55 -137q0 -78 55 -134.5t135 -56.5t135.5 56.5t55.5 134.5z" />
<glyph unicode="&#xfb28;" d="M609 712q0 -111 -76.5 -187t-187.5 -76q-108 0 -185 77t-77 186q0 110 77 187t185 77q111 0 187.5 -77t76.5 -187zM536 712q0 82 -55.5 137t-135.5 55t-135 -55t-55 -137q0 -78 55 -134.5t135 -56.5t135.5 56.5t55.5 134.5z" />
<glyph unicode="&#xfb29;" d="M609 712q0 -111 -76.5 -187t-187.5 -76q-108 0 -185 77t-77 186q0 110 77 187t185 77q111 0 187.5 -77t76.5 -187zM536 712q0 82 -55.5 137t-135.5 55t-135 -55t-55 -137q0 -78 55 -134.5t135 -56.5t135.5 56.5t55.5 134.5z" />
<glyph unicode="&#xfb2a;" d="M609 712q0 -111 -76.5 -187t-187.5 -76q-108 0 -185 77t-77 186q0 110 77 187t185 77q111 0 187.5 -77t76.5 -187zM536 712q0 82 -55.5 137t-135.5 55t-135 -55t-55 -137q0 -78 55 -134.5t135 -56.5t135.5 56.5t55.5 134.5z" />
<glyph unicode="&#xfb2b;" d="M609 712q0 -111 -76.5 -187t-187.5 -76q-108 0 -185 77t-77 186q0 110 77 187t185 77q111 0 187.5 -77t76.5 -187zM536 712q0 82 -55.5 137t-135.5 55t-135 -55t-55 -137q0 -78 55 -134.5t135 -56.5t135.5 56.5t55.5 134.5z" />
<glyph unicode="&#xfb2c;" d="M609 712q0 -111 -76.5 -187t-187.5 -76q-108 0 -185 77t-77 186q0 110 77 187t185 77q111 0 187.5 -77t76.5 -187zM536 712q0 82 -55.5 137t-135.5 55t-135 -55t-55 -137q0 -78 55 -134.5t135 -56.5t135.5 56.5t55.5 134.5z" />
<glyph unicode="&#xfb2d;" d="M609 712q0 -111 -76.5 -187t-187.5 -76q-108 0 -185 77t-77 186q0 110 77 187t185 77q111 0 187.5 -77t76.5 -187zM536 712q0 82 -55.5 137t-135.5 55t-135 -55t-55 -137q0 -78 55 -134.5t135 -56.5t135.5 56.5t55.5 134.5z" />
<glyph unicode="&#xfb31;" d="M609 712q0 -111 -76.5 -187t-187.5 -76q-108 0 -185 77t-77 186q0 110 77 187t185 77q111 0 187.5 -77t76.5 -187zM536 712q0 82 -55.5 137t-135.5 55t-135 -55t-55 -137q0 -78 55 -134.5t135 -56.5t135.5 56.5t55.5 134.5z" />
<glyph unicode="&#xfb32;" d="M609 712q0 -111 -76.5 -187t-187.5 -76q-108 0 -185 77t-77 186q0 110 77 187t185 77q111 0 187.5 -77t76.5 -187zM536 712q0 82 -55.5 137t-135.5 55t-135 -55t-55 -137q0 -78 55 -134.5t135 -56.5t135.5 56.5t55.5 134.5z" />
<glyph unicode="&#xfb33;" d="M609 712q0 -111 -76.5 -187t-187.5 -76q-108 0 -185 77t-77 186q0 110 77 187t185 77q111 0 187.5 -77t76.5 -187zM536 712q0 82 -55.5 137t-135.5 55t-135 -55t-55 -137q0 -78 55 -134.5t135 -56.5t135.5 56.5t55.5 134.5z" />
<glyph unicode="&#xfb34;" d="M609 712q0 -111 -76.5 -187t-187.5 -76q-108 0 -185 77t-77 186q0 110 77 187t185 77q111 0 187.5 -77t76.5 -187zM536 712q0 82 -55.5 137t-135.5 55t-135 -55t-55 -137q0 -78 55 -134.5t135 -56.5t135.5 56.5t55.5 134.5z" />
<glyph unicode="&#xfb35;" d="M609 712q0 -111 -76.5 -187t-187.5 -76q-108 0 -185 77t-77 186q0 110 77 187t185 77q111 0 187.5 -77t76.5 -187zM536 712q0 82 -55.5 137t-135.5 55t-135 -55t-55 -137q0 -78 55 -134.5t135 -56.5t135.5 56.5t55.5 134.5z" />
<glyph unicode="&#xfb36;" d="M609 712q0 -111 -76.5 -187t-187.5 -76q-108 0 -185 77t-77 186q0 110 77 187t185 77q111 0 187.5 -77t76.5 -187zM536 712q0 82 -55.5 137t-135.5 55t-135 -55t-55 -137q0 -78 55 -134.5t135 -56.5t135.5 56.5t55.5 134.5z" />
<glyph unicode="&#xfb38;" d="M609 712q0 -111 -76.5 -187t-187.5 -76q-108 0 -185 77t-77 186q0 110 77 187t185 77q111 0 187.5 -77t76.5 -187zM536 712q0 82 -55.5 137t-135.5 55t-135 -55t-55 -137q0 -78 55 -134.5t135 -56.5t135.5 56.5t55.5 134.5z" />
<glyph unicode="&#xfb39;" d="M609 712q0 -111 -76.5 -187t-187.5 -76q-108 0 -185 77t-77 186q0 110 77 187t185 77q111 0 187.5 -77t76.5 -187zM536 712q0 82 -55.5 137t-135.5 55t-135 -55t-55 -137q0 -78 55 -134.5t135 -56.5t135.5 56.5t55.5 134.5z" />
<glyph unicode="&#xfb3a;" d="M609 712q0 -111 -76.5 -187t-187.5 -76q-108 0 -185 77t-77 186q0 110 77 187t185 77q111 0 187.5 -77t76.5 -187zM536 712q0 82 -55.5 137t-135.5 55t-135 -55t-55 -137q0 -78 55 -134.5t135 -56.5t135.5 56.5t55.5 134.5z" />
<glyph unicode="&#xfb3b;" d="M609 712q0 -111 -76.5 -187t-187.5 -76q-108 0 -185 77t-77 186q0 110 77 187t185 77q111 0 187.5 -77t76.5 -187zM536 712q0 82 -55.5 137t-135.5 55t-135 -55t-55 -137q0 -78 55 -134.5t135 -56.5t135.5 56.5t55.5 134.5z" />
<glyph unicode="&#xfb3c;" d="M609 712q0 -111 -76.5 -187t-187.5 -76q-108 0 -185 77t-77 186q0 110 77 187t185 77q111 0 187.5 -77t76.5 -187zM536 712q0 82 -55.5 137t-135.5 55t-135 -55t-55 -137q0 -78 55 -134.5t135 -56.5t135.5 56.5t55.5 134.5z" />
<glyph unicode="&#xfb3e;" d="M609 712q0 -111 -76.5 -187t-187.5 -76q-108 0 -185 77t-77 186q0 110 77 187t185 77q111 0 187.5 -77t76.5 -187zM536 712q0 82 -55.5 137t-135.5 55t-135 -55t-55 -137q0 -78 55 -134.5t135 -56.5t135.5 56.5t55.5 134.5z" />
<glyph unicode="&#xfb40;" d="M609 712q0 -111 -76.5 -187t-187.5 -76q-108 0 -185 77t-77 186q0 110 77 187t185 77q111 0 187.5 -77t76.5 -187zM536 712q0 82 -55.5 137t-135.5 55t-135 -55t-55 -137q0 -78 55 -134.5t135 -56.5t135.5 56.5t55.5 134.5z" />
<glyph unicode="&#xfb41;" d="M609 712q0 -111 -76.5 -187t-187.5 -76q-108 0 -185 77t-77 186q0 110 77 187t185 77q111 0 187.5 -77t76.5 -187zM536 712q0 82 -55.5 137t-135.5 55t-135 -55t-55 -137q0 -78 55 -134.5t135 -56.5t135.5 56.5t55.5 134.5z" />
<glyph unicode="&#xfb43;" d="M609 712q0 -111 -76.5 -187t-187.5 -76q-108 0 -185 77t-77 186q0 110 77 187t185 77q111 0 187.5 -77t76.5 -187zM536 712q0 82 -55.5 137t-135.5 55t-135 -55t-55 -137q0 -78 55 -134.5t135 -56.5t135.5 56.5t55.5 134.5z" />
<glyph unicode="&#xfb44;" d="M609 712q0 -111 -76.5 -187t-187.5 -76q-108 0 -185 77t-77 186q0 110 77 187t185 77q111 0 187.5 -77t76.5 -187zM536 712q0 82 -55.5 137t-135.5 55t-135 -55t-55 -137q0 -78 55 -134.5t135 -56.5t135.5 56.5t55.5 134.5z" />
<glyph unicode="&#xfb46;" d="M609 712q0 -111 -76.5 -187t-187.5 -76q-108 0 -185 77t-77 186q0 110 77 187t185 77q111 0 187.5 -77t76.5 -187zM536 712q0 82 -55.5 137t-135.5 55t-135 -55t-55 -137q0 -78 55 -134.5t135 -56.5t135.5 56.5t55.5 134.5z" />
<glyph unicode="&#xfb47;" d="M609 712q0 -111 -76.5 -187t-187.5 -76q-108 0 -185 77t-77 186q0 110 77 187t185 77q111 0 187.5 -77t76.5 -187zM536 712q0 82 -55.5 137t-135.5 55t-135 -55t-55 -137q0 -78 55 -134.5t135 -56.5t135.5 56.5t55.5 134.5z" />
<glyph unicode="&#xfb48;" d="M609 712q0 -111 -76.5 -187t-187.5 -76q-108 0 -185 77t-77 186q0 110 77 187t185 77q111 0 187.5 -77t76.5 -187zM536 712q0 82 -55.5 137t-135.5 55t-135 -55t-55 -137q0 -78 55 -134.5t135 -56.5t135.5 56.5t55.5 134.5z" />
<glyph unicode="&#xfb49;" d="M609 712q0 -111 -76.5 -187t-187.5 -76q-108 0 -185 77t-77 186q0 110 77 187t185 77q111 0 187.5 -77t76.5 -187zM536 712q0 82 -55.5 137t-135.5 55t-135 -55t-55 -137q0 -78 55 -134.5t135 -56.5t135.5 56.5t55.5 134.5z" />
<glyph unicode="&#xfb4a;" d="M609 712q0 -111 -76.5 -187t-187.5 -76q-108 0 -185 77t-77 186q0 110 77 187t185 77q111 0 187.5 -77t76.5 -187zM536 712q0 82 -55.5 137t-135.5 55t-135 -55t-55 -137q0 -78 55 -134.5t135 -56.5t135.5 56.5t55.5 134.5z" />
<glyph unicode="&#xfb4b;" d="M609 712q0 -111 -76.5 -187t-187.5 -76q-108 0 -185 77t-77 186q0 110 77 187t185 77q111 0 187.5 -77t76.5 -187zM536 712q0 82 -55.5 137t-135.5 55t-135 -55t-55 -137q0 -78 55 -134.5t135 -56.5t135.5 56.5t55.5 134.5z" />
<glyph horiz-adv-x="0" />
<glyph d="M609 712q0 -111 -76.5 -187t-187.5 -76q-108 0 -185 77t-77 186q0 110 77 187t185 77q111 0 187.5 -77t76.5 -187zM536 712q0 82 -55.5 137t-135.5 55t-135 -55t-55 -137q0 -78 55 -134.5t135 -56.5t135.5 56.5t55.5 134.5z" />
<glyph d="M609 712q0 -111 -76.5 -187t-187.5 -76q-108 0 -185 77t-77 186q0 110 77 187t185 77q111 0 187.5 -77t76.5 -187zM536 712q0 82 -55.5 137t-135.5 55t-135 -55t-55 -137q0 -78 55 -134.5t135 -56.5t135.5 56.5t55.5 134.5z" />
<glyph d="M609 712q0 -111 -76.5 -187t-187.5 -76q-108 0 -185 77t-77 186q0 110 77 187t185 77q111 0 187.5 -77t76.5 -187zM536 712q0 82 -55.5 137t-135.5 55t-135 -55t-55 -137q0 -78 55 -134.5t135 -56.5t135.5 56.5t55.5 134.5z" />
<glyph d="M609 712q0 -111 -76.5 -187t-187.5 -76q-108 0 -185 77t-77 186q0 110 77 187t185 77q111 0 187.5 -77t76.5 -187zM536 712q0 82 -55.5 137t-135.5 55t-135 -55t-55 -137q0 -78 55 -134.5t135 -56.5t135.5 56.5t55.5 134.5z" />
<glyph horiz-adv-x="756" d="M657 770q0 -119 -82.5 -202t-203.5 -83q-117 0 -200 84t-83 201q0 119 83 203t200 84q121 0 203.5 -84t82.5 -203zM578 770q0 88 -59.5 148.5t-147.5 60.5q-86 0 -145.5 -60.5t-59.5 -148.5q0 -84 59.5 -145.5t145.5 -61.5q88 0 147.5 61.5t59.5 145.5z" />
<glyph horiz-adv-x="756" d="M657 770q0 -119 -82.5 -202t-203.5 -83q-117 0 -200 84t-83 201q0 119 83 203t200 84q121 0 203.5 -84t82.5 -203zM578 770q0 88 -59.5 148.5t-147.5 60.5q-86 0 -145.5 -60.5t-59.5 -148.5q0 -84 59.5 -145.5t145.5 -61.5q88 0 147.5 61.5t59.5 145.5z" />
<glyph horiz-adv-x="756" d="M657 770q0 -119 -82.5 -202t-203.5 -83q-117 0 -200 84t-83 201q0 119 83 203t200 84q121 0 203.5 -84t82.5 -203zM578 770q0 88 -59.5 148.5t-147.5 60.5q-86 0 -145.5 -60.5t-59.5 -148.5q0 -84 59.5 -145.5t145.5 -61.5q88 0 147.5 61.5t59.5 145.5z" />
<glyph horiz-adv-x="0" d="M934 -299q0 -39 -26.5 -66.5t-67.5 -27.5q-39 0 -65.5 27.5t-26.5 66.5t26.5 64.5t65.5 25.5t66.5 -25.5t27.5 -64.5zM934 -600q0 -41 -26.5 -67.5t-67.5 -26.5q-39 0 -65.5 26.5t-26.5 67.5q0 37 27.5 64.5t64.5 27.5q41 0 67.5 -26.5t26.5 -65.5zM639 -672h-94v445h94 v-445zM418 -346h-170l-6 -100q0 -23 29.5 -67t29.5 -65q0 -40 -26.5 -67t-65.5 -27t-65.5 28t-26.5 66q0 25 30.5 67t30.5 67l-8 98h-170v119h418v-119z" />
<glyph horiz-adv-x="756" d="M657 770q0 -119 -82.5 -202t-203.5 -83q-117 0 -200 84t-83 201q0 119 83 203t200 84q121 0 203.5 -84t82.5 -203zM578 770q0 88 -59.5 148.5t-147.5 60.5q-86 0 -145.5 -60.5t-59.5 -148.5q0 -84 59.5 -145.5t145.5 -61.5q88 0 147.5 61.5t59.5 145.5z" />
<glyph horiz-adv-x="756" d="M657 770q0 -119 -82.5 -202t-203.5 -83q-117 0 -200 84t-83 201q0 119 83 203t200 84q121 0 203.5 -84t82.5 -203zM578 770q0 88 -59.5 148.5t-147.5 60.5q-86 0 -145.5 -60.5t-59.5 -148.5q0 -84 59.5 -145.5t145.5 -61.5q88 0 147.5 61.5t59.5 145.5z" />
<glyph horiz-adv-x="756" d="M657 770q0 -119 -82.5 -202t-203.5 -83q-117 0 -200 84t-83 201q0 119 83 203t200 84q121 0 203.5 -84t82.5 -203zM578 770q0 88 -59.5 148.5t-147.5 60.5q-86 0 -145.5 -60.5t-59.5 -148.5q0 -84 59.5 -145.5t145.5 -61.5q88 0 147.5 61.5t59.5 145.5z" />
<glyph horiz-adv-x="756" d="M657 770q0 -119 -82.5 -202t-203.5 -83q-117 0 -200 84t-83 201q0 119 83 203t200 84q121 0 203.5 -84t82.5 -203zM578 770q0 88 -59.5 148.5t-147.5 60.5q-86 0 -145.5 -60.5t-59.5 -148.5q0 -84 59.5 -145.5t145.5 -61.5q88 0 147.5 61.5t59.5 145.5z" />
</font>
</defs>
</svg>
