<?xml version="1.0" encoding="UTF-8"?>
<svg width="61px" height="58px" viewBox="0 0 61 58" version="1.1" xmlns="http://www.w3.org/2000/svg" xmlns:xlink="http://www.w3.org/1999/xlink">
    <!-- Generator: sketchtool 50.2 (55047) - http://www.bohemiancoding.com/sketch -->
    <title>FBFCC171-88A4-4CEC-A9DA-977B51C92C78</title>
    <desc>Created with sketchtool.</desc>
    <defs></defs>
    <g id="web" stroke="none" stroke-width="1" fill="none" fill-rule="evenodd">
        <g id="404" transform="translate(-1116.000000, -405.000000)">
            <g id="404arrow" transform="translate(1115.000000, 402.000000)">
                <g id="Group-7" transform="translate(30.564498, 30.990046) rotate(-8.000000) translate(-30.564498, -30.990046) translate(3.564498, 3.490046)">
                    <path d="M0,14 L7.29643886,14" id="Stroke-1" stroke="#0A7BB6" stroke-width="3" transform="translate(3.648219, 14.632603) scale(-1, 1) translate(-3.648219, -14.632603) "></path>
                    <path d="M9,6.31843517 L12.6475868,0" id="Stroke-3" stroke="#0A7BB6" stroke-width="3" transform="translate(10.823793, 3.159218) scale(-1, 1) translate(-10.823793, -3.159218) "></path>
                    <path d="M23.6463216,6.31970038 L20,0" id="Stroke-4" stroke="#0A7BB6" stroke-width="3" transform="translate(21.823161, 3.159850) scale(-1, 1) translate(-21.823161, -3.159850) "></path>
                    <path d="M31.3002345,14 L24,14" id="Stroke-5" stroke="#0A7BB6" stroke-width="3" transform="translate(27.650117, 14.632603) scale(-1, 1) translate(-27.650117, -14.632603) "></path>
                    <path d="M22.648852,21 L19,27.3184352" id="Stroke-6" stroke="#0A7BB6" stroke-width="3" transform="translate(20.824426, 24.159218) scale(-1, 1) translate(-20.824426, -24.159218) "></path>
                    <path d="M8,20 L11.648852,26.3209656" id="Stroke-7" stroke="#0A7BB6" stroke-width="3" transform="translate(9.824426, 23.160483) scale(-1, 1) translate(-9.824426, -23.160483) "></path>
                    <polygon id="Fill-9" fill="#FFFFFF" transform="translate(34.676328, 35.676328) scale(-1, 1) translate(-34.676328, -35.676328) " points="40.9625002 53.5277417 47.1582105 35.2645034 53.3526555 17 35.0881521 23.1944451 16.8249138 29.3926857 28.3420775 33.7981305 16 46.140208 24.2124475 54.3526555 36.5583206 42.0093128"></polygon>
                    <polygon id="Stroke-10" stroke="#0A7BB6" stroke-width="3" transform="translate(34.676328, 35.676328) scale(-1, 1) translate(-34.676328, -35.676328) " points="40.9625002 53.5277417 47.1582105 35.2645034 53.3526555 17 35.0881521 23.1944451 16.8249138 29.3926857 28.3420775 33.7981305 16 46.140208 24.2124475 54.3526555 36.5583206 42.0093128"></polygon>
                </g>
            </g>
        </g>
    </g>
</svg>