<?xml version="1.0" encoding="UTF-8"?>
<svg width="680px" height="267px" viewBox="0 0 680 267" version="1.1" xmlns="http://www.w3.org/2000/svg" xmlns:xlink="http://www.w3.org/1999/xlink">
    <!-- Generator: sketchtool 50.2 (55047) - http://www.bohemiancoding.com/sketch -->
    <title>D9C31CC6-9B98-46C4-856E-658A04F5C274</title>
    <desc>Created with sketchtool.</desc>
    <defs></defs>
    <g id="web" stroke="none" stroke-width="1" fill="none" fill-rule="evenodd">
        <g id="404" transform="translate(-462.000000, -426.000000)" fill="#0A7BB6">
            <g transform="translate(462.000000, 426.000000)">
                <path d="M211.826172,196.082031 L184.238281,196.082031 L184.238281,262 L121.25,262 L121.25,196.082031 L0.64453125,196.082031 L0.64453125,152.380859 L125.888672,6.38476562 L184.238281,6.38476562 L184.238281,148.962891 L211.826172,148.962891 L211.826172,196.082031 Z M121.25,148.962891 L121.25,67.4199219 L52.1582031,148.962891 L121.25,148.962891 Z M440.341797,134.070312 C440.341797,222.612422 406.732107,266.882812 339.511719,266.882812 C306.308428,266.882812 281.731851,257.035906 265.78125,237.341797 C248.52856,216.020076 239.902344,181.596592 239.902344,134.070312 C239.902344,84.9164209 247.958904,50.08604 264.072266,29.578125 C279.371821,9.88401611 304.680813,0.037109375 340,0.037109375 C374.505381,0.037109375 399.570234,9.80263672 415.195312,29.3339844 C431.959719,50.3301831 440.341797,85.2419434 440.341797,134.070312 Z M375.888672,134.070312 C375.888672,90.7758252 371.738323,64.7344189 363.4375,55.9453125 C358.554663,51.0624756 350.742241,48.6210938 340,48.6210938 C328.443953,48.6210938 320.306013,51.2252344 315.585938,56.4335938 C307.93616,65.059939 304.111328,90.9385864 304.111328,134.070312 C304.111328,176.550994 308.912712,202.348262 318.515625,211.462891 C323.398462,216.182966 330.39709,218.542969 339.511719,218.542969 C352.369856,218.542969 361.077451,215.369172 365.634766,209.021484 C372.470737,199.581333 375.888672,174.597859 375.888672,134.070312 Z M679.599609,196.082031 L652.011719,196.082031 L652.011719,262 L589.023438,262 L589.023438,196.082031 L468.417969,196.082031 L468.417969,152.380859 L593.662109,6.38476562 L652.011719,6.38476562 L652.011719,148.962891 L679.599609,148.962891 L679.599609,196.082031 Z M589.023438,148.962891 L589.023438,67.4199219 L519.931641,148.962891 L589.023438,148.962891 Z"></path>
            </g>
        </g>
    </g>
</svg>