<?xml version="1.0" encoding="UTF-8"?>
<svg width="116px" height="95px" viewBox="0 0 116 95" version="1.1" xmlns="http://www.w3.org/2000/svg" xmlns:xlink="http://www.w3.org/1999/xlink">
    <!-- Generator: sketchtool 50.2 (55047) - http://www.bohemiancoding.com/sketch -->
    <title>9A4159C9-89AC-4CF7-92D0-D7E64BC7B202</title>
    <desc>Created with sketchtool.</desc>
    <defs>
        <rect x="24" y="113" width="1604" height="1177" id="rect-1"></rect>
        <rect id="path-2" x="0" y="0" width="924" height="425" rx="3"></rect>
        <filter x="-1.7%" y="-3.3%" width="103.5%" height="107.5%" filterUnits="objectBoundingBox" id="filter-4">
            <feOffset dx="0" dy="2" in="SourceAlpha" result="shadowOffsetOuter1"></feOffset>
            <feGaussianBlur stdDeviation="5" in="shadowOffsetOuter1" result="shadowBlurOuter1"></feGaussianBlur>
            <feColorMatrix values="0 0 0 0 0   0 0 0 0 0   0 0 0 0 0  0 0 0 0.2 0" type="matrix" in="shadowBlurOuter1"></feColorMatrix>
        </filter>
        <filter x="-9.4%" y="-9.4%" width="118.8%" height="118.8%" filterUnits="objectBoundingBox" id="filter-5">
            <feOffset dx="0" dy="0" in="SourceAlpha" result="shadowOffsetOuter1"></feOffset>
            <feGaussianBlur stdDeviation="5" in="shadowOffsetOuter1" result="shadowBlurOuter1"></feGaussianBlur>
            <feColorMatrix values="0 0 0 0 0   0 0 0 0 0   0 0 0 0 0  0 0 0 0.170148324 0" type="matrix" in="shadowBlurOuter1" result="shadowMatrixOuter1"></feColorMatrix>
            <feMerge>
                <feMergeNode in="shadowMatrixOuter1"></feMergeNode>
                <feMergeNode in="SourceGraphic"></feMergeNode>
            </feMerge>
        </filter>
    </defs>
    <g id="web" stroke="none" stroke-width="1" fill="none" fill-rule="evenodd">
        <g id="error-pop-up" transform="translate(-743.000000, -295.000000)">
            <g id="Group-7" transform="translate(-24.000000, 0.000000)">
                <g id="stock-photo-close-up-of-business-people-discussing-a-financial-plan-111102305">
                    <use fill-opacity="0.776579484" fill="#012E5C" fill-rule="evenodd" xlink:href="#rect-1"></use>
                </g>
                <g id="Group-12" transform="translate(214.000000, 363.000000)">
                    <path d="M610,0 L682,9.88509686e-16 L1212,-1.77635684e-15 C1216.41828,-2.58798134e-15 1220,3.581722 1220,8 L1220,593 C1220,597.418278 1216.41828,601 1212,601 L610,601 L610,0 Z" id="Rectangle" fill="#F6F6F6"></path>
                    <path d="M8,0 L610,0 L610,601 L8,601 C3.581722,601 6.33285897e-14,597.418278 0,593 L0,8 C-5.41083001e-16,3.581722 3.581722,8.11624501e-16 8,0 Z" id="Rectangle" fill="#FFFFFF"></path>
                </g>
            </g>
            <rect id="Rectangle-5" fill-opacity="0.95" fill="#0A7BB6" x="0" y="0" width="1600" height="1327"></rect>
            <g id="Group-11" transform="translate(339.000000, 307.000000)">
                <mask id="mask-3" fill="white">
                    <use xlink:href="#path-2"></use>
                </mask>
                <g id="Rectangle-510">
                    <use fill="black" fill-opacity="1" filter="url(#filter-4)" xlink:href="#path-2"></use>
                    <use fill="#FFFFFF" fill-rule="evenodd" xlink:href="#path-2"></use>
                </g>
            </g>
            <g id="Group-13" filter="url(#filter-5)" transform="translate(705.000000, 247.000000)" fill="#FFFFFF" stroke="#0A7BB6" stroke-width="5">
                <circle id="Oval-2" cx="96" cy="96" r="96"></circle>
            </g>
            <g id="Group-14" transform="translate(791.000000, 296.000000)" fill="#D53B4A">
                <path d="M9.11764706,63.8235294 C12.6279412,63.8235294 15.5,61.2125668 15.5,58.0213904 L15.5,5.80213904 C15.5,2.6080615 12.6279412,0 9.11764706,0 C5.60735294,0 2.73529412,2.6080615 2.73529412,5.80213904 L2.73529412,58.0213904 C2.73529412,61.2125668 5.60735294,63.8235294 9.11764706,63.8235294 M19.1470588,84.3382353 C19.1470588,89.2436814 14.9985294,93 9.57352941,93 C4.14852941,93 0,89.2436814 0,84.3382353 C0,79.429902 4.14852941,75.6764706 9.57352941,75.6764706 C14.9985294,75.6764706 19.1470588,79.429902 19.1470588,84.3382353" id="Fill-1"></path>
            </g>
        </g>
    </g>
</svg>