<?xml version="1.0" encoding="UTF-8"?>
<svg width="44px" height="44px" viewBox="0 0 44 44" version="1.1" xmlns="http://www.w3.org/2000/svg" xmlns:xlink="http://www.w3.org/1999/xlink">
    <!-- Generator: sketchtool 48.2 (47327) - http://www.bohemiancoding.com/sketch -->
    <title>E28D70EA-EAA5-42D5-885F-7B2AE4E66A85</title>
    <desc>Created with sketchtool.</desc>
    <defs>
        <rect id="path-1" x="0" y="0" width="355" height="139" rx="2"></rect>
        <filter x="-1.3%" y="-3.2%" width="102.5%" height="106.5%" filterUnits="objectBoundingBox" id="filter-3">
            <feOffset dx="0" dy="0" in="SourceAlpha" result="shadowOffsetOuter1"></feOffset>
            <feGaussianBlur stdDeviation="1.5" in="shadowOffsetOuter1" result="shadowBlurOuter1"></feGaussianBlur>
            <feColorMatrix values="0 0 0 0 0   0 0 0 0 0   0 0 0 0 0  0 0 0 0.15 0" type="matrix" in="shadowBlurOuter1"></feColorMatrix>
        </filter>
    </defs>
    <g id="about-a" stroke="none" stroke-width="1" fill="none" fill-rule="evenodd" transform="translate(-18.000000, -725.000000)">
        <g id="Group-5" transform="translate(9.000000, 716.000000)">
            <g id="Group-4">
                <g id="Group">
                    <g id="Group-2">
                        <g id="Section-3-History-Copy-5">
                            <g id="line">
                                <mask id="mask-2" fill="white">
                                    <use xlink:href="#path-1"></use>
                                </mask>
                                <g id="Mask">
                                    <use fill="black" fill-opacity="1" filter="url(#filter-3)" xlink:href="#path-1"></use>
                                    <use fill="#FFFFFF" fill-rule="evenodd" xlink:href="#path-1"></use>
                                </g>
                            </g>
                        </g>
                        <g id="Group-12" transform="translate(9.000000, 9.000000)" fill="#1C6897" fill-rule="nonzero">
                            <g id="noun_528419_ffffff">
                                <path d="M17.0823529,23.2941176 C21.8959966,23.2941176 25.6235294,16.5295507 25.6235294,10.7090783 C25.6235294,5.07915702 22.1914188,1.29411765 17.0823529,1.29411765 C11.9732871,1.29411765 8.54117647,5.07915702 8.54117647,10.7090783 C8.54117647,16.5295507 12.2687092,23.2941176 17.0823529,23.2941176 Z M17.0823529,2.71459009 C20.2798636,2.71459009 22.6866854,4.52482631 23.6945964,7.45238536 L19.2806415,4.75002316 L10.1659984,8.65632237 C10.8697983,5.03584993 13.4677757,2.71459009 17.0823529,2.71459009 Z M9.97484292,10.2846688 L19.1589971,6.35238536 L24.111663,9.38388143 C24.1637963,9.81695229 24.1985519,10.2586846 24.1985519,10.7177397 C24.1985519,15.7760074 21.018419,21.8823066 17.0823529,21.8823066 C13.137598,21.8823066 9.96615403,15.7760074 9.96615403,10.7177397 C9.96615403,10.5618342 9.97484292,10.4232515 9.97484292,10.2846688 Z" id="Shape"></path>
                                <path d="M28.0303513,25.0547513 C28.0303513,25.0547513 25.9189516,24.1657488 23.3557298,23.5529412 L19.6716414,32.4084424 L18.5247083,26.323522 L19.9323081,26.323522 L19.9323081,24.9080227 L14.2323978,24.9080227 L14.2323978,26.323522 L15.6399976,26.323522 L14.4930644,32.4084424 L10.8089761,23.5529412 C8.36739872,24.183011 6.13435462,25.0547513 6.13435462,25.0547513 C2.46764407,26.3580463 0,29.8363767 0,33.7117374 L0,44 L34.1647059,44 L34.1647059,33.7117374 C34.1647059,29.8363767 31.6970618,26.3580463 28.0303513,25.0547513 Z M17.0823529,26.3839396 L18.6724194,34.7992551 L17.0823529,38.6141981 L15.4922865,34.7992551 L17.0823529,26.3839396 Z M32.7397283,42.5845008 L27.048507,42.5845008 L27.048507,39.0543838 L25.6235294,39.0543838 L25.6235294,42.5845008 L8.54117647,42.5845008 L8.54117647,39.0543838 L7.11619891,39.0543838 L7.11619891,42.5845008 L1.42497756,42.5845008 L1.42497756,33.7117374 C1.42497756,30.4319221 3.51031057,27.4887195 6.62093232,26.3839396 C6.62093232,26.3839396 8.63675423,25.581248 9.97484292,25.2446354 L17.0823529,42.3169369 L24.189863,25.2446354 C24.728574,25.399995 27.5437736,26.3839396 27.5437736,26.3839396 C30.6457064,27.4887195 32.7397283,30.4319221 32.7397283,33.7117374 L32.7397283,42.5845008 Z" id="Shape"></path>
                                <path d="M38.5982595,0 L26.9176471,0 L26.9176471,21.2235294 L44,21.2235294 L44,5.37064088 L38.5982595,0 Z M39.0151141,2.41765185 L41.5683483,4.95618628 L39.0151141,4.95618628 L39.0151141,2.41765185 Z M42.5757469,19.8074762 L28.3419002,19.8074762 L28.3419002,1.41605322 L37.590861,1.41605322 L37.590861,6.37223951 L42.5757469,6.37223951 L42.5757469,19.8074762 Z" id="Shape"></path>
                                <path d="M29.7647059,18.3764706 L35.4588235,18.3764706 L35.4588235,12.6823529 L29.7647059,12.6823529 L29.7647059,18.3764706 Z M31.1882353,14.1058824 L34.0352941,14.1058824 L34.0352941,16.9529412 L31.1882353,16.9529412 L31.1882353,14.1058824 Z" id="Shape"></path>
                                <rect id="Rectangle-path" x="37.0117647" y="13.4588235" width="3.62352941" height="1.29411765"></rect>
                                <rect id="Rectangle-path" x="37.0117647" y="16.3058824" width="3.62352941" height="1.29411765"></rect>
                                <polygon id="Shape" points="31.9416033 6.99889012 31.0257662 6.06659267 30.0235294 7.08768036 31.9416033 9.05882353 35.9764706 4.91231964 34.9828737 3.88235294"></polygon>
                            </g>
                        </g>
                    </g>
                </g>
            </g>
        </g>
    </g>
</svg>