<?xml version="1.0" encoding="UTF-8"?>
<svg width="71px" height="98px" viewBox="0 0 71 98" version="1.1" xmlns="http://www.w3.org/2000/svg" xmlns:xlink="http://www.w3.org/1999/xlink">
    <!-- Generator: sketchtool 48.2 (47327) - http://www.bohemiancoding.com/sketch -->
    <title>3DB03098-506D-403F-BBA5-F28DF313D1D1</title>
    <desc>Created with sketchtool.</desc>
    <defs></defs>
    <g id="profile-details" stroke="none" stroke-width="1" fill="none" fill-rule="evenodd" transform="translate(-1306.000000, -334.000000)">
        <path d="M1320.61765,413.276596 C1319.46494,413.276596 1318.52941,414.209681 1318.52941,415.361702 C1318.52941,416.512681 1319.46494,417.446809 1320.61765,417.446809 L1362.38235,417.446809 C1363.53506,417.446809 1364.47059,416.512681 1364.47059,415.361702 C1364.47059,414.209681 1363.53506,413.276596 1362.38235,413.276596 L1320.61765,413.276596 Z M1320.61765,398.680851 C1319.46494,398.680851 1318.52941,399.613936 1318.52941,400.765957 C1318.52941,401.916936 1319.46494,402.851064 1320.61765,402.851064 L1362.38235,402.851064 C1363.53506,402.851064 1364.47059,401.916936 1364.47059,400.765957 C1364.47059,399.613936 1363.53506,398.680851 1362.38235,398.680851 L1320.61765,398.680851 Z M1320.61765,384.085106 C1319.46494,384.085106 1318.52941,385.018191 1318.52941,386.170213 C1318.52941,387.321191 1319.46494,388.255319 1320.61765,388.255319 L1362.38235,388.255319 C1363.53506,388.255319 1364.47059,387.321191 1364.47059,386.170213 C1364.47059,385.018191 1363.53506,384.085106 1362.38235,384.085106 L1320.61765,384.085106 Z M1328.97059,370.531915 C1325.11571,370.531915 1320.61765,371.990447 1320.61765,377.829787 L1337.32353,377.829787 C1337.32353,371.990447 1332.82547,370.531915 1328.97059,370.531915 Z M1344.63235,369.489362 C1343.47965,369.489362 1342.54412,370.422447 1342.54412,371.574468 C1342.54412,372.725447 1343.47965,373.659574 1344.63235,373.659574 L1362.38235,373.659574 C1363.53506,373.659574 1364.47059,372.725447 1364.47059,371.574468 C1364.47059,370.422447 1363.53506,369.489362 1362.38235,369.489362 L1344.63235,369.489362 Z M1328.97059,361.148936 C1326.66413,361.148936 1324.79412,363.016149 1324.79412,365.319149 C1324.79412,367.622149 1326.66413,369.489362 1328.97059,369.489362 C1331.27704,369.489362 1333.14706,367.622149 1333.14706,365.319149 C1333.14706,363.016149 1331.27704,361.148936 1328.97059,361.148936 Z M1310.17647,347.595745 L1322.70588,347.595745 L1322.70588,351.765957 C1322.70588,352.857511 1323.70093,353.851064 1324.79412,353.851064 L1358.20588,353.851064 C1359.29907,353.851064 1360.29412,352.857511 1360.29412,351.765957 L1360.29412,347.595745 L1372.82353,347.595745 L1372.82353,426.829787 L1310.17647,426.829787 L1310.17647,347.595745 Z M1341.5,337.170213 C1344.45694,337.170213 1346.87616,339.130213 1347.56841,341.82834 C1347.78663,342.728064 1348.66578,343.422404 1349.59191,343.425532 L1356.11765,343.425532 L1356.11765,349.680851 L1326.88235,349.680851 L1326.88235,343.425532 L1333.40809,343.425532 C1334.33422,343.422404 1335.21337,342.728064 1335.43159,341.82834 C1336.12384,339.130213 1338.54201,337.170213 1341.5,337.170213 Z M1341.5,334 C1337.25462,334 1333.69731,336.600128 1332.07057,340.255319 L1324.79412,340.255319 C1323.70093,340.255319 1322.70588,341.24783 1322.70588,342.340426 L1322.70588,344.425532 L1308.08824,344.425532 C1306.91882,344.427617 1306,345.516043 1306,346.510638 L1306,429.914894 C1306,431.006447 1306.99504,431.998957 1308.08824,432 L1374.91176,432 C1376.00496,431.998957 1377,431.006447 1377,429.914894 L1377,347.553191 C1377,346.460596 1376.00496,344.425532 1374.91176,344.425532 L1360.29412,344.425532 L1360.29412,342.340426 C1360.29412,341.24783 1359.29907,340.255319 1358.20588,340.255319 L1350.92943,340.255319 C1349.30269,336.600128 1345.74434,334 1341.5,334 Z" id="icon" fill="#FFFFFF"></path>
    </g>
</svg>