<?xml version="1.0" encoding="UTF-8"?>
<svg width="39px" height="44px" viewBox="0 0 39 44" version="1.1" xmlns="http://www.w3.org/2000/svg" xmlns:xlink="http://www.w3.org/1999/xlink">
    <!-- Generator: sketchtool 48.2 (47327) - http://www.bohemiancoding.com/sketch -->
    <title>81289E63-8B0A-4E79-8806-673A9A03A85F</title>
    <desc>Created with sketchtool.</desc>
    <defs>
        <polygon id="path-1" points="5.15636392e-05 0.121801325 38.8634503 0.121801325 38.8634503 43.9999126 5.15636392e-05 43.9999126"></polygon>
        <polygon id="path-3" points="0.144217786 0.121801325 5.84053636 0.121801325 5.84053636 43.9999854 0.144217786 43.9999854"></polygon>
    </defs>
    <g id="003" stroke="none" stroke-width="1" fill="none" fill-rule="evenodd" transform="translate(-531.000000, -972.000000)" opacity="0.7">
        <g id="Group-9" transform="translate(531.000000, 972.000000)">
            <g id="Group-8">
                <g id="Group-10">
                    <g id="Group-5">
                        <g id="Group">
                            <g id="LogoMerkava">
                                <g id="Group-3">
                                    <mask id="mask-2" fill="white">
                                        <use xlink:href="#path-1"></use>
                                    </mask>
                                    <g id="Clip-2"></g>
                                    <path d="M1.22296642,32.3109192 L13.0237777,32.3109192 C13.1822796,32.3109192 13.3288608,32.3945483 13.4084796,32.5303364 L19.3642947,42.6848662 L25.3373287,32.587449 C25.4170947,32.4526808 25.5632343,32.3696344 25.7211475,32.3696344 L37.644257,32.3696344 L31.6260419,22.1451709 C31.546423,22.0099656 31.5452457,21.8431444 31.6228042,21.7069192 L37.3599249,11.6347073 L25.6618381,11.6347073 C25.5037777,11.6347073 25.3576381,11.5518066 25.2778721,11.4170384 L19.3614985,1.43107815 L13.4070079,11.418204 C13.3268004,11.5523894 13.1811023,11.6347073 13.0237777,11.6347073 L1.21649094,11.6347073 L7.17892868,21.8403762 C7.25913623,21.9777669 7.25840038,22.1472106 7.17730981,22.2841642 L1.22296642,32.3109192 Z M19.3626758,43.9999126 L19.3617928,43.9999126 C19.2037325,43.9997669 19.0572985,43.9161377 18.9778268,43.7806411 L12.7674079,33.1920848 L0.445026792,33.1920848 C0.285494717,33.1920848 0.138030566,33.1074358 0.0588532075,32.9701907 C-0.0204713208,32.8330914 -0.0194411321,32.6645219 0.0613550943,32.5282967 L6.27869094,22.0590649 L0.0598833962,11.4147073 C-0.0197354717,11.2784821 -0.0198826415,11.1104954 0.0595890566,10.9741245 C0.139060755,10.8377536 0.285936226,10.7536874 0.445026792,10.7536874 L12.7694683,10.7536874 L18.9792985,0.338362914 C19.059506,0.204177483 19.2052042,0.121713907 19.3626758,0.121713907 L19.3631174,0.121713907 C19.5210306,0.122005298 19.6667287,0.204760265 19.7464947,0.339528477 L25.9165891,10.7536874 L38.121823,10.7536874 C38.2800306,10.7536874 38.4263174,10.8367338 38.5059362,10.9720848 C38.5857023,11.1071444 38.587174,11.2741113 38.5093211,11.4104821 L32.5234834,21.9196344 L38.8030721,32.5883232 C38.8831325,32.724694 38.883574,32.8929722 38.8043966,33.0297801 C38.7249249,33.1664424 38.5777551,33.2506543 38.4185174,33.2506543 L25.9761928,33.2506543 L19.7466419,43.782098 C19.6668758,43.9170119 19.5207362,43.9999126 19.3626758,43.9999126 Z" id="Fill-1" fill="#0A7BB6" mask="url(#mask-2)"></path>
                                </g>
                                <g id="Group-6" transform="translate(16.779070, 0.000000)">
                                    <mask id="mask-4" fill="white">
                                        <use xlink:href="#path-3"></use>
                                    </mask>
                                    <g id="Clip-5"></g>
                                    <path d="M2.70487674,43.9999854 C2.45243488,43.9999854 2.24776047,43.8027139 2.24776047,43.5595483 L2.24776047,31.5522106 C1.70266744,31.5903828 1.32113256,31.4210848 1.07776047,31.2439192 C0.118330233,30.545747 0.139795349,28.9755881 0.145388372,28.7988596 C0.183330233,27.2260781 0.587388372,26.2143695 1.34592326,25.7953497 C1.72126047,25.5880252 2.10733023,25.5682106 2.42038837,25.6100252 L2.42038837,18.5387007 C2.42038837,18.3861576 2.50216744,18.2445417 2.63685349,18.1641179 C2.77138837,18.083694 2.9394814,18.0762636 3.08096977,18.1443033 C3.5906907,18.3886344 3.87215581,18.2729523 4.03949302,18.1649921 C4.66213256,17.7627272 4.96536512,16.4717205 4.92288837,15.9029258 C4.84987674,14.9277868 4.58292326,14.2839589 4.15059767,14.0407934 C3.67685349,13.7744623 3.08187674,14.040502 3.0759814,14.0431245 C2.93434186,14.1078132 2.76700465,14.0986344 2.63443488,14.0179192 C2.50216744,13.937204 2.42038837,13.7973364 2.42038837,13.646396 L2.42038837,0.562369536 C2.42038837,0.318912583 2.62506279,0.121786755 2.87750465,0.121786755 C3.13009767,0.121786755 3.33462093,0.318912583 3.33462093,0.562369536 L3.33462093,13.0659457 C3.69620233,13.0148066 4.15891163,13.0292305 4.60106279,13.2741444 C5.3221093,13.6733497 5.73720233,14.536449 5.83455116,15.8395483 C5.88987674,16.5801179 5.56941163,18.237257 4.54830698,18.8969656 C4.27379535,19.0741311 3.86565581,19.2304623 3.33462093,19.146396 L3.33462093,26.2019854 C3.33462093,26.3580252 3.24891163,26.5024093 3.10953953,26.5816675 C2.97001628,26.6607801 2.79723721,26.6628199 2.65574884,26.587204 C2.65438837,26.5866212 2.17867907,26.3465152 1.7954814,26.5624358 C1.34985349,26.8136146 1.08849302,27.6162503 1.05916744,28.8226079 C1.0491907,29.1801444 1.13233023,30.1807801 1.62965581,30.5415219 C1.85322558,30.7032437 2.1594814,30.721747 2.5661093,30.5967404 C2.70533023,30.5540517 2.85679535,30.5780914 2.97455116,30.6607007 C3.09230698,30.743747 3.16184186,30.8758927 3.16184186,31.0164887 L3.16184186,43.5595483 C3.16184186,43.8027139 2.9573186,43.9999854 2.70487674,43.9999854" id="Fill-4" fill="#0A7BB6" mask="url(#mask-4)"></path>
                                </g>
                                <path d="M25.5867621,25.1428571 C24.7821541,25.1428571 23.3015699,24.8175802 22.685661,23.9206737 C22.5072173,23.6610241 22.350017,23.2754101 22.4346971,22.7726964 L15.3398772,22.7726964 C15.1828234,22.7726964 15.0376365,22.6916273 14.958084,22.5596578 C14.878385,22.4276883 14.876334,22.2645494 14.9523703,22.1305782 C14.9532493,22.1291484 15.1941043,21.678908 14.9772762,21.3168855 C14.7247008,20.8953837 13.9177488,20.6480303 12.7046835,20.6204354 C12.3467707,20.6108558 11.3388132,20.6893512 10.9762121,21.1598947 C10.8134446,21.3712174 10.7952779,21.6608926 10.9208331,22.0456488 C10.9636127,22.1771893 10.9397323,22.3207401 10.8563707,22.4321207 C10.7730091,22.5433582 10.6401286,22.6091285 10.4987508,22.6091285 L6.79172321,22.6091285 C6.5470591,22.6091285 6.34883721,22.4156781 6.34883721,22.1769034 C6.34883721,21.9381287 6.5470591,21.7445353 6.79172321,21.7445353 L9.96005027,21.7445353 C9.92020079,21.2290964 10.0919052,20.8680748 10.2699093,20.6380218 C10.971817,19.7303919 12.5518784,19.7516957 12.7285639,19.7559851 C14.3099439,19.7920158 15.3274243,20.1740553 15.748774,20.8915233 C15.9571047,21.2465399 15.977469,21.611136 15.9351289,21.9079601 L23.0457714,21.9079601 C23.1991626,21.9079601 23.3417124,21.9854547 23.4224369,22.1127059 C23.5031614,22.2398141 23.5107797,22.3989496 23.4423617,22.5329208 C23.1968185,23.0146166 23.3128508,23.2809862 23.4217044,23.4392639 C23.826206,24.0281938 25.1220468,24.3150095 25.6962017,24.2748324 C26.6767627,24.2057736 27.3241703,23.9532729 27.5686879,23.5444963 C27.8364999,23.0964005 27.5689809,22.5337787 27.5663438,22.5280595 C27.5011489,22.3940883 27.5103788,22.2356677 27.5918358,22.1104182 C27.6728533,21.9853117 27.813352,21.9079601 27.9652782,21.9079601 L31.7546419,21.9079601 C31.9994525,21.9079601 32.1976744,22.1015535 32.1976744,22.3401853 C32.1976744,22.57896 31.9994525,22.7726964 31.7546419,22.7726964 L28.548956,22.7726964 C28.6000864,23.1142729 28.5858753,23.5522172 28.3395997,23.9705734 C27.9381747,24.6522966 27.0702764,25.0450596 25.7599315,25.137281 C25.7066035,25.1409984 25.6487339,25.1428571 25.5867621,25.1428571" id="Fill-7" fill="#0A7BB6"></path>
                                <path d="M5.71462388,20.6530612 C5.67882088,20.6530612 5.64226571,20.6460394 5.60691401,20.6314106 C5.46851584,20.5734805 5.40458191,20.4173912 5.46415329,20.2826599 C5.82443982,19.4681281 8.23016096,17.6886803 9.03587897,17.1083556 C8.85686395,16.8435742 8.78601011,16.5501204 8.8254235,16.2326753 C8.93704463,15.3306632 9.95863369,14.4719524 10.5332869,14.0548852 C9.633398,13.4229208 9.69657977,11.9944181 9.70003973,11.9253701 C9.7077118,11.7790821 9.83196928,11.6655625 9.98661419,11.673901 C10.137047,11.6813616 10.2528802,11.8059991 10.2452082,11.9522871 C10.2441551,11.9743766 10.1832298,13.4766085 11.1447962,13.7643571 C11.2464888,13.794785 11.3208026,13.8802173 11.3347928,13.9829115 C11.3489335,14.0856057 11.3001933,14.1869833 11.2100841,14.2424265 C10.7318582,14.5363192 9.46807237,15.4787067 9.36713197,16.2964569 C9.33614282,16.5480724 9.41993388,16.7696988 9.62286771,16.9740632 C9.67807654,17.02936 9.70560574,17.1051372 9.69868583,17.1816459 C9.69176593,17.2581545 9.65114907,17.3280802 9.5870647,17.3732832 C8.27664469,18.2985551 6.23090921,19.8928022 5.96554577,20.4924369 C5.9211681,20.5929368 5.82037813,20.6530612 5.71462388,20.6530612" id="Fill-9" fill="#0A7BB6"></path>
                                <path d="M11.2996165,14.9585437 C10.8682894,15.073477 10.5804862,15.2561728 10.4775015,15.4851632 C10.3835815,15.693708 10.4669261,15.8939285 10.4704512,15.9023988 C10.4739764,15.9107231 10.4787605,15.9226984 10.4815302,15.9314608 C10.5155228,16.0382158 10.5394434,16.1353323 10.5550548,16.2235403 C11.0560036,15.7308021 11.2356602,15.2557347 11.2996165,14.9585437 Z M10.124609,16.58937 L10.1244831,16.589516 L10.124609,16.58937 Z M10.1244831,16.589516 L10.1238536,16.5901002 L10.1244831,16.589516 Z M10.1238536,16.5901002 C10.1238536,16.5901002 10.1237277,16.5902462 10.1234759,16.5903922 C10.1237277,16.5902462 10.1237277,16.5902462 10.1238536,16.5901002 Z M10.1234759,16.5903922 L10.12335,16.5905383 L10.1234759,16.5903922 Z M10.2675034,17.0612245 C10.1961191,17.0612245 10.1261197,17.0225239 10.0815518,16.9505263 C10.0159588,16.8439173 10.0275415,16.6990458 10.1061019,16.6086472 C10.1248608,16.5693625 10.1481519,16.4198178 10.0575052,16.1291986 C9.98599508,15.9590623 9.91461082,15.6024331 10.0669476,15.2522297 C10.2636005,14.8006747 10.755107,14.5039219 11.5279958,14.3704416 C11.5906931,14.3590504 11.6543975,14.379496 11.7041273,14.4253525 C11.7536053,14.471209 11.7845762,14.5388254 11.7893604,14.6121374 C11.7928855,14.6655879 11.858982,15.9310226 10.3902541,17.0196032 C10.3523587,17.0476428 10.3098052,17.0612245 10.2675034,17.0612245 Z" id="Fill-11" fill="#0A7BB6"></path>
                                <path d="M15.493414,15.2653061 C15.3799591,15.2653061 15.2737944,15.1942169 15.233546,15.0802291 C15.1828179,14.9355994 15.257847,14.7767213 15.4012224,14.7253961 C16.5263549,14.3226085 16.1926729,13.2101549 16.1510576,13.0846763 C16.0268192,12.7399551 15.804162,12.3080578 15.4610634,12.2394199 C14.9908406,12.145809 14.4622956,12.7134499 14.4569798,12.7192719 C13.9339025,13.2862999 13.6981836,14.3414533 13.6959054,14.3521779 C13.6630992,14.5020168 13.5166861,14.5970066 13.3675392,14.5637602 C13.2189999,14.5306669 13.1249857,14.3826666 13.15764,14.2328278 C13.1681198,14.1836476 13.4270765,13.0198688 14.051762,12.3425299 C14.0795562,12.3117348 14.7885355,11.5384868 15.5679874,11.6941476 C16.0458043,11.7894438 16.416697,12.1952956 16.6709454,12.9002122 C16.8779588,13.5076876 16.9150177,14.7733507 15.5854537,15.2492191 C15.5550776,15.260097 15.5237901,15.2653061 15.493414,15.2653061" id="Fill-13" fill="#0A7BB6"></path>
                                <path d="M16.134844,13.4693878 C16.0270017,13.4693878 15.925818,13.4092899 15.887458,13.3128479 C15.8386756,13.1904456 15.909895,13.0557123 16.0466883,13.0120992 C16.832852,12.760545 17.7196204,12.4608347 17.8428068,12.394766 C17.858585,12.3860694 17.8755214,12.3790601 17.8930367,12.3737383 C18.0529908,12.3249332 18.8712901,12.0853207 19.2690765,12.1273762 C19.4131076,12.1430821 19.5154493,12.2605519 19.4980787,12.389574 C19.4805634,12.5187259 19.3494155,12.6102356 19.2055291,12.594919 C19.0027275,12.5716847 18.436157,12.7071968 18.0838236,12.8131144 C17.7851943,12.953559 16.4883354,13.3707391 16.2229998,13.4556289 C16.193904,13.4649745 16.1640845,13.4693878 16.134844,13.4693878" id="Fill-15" fill="#0A7BB6"></path>
                                <path d="M15.2876344,13.171638 C15.0792127,13.2989598 14.7939534,13.6956694 14.5243361,14.1817653 C14.7333067,14.0796314 14.8895887,14.0274126 14.9037213,14.022805 C14.9201865,14.017276 14.9373377,14.0137435 14.9547634,14.0123613 C15.1555014,13.9950062 15.284067,13.9311149 15.3364811,13.8225304 C15.415514,13.6594234 15.3581603,13.3792847 15.2876344,13.171638 M13.8536543,15.2653061 C13.8039844,15.2653061 13.7541772,15.2488725 13.7110933,15.2150839 C13.612165,15.1376771 13.5770393,14.9920787 13.6276697,14.8695181 C13.8526939,14.3267494 14.6404156,12.5714286 15.4164745,12.5714286 C15.4245699,12.5714286 15.4326652,12.5715822 15.4408978,12.5720429 C15.5280261,12.5763433 15.6066473,12.6310195 15.6484963,12.7165662 C15.6892477,12.799502 16.0380351,13.5428525 15.7743178,14.0877714 C15.6812895,14.2802132 15.4754747,14.5170409 15.0221334,14.565113 C14.905505,14.6071952 14.3551563,14.8194494 14.0296946,15.1837526 C13.9815339,15.2376609 13.9178686,15.2653061 13.8536543,15.2653061" id="Fill-17" fill="#0A7BB6"></path>
                                <path d="M19.229473,20.2040816 C19.1494832,20.2040816 19.0703888,20.1693608 19.0166644,20.1025674 C17.1178026,17.7313997 14.9182331,18.0505076 14.8260061,18.0652199 C14.678413,18.089495 14.5396248,17.9901876 14.5152995,17.8451251 C14.4909743,17.6999156 14.5900661,17.5629448 14.7370622,17.5385226 C14.8424219,17.5213093 17.3361329,17.1424698 19.4418339,19.7716896 C19.5343594,19.8874748 19.5143619,20.0553411 19.3970635,20.1465569 C19.3473683,20.18525 19.2882714,20.2040816 19.229473,20.2040816" id="Fill-19" fill="#0A7BB6"></path>
                                <path d="M33.1851462,20.6530612 C33.1399793,20.6530612 33.0945142,20.6418465 33.0524776,20.6185317 C32.9223431,20.5457835 32.8762818,20.3825796 32.9497712,20.2537577 C33.0247514,20.1219846 33.0372729,20.0012787 32.9888265,19.8736373 C32.8093512,19.4004051 31.9110803,18.997265 31.5801541,18.8818713 C31.520975,18.861065 31.4705907,18.8206329 31.4380943,18.767363 C30.8455576,17.7925666 29.7678114,17.0382282 29.7569296,17.0308501 C29.7083341,16.9970584 29.6721111,16.9482153 29.6540741,16.8921416 C28.8945836,14.5109292 27.5483698,14.0822608 27.5349539,14.0782766 C27.4481975,14.0521581 27.3803726,13.9848697 27.354286,13.8989885 C27.1283022,13.1536514 26.1842681,12.829162 26.174877,12.8260632 C26.0911019,12.7980264 26.0261092,12.7310331 26.0013643,12.6470702 C25.319388,10.3263583 23.5644356,9.19558862 23.5468458,9.18437389 C21.3868815,7.84819752 20.844729,6.62475872 20.7123585,6.02285221 C20.509778,6.16938155 20.2182052,6.45786579 19.9843208,6.7574172 C19.8930925,6.87443408 19.7230084,6.89597817 19.6050973,6.80567006 C19.4868881,6.71506683 19.4651245,6.5469934 19.5565018,6.43012408 C19.814833,6.09914191 20.4674433,5.33447421 20.9721803,5.39069544 C21.1182648,5.40677973 21.2246979,5.53530646 21.2117291,5.68021262 C21.2112819,5.69009929 21.1620902,7.07777489 23.8351392,8.73150527 C23.9142932,8.7810862 25.7167976,9.9348756 26.4819526,12.3703909 C26.7911152,12.5000981 27.5385314,12.8802186 27.8281664,13.618325 C28.2327312,13.79599 29.4285375,14.4861388 30.142563,16.6461553 C30.4056642,16.8393143 31.283364,17.521052 31.8510068,18.4102623 C32.1871503,18.5384939 33.2288225,18.9850173 33.494756,19.6847576 C33.5995493,19.9601088 33.5740591,20.2478552 33.4208194,20.5167137 C33.3711804,20.603923 33.2795049,20.6530612 33.1851462,20.6530612" id="Fill-21" fill="#0A7BB6"></path>
                                <path d="M32.3845012,21.5510204 C31.6541955,21.5510204 31.1724701,21.3598529 30.9527022,20.982911 C30.7670387,20.6642985 30.8301026,20.2846601 30.9672554,20.0668115 C31.1521838,19.7730352 31.5607023,19.6694329 31.8974838,19.8316485 C32.1559132,19.9561132 32.3070312,20.1200318 32.3465747,20.3191469 C32.3852363,20.5138624 32.2983581,20.6916893 32.2120679,20.7847894 C32.1143116,20.8906624 31.9455534,20.900313 31.8354489,20.805226 C31.7274025,20.711984 31.7165244,20.5530325 31.8097236,20.4468757 C31.8169267,20.437367 31.8238358,20.4209042 31.8226598,20.415795 C31.8192787,20.4017449 31.7832632,20.3522145 31.6593406,20.2923238 C31.5815766,20.2551406 31.468091,20.2629462 31.4232555,20.3341905 C31.3845939,20.3952165 31.3299092,20.5798556 31.4176694,20.7304337 C31.5324779,20.9275618 31.8758745,21.0361313 32.3845012,21.0361313 C32.5316502,21.0361313 32.6511628,21.1513711 32.6511628,21.2935759 C32.6511628,21.4357806 32.5316502,21.5510204 32.3845012,21.5510204" id="Fill-23" fill="#0A7BB6"></path>
                                <path d="M30.1317115,19.755102 C29.9929882,19.755102 29.8802581,19.6463312 29.8795631,19.5120862 C29.8794241,19.5046731 29.872335,19.2340266 29.7010854,19.0681073 C29.6539639,19.0224155 29.5251097,18.9241578 29.3884713,18.8201045 C28.6936036,18.2901332 27.8285983,17.6304997 28.209462,17.1556551 C28.2946698,17.0489061 28.4534093,17.0299015 28.5632204,17.1127938 C28.6646914,17.1893512 28.6892946,17.3261571 28.625493,17.43048 C28.6787305,17.656513 29.4446279,18.2405327 29.7002513,18.4355653 C29.868165,18.5636102 29.9893741,18.6560722 30.0577628,18.722386 C30.3746858,19.0296938 30.3837209,19.4623509 30.3837209,19.5106036 C30.3837209,19.6456573 30.2708518,19.755102 30.1317115,19.755102" id="Fill-25" fill="#0A7BB6"></path>
                                <path d="M30.5989981,20.2040816 C30.5392556,20.2040816 30.4795131,20.177042 30.4331635,20.1223227 C30.4272549,20.1154428 29.8400719,19.4263316 29.1450899,18.9516177 C29.0303319,18.8732187 28.9893656,18.696261 29.0537037,18.5565828 C29.118173,18.4162646 29.2636557,18.3671452 29.3780199,18.4452242 C30.1286739,18.9580176 30.7390974,19.6752884 30.7648326,19.705528 C30.8592388,19.8170466 30.8616023,20.0007242 30.7700847,20.1159228 C30.7233411,20.174642 30.6612353,20.2040816 30.5989981,20.2040816" id="Fill-27" fill="#0A7BB6"></path>
                                <path d="M24.0253995,16.1632653 C23.7361221,16.1632653 23.249883,16.0329326 22.736649,15.3271391 C22.6351687,15.1876971 22.6604971,14.988169 22.7929714,14.8816606 C22.9252792,14.7751522 23.1155756,14.8016041 23.2167227,14.941046 C23.7064612,15.6142564 24.0788891,15.5256162 24.0827217,15.5240396 C24.2398579,15.4641286 24.4129911,15.5492652 24.4701467,15.714108 C24.5271356,15.879126 24.4459847,16.0613115 24.2893483,16.1213977 C24.26352,16.1313828 24.1683718,16.1632653 24.0253995,16.1632653" id="Fill-29" fill="#0A7BB6"></path>
                                <path d="M23.5396842,16.6122449 C23.470522,16.6122449 23.3999037,16.6014836 23.3284118,16.5795247 C22.0743187,16.1958981 20.4824228,11.933106 20.1760705,11.0825253 C20.1345732,10.9677864 20.177381,10.8398139 20.2794498,10.7727738 C20.3807907,10.7057337 20.5159118,10.7170767 20.6050219,10.8005496 C21.4189521,11.5608225 22.2539949,11.8214209 22.7470123,11.91042 C22.0834918,10.870062 20.3194911,9.5038104 19.6128716,9.01082555 C19.4933302,8.92749802 19.4640636,8.76302431 19.5476407,8.64348638 C19.6309266,8.52380304 19.7960423,8.49471839 19.9154381,8.57833676 C20.0386197,8.66428191 22.9406666,10.701371 23.4473709,12.1321905 C23.4754726,12.2113007 23.4639698,12.2991364 23.4165027,12.3686487 C23.3691811,12.438161 23.2915738,12.4809154 23.2074143,12.4838239 C23.1555791,12.485569 22.1532365,12.5094184 21.0044155,11.7772123 C21.7285076,13.6019834 22.8196691,15.8721859 23.4828984,16.0750514 C23.545654,16.0941018 23.5797255,16.0823225 23.6149618,16.0568735 C23.7323192,15.9709283 23.8975805,15.9963774 23.9839241,16.1141702 C24.0701221,16.2318176 24.04435,16.396873 23.9264102,16.4828182 C23.8089073,16.5687633 23.6775719,16.6122449 23.5396842,16.6122449" id="Fill-31" fill="#0A7BB6"></path>
                                <path d="M26.8778612,14.9985391 C26.94933,15.2953079 27.0973423,15.6874334 27.400697,15.9222807 C27.5818359,16.0624401 27.801317,16.127304 28.0553343,16.1270373 C28.0389825,15.7728932 27.9546859,15.4442942 27.8546014,15.3827739 L26.8778612,14.9985391 Z M28.0379957,16.6122449 C27.6685288,16.6122449 27.345721,16.5067241 27.0753519,16.2967524 C26.3647518,15.7448078 26.3048421,14.6667303 26.3025867,14.621125 C26.2986397,14.5382063 26.3396602,14.4590323 26.411129,14.4112871 C26.4825978,14.3636757 26.5753522,14.3540464 26.6559837,14.3858765 L28.064497,14.9400947 C28.0715452,14.9427695 28.0784524,14.9458455 28.0850777,14.949189 C28.5736593,15.1915258 28.5778882,16.0885194 28.5674569,16.3577378 C28.563087,16.4740916 28.4721651,16.571053 28.350936,16.5887067 C28.2433804,16.604488 28.138926,16.6122449 28.0379957,16.6122449 Z" id="Fill-33" fill="#0A7BB6"></path>
                                <path d="M27.8466032,22.8979592 C27.7292975,22.8979592 27.6213466,22.8251631 27.5877882,22.7139429 C26.91187,20.4822736 25.1689154,20.4474824 25.1515423,20.4473427 C25.1424845,20.4473427 25.1335752,20.4469235 25.124666,20.4459454 C22.4404447,20.1800509 21.3803874,17.9596993 21.3364349,17.8653857 C21.2770397,17.7369795 21.3394047,17.5876147 21.4755684,17.5315855 C21.6118806,17.4752767 21.7703175,17.5341005 21.8301582,17.6620875 C21.8409979,17.6848625 22.8131501,19.7013571 25.1701033,19.940704 C25.3818475,19.9465724 27.3472374,20.0695294 28.1058636,22.5747779 C28.1466978,22.7094717 28.0638414,22.8497545 27.9206988,22.8881785 C27.8959013,22.8948853 27.8712522,22.8979592 27.8466032,22.8979592" id="Fill-35" fill="#0A7BB6"></path>
                                <path d="M24.2898843,24.244898 C24.1511494,24.244898 24.0373193,24.1320416 24.0349273,23.9902917 C24.0343645,23.9621134 24.0128366,21.1660218 26.4083353,20.2218331 C26.5386279,20.1697676 26.6873528,20.2361369 26.7384287,20.3698767 C26.7895045,20.5034734 26.7242175,20.6539486 26.5926585,20.705585 C24.5333036,21.5174643 24.5438564,23.8811543 24.5452635,23.9814234 C24.547374,24.1244606 24.4349509,24.2424663 24.2942462,24.244898 L24.2898843,24.244898 Z" id="Fill-37" fill="#0A7BB6"></path>
                                <path d="M19.3208022,21.5510204 C19.2602898,21.5510204 19.1993236,21.5300191 19.1484931,21.4869028 C19.0306452,21.3866693 19.0121889,21.2052944 19.107496,21.0811957 C19.1825314,20.9833487 20.9681015,18.6835466 22.8784784,18.8676263 C23.0294569,18.8821044 23.1406485,19.0225905 23.1267306,19.181214 C23.1128128,19.3401557 22.9798367,19.4566174 22.8285557,19.4424575 C21.2184716,19.2878115 19.5509007,21.4221488 19.5345623,21.4439456 C19.4802525,21.5144272 19.4008299,21.5510204 19.3208022,21.5510204" id="Fill-39" fill="#0A7BB6"></path>
                                <path d="M16.1407999,7.18367347 C16.0221582,7.18367347 15.9135884,7.09837211 15.8812989,6.96906482 C15.8429366,6.81488461 15.9279558,6.65624003 16.0714812,6.61494461 C18.6664915,5.86604653 19.3633821,6.61669847 19.4343301,6.70486978 C19.5314949,6.82556721 19.5194974,7.00812806 19.4072247,7.11288132 C19.29747,7.21492406 19.1336526,7.20503867 19.0355991,7.09263221 C19.0079012,7.06648376 18.4092122,6.53952865 16.2104149,7.17362864 C16.1870124,7.18048463 16.1637581,7.18367347 16.1407999,7.18367347" id="Fill-41" fill="#0A7BB6"></path>
                                <path d="M14.1529644,31.4285714 C14.1402878,31.4285714 14.1273165,31.428283 14.1141978,31.4274179 C13.3879514,31.3781025 12.4518055,29.7071496 12.1823558,29.1962602 C12.1667313,29.1669882 12.1572976,29.1351207 12.1539073,29.1023881 C12.1144038,28.9423296 11.4858844,28.5218516 10.8355497,28.2232199 C10.3365962,27.9790947 9.08589578,27.1261704 8.80096898,26.9307837 C8.00367512,26.8356138 7.43441113,26.5092963 7.10791716,25.9600506 C6.35071646,24.6862157 7.23438751,22.6895221 7.27241706,22.605167 C7.3319672,22.4727943 7.48983404,22.4130968 7.62485367,22.4712081 C7.7598733,22.5291753 7.82133966,22.6836101 7.76208432,22.8158386 C7.75382984,22.8340074 6.94990292,24.6546366 7.57075737,25.6979007 C7.81942344,26.115639 8.26295408,26.3512566 8.92626013,26.4180197 C8.97210194,26.422634 9.01543794,26.4386399 9.05302528,26.4644511 C9.06820762,26.4748333 10.557993,27.5025242 11.0687386,27.7522731 C11.5150699,27.9570326 12.5492377,28.4814765 12.6754133,28.9900587 C13.2140178,30.0011669 13.9088677,30.9051369 14.1488371,30.9055695 C14.1494267,30.9036949 14.1551754,30.8980713 14.1625454,30.8875449 C14.1769908,30.8675015 14.1943841,30.8494769 14.2138411,30.8341921 C14.5599395,30.5628136 14.8861386,30.1912184 14.8851068,30.0696604 C14.8753783,30.0448586 14.8733147,30.0330344 14.8716933,30.0066464 C14.8716933,30.0066464 14.856511,29.8774461 14.7795675,29.8364942 C14.7446333,29.8176044 14.6025384,29.7723266 14.2391941,29.9612244 C14.109481,30.0287085 13.9470447,29.9808352 13.8776186,29.8530768 C13.8081926,29.7254626 13.8577195,29.5672787 13.9881697,29.499362 C14.4215296,29.2739823 14.776472,29.2343282 15.0437107,29.3814089 C15.3242154,29.5361321 15.3878928,29.8300053 15.4020433,29.9390181 C15.5293981,30.3956895 14.8904133,30.9708907 14.5743848,31.2217932 C14.4644234,31.3563288 14.3171694,31.4285714 14.1529644,31.4285714" id="Fill-43" fill="#0A7BB6"></path>
                                <path d="M16.980652,30.9795918 C16.9006444,30.9795918 16.821887,30.938226 16.7731324,30.8607975 C16.5294983,30.4756252 16.2615564,30.2519767 15.9766684,30.1960646 C15.6349696,30.1295458 15.3656386,30.3307688 15.3629995,30.3327386 C15.2500722,30.4197131 15.092974,30.3909236 15.0124109,30.2683412 C14.9319866,30.1454558 14.9564334,29.9755981 15.0682495,29.8868054 C15.0854733,29.8728653 15.5005124,29.549969 16.0547314,29.6528534 C16.4810215,29.7324031 16.8623075,30.0337831 17.1878937,30.5486594 C17.2670679,30.6735147 17.2381763,30.8448876 17.1234432,30.9309528 C17.0799669,30.9638334 17.0299622,30.9795918 16.980652,30.9795918" id="Fill-45" fill="#0A7BB6"></path>
                                <path d="M19.2494296,33.6734694 C19.2425161,33.6734694 19.2354643,33.6731805 19.2286891,33.6726026 C18.5681741,33.6162636 18.2577584,32.6397202 18.2245736,32.5286312 C18.222223,32.5208304 18.2204255,32.5133185 18.2187663,32.5053732 C18.1255724,32.0514828 17.7082741,31.7235607 17.6391392,31.6719888 C16.7998413,31.2363002 16.3676098,31.7627091 16.3208746,31.8248265 C16.2355622,31.9373601 16.0784876,31.9585956 15.9698076,31.8703311 C15.8609892,31.7822111 15.8396957,31.620128 15.9229341,31.5057164 C16.1644915,31.1734605 16.8844625,30.6848999 17.8806966,31.2120311 C17.889131,31.2165093 17.8972889,31.2214209 17.9053086,31.2267659 C17.9319947,31.2452567 18.5560064,31.6816675 18.706444,32.3822941 C18.7835985,32.629897 19.0163066,33.1285697 19.269617,33.1502386 C19.4077485,33.1619398 19.510483,33.2886304 19.4991449,33.4328006 C19.4883598,33.5697478 19.3787119,33.6734694 19.2494296,33.6734694" id="Fill-47" fill="#0A7BB6"></path>
                                <path d="M18.7858898,34.5714286 C18.7419474,34.5714286 18.6975742,34.5606556 18.656791,34.5379903 C18.0046914,34.1749263 17.5180221,32.6377452 17.4304245,32.3449155 C17.0633761,31.7526804 16.2122432,31.9789134 16.2036271,31.981152 C16.0649069,32.0204664 15.9210171,31.9408581 15.8819572,31.8059858 C15.8428972,31.6711134 15.9233147,31.5307846 16.0617477,31.4927294 C16.5023206,31.3714282 17.4532573,31.3466643 17.8988563,32.1202216 C17.9089085,32.1375703 17.9165194,32.1560383 17.9221199,32.1750659 C18.1072237,32.8075949 18.5401857,33.8883925 18.9152758,34.0969969 C19.0402101,34.1666716 19.0834345,34.3218308 19.0122076,34.4435517 C18.9641007,34.5253985 18.8762159,34.5714286 18.7858898,34.5714286" id="Fill-49" fill="#0A7BB6"></path>
                                <path d="M19.2188597,37.2653061 C19.1203403,37.2653061 19.0249238,37.2158614 18.9731041,37.1279597 C18.8080259,36.8471791 18.2477839,36.0977875 17.6487547,36.0048374 C17.6290509,36.0018678 17.6096573,35.9968193 17.5908843,35.9895437 C17.0171443,35.7735015 16.0125564,35.0451944 16.3178891,33.8349128 C16.3240951,33.8135313 16.6106547,32.8369613 16.200907,32.174729 C16.0179866,31.8789516 15.7264622,31.6915666 15.3100431,31.6018831 C15.2845987,31.5962408 15.25993,31.5876288 15.2368129,31.5754532 L14.2047637,31.0367584 C14.0683879,30.9654867 14.0181198,30.8018589 14.0925911,30.6711943 C14.1667522,30.5403811 14.3377261,30.4921242 14.4745673,30.5638413 L15.4727941,31.0850152 C16.0221757,31.2118194 16.4305271,31.4866606 16.6869879,31.9028573 C17.2199237,32.7679169 16.8765796,33.9248933 16.8618405,33.9735956 C16.6149989,34.9529867 17.6001932,35.407195 17.773184,35.4787636 C18.7458113,35.653973 19.4349819,36.814513 19.4641498,36.8645516 C19.5398624,36.9941769 19.4917663,37.1579532 19.3564766,37.2308582 C19.3127247,37.2543184 19.2655595,37.2653061 19.2188597,37.2653061" id="Fill-51" fill="#0A7BB6"></path>
                                <path d="M10.6921617,27.8367347 C10.586652,27.8367347 10.4870601,27.7755089 10.4473677,27.6758966 C10.3965614,27.5482168 10.462523,27.4056777 10.5951678,27.3553212 C10.6142202,27.347066 11.1647179,27.1021629 11.5037633,26.0247267 C11.5085264,26.0095923 11.5148772,25.994733 11.5228157,25.9805616 C11.5593327,25.9141076 11.8946254,25.3268904 12.4018223,25.1776096 C12.6083672,25.116659 12.8193866,25.1361962 13.0122196,25.2337447 C13.139957,25.2985477 13.1883096,25.4494796 13.1204716,25.5712432 C13.0524893,25.6931444 12.8940083,25.7390982 12.7664152,25.6745703 C12.6959792,25.6387979 12.6313167,25.632469 12.5568393,25.6543452 C12.3155094,25.7249268 12.0780765,26.0567843 11.9973927,26.1935448 C11.5785294,27.4996489 10.8655093,27.7914689 10.7852584,27.8204995 C10.7546592,27.831644 10.7231939,27.8367347 10.6921617,27.8367347" id="Fill-53" fill="#0A7BB6"></path>
                                <path d="M12.1881716,28.2857143 C12.0844044,28.2857143 11.9828307,28.2390921 11.9254634,28.154905 C11.7570737,27.9079856 11.7768148,27.7002646 11.8233835,27.5691583 C11.9330562,27.2586903 12.2774283,27.1131816 12.3164042,27.0977399 C12.3283839,27.0929886 12.340701,27.0886827 12.3531868,27.0854162 C12.4255707,27.0658171 12.4685961,27.035676 12.4974485,26.984451 C12.5873801,26.8245399 12.5124652,26.5240199 12.4620158,26.4034556 C12.4034675,26.2638861 12.4847939,26.1090233 12.6433975,26.0575013 C12.8023385,26.0059794 12.9783209,26.0778428 13.036363,26.2171154 C13.0615034,26.2772491 13.2754494,26.8157797 13.0461492,27.2235009 C12.9467689,27.4001901 12.7787167,27.5275844 12.5592026,27.5930633 C12.5136463,27.6150381 12.4277642,27.6705689 12.4075169,27.7305541 C12.3946936,27.7676737 12.4093729,27.8174139 12.4505423,27.8778446 C12.5376055,28.0052389 12.4905307,28.1709406 12.345594,28.2472584 C12.2963257,28.2733906 12.2418268,28.2857143 12.1881716,28.2857143" id="Fill-55" fill="#0A7BB6"></path>
                                <path d="M9.33369615,26.4897959 C9.3288945,26.4897959 9.32438386,26.4896539 9.3194367,26.4893697 C9.17495061,26.4816984 9.06349406,26.3630768 9.07004177,26.2218674 C9.07251535,26.1643324 9.15545299,24.8123307 11.0787332,24.3369921 C11.198338,24.2832928 11.9677664,23.9164893 12.4253785,23.1691024 C12.5001679,23.0253359 13.2211433,21.7217773 15.0705071,21.1154577 C15.2084455,21.0702821 15.3583153,21.1428756 15.4048767,21.2778343 C15.4511472,21.4126509 15.3766488,21.5588324 15.2385649,21.6041501 C13.5405259,22.1607481 12.9005966,23.3938441 12.8941944,23.4062035 C12.8912843,23.4121701 12.8876467,23.4185629 12.8841546,23.4242453 C12.2984984,24.3885605 11.3089215,24.8019602 11.2671616,24.8191497 C11.2546482,24.8242639 11.2416983,24.8285258 11.2284574,24.8316511 C9.68174322,25.2056997 9.59996962,26.2045359 9.59720503,26.2470124 C9.58847476,26.3833917 9.47207105,26.4897959 9.33369615,26.4897959" id="Fill-57" fill="#0A7BB6"></path>
                                <path d="M9.01501515,26.4897959 C8.92414616,26.4897959 8.83606636,26.4442368 8.78659487,26.3617418 C8.77793369,26.3469387 7.92414683,24.8638965 10.122325,23.5727199 C10.127463,23.5697018 10.1327478,23.5668274 10.1380326,23.5640968 C10.1976333,23.5319036 10.4996002,23.3355827 10.2551787,22.8196294 C10.1932293,22.6891321 10.2512151,22.5340587 10.384656,22.473409 C10.5180969,22.4124719 10.6762002,22.4695286 10.7381496,22.6001697 C11.1129292,23.3906273 10.6791362,23.873525 10.3896472,24.0238556 C8.66739354,25.0389469 9.22288348,26.0572 9.24754583,26.1001722 C9.31874366,26.2249208 9.27485056,26.3838746 9.14816245,26.4550158 C9.10603095,26.4785858 9.06037625,26.4897959 9.01501515,26.4897959" id="Fill-59" fill="#0A7BB6"></path>
                                <path d="M17.4067679,28.2857143 C17.3218621,28.2857143 17.238189,28.248733 17.1831775,28.178335 C16.0860279,26.7731957 14.7839332,25.2440429 14.4803679,25.0872067 C14.3060876,25.0289872 13.405562,24.7043245 13.2109412,24.13713 C13.1671785,24.0716331 12.979646,23.8411314 12.5606643,23.8943012 C12.4081112,23.9136087 12.2671152,23.8099424 12.2466207,23.6626114 C12.2264344,23.5151319 12.333992,23.3796825 12.4870074,23.360078 C13.3602583,23.2488372 13.7040421,23.8797464 13.7182188,23.9066283 C13.7268481,23.9231139 13.7337823,23.9404907 13.7388674,23.958313 C13.8074392,24.2003991 14.3384473,24.4735258 14.6757592,24.5820932 C14.6851589,24.5849151 14.6940964,24.588331 14.7031879,24.5923411 C15.2388188,24.8270012 17.0787017,27.1485035 17.629742,27.8542663 C17.7226607,27.9732301 17.6980057,28.1419478 17.5747304,28.2315048 C17.5243417,28.268189 17.4653237,28.2857143 17.4067679,28.2857143" id="Fill-61" fill="#0A7BB6"></path>
                                <path d="M16.9075572,26.0408163 C16.6077471,26.0408163 16.2772206,25.944629 15.9627012,25.6696748 C15.9559234,25.6639382 15.9495782,25.657668 15.9436657,25.651131 L14.437405,24.0227508 C14.2960803,23.9453741 13.6546397,23.6341328 13.1222209,24.0262194 C13.0091612,24.109733 12.8447632,24.0923899 12.7544885,23.9877979 C12.6646464,23.8832059 12.6833935,23.7309871 12.796309,23.6477404 C13.6863656,22.9919058 14.7114016,23.6089187 14.7548085,23.6354669 C14.7748535,23.6478738 14.7930238,23.6628156 14.8087426,23.6797584 L16.3318757,25.3262821 C16.8781386,25.7940112 17.4180563,25.4124638 17.4777587,25.3672384 C17.4887186,25.3591005 17.5016974,25.3506958 17.5138109,25.3440254 L19.1077506,24.4946156 C19.2327796,24.4277781 19.3928513,24.4674003 19.4650999,24.5834654 C19.5370601,24.6992637 19.4942301,24.8473468 19.3689127,24.9140509 L17.7932875,25.7538553 C17.6068256,25.891666 17.2810579,26.0408163 16.9075572,26.0408163" id="Fill-63" fill="#0A7BB6"></path>
                                <path d="M10.6927414,25.1428571 C10.6617904,25.1428571 10.6304056,25.1372099 10.599744,25.1253211 C10.4643698,25.0725642 10.3959596,24.9169686 10.4473034,24.7777202 L11.1092772,22.9802714 C11.11405,22.9673423 11.1196906,22.954859 11.1263436,22.9429701 C11.1590301,22.883823 11.9271627,21.5024847 12.9359604,20.9645133 L13.6118187,20.2814976 C13.7149402,20.1771728 13.8809761,20.1783616 13.9827959,20.2846184 C14.0844712,20.3907266 14.0830249,20.5614805 13.9797587,20.665954 L13.2749743,21.378246 C13.2550153,21.3984571 13.2321636,21.4151015 13.2072872,21.4277334 C12.3771081,21.8500856 11.6810016,23.0364463 11.5926323,23.1915961 L10.9381793,24.9685366 C10.8985506,25.0764281 10.7986109,25.1428571 10.6927414,25.1428571" id="Fill-65" fill="#0A7BB6"></path>
                                <path d="M25.4248794,33.6734694 C25.313313,33.6734694 25.2101748,33.598427 25.1767477,33.4822514 C24.8399059,32.312829 24.9580434,30.9722393 24.9786139,30.7695217 C24.9427583,30.1190563 25.0854662,29.6475721 25.4030232,29.368043 C25.8062906,29.0125869 26.3252671,29.1281728 26.3469804,29.1328906 C26.3768362,29.1398199 26.4051207,29.1522041 26.4308338,29.169306 C27.0825185,29.6043748 28.2268953,30.0132009 28.3883165,30.0696669 C29.2334211,30.222258 29.3035608,31.4390057 29.287133,32.0279924 C29.8123949,31.9281817 30.3780835,31.2992412 30.5752175,31.0290002 C31.4484636,29.7248259 29.1028556,27.9723141 29.0789995,27.9546223 C29.0105741,27.904201 28.9698616,27.8222293 28.9702902,27.7355399 C28.9708616,27.5886987 28.5851648,27.1273872 28.161184,26.7678031 C28.1558985,26.7632327 28.1508987,26.7585149 28.1460418,26.7536497 C27.7409173,26.3511632 27.6822057,25.8705383 27.6739203,25.7537729 C27.5914955,25.3027816 27.2182267,24.6567391 27.2142269,24.6501048 C27.1408016,24.5234616 27.1803713,24.3592235 27.3029371,24.2832965 C27.4259316,24.2069273 27.5847815,24.2480605 27.6587781,24.3748511 C27.6763488,24.4052219 28.093187,25.1255696 28.1867542,25.6751922 C28.1890398,25.6883136 28.1903255,25.7017298 28.1906112,25.715146 C28.1911826,25.7272354 28.2087532,26.0683906 28.4987401,26.3614834 C28.7185873,26.5487207 29.3472731,27.1166248 29.4685533,27.5869295 C29.9441032,27.960667 32.0587217,29.754607 30.9954841,31.3418487 C30.8872033,31.4911963 29.9618167,32.7251934 28.9710044,32.5619874 C28.8352963,32.5401676 28.7395863,32.4119026 28.7535857,32.2705163 C28.8042977,31.7549503 28.7574427,30.6667623 28.2876068,30.5945212 C28.2727503,30.5924571 28.2581796,30.5887714 28.2438945,30.5840536 C28.1906112,30.5657721 26.9555243,30.1396966 26.1965587,29.6494887 C26.1119911,29.6406428 25.8965723,29.6341559 25.7362938,29.7777536 C25.5508736,29.9440558 25.4681631,30.2832944 25.4973046,30.7589067 C25.4983046,30.7748292 25.497876,30.7907518 25.4961618,30.8065269 C25.4945905,30.820238 25.34674,32.1951791 25.6734395,33.3298078 C25.7142948,33.471489 25.6361555,33.6205417 25.4990188,33.6624121 C25.4744485,33.6700785 25.4494497,33.6734694 25.4248794,33.6734694" id="Fill-67" fill="#0A7BB6"></path>
                                <path d="M23.9002858,28.7346939 C23.7899128,28.7346939 23.6883194,28.6596192 23.6571028,28.5444952 C23.6302064,28.445879 23.4086242,27.5693863 23.8775701,27.1424801 C24.1783087,26.8687376 24.6577066,26.8708908 25.3032214,27.1489397 C25.3384794,27.1641556 25.3701141,27.18741 25.3953383,27.2169805 C25.5503064,27.3978487 25.7405326,27.5787168 25.8623331,27.6664235 C25.9138963,27.607426 25.9904048,27.5725443 26.0712335,27.5805829 C26.2103147,27.5933585 26.3137197,27.7156598 26.3013166,27.8589189 C26.2792978,28.1165842 26.1201488,28.1974007 26.0526987,28.2202245 C25.9636477,28.2505127 25.6966343,28.3406597 25.0557183,27.6072825 C24.6440493,27.4380416 24.3455405,27.4111985 24.2123125,27.532782 C24.0273819,27.7013052 24.0863312,28.1925201 24.1438868,28.4039636 C24.1816533,28.542342 24.1030543,28.6861753 23.9685721,28.7250763 C23.9458564,28.7316794 23.9228621,28.7346939 23.9002858,28.7346939" id="Fill-69" fill="#0A7BB6"></path>
                                <path d="M27.4928525,28.7346939 C27.326802,28.7346939 27.119032,28.6756161 26.8736812,28.4917286 C26.7419004,28.3930493 26.7169018,28.2081879 26.8175585,28.0789959 C26.9182152,27.9496416 27.1072777,27.9252964 27.2385618,28.0239757 C27.3971624,28.1427804 27.4858993,28.1543038 27.5113945,28.1426181 C27.5949992,28.1061002 27.6805906,27.8671925 27.7039336,27.6751898 C27.5358965,26.7953535 28.1211293,26.5269069 28.146459,26.5155458 C28.2977752,26.4491644 28.4754145,26.5155458 28.5434571,26.6638893 C28.6096786,26.8089868 28.5466026,26.9785919 28.4024052,27.0482192 C28.3836976,27.0599049 28.2100317,27.1785473 28.3012518,27.5997196 C28.3070462,27.6273109 28.3090329,27.6557136 28.3067151,27.6839541 C28.2961197,27.8147691 28.2196338,28.4779329 27.7560831,28.6804852 C27.6855572,28.7111602 27.5976481,28.7346939 27.4928525,28.7346939" id="Fill-71" fill="#0A7BB6"></path>
                                <path d="M28.3888589,28.2857143 C28.3334859,28.2857143 28.2787977,28.2415 28.244165,28.1585775 C28.2168699,28.0933406 28.083231,27.7501379 28.1239292,27.4000945 C28.1439848,27.2264076 28.2029777,27.0830867 28.294353,26.9853148 C28.3768256,26.8963858 28.4868869,26.9385979 28.5389336,27.0804172 C28.591176,27.2220696 28.5662288,27.4087705 28.4831692,27.4976996 C28.4730925,27.5085446 28.4726034,27.5128826 28.4721142,27.5177211 C28.4642876,27.5849601 28.5039097,27.7367902 28.533455,27.807533 C28.5901977,27.9438464 28.5715118,28.1328831 28.4917785,28.2298208 C28.4603743,28.2676949 28.4244699,28.2857143 28.3888589,28.2857143" id="Fill-73" fill="#0A7BB6"></path>
                                <path d="M28.6990619,30.5306122 C28.6644753,30.5306122 28.6290056,30.5246073 28.5951548,30.5119448 C28.4593102,30.4609031 28.3957296,30.322007 28.4531288,30.2015173 C28.5024331,30.0985201 28.5012557,30.0079243 28.4503324,29.9165453 C28.2603265,29.5766155 27.484408,29.3297616 27.2041826,29.2638382 C26.0790124,29.1376046 25.254967,28.6876283 25.220086,28.6683082 C25.1825558,28.6476826 25.1515014,28.6187024 25.1295719,28.5847617 C24.9586991,28.3191098 24.2098613,28.2909129 23.8734141,28.3191098 C23.7256481,28.3326861 23.5964265,28.2358244 23.5825918,28.1055441 C23.5687571,27.9752637 23.6764909,27.8597345 23.8233738,27.8475942 C23.9590712,27.8361065 25.1251566,27.7559541 25.551382,28.2916961 C25.7352064,28.3835973 26.4206108,28.7013352 27.2870433,28.7955861 C27.298376,28.7967609 27.3095615,28.7987191 27.3205998,28.8011993 C27.4498214,28.8304406 28.5922113,29.1043166 28.9286585,29.7061126 C29.0489023,29.9211143 29.0546422,30.1562194 28.9451423,30.3859723 C28.9020194,30.476307 28.8031163,30.5306122 28.6990619,30.5306122" id="Fill-75" fill="#0A7BB6"></path>
                                <path d="M27.3867427,27.8367347 C27.3793598,27.8367347 27.3721246,27.8364596 27.365037,27.8359093 C27.2173789,27.8249041 27.1073737,27.7046725 27.119334,27.5672453 C27.2646295,25.8804258 25.2648967,25.6495921 25.179698,25.6405129 C25.0326306,25.6251056 24.9269075,25.5014349 24.9435928,25.3644203 C24.9602782,25.2275434 25.0931704,25.1278089 25.2399425,25.1447294 C26.1399182,25.2396491 27.8024001,25.8767116 27.6534131,27.6071391 C27.6421911,27.7378256 27.5249506,27.8367347 27.3867427,27.8367347" id="Fill-77" fill="#0A7BB6"></path>
                                <path d="M26.7297936,27.8367347 C25.5871506,27.8367347 24.9853257,26.076189 24.9587944,25.9957504 C24.9067812,25.8403351 24.9785805,25.6678722 25.1194809,25.6106052 C25.2600816,25.5530072 25.416721,25.6324527 25.4688842,25.7877025 C25.4744302,25.8040881 26.0239421,27.4130253 26.8822359,27.2183838 C27.0276332,27.1844539 27.1731804,27.2888917 27.2036089,27.451424 C27.2340374,27.6137907 27.1394543,27.7726817 26.992558,27.8062806 C26.9020219,27.827135 26.814184,27.8367347 26.7297936,27.8367347" id="Fill-79" fill="#0A7BB6"></path>
                                <path d="M24.5405801,33.2244898 C24.2497256,33.2244898 23.9547683,33.0786707 23.6618625,32.7894109 C23.5565101,32.6855092 23.5544588,32.5148667 23.6565875,32.4081408 C23.7590093,32.3012663 23.9275145,32.2991853 24.0324272,32.4029383 C24.1767555,32.5451899 24.3898046,32.7076571 24.587908,32.6820904 C24.7792712,32.6556319 24.8988366,32.4619497 24.8998623,32.4600173 C24.9742976,32.3312922 25.1376743,32.2886316 25.2635403,32.3632505 C25.390432,32.438464 25.4330711,32.6036067 25.3589289,32.7321832 C25.3340194,32.7754384 25.1032407,33.155222 24.6595593,33.2163144 C24.6198507,33.2218142 24.5802887,33.2244898 24.5405801,33.2244898" id="Fill-81" fill="#0A7BB6"></path>
                                <path d="M23.1802758,33.2244898 C22.8895413,33.2244898 22.5944106,33.0786707 22.3013314,32.7894109 C22.196116,32.6855092 22.1939179,32.5148667 22.2962026,32.4081408 C22.3986337,32.3012663 22.5671542,32.2991853 22.6720766,32.4029383 C22.8155388,32.5441494 23.0284608,32.7082516 23.2245307,32.6823877 C23.4182561,32.6577129 23.5395908,32.4598687 23.5409097,32.4577877 C23.6171103,32.3317382 23.7799157,32.2899694 23.9047674,32.3660748 C24.0300588,32.4417342 24.0722622,32.6044986 23.9986993,32.7321832 C23.9739341,32.7754384 23.7431343,33.1550734 23.2992659,33.2163144 C23.2597002,33.2218142 23.219988,33.2244898 23.1802758,33.2244898" id="Fill-83" fill="#0A7BB6"></path>
                                <path d="M21.8199227,33.2244898 C21.5291764,33.2244898 21.2338873,33.0786707 20.9409428,32.7894109 C20.8355766,32.6855092 20.833525,32.5148667 20.9356672,32.4081408 C21.0381025,32.3012663 21.2064833,32.2991853 21.3115564,32.4029383 C21.4550244,32.5441494 21.6682481,32.7082516 21.8640329,32.6823877 C22.0579126,32.6577129 22.1791057,32.4598687 22.1804246,32.4577877 C22.2566283,32.3317382 22.4192938,32.2899694 22.5442971,32.3660748 C22.6695935,32.4417342 22.7117986,32.6044986 22.6382327,32.7321832 C22.6134665,32.7754384 22.3828039,33.1550734 21.9389176,33.2163144 C21.8993504,33.2218142 21.8596365,33.2244898 21.8199227,33.2244898" id="Fill-85" fill="#0A7BB6"></path>
                                <path d="M20.0059572,33.2244898 C19.7152088,33.2244898 19.4199174,33.0786707 19.1269707,32.7894109 C19.0216037,32.6855092 19.019552,32.5148667 19.1218415,32.4081408 C19.2242776,32.3012663 19.3928062,32.2991853 19.4977336,32.4029383 C19.6410562,32.5441494 19.8547211,32.7082516 20.0500678,32.6823877 C20.2439489,32.6577129 20.3652895,32.4598687 20.3664619,32.4577877 C20.4426661,32.3317382 20.6054794,32.2899694 20.7304837,32.3660748 C20.8556345,32.4417342 20.8978399,32.6044986 20.8242735,32.7321832 C20.7995071,32.7754384 20.5688428,33.1550734 20.1249531,33.2163144 C20.0853855,33.2218142 20.0456714,33.2244898 20.0059572,33.2244898" id="Fill-87" fill="#0A7BB6"></path>
                                <path d="M23.1651667,35.4693878 C22.8790111,35.4693878 22.5885285,35.3235719 22.3000652,35.0343183 C22.1965068,34.9304189 22.1943434,34.7597801 22.2950171,34.6530566 C22.395835,34.5461844 22.5617014,34.5441034 22.6649713,34.6477055 C22.8061741,34.7890622 23.0157427,34.952269 23.2087247,34.9272975 C23.3993989,34.9026232 23.5188228,34.7046347 23.5201208,34.7027023 C23.5952655,34.5756151 23.7572377,34.5332527 23.8805558,34.6105455 C24.0118066,34.6918516 24.2562793,34.7914405 24.3889724,34.7563614 C24.419838,34.7481862 24.4375785,34.7343627 24.4544536,34.7046347 C24.5272906,34.5762097 24.6879647,34.5334013 24.8124366,34.6083159 C24.9370527,34.6835278 24.9790242,34.8486669 24.9058987,34.9772405 C24.8183501,35.1313803 24.6839262,35.2358742 24.5170501,35.2794258 C24.2708467,35.3437869 23.9978161,35.2593594 23.8153631,35.1787964 C23.7008431,35.296668 23.5234382,35.4274713 23.2822828,35.4612126 C23.2433403,35.4667122 23.2042535,35.4693878 23.1651667,35.4693878" id="Fill-89" fill="#0A7BB6"></path>
                                <path d="M21.8199227,35.4693878 C21.5291764,35.4693878 21.2338873,35.3235719 20.9409428,35.0343183 C20.8355766,34.9304189 20.833525,34.7597801 20.9356672,34.6530566 C21.0381025,34.5461844 21.2064833,34.5441034 21.3115564,34.6477055 C21.4550244,34.7890622 21.6682481,34.952269 21.8640329,34.9272975 C22.0579126,34.9026232 22.1791057,34.7046347 22.1804246,34.7027023 C22.2566283,34.5765069 22.4192938,34.5348877 22.5442971,34.6108428 C22.6695935,34.6866492 22.7117986,34.8494101 22.6382327,34.9769432 C22.6134665,35.0203461 22.3828039,35.3999728 21.9389176,35.4612126 C21.8993504,35.4667122 21.8596365,35.4693878 21.8199227,35.4693878" id="Fill-91" fill="#0A7BB6"></path>
                                <path d="M20.0059572,35.4693878 C19.7152088,35.4693878 19.4199174,35.3235719 19.1269707,35.0343183 C19.0216037,34.9304189 19.019552,34.7597801 19.1218415,34.6530566 C19.2242776,34.5461844 19.3928062,34.5441034 19.4977336,34.6477055 C19.6410562,34.7890622 19.8547211,34.952269 20.0500678,34.9272975 C20.2439489,34.9026232 20.3652895,34.7046347 20.3664619,34.7027023 C20.4426661,34.5765069 20.6054794,34.5348877 20.7304837,34.6108428 C20.8556345,34.6866492 20.8978399,34.8494101 20.8242735,34.9769432 C20.7995071,35.0203461 20.5688428,35.3999728 20.1249531,35.4612126 C20.0853855,35.4667122 20.0456714,35.4693878 20.0059572,35.4693878" id="Fill-93" fill="#0A7BB6"></path>
                                <path d="M21.8418165,38.1632653 C21.5444357,38.1632653 21.2424084,38.0173125 20.9427793,37.7280823 C20.8350087,37.6241913 20.8329103,37.4537149 20.9373832,37.3468513 C21.042156,37.2399877 21.214379,37.2380555 21.3218498,37.3416493 C21.4685916,37.4829946 21.6866809,37.6464855 21.8869332,37.6212187 C22.085237,37.5965465 22.2091957,37.3985739 22.2105447,37.3966417 C22.2597084,37.3171257 22.3475437,37.267038 22.4418242,37.2664435 L22.4433231,37.2664435 C22.5368541,37.2664435 22.6246893,37.3128155 22.6744527,37.3915883 C22.7266142,37.4687263 22.8847476,37.6384596 23.1782313,37.4780899 C23.3095345,37.4060053 23.4750125,37.4535663 23.547559,37.5840617 C23.6201055,37.7144085 23.5721409,37.8784939 23.4405379,37.9501326 C23.0436305,38.1671296 22.6946877,38.0890999 22.4581621,37.9270953 C22.3404989,38.0280138 22.1759202,38.1265542 21.9635268,38.1550908 C21.9230566,38.1604414 21.8824365,38.1632653 21.8418165,38.1632653" id="Fill-95" fill="#0A7BB6"></path>
                                <path d="M20.0059572,38.1632653 C19.7152088,38.1632653 19.4199174,38.0173125 19.1269707,37.7280823 C19.0216037,37.6241913 19.019552,37.4537149 19.1218415,37.3468513 C19.2242776,37.2399877 19.3928062,37.2380555 19.4977336,37.3416493 C19.6410562,37.4829946 19.8547211,37.6464855 20.0500678,37.6212187 C20.2439489,37.5965465 20.3652895,37.3985739 20.3664619,37.3966417 C20.4426661,37.2704565 20.6054794,37.2285433 20.7304837,37.3047895 C20.8556345,37.3805899 20.8978399,37.5433376 20.8242735,37.6708605 C20.7995071,37.7142599 20.5688428,38.093856 20.1249531,38.1550908 C20.0853855,38.1604414 20.0456714,38.1632653 20.0059572,38.1632653" id="Fill-97" fill="#0A7BB6"></path>
                                <path d="M20.0059572,40.4081633 C19.7152088,40.4081633 19.4199174,40.2623563 19.1269707,39.9731203 C19.0216037,39.8692273 19.019552,39.6985989 19.1218415,39.5918818 C19.2242776,39.4848675 19.3928062,39.4829353 19.4977336,39.5865311 C19.6410562,39.7278792 19.8547211,39.891076 20.0500678,39.866106 C20.2439489,39.8414333 20.3652895,39.6436054 20.3664619,39.6415246 C20.4426661,39.5154855 20.6054794,39.4738688 20.7304837,39.5496706 C20.8556345,39.6254724 20.8978399,39.7882234 20.8242735,39.9157488 C20.7995071,39.959149 20.5688428,40.3387526 20.1249531,40.3999886 C20.0853855,40.4054879 20.0456714,40.4081633 20.0059572,40.4081633" id="Fill-99" fill="#0A7BB6"></path>
                                <path d="M21.0854031,41.3061224 C20.9612095,41.3061224 20.8604651,41.1869782 20.8604651,41.0399554 L20.8604651,30.7967793 C20.8604651,30.6499032 20.9612095,30.5306122 21.0854031,30.5306122 C21.2097207,30.5306122 21.3104651,30.6499032 21.3104651,30.7967793 L21.3104651,41.0399554 C21.3104651,41.1869782 21.2097207,41.3061224 21.0854031,41.3061224" id="Fill-101" fill="#0A7BB6"></path>
                                <path d="M22.4459923,38.6122449 C22.3216746,38.6122449 22.2209302,38.4921943 22.2209302,38.344383 L22.2209302,30.7984741 C22.2209302,30.6506628 22.3216746,30.5306122 22.4459923,30.5306122 C22.5701858,30.5306122 22.6709302,30.6506628 22.6709302,30.7984741 L22.6709302,38.344383 C22.6709302,38.4921943 22.5701858,38.6122449 22.4459923,38.6122449" id="Fill-103" fill="#0A7BB6"></path>
                                <path d="M23.8063953,36.3673469 C23.682112,36.3673469 23.5813953,36.2497899 23.5813953,36.1047257 L23.5813953,30.7932335 C23.5813953,30.648314 23.682112,30.5306122 23.8063953,30.5306122 C23.9306787,30.5306122 24.0313953,30.648314 24.0313953,30.7932335 L24.0313953,36.1047257 C24.0313953,36.2497899 23.9306787,36.3673469 23.8063953,36.3673469" id="Fill-105" fill="#0A7BB6"></path>
                                <path d="M21.821666,39.8132164 L21.8215131,39.8133839 L21.821666,39.8132164 Z M21.8212075,39.8133839 L21.8209018,39.813719 L21.8212075,39.8133839 Z M21.8209018,39.813719 L21.8205961,39.8138866 L21.8209018,39.813719 Z M21.8421466,40.4081633 C21.6653106,40.4081633 21.391574,40.3393029 20.9935785,40.0737465 C20.8627474,39.9861213 20.8213277,39.7991428 20.9009574,39.6560606 C20.9808928,39.5124759 21.1514623,39.4675742 21.2821405,39.5543617 C21.6518607,39.8013208 21.8245699,39.8016559 21.8529982,39.7989752 C21.9830651,39.7497174 22.1294859,39.8127138 22.1921503,39.9516073 C22.2600113,40.1020613 22.2037662,40.2843486 22.0665158,40.3589055 C22.025249,40.3813563 21.9526499,40.4081633 21.8421466,40.4081633 Z" id="Fill-107" fill="#0A7BB6"></path>
                                <path d="M23.774904,13.4693878 C23.7162018,13.4693878 23.6572132,13.4511972 23.6085333,13.4137614 C20.9521858,11.3711414 20.8916223,11.1557541 20.8688573,11.0746873 C20.8327769,10.9468258 20.9163917,10.816328 21.0552726,10.7832422 C21.1825562,10.7527928 21.3121307,10.8148781 21.3606674,10.9237581 C21.5088547,11.1243819 22.7808318,12.1539963 23.9415611,13.046654 C24.0518067,13.1314116 24.0664107,13.2822091 23.9744916,13.3835756 C23.9229482,13.4401246 23.8493556,13.4693878 23.774904,13.4693878" id="Fill-109" fill="#0A7BB6"></path>
                                <path d="M22.7885545,14.8163265 C22.6829955,14.8163265 22.5789338,14.7726364 22.5124916,14.6904257 C22.353966,14.4938202 21.5733163,13.4774419 21.8126956,12.7849038 C21.8680953,12.6251515 22.0593741,12.535937 22.2371773,12.5847965 C22.4164778,12.6341563 22.5171706,12.8034138 22.4617709,12.9629993 C22.3571477,13.2651614 22.7513094,13.9485278 23.0640559,14.3372363 C23.1735452,14.4729757 23.1387332,14.6619104 22.9863839,14.7594627 C22.9264923,14.7978166 22.8570555,14.8163265 22.7885545,14.8163265" id="Fill-111" fill="#0A7BB6"></path>
                            </g>
                        </g>
                    </g>
                </g>
            </g>
        </g>
    </g>
</svg>