<?xml version="1.0" encoding="UTF-8"?>
<svg width="145px" height="145px" viewBox="0 0 145 145" version="1.1" xmlns="http://www.w3.org/2000/svg" xmlns:xlink="http://www.w3.org/1999/xlink">
    <!-- Generator: sketchtool 50.2 (55047) - http://www.bohemiancoding.com/sketch -->
    <title>B8FDCE1D-D340-4923-93E0-FE426BDD3025</title>
    <desc>Created with sketchtool.</desc>
    <defs>
        <rect id="path-1" x="0" y="0" width="1231" height="892" rx="4"></rect>
        <filter x="-0.6%" y="-0.8%" width="101.2%" height="101.7%" filterUnits="objectBoundingBox" id="filter-3">
            <feOffset dx="0" dy="0" in="SourceAlpha" result="shadowOffsetOuter1"></feOffset>
            <feGaussianBlur stdDeviation="2.5" in="shadowOffsetOuter1" result="shadowBlurOuter1"></feGaussianBlur>
            <feColorMatrix values="0 0 0 0 0   0 0 0 0 0   0 0 0 0 0  0 0 0 0.15 0" type="matrix" in="shadowBlurOuter1"></feColorMatrix>
        </filter>
    </defs>
    <g id="Home.Desktop" stroke="none" stroke-width="1" fill="none" fill-rule="evenodd">
        <g id="news-2_design-1" transform="translate(-213.000000, -622.000000)">
            <g id="Group-13" transform="translate(185.000000, 594.000000)">
                <g id="line">
                    <mask id="mask-2" fill="white">
                        <use xlink:href="#path-1"></use>
                    </mask>
                    <g id="Mask">
                        <use fill="black" fill-opacity="1" filter="url(#filter-3)" xlink:href="#path-1"></use>
                        <use fill="#FFFFFF" fill-rule="evenodd" xlink:href="#path-1"></use>
                    </g>
                </g>
            </g>
            <g id="Page-1" transform="translate(213.000000, 622.000000)">
                <path d="M72.017,74.3104 C66.787,74.3104 62.547,70.0724 62.547,64.8424 C62.547,59.6094 66.787,55.3714 72.017,55.3714 C77.248,55.3714 81.491,59.6094 81.491,64.8424 C81.491,70.0724 77.248,74.3104 72.017,74.3104 M91.463,53.2484 C86.392,48.1714 79.668,45.3894 72.515,45.3934 C65.362,45.3934 58.623,48.1964 53.553,53.2854 C48.508,58.3554 45.733,65.0664 45.733,72.1954 C45.733,79.4674 48.653,86.0634 53.372,90.8964 L53.372,83.1814 C53.378,80.5444 55.454,77.4774 58.087,76.6704 C67.173,73.9594 76.859,73.9594 85.946,76.6704 C88.585,77.4774 90.66,80.5384 90.663,83.1814 L90.663,91.8474 C90.944,91.5874 91.238,91.3474 91.51,91.0764 C96.558,86.0124 99.331,79.3054 99.329,72.1834 C99.323,65.0434 96.532,58.3104 91.463,53.2484" id="Fill-1" fill="#E6F1F7"></path>
                <path d="M72.017,74.3104 C66.787,74.3104 62.547,70.0724 62.547,64.8424 C62.547,59.6094 66.787,55.3714 72.017,55.3714 C77.248,55.3714 81.491,59.6094 81.491,64.8424 C81.491,70.0724 77.248,74.3104 72.017,74.3104 Z M91.463,53.2484 C86.392,48.1714 79.668,45.3894 72.515,45.3934 C65.362,45.3934 58.623,48.1964 53.553,53.2854 C48.508,58.3554 45.733,65.0664 45.733,72.1954 C45.733,79.4674 48.653,86.0634 53.372,90.8964 L53.372,83.1814 C53.378,80.5444 55.454,77.4774 58.087,76.6704 C67.173,73.9594 76.859,73.9594 85.946,76.6704 C88.585,77.4774 90.66,80.5384 90.663,83.1814 L90.663,91.8474 C90.944,91.5874 91.238,91.3474 91.51,91.0764 C96.558,86.0124 99.331,79.3054 99.329,72.1834 C99.323,65.0434 96.532,58.3104 91.463,53.2484 Z" id="Stroke-3" stroke="#6266A6" stroke-width="3"></path>
                <path d="M85.9457,76.6707 C76.8587,73.9597 67.1737,73.9597 58.0877,76.6707 C55.4537,77.4777 53.3787,80.5447 53.3727,83.1817 L53.3727,90.8967 C55.8017,93.3807 58.7047,95.4007 61.9407,96.7977 L61.9407,84.7957 L61.9407,96.7977 C65.1907,98.1977 68.7687,98.9817 72.5277,98.9807 C75.8557,98.9777 79.0787,98.3507 82.0977,97.1907 L82.0977,84.7957 L82.0977,97.1907 C85.2347,95.9907 88.1287,94.1877 90.6627,91.8477 L90.6627,83.1817 C90.6597,80.5377 88.5857,77.4777 85.9457,76.6707" id="Fill-5" fill="#BAEFDB"></path>
                <path d="M85.9457,76.6707 C76.8587,73.9597 67.1737,73.9597 58.0877,76.6707 C55.4537,77.4777 53.3787,80.5447 53.3727,83.1817 L53.3727,90.8967 C55.8017,93.3807 58.7047,95.4007 61.9407,96.7977 L61.9407,84.7957 L61.9407,96.7977 C65.1907,98.1977 68.7687,98.9817 72.5277,98.9807 C75.8557,98.9777 79.0787,98.3507 82.0977,97.1907 L82.0977,84.7957 L82.0977,97.1907 C85.2347,95.9907 88.1287,94.1877 90.6627,91.8477 L90.6627,83.1817 C90.6597,80.5377 88.5857,77.4777 85.9457,76.6707 Z" id="Stroke-7" stroke="#6266A6" stroke-width="3" stroke-linecap="round" stroke-linejoin="round"></path>
                <path d="M72.017,55.3709 C66.787,55.3709 62.547,59.6089 62.547,64.8429 C62.547,70.0719 66.787,74.3099 72.017,74.3099 C77.248,74.3099 81.491,70.0719 81.491,64.8429 C81.491,59.6089 77.248,55.3709 72.017,55.3709" id="Fill-9" fill="#BAEFDB"></path>
                <path d="M72.017,55.3709 C66.787,55.3709 62.547,59.6089 62.547,64.8429 C62.547,70.0719 66.787,74.3099 72.017,74.3099 C77.248,74.3099 81.491,70.0719 81.491,64.8429 C81.491,59.6089 77.248,55.3709 72.017,55.3709 Z" id="Stroke-11" stroke="#6266A6" stroke-width="3" stroke-linecap="round" stroke-linejoin="round"></path>
                <polyline id="Stroke-13" stroke="#6266A6" stroke-width="3" points="135.2982 80.1795 142.9412 72.5305 135.2982 64.8805"></polyline>
                <path d="M140.8636,72.5301 L113.1486,72.5301" id="Stroke-15" stroke="#6266A6" stroke-width="3"></path>
                <polyline id="Stroke-17" stroke="#6266A6" stroke-width="3" points="9.7601 64.8807 2.1201 72.5297 9.7601 80.1797"></polyline>
                <path d="M4.1966,72.5301 L31.9126,72.5281" id="Stroke-19" stroke="#6266A6" stroke-width="3"></path>
                <polyline id="Stroke-21" stroke="#6266A6" stroke-width="3" points="80.1752 9.7625 72.5282 2.1195 64.8822 9.7625"></polyline>
                <path d="M72.5277,4.1981 L72.5307,31.9151" id="Stroke-23" stroke="#6266A6" stroke-width="3"></path>
                <polyline id="Stroke-25" stroke="#6266A6" stroke-width="3" points="122.3197 33.5555 122.3177 22.7425 111.5077 22.7405"></polyline>
                <path d="M120.847,24.2117 L101.252,43.8117" id="Stroke-27" stroke="#6266A6" stroke-width="3"></path>
                <polyline id="Stroke-29" stroke="#6266A6" stroke-width="3" points="22.7377 111.5076 22.7437 122.3206 33.5517 122.3206"></polyline>
                <path d="M24.2113,120.8504 L43.8063,101.2504" id="Stroke-31" stroke="#6266A6" stroke-width="3"></path>
                <polyline id="Stroke-33" stroke="#6266A6" stroke-width="3" points="111.5052 122.3201 122.3182 122.3191 122.3192 111.5071"></polyline>
                <path d="M120.849,120.8504 L101.249,101.2524" id="Stroke-35" stroke="#6266A6" stroke-width="3"></path>
                <polyline id="Stroke-37" stroke="#6266A6" stroke-width="3" points="33.5521 22.7401 22.7401 22.7431 22.7381 33.5551"></polyline>
                <path d="M24.2084,24.2117 L43.8084,43.8087" id="Stroke-39" stroke="#6266A6" stroke-width="3"></path>
                <polyline id="Stroke-41" stroke="#6266A6" stroke-width="3" points="64.8851 134.6082 72.5321 142.2492 80.1781 134.6082"></polyline>
                <path d="M72.5326,140.1717 L72.5306,112.4577" id="Stroke-43" stroke="#6266A6" stroke-width="3"></path>
            </g>
        </g>
    </g>
</svg>