<?xml version="1.0" encoding="UTF-8"?>
<svg width="25px" height="17px" viewBox="0 0 25 17" version="1.1" xmlns="http://www.w3.org/2000/svg" xmlns:xlink="http://www.w3.org/1999/xlink">
    <!-- Generator: sketchtool 50.2 (55047) - http://www.bohemiancoding.com/sketch -->
    <title>03119B7C-F1E8-44D2-BE88-33991C166311</title>
    <desc>Created with sketchtool.</desc>
    <defs></defs>
    <g id="web" stroke="none" stroke-width="1" fill="none" fill-rule="evenodd" opacity="0.443024554">
        <g id="003-sign-up_error" transform="translate(-831.000000, -634.000000)" fill="#4E5665" fill-rule="nonzero">
            <g id="noun_213092_0A7BB6-Copy" transform="translate(831.000000, 634.000000)">
                <path d="M12.4989286,11.0714286 C13.8789286,11.0714286 14.9978571,9.95214286 14.9978571,8.57142857 C14.9978571,7.19071429 13.8789286,6.07142857 12.4989286,6.07142857 C11.1189286,6.07142857 10,7.19071429 10,8.57142857 C10,9.95214286 11.1189286,11.0714286 12.4989286,11.0714286 Z M12.5,13.5714286 C9.73857143,13.5714286 7.5,11.3328571 7.5,8.57142857 C7.5,5.81 9.73857143,3.57142857 12.5,3.57142857 C15.2614286,3.57142857 17.5,5.81 17.5,8.57142857 C17.5,11.3328571 15.2614286,13.5714286 12.5,13.5714286 Z M0.112857143,8.99 C0.260357143,9.25321429 0.532142857,9.68535714 0.926071429,10.2310714 C1.58964286,11.15 2.375,12.0678571 3.28107143,12.9260714 C5.8975,15.405 8.98,16.9046429 12.5,16.9046429 C16.02,16.9046429 19.1025,15.405 21.7189286,12.9264286 C22.625,12.0678571 23.4103571,11.15 24.0739286,10.2314286 C24.4682143,9.68571429 24.74,9.25357143 24.8871429,8.99035714 C24.9596429,8.86535714 24.9985714,8.72321429 25,8.57821429 C24.9985714,8.42 24.9596429,8.27785714 24.8871429,8.15285714 C24.7396429,7.88964286 24.4678571,7.4575 24.0739286,6.91178571 C23.4103571,5.99285714 22.625,5.075 21.7189286,4.21678571 C19.1025,1.73785714 16.02,0.238214286 12.5,0.238214286 C8.98,0.238214286 5.8975,1.73785714 3.28107143,4.21642857 C2.375,5.075 1.58964286,5.99285714 0.926071429,6.91142857 C0.531785714,7.45714286 0.26,7.88928571 0.112857143,8.1525 C0.0403571429,8.27785714 0.00142857143,8.42 0,8.56464286 C0.00142857143,8.72285714 0.0403571429,8.865 0.112857143,8.99 Z" id="Shape"></path>
            </g>
        </g>
    </g>
</svg>