<?xml version="1.0" encoding="UTF-8"?>
<svg width="320px" height="137px" viewBox="0 0 320 137" version="1.1" xmlns="http://www.w3.org/2000/svg" xmlns:xlink="http://www.w3.org/1999/xlink">
    <!-- Generator: sketchtool 48.2 (47327) - http://www.bohemiancoding.com/sketch -->
    <title>8B1FDDA4-A1ED-4C24-B71B-C00090A1F954</title>
    <desc>Created with sketchtool.</desc>
    <defs></defs>
    <g id="Saide-Bar-Open-no-loggin" stroke="none" stroke-width="1" fill="none" fill-rule="evenodd" transform="translate(0.000000, -9.000000)" opacity="0.245663496">
        <g id="dividers" transform="translate(0.000000, -4.000000)" fill="#FFFFFF">
            <g id="placeholde">
                <g style="mix-blend-mode: overlay;" transform="translate(21.500000, 154.000000) scale(-1, 1) translate(-21.500000, -154.000000) translate(-349.000000, 13.000000)" id="Page-1">
                    <g>
                        <path d="M346.269957,22.0784754 C345.666244,24.4185559 345.653024,26.7586363 346.243517,29.0965113 C346.917737,26.7564308 346.845027,24.4163503 346.269957,22.0784754 M357.374756,15.6868136 C361.014663,16.5227142 361.567699,15.9867674 360.534336,12.1711791 C359.417246,13.4128995 358.364053,14.5884535 357.374756,15.6868136 M440.986841,61.3503629 C440.986841,61.9590926 440.978028,62.5678223 440.989045,63.176552 C441.000061,63.88012 440.951588,64.6167711 441.984951,64.6476487 C442.991875,64.6807319 443.392881,64.1888959 443.362035,63.2184573 C443.335595,62.3494736 443.412711,61.4738733 443.346611,60.6093007 C443.273901,59.6697396 443.815921,58.2670147 442.152405,58.2361371 C440.374315,58.2008484 441.185141,59.6895895 440.989045,60.5696009 C440.933961,60.8166216 440.980231,61.0879033 440.986841,61.3503629 M316.423607,33.2032311 L316.423607,33.1922034 C315.106014,33.1922034 313.788421,33.170148 312.473031,33.2032311 C312.034567,33.2142589 311.589494,33.3686468 311.534411,33.922238 C311.468311,34.6103672 311.924401,34.8816489 312.490657,34.88606 C315.037711,34.8992932 317.58256,34.88606 320.129613,34.8529768 C320.620957,34.8485658 320.936033,34.5397898 320.942643,34.0192818 C320.94705,33.4745129 320.57689,33.2274921 320.109783,33.2142589 C318.882527,33.1833813 317.653067,33.2032311 316.423607,33.2032311 M441.984951,34.9014988 C443.216615,34.9014988 444.443871,34.9169376 445.673331,34.8948821 C446.204334,34.88606 446.770591,34.8022494 446.843301,34.1207368 C446.918214,33.4193743 446.396024,33.1988201 445.847394,33.194409 C443.388475,33.1657369 440.929555,33.1635314 438.470635,33.1855868 C437.930818,33.1899979 437.388798,33.3443859 437.439475,34.0700093 C437.490152,34.7581385 438.012342,34.88606 438.560972,34.8970877 C439.702298,34.914732 440.843625,34.9014988 441.984951,34.9014988 M356.997986,36.1321914 C351.112884,35.2301246 350.326294,36.0770529 351.80473,40.9116017 C353.41757,39.4272717 354.999563,37.9694082 356.997986,36.1321914 M362.755296,135.478642 C362.755296,138.456124 362.759702,141.435812 362.753092,144.413294 C362.753092,145.520476 363.286299,146.065245 364.390169,145.913063 C365.635052,145.743236 365.223029,144.916158 365.101846,144.122163 C364.654569,141.182175 364.198479,138.251009 362.755296,135.478642 M349.47801,135.864612 C348.014997,138.559785 347.671277,141.420373 347.166714,144.247878 C347.008074,145.132301 346.820791,145.835869 348.023811,145.924091 C349.024124,145.996874 349.47801,145.482982 349.47801,144.516955 C349.480214,141.634311 349.47801,138.749461 349.47801,135.864612 M356.224616,8.56732286 C357.28442,8.04240378 359.492159,9.25765763 359.366569,7.64320061 C359.240979,6.00448263 357.68763,4.37017573 356.202583,3.17918285 C355.92937,2.96083416 352.507593,7.27928612 352.74335,7.71377797 C353.565193,9.2201634 355.065663,8.10636451 356.224616,8.56732286 M316.23412,36.6174107 C315.094997,36.6174107 313.955874,36.6262329 312.816751,36.6129997 C312.080837,36.6041775 311.598308,37.0011751 311.543224,37.6672489 C311.483734,38.3730225 312.008127,38.8141309 312.693364,38.8251587 C315.05754,38.8560362 317.421717,38.8582418 319.785893,38.8097199 C320.446893,38.7964866 321.010947,38.3774336 320.94044,37.6562212 C320.876543,36.9901474 320.380793,36.606383 319.649287,36.6152052 C318.510163,36.630644 317.37104,36.6196163 316.23412,36.6174107 M442.487311,36.6240274 C441.182938,36.6240274 439.876362,36.6129997 438.569785,36.6284385 C437.827262,36.6350551 437.421848,37.1401243 437.424052,37.7819371 C437.426255,38.3112673 437.860312,38.7854589 438.441992,38.7942811 C440.878878,38.8361864 443.315765,38.8494196 445.752651,38.818542 C446.415854,38.8075143 446.964484,38.3642003 446.902791,37.6694545 C446.847707,37.0122028 446.338738,36.6174107 445.620451,36.6174107 C444.578274,36.6174107 443.531691,36.6174107 442.487311,36.6240274 M359.302673,11.3838005 C359.080136,11.0242971 358.859803,10.6647937 358.63947,10.3074958 C357.346113,10.3074958 356.050553,10.3052903 354.754993,10.3074958 C351.16356,10.3119069 351.16356,10.3119069 351.31559,13.9664906 C351.399317,15.9911785 352.73013,16.7388573 354.365003,15.5302201 C356.090213,14.2554166 357.663393,12.7754977 359.302673,11.3838005 M412.515371,23.8693758 C412.288428,23.8054151 412.063688,23.7392488 411.836744,23.6752881 C410.809991,24.7295374 409.750188,25.7551146 408.769705,26.8490636 C407.590921,28.1613613 404.891838,29.6964188 405.537415,30.7065572 C406.557558,32.3033699 409.236811,31.1256102 411.199981,31.3064647 C412.032841,31.3814532 412.519778,30.9668112 412.517574,30.0735665 C412.513168,28.0069733 412.515371,25.9381746 412.515371,23.8693758 M442.615105,31.2138319 L445.481641,31.2138319 C446.389414,31.2116264 447.021771,30.8763839 447.028381,29.8596289 C447.034991,28.1988555 447.109904,26.5314655 446.984314,24.8773087 C446.878554,23.4944336 446.365178,23.4657616 445.439778,24.5200108 C444.247774,25.883036 442.775948,26.9990405 441.586148,28.3664767 C440.898708,29.1560609 439.248412,29.7449407 439.719925,30.7859567 C440.173811,31.7872729 441.780041,31.0285664 442.615105,31.2138319 M378.293201,27.6673198 C378.293201,26.8556802 378.328454,26.2381283 378.284388,25.6271931 C378.240321,25.0471355 378.586244,24.2597568 377.958294,23.9377476 C377.083571,23.4922281 376.794934,24.500161 376.343251,24.9258306 C374.624651,26.5491098 372.983168,28.2561996 371.293212,29.9125619 C370.788648,30.4043979 370.383235,31.1498712 371.317448,31.2204486 C373.399598,31.3814532 375.611745,31.5733353 377.574914,31.0329775 C379.037928,30.6293632 377.993548,28.6862804 378.293201,27.6673198 M399.059616,21.9174708 C391.722516,20.861016 391.429473,21.1146534 391.663026,28.2187054 C391.674043,28.5407146 391.75777,28.8605182 391.795226,29.0943057 C394.196859,26.7189366 396.563239,24.3854727 399.059616,21.9174708 M388.045153,21.6682445 C385.588437,21.6682445 383.68035,21.6726556 381.774467,21.666039 C380.758731,21.6638335 380.060274,21.979226 380.071291,23.1613967 C380.088917,25.1463849 380.075697,27.1335785 380.075697,29.7361185 C383.116297,27.0453568 385.566404,24.7207152 388.045153,21.6682445 M332.210489,23.7987985 C331.913039,23.5561888 331.615589,23.3157847 331.318139,23.0709695 C330.339859,24.3920894 329.332936,25.6977705 328.385503,27.0409458 C327.427053,28.4039709 324.725766,29.7250908 325.496933,30.7815456 C326.569956,32.2504368 329.220566,31.1873654 331.190346,31.2998481 C331.891006,31.3417534 332.391162,30.9381391 332.406585,30.2125157 C332.448449,28.0709341 332.756915,25.9095025 332.210489,23.7987985 M389.316477,23.512078 C387.932783,24.8155535 386.597563,25.8080476 385.612674,27.0740289 C384.583717,28.3907377 381.862601,29.6611301 382.644784,30.7793401 C383.689164,32.2658756 386.372823,31.1763377 388.342603,31.2998481 C389.038857,31.3439589 389.580876,30.9513724 389.60291,30.2389822 C389.666806,28.095195 389.990696,25.9293524 389.316477,23.512078 M312.860817,30.644802 C320.28605,32.3166031 321.400937,31.4630582 321.061623,25.3250338 C321.057217,25.2368121 321.07264,25.1463849 321.05942,25.0603687 C320.99993,24.6545489 321.209247,24.1406575 320.700277,23.9002534 C320.191307,23.6620549 319.92911,24.0789024 319.609627,24.3766506 C317.50985,26.3395833 315.399057,28.2892827 312.860817,30.644802 M353.095883,54.0698675 C355.680393,54.0698675 357.6017,54.0698675 359.520803,54.0720731 C360.294173,54.0720731 360.992629,53.9000408 360.961783,52.9560686 C360.893479,50.920353 361.356179,48.8361155 360.477049,46.3482637 C358.020333,48.9199261 355.82361,51.2158957 353.095883,54.0698675 M434.791069,23.3179902 C432.680276,25.5544102 430.706089,27.6562921 428.718683,29.7515573 C428.427843,30.0603333 427.934296,30.2897097 428.073106,30.7947789 C428.260389,31.4740859 428.894949,31.295437 429.395106,31.3417534 C435.511559,31.9107833 435.582065,31.8556448 435.507152,25.8653917 C435.500542,25.1904957 435.745112,24.4560501 434.791069,23.3179902 M351.33542,143.802359 C351.674734,143.961158 352.014047,144.117751 352.35336,144.276551 C354.34297,142.086447 356.32597,139.891932 358.319986,137.708445 C358.945733,137.020316 359.099966,136.38512 357.934403,136.334392 C356.09462,136.257198 354.248227,136.32557 352.404037,136.356448 C351.63287,136.369681 351.339827,136.876956 351.337624,137.580524 C351.32881,139.653734 351.33542,141.729149 351.33542,143.802359 M419.823827,31.3417534 C424.045413,31.34837 424.045413,31.34837 424.04321,27.3783937 C424.04321,26.586604 424.04982,25.7948143 424.032193,25.0052302 C424.025583,24.5883826 424.166596,24.0700802 423.635593,23.8737869 C423.120013,23.6863158 422.882053,24.1362465 422.580197,24.4450224 C421.30006,25.7551146 420.01111,27.0607956 418.706737,28.3510379 C417.926757,29.1207722 416.40866,30.0625388 416.695094,30.7683124 C417.2283,32.076199 418.891817,31.0043054 419.823827,31.3417534 M353.150967,42.0055508 C360.950766,43.3707815 361.530243,42.953934 361.001443,37.3562674 C360.992629,37.2680457 360.999239,37.179824 360.994833,37.0916023 C360.941953,35.8300321 360.285359,35.4043624 359.335723,36.2336464 C357.213913,38.0885075 355.206677,40.0734956 353.150967,42.0055508 M351.79812,121.138205 C354.314327,118.762836 356.80189,116.616844 358.939123,113.7342 C349.66309,113.465124 351.485247,112.355736 351.377284,120.315538 C351.37508,120.465515 351.524907,120.617697 351.79812,121.138205 M437.318292,29.811107 C440.301605,26.9946294 442.824421,24.7714427 445.272324,21.666039 C442.864081,21.666039 441.052941,21.7145609 439.246208,21.6506002 C437.732518,21.5932561 437.238972,22.2857964 437.300665,23.7171934 C437.373375,25.4595719 437.318292,27.208567 437.318292,29.811107 M360.644503,92.0537182 C358.172363,94.7753575 355.376333,96.8176898 353.164187,100.035576 C355.60548,100.035576 357.451873,100.031165 359.298266,100.035576 C360.124516,100.037782 360.979409,100.042193 360.966189,98.8908996 C360.939749,96.7206459 361.261436,94.5261312 360.644503,92.0537182 M351.643887,86.8839269 C353.00775,85.6069179 354.340767,84.6364792 355.305827,83.3837312 C356.376646,81.9898284 359.148439,80.7811912 358.43456,79.5019766 C357.711866,78.2029121 354.922447,79.1976118 353.043003,79.0652792 C352.871143,79.0542515 352.694877,79.080718 352.520813,79.0851291 C351.80473,79.1005679 351.33542,79.4203715 351.34864,80.1768726 C351.386097,82.3162487 351.05119,84.4776802 351.643887,86.8839269 M351.331014,75.1372083 C351.676937,75.2938018 352.025064,75.4526008 352.370987,75.6091943 C354.259243,73.4918736 356.138686,71.3657308 358.048976,69.26826 C358.410323,68.8690568 358.835566,68.4477982 358.650486,67.942729 C358.423543,67.3273827 357.749323,67.6185143 357.275606,67.6074866 C355.792763,67.5744035 354.305513,67.6185143 352.82267,67.5964589 C351.88405,67.5832256 351.3222,67.9052348 351.326607,68.9352231 C351.339827,71.0018163 351.331014,73.0706151 351.331014,75.1372083 M401.267355,27.6783475 C401.267355,26.765253 401.318032,26.061685 401.254135,25.3669391 C401.203459,24.8243757 401.644125,24.0524359 400.802452,23.7987985 C400.031285,23.5672165 399.852815,24.3590062 399.442996,24.7626205 C397.669312,26.5248488 395.893426,28.2848717 394.062456,29.9875504 C393.610773,30.408809 393.247223,31.0241553 393.864156,31.1256102 C396.096133,31.4961414 398.466919,31.7850674 400.586525,31.0263608 C402.078182,30.490414 400.930245,28.6620194 401.267355,27.6783475 M410.763721,21.6770584 C408.441408,21.6770667 406.385698,21.6814778 404.327785,21.6770667 C403.358318,21.6748612 402.913245,22.1137641 402.930872,23.1194914 C402.968328,25.1684403 402.941888,27.2173892 402.941888,29.5486474 C405.676225,26.7961306 408.075655,24.3810617 410.763721,21.6770584 M339.578435,31.3439589 C340.292315,31.3439589 340.823318,31.2932315 341.341101,31.3527811 C343.562061,31.6152406 344.344244,30.6028967 344.099674,28.4613151 C343.969678,27.3342829 344.088658,26.1829898 344.062218,25.0449299 C344.051201,24.6413157 344.262721,24.1274243 343.751548,23.878198 C343.165461,23.593683 342.876824,23.9620086 342.484631,24.3898838 C341.252968,25.7264425 339.891308,26.9394908 338.650832,28.2650218 C337.873055,29.0943057 336.218352,29.7647906 336.634782,30.8719729 C337.020365,31.8953445 338.688288,31.1366379 339.578435,31.3439589 M368.915815,29.1759108 C369.208858,29.4096983 369.501902,29.6434858 369.794945,29.8772733 C371.749302,27.6055646 373.719081,25.3492948 375.646998,23.0621473 C376.396131,22.1733138 376.189018,21.6506002 374.970575,21.6572168 C373.390785,21.666039 371.810995,21.6682445 370.231205,21.666039 C369.325635,21.666039 368.644805,21.9748149 368.662432,22.9959811 C368.695482,25.0581632 368.338542,27.1512229 368.915815,29.1759108 M353.340453,111.003738 C355.726663,111.749212 357.888133,111.37868 360.029773,111.321336 C360.666536,111.303692 360.986019,110.897872 360.977206,110.30017 C360.944156,108.24681 361.219573,106.169189 360.699586,103.767354 C357.923386,106.061118 355.722256,108.443104 353.340453,111.003738 M334.341112,29.5817306 C335.229055,28.9266845 335.680738,28.668636 336.037678,28.3157493 C337.778312,26.5954262 339.510131,24.866281 341.202291,23.0996415 C341.856681,22.418129 342.200401,21.8358658 340.721965,21.6351614 C334.753135,20.8213163 334.286029,21.1940529 334.341112,27.2041559 C334.345519,27.8040634 334.341112,28.4017654 334.341112,29.5817306 M311.640171,30.0096058 C313.292671,28.2517885 314.546367,27.0872622 315.590747,25.7595256 C316.62411,24.4494335 319.22845,23.5473666 318.54762,22.0233369 C318.05848,20.9205657 315.34177,21.7586718 313.620967,21.6748612 C312.770481,21.6329559 311.598308,21.4807734 311.481531,22.6452998 C311.261198,24.8508422 311.179674,27.0894677 311.640171,30.0096058 M360.992629,138.317175 C360.648909,138.101032 360.307393,137.884889 359.963673,137.668746 C357.98508,139.918399 355.99547,142.15923 354.04552,144.433144 C353.792137,144.728687 353.58282,145.240373 353.651123,145.595465 C353.759087,146.175522 354.36941,145.932913 354.7594,145.941735 C356.343596,145.972613 357.929996,145.932913 359.514193,145.954968 C360.488066,145.965996 360.999239,145.562382 360.994833,144.554449 C360.986019,142.474622 360.992629,140.397001 360.992629,138.317175 M322.806663,29.1869385 C323.1614,29.4185204 323.516136,29.6523079 323.873076,29.8860954 C325.800993,27.6783475 327.737723,25.4794218 329.645809,23.2562351 C329.912412,22.9452536 330.229692,22.4688564 330.170202,22.1314084 C330.046816,21.4256349 329.346156,21.6836833 328.876846,21.6726556 C327.389596,21.6395725 325.902346,21.6792723 324.415096,21.6616279 C323.34648,21.6483947 322.78463,22.080681 322.800053,23.2099187 C322.82429,25.2015234 322.806663,27.1931282 322.806663,29.1869385 M425.988753,29.0876891 C426.19807,29.2442826 426.407386,29.4008761 426.614499,29.5552641 C428.436656,27.6033591 430.254406,25.647043 432.083172,23.7017546 C432.261642,23.512078 432.499602,23.381951 432.704512,23.2143297 C433.065859,22.9209926 433.295005,22.5262005 433.176026,22.0740643 C433.023996,21.4873901 432.470959,21.7101499 432.076562,21.666039 C426.048243,20.9779098 425.70232,21.2888913 425.83452,27.2989942 C425.84774,27.8966962 425.935873,28.4921926 425.988753,29.0876891 M351.33542,132.979762 C353.06724,131.274878 354.325343,130.092708 355.51955,128.848782 C356.665283,127.657789 358.3288,126.868205 358.81794,124.843517 C356.698333,124.843517 354.777027,124.863367 352.853517,124.834695 C351.919304,124.823667 351.326607,125.105976 351.333217,126.155814 C351.344234,128.246669 351.33542,130.333112 351.33542,132.979762 M360.677553,126.530757 C359.300469,127.84526 358.042366,128.817904 357.075103,130.028747 C355.96242,131.42265 353.142153,133.085629 353.84722,133.912707 C355.081087,135.361748 357.76034,134.298677 359.827066,134.426598 C360.402136,134.461887 360.917716,134.232511 360.919919,133.566437 C360.926529,131.327811 361.237199,129.064925 360.677553,126.530757 M360.172989,69.1535718 C358.09084,71.3966084 356.083603,73.5536288 354.08518,75.721677 C353.809763,76.0216307 353.360283,76.2907069 353.571803,76.8090094 C353.78773,77.3339285 354.2967,77.1795405 354.70652,77.2280624 C360.820769,77.9603025 361.107203,77.702254 360.999239,71.4936523 C360.988223,70.9025669 361.173303,70.2629596 360.172989,69.1535718 M360.234683,80.4746208 C358.119483,82.7816181 356.15411,84.9584884 354.142467,87.0890424 C353.816373,87.433107 353.52333,87.7551162 353.618073,88.1984302 C353.739257,88.7674601 354.27687,88.6108666 354.68669,88.6615941 C360.776703,89.4357394 361.093983,89.1666633 360.990426,83.1565603 C360.979409,82.4816643 361.182116,81.7560409 360.234683,80.4746208 M351.853204,99.0210266 C354.294497,96.3214427 356.33919,94.0762006 358.359646,91.8111086 C358.886243,91.2222288 359.291656,90.4921942 358.000503,90.4392612 C356.16072,90.3642728 354.312123,90.4414668 352.467933,90.4370557 C351.681344,90.4348501 351.33542,90.8781642 351.357454,91.5883488 C351.416944,93.7453692 351.015937,95.9288562 351.853204,99.0210266 M358.71879,56.4452367 C356.69613,56.0305947 354.616183,56.2202713 352.547253,56.2732044 C351.851,56.2930542 351.344234,56.5974191 351.35525,57.3671534 C351.3883,59.4249244 351.042377,61.5113675 351.707784,63.9484918 C354.107213,61.383446 356.2797,59.0565988 358.71879,56.4452367 M351.787104,53.10384 C354.22399,50.4395448 356.26648,48.2295913 358.273716,45.9887603 C358.538116,45.6954231 358.81133,45.2168204 358.760653,44.8705503 C358.681333,44.3059314 358.073213,44.4956081 357.676613,44.4889915 C356.10123,44.466936 354.52805,44.5066358 352.952667,44.4713471 C352.02947,44.4514972 351.37508,44.7316011 351.370674,45.7417395 C351.364064,47.8921433 351.05119,50.062397 351.787104,53.10384 M352.734537,123.160688 C355.57243,123.160688 357.57526,123.140838 359.580293,123.16951 C360.446203,123.182743 360.933139,122.801184 360.950766,121.958667 C360.990426,119.792825 361.188726,117.613749 360.833989,115.611116 C358.300156,117.973252 355.80378,120.300099 352.734537,123.160688 M418.559114,21.6572168 C414.291257,21.6572168 414.291257,21.6572168 414.293461,25.6095488 C414.293461,26.3153223 414.269224,27.0210959 414.300071,27.7246639 C414.322104,28.2164998 414.066517,28.8208185 414.692264,29.1340055 C415.408347,29.4913033 415.553767,28.7767076 415.895284,28.4480818 C417.153387,27.2416501 418.508437,26.114618 419.623324,24.789087 C420.379067,23.8936368 422.194613,23.2496184 421.725303,22.1159696 C421.269213,21.0131985 419.51536,21.8998265 418.559114,21.6572168 M353.31842,65.2674061 C353.38452,65.4813438 353.45062,65.6952814 353.51672,65.909219 C355.49311,65.909219 357.471703,65.8981913 359.448093,65.9136301 C360.258919,65.9202467 360.880259,65.6335262 360.917716,64.7843924 C361.019069,62.5898777 361.182116,60.3799242 360.765686,57.9869108 C358.10406,60.5894508 355.71124,62.9273257 353.31842,65.2674061 M351.34203,110.165632 C354.274667,107.10875 357.024426,105.009074 359.221149,101.713994 C356.8085,101.713994 354.973123,101.742666 353.135543,101.705172 C352.099977,101.683116 351.377284,102.020564 351.35525,103.134363 C351.311184,105.209778 351.34203,107.285194 351.34203,110.165632 M356.328173,147.653236 C352.18811,147.653236 348.045844,147.686319 343.905781,147.633386 C342.559544,147.615742 341.722278,147.83409 341.764141,149.470603 C341.799395,150.919644 342.323788,151.539402 343.800021,151.53499 C351.994217,151.508524 360.188413,151.517346 368.382609,151.548224 C369.777318,151.552635 370.469165,151.115937 370.524248,149.583085 C370.592552,147.785568 369.651728,147.611331 368.221765,147.63118 C364.260172,147.69073 360.294173,147.653236 356.328173,147.653236 M356.42512,153.336919 C350.890347,153.336919 345.351168,153.433962 339.818598,153.286191 C337.681365,153.231053 337.815768,154.424251 337.919325,155.776248 C338.022882,157.088546 337.179005,158.85298 339.809785,158.83313 C350.705267,158.74932 361.602953,158.74932 372.498435,158.83313 C375.122605,158.855186 374.302965,157.103985 374.399911,155.782865 C374.496858,154.437484 374.648888,153.228847 372.505045,153.288397 C367.148742,153.436168 361.785829,153.336919 356.42512,153.336919 M352.979107,3.41297034 C340.314348,8.88050988 328.328216,14.0547123 315.86396,19.4362357 C316.714447,19.7031063 317.02732,19.8883719 317.340194,19.8883719 C326.576566,19.9038107 335.810735,19.8861663 345.049311,19.9170439 C346.309617,19.9192494 346.798757,19.400947 346.767911,18.1945153 C346.743674,17.3277372 346.596051,16.1587997 347.783647,16.1014556 C349.69614,16.0066173 349.588177,14.769308 349.47801,13.5364098 C349.198187,10.446445 349.647667,7.62776181 352.038284,5.37369751 C352.370987,5.06051049 352.47234,4.50030273 352.979107,3.41297034 M357.484923,18.1945153 C355.193457,18.1945153 352.899787,18.258476 350.612727,18.1702543 C349.277507,18.1195269 348.737691,18.4680026 348.772944,19.9258661 C348.867687,23.8936368 348.854467,27.8636131 348.783961,31.8313838 C348.755317,33.3421803 349.35242,33.8604828 350.80001,33.8472495 C355.38074,33.8075498 359.963673,33.7943165 364.544402,33.8604828 C366.163852,33.8847437 366.679432,33.2495475 366.644179,31.6659681 C366.556045,27.8746408 366.514182,24.0766968 366.661805,20.2897806 C366.734515,18.4172751 365.980975,18.0776216 364.354916,18.1592266 C362.070059,18.2739148 359.774186,18.1878987 357.484923,18.1945153 M448.559697,100.43919 C449.961017,100.031165 451.862494,101.19128 452.836367,99.4268464 C453.801427,97.6712347 452.657897,94.7974129 450.75642,93.9571013 C448.738167,93.0638566 447.693787,91.4846883 447.821581,89.437945 C447.958187,87.3140077 449.031211,85.5275184 451.399794,85.1834538 C452.690947,84.9937771 452.88484,84.2924146 452.959754,83.2072878 C453.252797,78.897658 453.257204,78.8756026 449.064261,78.873397 C448.359194,78.873397 447.651924,78.8248751 446.953467,78.8822192 C445.505878,78.9991129 444.706068,78.8160529 444.921994,76.9170809 C445.109278,75.2805685 443.985578,74.0719313 442.200878,74.0631091 C440.469058,74.0520814 439.180108,74.9762037 439.420272,76.8023927 C439.684672,78.820464 438.719612,78.9902908 437.199312,78.8800137 C436.324589,78.8182585 435.421222,78.9836741 434.564125,78.8491361 C431.986226,78.4499329 430.944049,79.5107988 431.455222,82.0273226 C431.666742,83.0771608 430.609142,84.6827956 432.475366,85.0709711 C434.850559,85.562807 436.154932,86.8221717 436.362045,89.3100235 C436.584582,91.9765243 435.114959,93.4674709 432.905016,94.2173553 C431.594032,94.6650804 431.428782,95.346593 431.413359,96.5045027 C431.360479,100.379641 431.323022,100.379641 435.238345,100.381846 C435.855279,100.381846 436.474415,100.41934 437.084738,100.370819 C438.587412,100.253925 439.662638,100.399491 439.400442,102.435206 C439.191125,104.05628 440.323638,104.764259 441.839531,104.91203 C443.359831,105.062007 444.858098,104.417989 444.778778,102.993208 C444.602511,99.7312112 446.614154,100.289213 448.559697,100.43919 M436.652885,19.2664089 C410.499321,13.651098 384.75117,8.1218033 358.22965,2.42929844 C360.710603,6.03977131 363.572732,8.59599491 362.772922,12.6718372 C362.266156,15.261144 363.248842,16.4719867 366.029449,16.046317 C367.102472,15.8809014 368.675652,15.7265134 368.558875,17.4468364 C368.380405,20.0890762 369.946975,19.9280716 371.736082,19.9258661 C392.1742,19.9038107 412.614521,19.921455 433.052639,19.9126328 C434.081595,19.9126328 435.156822,20.1221593 436.652885,19.2664089 M442.850861,66.8443689 C444.913181,68.5205811 446.023661,69.9475671 445.168768,72.4839408 C444.587088,74.2086749 447.856834,77.1354296 449.789157,77.1442518 C454.665133,77.1685128 454.665133,77.1685128 454.671743,81.9589508 C454.671743,82.5765027 454.691573,83.1940545 454.66954,83.8116064 C454.61005,85.4789964 455.392233,87.6007282 452.10486,86.941271 C450.615407,86.6435228 449.632721,88.165347 449.661364,89.7577486 C449.694414,91.4560163 450.86218,92.5565819 452.406717,92.2456004 C454.856823,91.75597 454.740047,93.0881176 454.684963,94.6893414 C454.632083,96.1891102 454.65632,97.688879 454.673947,99.1886478 C454.693777,101.385368 453.587703,102.419767 451.43064,102.415356 C450.463377,102.413151 449.491707,102.42859 448.524444,102.413151 C447.574807,102.397712 446.849911,102.5521 446.545851,103.683543 C445.942138,105.944224 444.042864,107.091106 442.040035,107.018323 C440.090085,106.94554 438.157762,105.908935 437.695062,103.496072 C437.498965,102.479317 436.639665,102.437412 435.828839,102.419767 C434.861575,102.402123 433.889905,102.402123 432.922642,102.417562 C430.798629,102.448439 429.595609,101.541962 429.641879,99.2901028 C429.666116,98.2314424 429.617643,97.1727821 429.637473,96.1141217 C429.681539,94.1335447 428.778173,91.625843 432.552482,92.1242956 C433.989055,92.3139722 434.861575,90.8494921 434.628022,89.3276679 C434.365825,87.616167 433.134162,86.5156013 431.477256,86.9037768 C429.659506,87.3294465 429.575779,86.575151 429.619846,85.220948 C429.674929,83.4587196 429.674929,81.6920802 429.641879,79.9298518 C429.604423,77.9206027 430.538636,77.0008916 432.543669,77.1442518 C433.068062,77.181746 433.599065,77.1464574 434.127865,77.1464574 C436.745425,77.1398407 439.193328,74.7247718 439.186718,72.1178207 C439.186718,71.6590679 438.609445,71.090038 439.446712,70.8430173 C439.990935,70.6864237 440.568208,70.8341951 440.863455,71.3017701 C441.691908,72.6162733 442.546801,72.4596798 443.284918,71.3282366 C444.049474,70.1526825 442.877301,69.8681675 442.313248,69.1315164 C441.185141,67.6582141 439.177905,66.6877754 439.244005,64.3962169 C439.301292,62.4575452 439.221972,60.5144623 439.263835,58.5757906 C439.281462,57.6825459 438.935538,56.6371188 440.411771,56.3261374 C441.423101,56.1121998 441.103618,55.0292785 441.105821,54.2904218 C441.136668,50.4990944 441.024298,46.7011505 441.160905,42.9142342 C441.229208,41.0439343 440.616681,40.2631723 438.785712,40.5940036 C436.053579,41.0880451 435.062079,39.9345465 435.502745,37.2790735 C435.601895,36.6769604 435.458679,36.0417642 435.520372,35.4286234 C435.685622,33.8097553 435.225125,33.0995707 433.367715,33.1061873 C412.570454,33.170148 391.775396,33.1436815 370.978135,33.145887 C369.852232,33.145887 368.671245,32.9231273 368.556672,34.7140277 C368.464132,36.1851244 367.150945,35.7241661 366.267409,35.7506326 C362.759702,35.8542931 362.755296,35.8344432 362.755296,39.4184496 C362.770719,66.9392073 362.720042,94.459965 362.858852,121.978517 C362.887496,127.712927 364.899139,133.204728 365.936909,138.820039 C366.238765,140.460962 366.666212,142.082036 366.895359,143.731782 C367.137725,145.467543 368.012449,146.215222 369.737658,145.959379 C371.643542,145.67707 372.577755,146.367405 372.313355,148.411942 C372.066582,150.319737 372.414708,151.799656 374.878035,151.543813 C375.796825,151.448974 376.125121,151.995949 376.072241,152.849494 C376.061224,153.025937 376.067834,153.20238 376.074444,153.378824 C376.398334,160.513753 376.398334,160.513753 369.303602,160.513753 C359.082339,160.511548 348.861077,160.451998 338.639815,160.555659 C336.614952,160.575509 335.969375,159.962368 336.189708,158.023696 C336.326315,156.801826 336.269028,155.553489 336.198522,154.32059 C336.099372,152.593651 336.105982,151.177693 338.564902,151.402658 C340.063168,151.539402 340.085201,150.218282 339.992661,149.128744 C339.807581,146.969518 340.197571,145.438871 342.923094,145.937324 C344.487461,146.22625 345.108801,145.317567 345.351168,143.888375 C345.985727,140.167625 346.397751,136.378503 347.406877,132.761414 C351.38169,118.524638 349.04836,104.012169 349.396487,89.6364438 C349.806307,72.7133172 349.49784,55.7681351 349.482417,38.8339808 C349.480214,37.440078 350.009014,35.6271222 347.545687,35.6822608 C347.347387,35.6866719 346.968414,35.4043624 346.964007,35.2455634 C346.875874,32.3474807 344.712201,33.1811757 343.139021,33.1679425 C337.145955,33.1194205 331.155092,33.2076422 325.16423,33.1083928 C323.34648,33.0797208 322.749376,33.6024343 322.762596,35.4771453 C322.793443,40.5829759 322.70531,40.5851815 317.626627,40.5851815 C315.51363,40.5851815 313.398431,40.5410706 311.285434,40.6028258 C309.945808,40.6425256 309.421414,40.1881838 309.439041,38.7722256 C309.502938,33.040021 309.544801,27.3034053 309.405991,21.5734062 C309.368534,20.0670208 310.335798,19.7626559 311.192894,19.3877137 C317.683914,16.5535918 324.223406,13.8209248 330.727646,11.0088583 C338.917435,7.4711683 347.094004,3.90480629 355.246337,0.287716802 C355.867676,0.0120240051 356.350206,-0.0806087745 356.964936,0.0759847339 C366.664009,2.56163099 376.497484,4.42972537 386.295707,6.47867424 C397.634059,8.84742674 408.923938,11.4632 420.24246,13.935613 C429.157146,15.8831069 438.074035,17.815162 447.006347,19.6589954 C448.548681,19.9787991 448.921044,20.6514895 448.899011,22.133614 C448.806471,27.5129318 448.769014,32.8966608 448.894604,38.2737731 C448.938671,40.2058282 448.264451,40.6579644 446.468734,40.6248812 C442.961028,40.5543039 442.954418,40.6491422 442.950011,44.2794649 C442.947808,47.1907809 442.921368,50.1020968 442.967638,53.0112072 C442.991875,54.4271654 442.515955,56.0813222 444.642171,56.6371188 C445.327408,56.8157678 445.058601,57.7156291 445.069618,58.3000978 C445.100464,60.3269912 444.985891,62.3627068 445.115888,64.3829837 C445.208428,65.8143806 444.789794,66.6943921 442.850861,66.8443689" id="Fill-1"></path>
                        <path d="M136.278812,87.0272426 C135.307325,87.1155274 134.601788,87.5415012 134.575413,88.7686592 C134.544642,90.0532022 135.285346,90.4173768 136.364532,90.4372409 C137.386571,90.4593121 138.056941,89.9494677 138.045951,88.914329 C138.032764,87.8858118 137.579989,87.0735921 136.278812,87.0272426 M137.619552,73.86178 L137.639334,73.86178 C137.639334,73.3320715 137.634938,72.8045702 137.639334,72.2748617 C137.645927,71.4692634 137.722855,70.6570438 136.542564,70.586416 C135.267762,70.5135811 135.109511,71.312558 135.118303,72.279276 C135.127095,73.5108481 135.116105,74.7468346 135.175449,75.9761997 C135.208418,76.7001346 135.648005,77.0775518 136.395303,77.0378237 C137.074464,77.0003027 137.601969,76.7729695 137.615156,75.9761997 C137.630542,75.2699217 137.619552,74.5658508 137.619552,73.86178 M131.625785,90.1282443 C131.181803,95.3304229 131.181803,95.33263 135.832632,95.3260086 C137.056881,95.3238015 138.278932,95.2752449 139.498786,95.314973 C140.582368,95.3480798 141.178008,94.9463842 141.076903,93.7986826 C140.977996,92.6995375 141.36703,91.5496287 140.795567,90.4659334 C136.687628,94.1518215 135.999675,94.1385788 131.625785,90.1282443 M152.950144,112.219295 C152.950144,106.129854 152.974321,100.040414 152.941352,93.9487666 C152.923769,90.885286 152.264389,90.2694999 149.18728,90.2253575 C147.86852,90.2032863 146.547561,90.1922507 145.230999,90.2319789 C144.415565,90.2584643 143.281431,89.9472606 143.307806,91.3421595 C143.329786,92.4788256 143.364952,93.7368832 144.916694,93.9598022 C145.435407,94.0348442 145.971703,94.0811937 146.492613,94.0370514 C148.637797,93.8538605 149.429053,94.774229 149.41147,96.9636907 C149.332344,107.025944 149.341136,117.088198 149.41147,127.148245 C149.426855,129.256043 148.829017,130.149926 146.565145,130.110198 C139.711986,129.991014 132.852233,130.008671 125.999073,130.099163 C123.939609,130.125648 123.306604,129.452477 123.328583,127.353507 C123.43848,117.732677 123.379136,108.111847 123.379136,98.4910168 C123.379136,94.5071676 123.368146,94.4255042 127.238708,94.0613297 C128.935514,93.90021 129.284985,92.8341717 129.342131,91.5716999 C129.419059,89.8788399 128.040954,90.2783283 127.062874,90.234186 C126.010063,90.1878365 124.952857,90.216529 123.897848,90.2209433 C120.422914,90.2319789 119.658033,90.9183927 119.651439,94.3592907 C119.622866,106.185032 119.625064,118.012981 119.653637,129.838723 C119.660231,132.930896 120.717437,134.049905 123.743993,134.067562 C132.093945,134.118326 140.443898,134.118326 148.79385,134.07639 C151.919313,134.063148 152.941352,132.924274 152.947946,129.69526 C152.961134,123.870674 152.952342,118.046088 152.950144,112.219295 M125.231994,112.08466 C125.231994,116.580561 125.306724,121.078669 125.196827,125.574569 C125.152869,127.404271 125.706748,128.046542 127.57719,128.015643 C133.368747,127.916322 139.166898,127.905287 144.960653,128.020057 C146.822303,128.057578 147.327828,127.483727 147.310245,125.645197 C147.222327,116.562904 147.279473,107.480611 147.253098,98.3961107 C147.2509,97.6655544 147.650924,96.6149659 146.708011,96.2971408 C145.736524,95.9682802 144.138625,95.7078402 143.705632,96.4339822 C142.648426,98.2107127 141.156028,97.6302405 139.78232,97.6677615 C137.151392,97.7405964 134.516069,97.6876256 131.880746,97.6854185 C130.85431,97.6854185 129.93997,97.8001886 129.157505,96.6635225 C128.451968,95.6372124 127.021113,96.038908 125.966104,96.3170049 C124.803397,96.6260015 125.25837,97.7847388 125.251776,98.5925442 C125.214411,103.088445 125.234192,107.586553 125.231994,112.08466 M95.2499723,104.750405 C95.2521702,87.3627246 95.2104095,69.9750441 95.2741496,52.5895707 C95.2961289,46.0940206 97.2478946,40.2606061 102.294352,35.9081681 C108.727706,30.3638861 116.176505,28.6908902 124.051704,31.886798 C131.849975,35.0473919 136.443657,41.2008386 137.07886,49.749009 C137.474488,55.1056859 137.221726,60.5087123 137.276674,65.8918747 C137.285466,66.9755699 136.885442,68.2932197 138.637196,68.5271743 C138.872375,68.558074 139.221846,69.0127404 139.226242,69.2775946 C139.283388,72.186577 139.287784,75.0977664 139.287784,78.0089559 C139.287784,78.5541142 138.88776,78.6909556 138.417402,78.7814474 C137.263487,79.0043664 137.412946,79.7636152 138.120681,80.1763464 C139.804299,81.1585142 139.573516,82.6130054 139.344931,84.1094318 C138.9515,86.6895535 139.808695,87.9189185 142.312142,88.0844524 C144.762839,88.243365 147.222327,88.2720575 149.675222,88.3647565 C153.009488,88.4905623 154.89092,90.2981924 154.90191,93.6618412 C154.941473,105.929007 154.945868,118.198379 154.888722,130.465544 C154.873337,133.873335 152.813872,135.811186 149.429053,135.817807 C140.727431,135.839878 132.025809,135.839878 123.324187,135.817807 C119.743752,135.808978 117.945842,134.089633 117.934852,130.525136 C117.899685,118.169686 117.899685,105.814236 117.939248,93.4565792 C117.950238,90.048788 119.556928,88.4993907 122.946143,88.3625494 C125.401235,88.2654362 127.860724,88.2477792 130.311421,88.0800382 C132.863222,87.9034687 133.647885,86.8131521 133.179725,84.244066 C133.094005,83.7717426 132.997296,83.387704 133.454467,83.1007786 C133.891856,82.829303 134.252317,82.9352447 134.61058,83.3016264 C135.113907,83.8136779 135.698558,84.2131664 136.465637,84.1579884 C137.63274,84.0741179 138.29212,83.0169081 137.604167,82.4298145 C136.423876,81.4233684 135.689766,79.4766898 134.874332,79.1654861 C132.751128,78.3510593 133.25885,76.9716102 133.219288,75.592161 C133.173131,74.0052427 133.190714,72.4139102 133.214892,70.8269919 C133.225881,70.2288628 132.918171,69.3504295 133.522603,69.0966109 C136.476626,67.851796 135.437003,65.2937455 135.386451,63.2322967 C135.256773,57.7851279 136.00407,52.3180951 134.790811,46.8885833 C132.680794,37.4575654 123.28902,30.8317953 112.367485,32.5886617 C103.564758,34.007839 97.0544764,43.3814718 97.1577793,51.7442443 C97.2962491,62.9519926 97.1885503,74.1619481 97.1885503,85.3719036 C97.1907483,108.052255 97.1907483,130.734813 97.1929462,153.417371 C97.1951441,166.567384 91.3882017,176.305191 79.429241,181.540476 C66.1075611,187.373891 50.4560709,182.40346 42.787478,168.993007 C40.0576436,164.219009 39.0663752,158.992553 39.0795628,153.534348 C39.0971463,147.091769 39.0246145,140.646983 39.1169277,134.20661 C39.1455008,132.266553 38.5762359,131.438884 36.5739177,131.657388 C35.2705426,131.798644 33.9385944,131.699324 32.6198339,131.67946 C32.0285895,131.672838 31.2483228,131.785401 31.175791,130.937868 C31.0878736,129.885072 31.9670474,129.944664 32.648407,129.94025 C36.6024908,129.922593 40.5565747,129.927007 44.5128565,129.927007 C45.7436997,129.927007 46.972345,129.922593 48.2031882,129.942457 C48.8339953,129.951286 49.5505219,130.017499 49.5197508,130.853997 C49.4889798,131.694909 48.7526718,131.675045 48.1328543,131.677252 C46.3767048,131.688288 44.6139614,131.750087 42.8622078,131.666217 C41.5038844,131.60221 40.9961615,132.089984 41.0115471,133.476054 C41.0994645,141.858691 40.578554,150.292091 41.3214558,158.612928 C42.1390874,167.779092 47.4427029,174.535082 55.4893404,178.874277 C69.6066726,186.486629 86.0516171,179.991079 92.5948676,166.770439 C94.5092684,162.896945 95.2807434,158.831433 95.2675557,154.527552 C95.2235971,137.934434 95.2499723,121.341316 95.2499723,104.750405" id="Fill-3"></path>
                        <path d="M272.374663,76.9366649 C275.268629,76.9366649 278.166986,76.8796475 281.060952,76.9564017 C282.964646,77.0090331 283.190806,76.2765793 282.323494,74.7963208 C281.491314,73.3774656 280.716223,71.9213298 279.842325,70.5287903 C276.502626,65.2042457 273.123405,59.9169816 274.377164,53.1384941 C274.629673,51.7678844 273.876539,50.1450825 275.698991,49.2503484 C276.138136,49.0376298 276.019567,48.305176 275.615553,47.8819317 C275.316935,47.5727221 269.691487,47.5573713 269.386281,47.8907036 C267.967842,49.4433303 270.39851,49.5266634 270.422663,50.5398181 C270.424859,50.6275371 270.455599,50.7152561 270.449012,50.8007822 C270.040607,55.4718201 271.634703,60.3336469 268.43114,64.7371419 C266.147586,67.8752899 264.524945,71.4893136 262.498291,74.8248294 C261.516801,76.4410524 261.86153,76.9783314 263.688374,76.9476298 C266.58234,76.8993843 269.478501,76.9344719 272.374663,76.9366649 M243.573334,40.8183574 C242.695044,40.8183574 241.816754,40.7898487 240.942855,40.8271293 C240.303899,40.855638 239.735206,41.0201112 239.678118,41.846863 C239.623224,42.653878 240.044804,42.9806313 240.762806,42.9674735 C241.597181,42.9521226 242.201006,43.2942268 242.209789,44.1231716 C242.233942,46.8293034 242.493037,49.5946456 242.020956,52.2218303 C241.742099,53.7722641 239.445371,53.2788446 238.18722,53.9981405 C237.96106,54.1275261 237.767837,54.3095431 237.546068,54.4477005 C232.25437,57.7590936 230.207954,63.9696004 232.337808,69.1866893 C234.454487,74.3730765 241.678423,78.4300813 247.139192,76.2327197 C251.651408,74.419129 255.136024,70.5375622 255.515884,65.9038049 C256.045054,59.4060183 252.136663,54.9893655 248.474193,53.9762108 C245.231107,53.0770908 244.578976,51.4257802 244.890769,48.5858769 C245.022513,47.3753543 244.903944,46.1363232 244.923705,44.9104498 C244.93688,43.910453 244.96762,42.9104561 246.40582,42.9740524 C247.178715,43.006947 247.486117,42.5968606 247.453181,41.8315121 C247.418049,40.9828306 246.842769,40.8490591 246.203813,40.8271293 C245.327719,40.7964277 244.449429,40.8205504 243.573334,40.8183574 M251.76339,76.9783314 C254.014008,76.9783314 256.264626,76.9871033 258.515245,76.9717525 C259.059785,76.9695595 259.534061,76.8028934 259.793157,76.2371057 C262.034992,71.3401913 265.451541,67.0792398 267.680202,62.2174129 C269.283082,58.7261958 269.922038,54.9082254 267.467217,51.2218335 C266.584535,49.8994692 266.867784,48.0639487 267.315712,46.6143918 C267.691181,45.3972904 269.166708,46.1034285 270.14161,46.0376393 C271.715945,45.9323764 273.310042,45.9060607 274.87779,46.0486041 C275.795603,46.1297442 277.319436,45.3051854 277.532422,46.7876369 C277.756386,48.3512285 278.40632,50.3753449 277.047166,51.5113063 C276.083243,52.3183213 276.225965,53.0420032 276.054698,53.9257723 C274.838267,60.1560159 278.61711,64.6735456 281.392507,69.5266005 C282.64407,71.7129971 284.115206,73.785359 285.237222,76.033159 C285.869591,77.2963129 286.802774,76.9651736 287.670085,76.9695595 C294.169432,77.0090331 300.670975,77.107717 307.16593,76.9629806 C313.665277,76.8204372 317.696629,81.412528 318.585897,84.8971662 C320.127297,90.9146911 317.600017,96.1559027 311.998722,98.7830874 C311.228022,99.1427354 310.3146,99.3357173 309.460463,99.357647 C304.722088,99.4672958 299.983713,99.5177343 295.245338,99.54405 C294.399983,99.5484359 293.291142,99.5725586 293.427277,98.2545803 C293.545846,97.1120401 294.575641,97.3773901 295.306818,97.3730042 C299.259123,97.3444955 303.209233,97.4080918 307.161539,97.3488814 C311.577142,97.2808992 314.697268,95.0418711 316.181578,91.015568 C318.131382,85.723918 314.126379,79.6581476 308.430668,79.3072715 C307.293282,79.2349033 306.147114,79.2765698 305.005336,79.2765698 C274.796548,79.2743769 244.587759,79.2743769 214.376775,79.2721839 C213.849801,79.2721839 213.31624,79.3248153 212.798049,79.256833 C211.864865,79.1296405 210.32127,79.7568315 210.398121,78.096749 C210.47058,76.568245 211.974652,77.0221909 212.929792,77.017805 C219.778259,76.9739455 226.628922,76.9914893 233.479585,76.9827174 C234.079018,76.9827174 234.680647,76.927893 235.681898,76.8752616 C233.951666,74.952022 232.414658,73.3182552 231.373884,71.2173846 C227.548931,63.5090755 231.136746,54.4718233 238.834959,51.895077 C240.244615,51.4213943 240.694738,50.5814846 240.481753,49.3621902 C240.211679,47.8205284 241.526918,45.879745 239.122599,44.8183448 C236.817087,43.8008042 238.220156,41.6012497 238.119153,39.9784478 C238.026932,38.4981893 239.56394,39.1319592 240.382945,39.1012576 C242.749937,39.0113456 245.125712,39.1231873 247.492704,39.0486261 C248.759637,39.0091526 249.28222,39.4762564 249.132911,40.7152876 C248.926512,42.4301945 249.956308,44.4345741 247.172128,45.3731677 C245.698796,45.8731661 246.732983,51.2525351 248.322688,51.8270947 C259.138831,55.7393631 259.971011,69.5858108 252.215709,75.8862296 C252.013702,76.0485098 251.748019,76.1384218 251.513077,76.2612284 C251.596514,76.5002628 251.679952,76.7392971 251.76339,76.9783314" id="Fill-7"></path>
                        <path d="M299.587426,115.213787 C299.587426,114.781254 299.589639,114.346526 299.591852,113.916189 C295.934344,113.916189 292.274624,113.903015 288.617117,113.94034 C288.349386,113.942536 287.964385,114.241137 287.849328,114.498022 C287.670103,114.89323 288.055104,115.194027 288.389214,115.196222 C292.121951,115.22257 295.854689,115.213787 299.587426,115.213787 M293.460604,145.754559 C299.293144,145.754559 305.125685,145.695278 310.958226,145.789688 C312.827913,145.820427 313.381075,145.179312 313.363374,143.361357 C313.281506,135.384748 313.285931,127.403749 313.356736,119.422749 C313.372225,117.690422 312.781448,117.16787 311.066645,117.176652 C299.403777,117.233738 287.738695,117.233738 276.073614,117.176652 C274.418553,117.16787 273.942834,117.769464 273.951684,119.31736 C273.99815,127.383988 274.000363,135.452812 273.951684,143.51944 C273.942834,145.168334 274.429616,145.827014 276.228499,145.791884 C281.970321,145.6843 287.716569,145.752363 293.460604,145.754559 M293.51592,147.682294 C287.154556,147.680098 280.79098,147.631795 274.429616,147.710837 C272.540015,147.734988 271.798778,147.216827 271.820904,145.188094 C271.922686,136.069775 271.931536,126.94926 271.818691,117.83094 C271.789927,115.644125 272.615245,115.128159 274.608841,115.213787 C277.609192,115.338936 280.616181,115.259895 283.620957,115.229156 C284.366619,115.220374 285.497283,115.411391 285.397713,114.241137 C285.180874,111.731568 286.762917,111.880869 288.422404,111.984062 C288.949014,112.016996 289.491113,111.929172 290.011085,112.001627 C292.013532,112.280468 292.978246,111.604224 292.765832,109.448146 C292.692815,108.719208 292.228158,107.395262 293.553535,107.344763 C294.898825,107.292069 294.542589,108.616015 294.482847,109.369105 C294.316898,111.419794 295.069199,112.30462 297.197766,112.012605 C298.15363,111.880869 299.140471,111.977475 300.111824,111.997236 C300.702601,112.008214 301.530132,111.861109 301.481453,112.772282 C301.333206,115.503606 303.167491,115.292829 304.990713,115.26209 C307.641466,115.218178 310.296644,115.338936 312.942971,115.215983 C314.834785,115.128159 315.370246,115.892227 315.359183,117.679444 C315.297229,126.883392 315.290591,136.091731 315.363608,145.297874 C315.379097,147.179502 314.640072,147.721815 312.867741,147.706446 C306.417871,147.647164 299.965789,147.682294 293.51592,147.682294" id="Fill-21"></path>
                        <path d="M76.0616869,140.578454 C76.0926269,139.334456 76.7158474,137.977366 74.7467359,137.400825 C73.3433849,136.990594 72.8859145,137.664703 72.2494341,138.596039 C70.1808725,141.629533 65.3895889,141.809148 62.8922871,139.028445 C62.2933766,138.360988 61.7673962,137.232297 60.5518953,138.105979 C59.6457946,138.757914 58.7131739,139.303411 59.2988244,140.826811 C59.6082246,141.631751 60.2800651,142.545347 59.7386147,143.578686 C58.6844439,145.585494 55.4666815,147.454818 53.2257398,147.124415 C52.0389689,146.947018 51.4024885,147.272986 50.9604881,148.332935 C50.5030178,149.426146 50.845568,150.000469 51.7958688,150.730016 C54.9782711,153.175882 54.9605911,157.850301 51.8886888,160.462476 C51.1328683,161.107759 50.4101977,161.655473 51.1969583,162.844035 C51.8356488,163.806416 52.3240592,164.476091 53.6876302,164.099122 C57.2103728,163.123436 60.8060455,166.482898 60.4016152,170.263678 C60.2889051,171.314758 60.0413849,172.257181 61.488936,172.798243 C62.9232271,173.332652 63.5597076,172.738371 64.2978481,171.713901 C66.3443096,168.868892 71.2328333,168.848935 73.453885,171.667335 C74.1699255,172.574278 74.7599959,173.15082 76.0837869,172.594236 C77.456198,172.017694 77.3280179,171.159535 77.1556377,170.039714 C76.6186073,166.582684 80.14356,162.566852 83.5756925,162.832948 C84.9945136,162.943821 85.8674643,162.664421 86.4310147,161.276287 C87.0674952,159.710755 85.6928741,159.435789 84.9702036,158.896945 C82.0994114,156.754872 81.8784113,152.107063 84.6475433,149.796463 C85.6111041,148.991522 86.2055945,148.184364 85.469664,146.862754 C84.7978235,145.65867 83.8983528,145.687497 82.788932,146.037857 C79.8297397,146.975845 75.8053267,143.696212 76.0616869,140.578454 M77.8606283,139.066142 C77.6484681,142.662873 80.0971499,144.933559 83.2751323,144.059877 C85.3901039,143.4789 86.4398547,144.110878 87.0630752,145.944723 C87.6354656,147.643303 89.0564966,149.237661 86.3094646,150.789888 C83.6530426,152.291112 84.121563,156.309162 86.7846149,157.91239 C87.8498357,158.555455 89.6730871,158.91025 88.5968163,160.693093 C87.6023156,162.340671 88.165866,165.606999 84.4177032,164.742187 C81.3679009,164.03925 78.5634088,167.305578 79.1910493,170.48099 C79.5137095,172.104176 79.5335995,173.518919 77.515868,173.977935 C75.8428968,174.357122 74.3113656,176.60785 72.5323143,173.656402 C70.4394427,170.188285 67.2548303,170.447728 65.0426187,173.971282 C64.118838,175.44368 63.3585974,175.456985 61.6502661,174.884879 C59.0093142,174.002327 58.0037634,172.977857 58.6247739,170.081846 C59.1374943,167.6892 56.6203024,165.658 53.9638804,165.864225 C51.0422582,166.090406 48.9714866,164.331955 48.6797664,161.415987 C48.5781063,160.402605 49.3029869,160.094377 49.9527274,159.624274 C53.47326,157.069753 53.49094,154.07839 49.7692972,151.723441 C47.6233856,150.366351 48.9913767,148.924998 49.3250869,147.612258 C49.6389071,146.374912 49.9438874,144.791641 52.0500189,145.153088 C53.5926001,145.414749 55.2235813,146.028987 56.5937823,144.210664 C57.488833,143.026537 57.9153633,142.1839 57.457893,140.680458 C57.1131327,139.545115 56.156202,137.937452 58.3706237,137.1946 C60.3552052,136.531578 62.0988965,134.309677 64.127678,137.442957 C65.7365592,139.930954 69.449362,139.54955 71.1179132,137.139164 C71.7477637,136.227785 71.6748336,134.07019 73.6947751,135.174488 C75.4671965,136.145739 79.1578992,135.389583 77.8606283,139.066142" id="Fill-25"></path>
                        <path d="M187.344727,50.261149 C186.908291,50.261149 186.469661,50.294048 186.03761,50.2545692 C184.460736,50.1163931 183.57251,50.5769798 183.631725,52.4039738 C183.684361,54.0533129 184.065969,55.1411748 185.982782,55.020545 C186.765736,54.972293 187.557463,54.9547469 188.336031,55.029318 C190.167311,55.2047796 190.660769,54.3888832 190.785779,52.6057546 C191.000707,49.5505295 188.94134,50.3620394 187.344727,50.261149 M187.3535,94.9139338 C196.786236,94.8766482 204.688153,87.0028088 204.703505,77.6265793 C204.716664,68.0924344 196.746759,60.1769228 187.191207,60.2383344 C177.607144,60.299746 169.942087,67.9849642 169.946473,77.5322687 C169.950859,87.2221358 177.692677,94.9534127 187.3535,94.9139338 M168.242396,77.5037562 C167.819118,68.5091557 175.003876,60.0628728 184.120798,58.667953 C184.897173,58.5495165 186.202097,58.8127089 186.232801,57.61957 C186.265698,56.2597425 184.956388,56.8541187 184.201944,56.6830437 C181.903524,56.1654319 181.925455,54.4042361 181.90791,52.5860152 C181.890365,50.6690972 181.822377,48.6907676 184.329147,48.3902896 C186.230608,48.1621895 188.197863,48.0722655 190.09055,48.295979 C192.636797,48.5986503 192.728909,50.6340049 192.685046,52.673746 C192.641183,54.6257564 192.474504,56.4132714 189.980893,56.7005898 C189.276892,56.7817408 188.18909,56.3913387 188.237339,57.6568556 C188.27243,58.6218944 189.224256,58.4771386 189.873429,58.5802222 C198.580232,59.9707555 203.953448,65.3004017 206.122473,73.490072 C208.107273,80.9976354 205.175032,88.6433748 197.920094,93.4466362 C186.787667,100.816024 172.72958,95.4710244 168.7534,82.708386 C168.227044,81.0129883 168.345474,79.2452126 168.242396,77.5037562" id="Fill-27"></path>
                        <path d="M251.533104,26.3456833 C251.533104,23.4446861 251.572176,20.5392901 251.52008,17.6404923 C251.474496,15.0298147 249.690213,13.2021204 247.361094,13.2527064 C244.962513,13.3032924 243.562437,14.7856822 243.525536,17.5855075 C243.460416,22.5099448 243.525536,27.4365815 243.482123,32.3610188 C243.47344,33.1308058 243.946644,34.4196491 242.646418,34.4702351 C241.107419,34.5296187 241.665279,33.1066125 241.656597,32.2994358 C241.60233,27.3749985 241.574112,22.4483618 241.654426,17.5239245 C241.708693,14.3875924 243.293275,12.3245633 245.865508,11.671344 C248.470302,11.0093272 250.953538,11.996854 252.420905,14.1852484 C253.158929,15.2871435 253.163271,16.4968087 253.163271,17.7284679 C253.169783,23.0927835 253.156759,28.4570991 253.171953,33.823614 C253.180636,36.6300375 254.780413,38.6666739 256.883784,38.6248854 C258.989325,38.5852964 260.367695,36.8037894 260.413279,33.9445806 C260.456692,31.2173353 260.369865,28.4900899 260.445839,25.765044 C260.556542,21.8391304 263.172189,19.0063143 266.586639,18.9887192 C270.016283,18.9689247 272.664489,21.8743207 272.705732,25.8244276 C272.753487,30.6608892 272.729609,35.4973509 272.710073,40.3360119 C272.705732,41.0706087 272.968382,42.1988964 271.874369,42.2032952 C270.752137,42.2098934 271.049518,41.0706087 271.045176,40.3448095 C271.019128,35.5963235 271.071224,30.8456381 271.010446,26.0971521 C270.971374,23.0465963 269.57998,21.3662613 267.085891,21.0913373 C264.465903,20.8010177 262.449359,22.3977758 262.349508,25.0722357 C262.230122,28.3229362 262.373386,31.5824342 262.267023,34.8331347 C262.182367,37.4262171 260.328623,39.695989 258.110207,40.2260424 C255.804965,40.7780896 253.519259,39.7025872 252.134377,37.5625794 C251.559152,36.6740253 251.546128,35.7480815 251.539616,34.7891469 C251.524422,31.9761253 251.533104,29.1609043 251.533104,26.3456833" id="Fill-37"></path>
                        <path d="M170.804298,106.351268 C169.501201,108.992704 168.458723,111.054743 167.462626,113.143218 C166.654264,114.841756 167.237345,115.5996 169.114689,115.49826 C170.342692,115.432169 171.575113,115.429966 172.800908,115.493854 C174.678252,115.592991 174.932245,114.654499 174.25861,113.231339 C173.262514,111.120834 172.171446,109.058795 170.804298,106.351268 M170.773377,102.755919 C177.386044,111.438071 177.19831,120.986015 175.404894,130.749856 C175.062555,130.782901 174.720216,130.815947 174.380086,130.848992 C174.380086,127.187552 174.386711,123.523908 174.375668,119.860265 C174.371251,119.018706 174.629662,117.956845 173.293435,117.875332 C171.815855,117.785008 172.182489,118.987864 172.167029,119.756722 C172.096352,123.186844 172.136108,126.619169 172.072057,130.049291 C172.045553,131.50109 172.356972,133.034401 170.987615,134.21082 C169.98931,135.070003 171.360875,135.506204 171.528732,136.175925 C171.685545,136.794978 172.53808,137.524182 171.625912,137.984615 C170.844054,138.381161 170.461959,137.422842 170.055569,136.894114 C169.529913,136.213377 169.706604,135.378428 169.702187,134.596351 C169.688935,129.668167 169.695561,124.742186 169.64918,119.814001 C169.642554,119.053955 170.130663,117.888551 168.619954,117.892957 C167.188755,117.897363 167.506799,119.005488 167.502382,119.811798 C167.47367,124.211255 167.480295,128.610711 167.486921,133.010167 C167.486921,134.124902 167.442749,135.349788 165.951917,135.222012 C164.591395,135.107455 165.205397,133.834102 165.194354,133.093883 C165.136929,128.256023 165.50798,123.385117 165.07067,118.584709 C164.628942,113.731428 166.948013,109.970851 168.942415,106.027422 C169.503409,104.919297 169.627093,103.447671 170.773377,102.755919" id="Fill-39"></path>
                        <path d="M399.722133,53.6903691 C404.304494,53.6903691 408.886855,53.6805731 413.471422,53.7021243 C414.192863,53.7060427 415.22097,53.421959 415.287158,54.5132321 C415.353345,55.6084236 414.318618,55.473239 413.588353,55.4751982 C404.333175,55.5006678 395.080204,55.4967494 385.822821,55.5065454 C384.997687,55.5065454 384.055622,55.4967494 384.124016,54.5367425 C384.190203,53.5845724 385.165361,53.6923283 385.972845,53.6942875 C390.555206,53.7040835 395.137566,53.6982059 399.722133,53.6982059 L399.722133,53.6903691 Z" id="Fill-59"></path>
                        <path d="M399.786064,50.0379027 C404.358404,50.0357878 408.930743,50.0188686 413.505286,50.0548219 C414.188383,50.0590517 415.281337,49.6762549 415.290151,50.9071261 C415.296762,52.125308 414.212622,51.7953837 413.5141,51.7974986 C404.367218,51.8207625 395.222539,51.8165327 386.075657,51.8080731 C385.238313,51.8059582 384.032978,52.0322524 384.125527,50.7760024 C384.20265,49.7291274 385.328658,50.0505921 386.064639,50.0484772 C390.641386,50.031558 395.213725,50.0400176 399.786064,50.0379027" id="Fill-63"></path>
                        <path d="M387.518542,106.057319 L393.550346,106.057319 C392.672426,104.036398 391.981676,101.446328 390.310507,101.25513 C389.191939,101.128405 388.055544,103.936352 387.447239,105.743843 C387.422728,105.814986 387.48289,105.912809 387.518542,106.057319 M396.955074,107.922614 C395.774115,107.922614 395.161353,107.960409 394.553048,107.913721 C392.514222,107.758094 390.704903,107.809229 391.219623,110.712775 C391.304296,111.188547 391.277557,111.8155 390.531102,111.917769 C389.806929,112.015591 389.492749,111.537595 389.593019,110.979563 C390.214694,107.484636 387.875058,107.827015 385.698082,107.915944 C385.265806,107.93373 384.831303,107.878149 384.120499,107.842577 C385.680256,104.21648 387.810439,101.135075 389.639812,97.9002671 C390.265943,96.7930957 390.822999,97.2555287 391.326578,98.144823 C393.091332,101.2618 394.898422,104.354321 396.955074,107.922614" id="Fill-69"></path>
                        <path d="M400.09983,68.3761134 C404.593547,68.3743857 409.08506,68.3622919 413.578777,68.3882072 C414.264521,68.3933902 415.389052,68.0910458 415.283214,69.1276553 C415.199425,69.9603983 414.218216,69.6822414 413.605236,69.683969 C404.355411,69.7047012 395.101176,69.7064289 385.851351,69.6856967 C385.170017,69.683969 384.023436,69.9794028 384.127069,68.9566147 C384.206448,68.1670638 385.170017,68.3847518 385.824892,68.3830241 C390.58541,68.3709303 395.341517,68.3761134 400.09983,68.3761134" id="Fill-85"></path>
                        <path d="M399.679114,66.0250674 C395.083601,66.0250674 390.488087,66.0320396 385.892574,66.0163521 C385.156142,66.014609 384.057022,66.2202906 384.123368,65.2703206 C384.176444,64.4929141 385.189314,64.7142832 385.830652,64.7125401 C395.112351,64.6968526 404.391838,64.6968526 413.671325,64.7142832 C414.288336,64.7160263 415.296783,64.463282 415.290149,65.3278418 C415.27688,66.3283605 414.160068,66.0076367 413.465655,66.0111229 C408.870141,66.0390119 404.274628,66.0250674 399.679114,66.0250674" id="Fill-89"></path>
                        <path d="M395.754708,79.8240179 C398.910448,79.8240179 402.06838,79.8082604 405.22412,79.8345228 C405.996059,79.8397753 406.950018,79.7399782 407.033353,81.0688551 C407.129845,82.6787396 406.048692,82.5553064 405.199997,82.5579326 C398.886324,82.5789425 392.572652,82.5710638 386.258979,82.5658113 C385.44318,82.5658113 384.56159,82.5421752 384.579134,81.1975408 C384.598871,79.8896738 385.46511,79.8266441 386.285295,79.8266441 C389.441035,79.8213916 392.598968,79.8240179 395.754708,79.8240179" id="Fill-91"></path>
                        <path d="M157.141831,48.8933884 C156.546198,47.7953198 155.833686,46.797854 154.846958,46.859928 C154.15018,46.9048782 153.096022,47.8959226 152.970152,48.5894396 C152.788091,49.589046 153.968118,50.4109921 154.837968,50.6057762 C156.087673,50.8861797 156.141617,49.3000805 157.141831,48.8933884 M154.831225,53.2128865 C153.453402,51.9178933 151.893517,50.6764122 150.641564,49.1994778 C149.724514,48.1099711 151.194491,47.6069572 151.787877,47.009762 C154.813243,43.9745547 157.126098,44.2999084 159.279368,48.0072278 C159.405237,48.2212763 159.50863,48.4781344 159.515373,48.7157282 C159.533354,49.3279068 155.554975,53.1979031 154.831225,53.2128865" id="Fill-97"></path>
                        <path d="M389.349862,130.199461 C389.873107,132.162275 389.566876,133.138048 387.071214,133.023118 C384.893839,132.92171 383.384386,133.023118 383.705085,130.251292 C383.919687,128.383126 383.7726,127.035522 386.562437,127.069325 C389.294403,127.103128 390.111822,127.972985 389.349862,130.199461" id="Fill-121"></path>
                        <path d="M236.522885,33.2820628 C236.335954,35.045125 235.486482,36.2579467 233.520155,36.2396054 C231.560927,36.2189714 230.531623,34.976345 230.56475,33.2362094 C230.600243,31.5396346 231.568026,30.2649108 233.560381,30.2763742 C235.555102,30.2878375 236.307559,31.5602686 236.522885,33.2820628" id="Fill-127"></path>
                        <path d="M203.059789,60.3399306 C202.996834,61.0662251 202.727648,61.6622723 202.22401,62.2119602 C201.846281,62.6225705 201.555387,63.0751248 200.967086,62.7152889 C200.448252,62.3973971 200.274583,61.8300485 200.700071,61.3819093 C201.852794,60.163324 200.652312,59.8056957 200.031448,59.1654969 C199.262966,58.3685598 198.555267,57.9667798 197.67173,58.9977207 C197.426423,59.2824988 197.074745,59.8123185 196.657941,59.2692533 C196.390926,58.9182477 195.932876,58.562827 196.360534,57.90276 C196.701358,57.379563 196.977057,56.867404 197.554504,56.5892486 C199.319408,55.7393295 203.148794,58.346484 203.059789,60.3399306" id="Fill-147"></path>
                        <path d="M199.502563,122.481385 C199.36839,122.375368 198.987509,122.158725 199.011314,122.080365 C199.584799,120.137491 197.987697,119.552094 197.119895,118.480402 C196.59402,117.828168 196.412236,116.883235 197.052808,116.221782 C197.702037,115.553415 198.31664,114.546256 199.364061,114.698367 C200.050079,114.797469 200.824825,115.592596 199.991649,116.203345 C198.271194,117.461719 199.556666,117.871958 200.331412,118.593333 C200.997953,119.215606 201.538977,120.013037 201.021758,120.994845 C200.699308,121.605594 200.381186,122.324665 199.502563,122.481385" id="Fill-161"></path>
                        <path d="M197.482861,106.884329 C197.348899,106.766705 197.006047,106.592448 196.872085,106.322348 C196.547397,105.662348 196.524691,104.956604 197.099139,104.394623 C197.97784,103.536405 199.492293,103.107295 199.058619,101.416996 C198.970068,101.075016 199.421906,100.852837 199.826063,100.939966 C200.491333,101.083729 200.927277,101.515016 201.19066,102.094423 C201.588006,102.965711 198.693061,106.914824 197.482861,106.884329" id="Fill-171"></path>
                        <path d="M256.06983,135.780108 C255.212017,135.700425 253.919897,136.080625 253.941504,134.375418 C253.963112,132.638338 255.291965,133.102774 256.234046,133.061794 C257.240949,133.018538 258.556837,132.829576 258.524426,134.430058 C258.496337,135.985006 257.199895,135.768725 256.06983,135.780108" id="Fill-181"></path>
                        <path d="M266.143515,135.77719 C265.18708,135.797713 264.038504,135.866123 264.025695,134.484237 C264.008616,132.641723 265.460347,133.095511 266.493638,133.054464 C267.415914,133.017979 268.607188,132.869757 268.609323,134.308651 C268.609323,136.110119 267.202424,135.724742 266.143515,135.77719" id="Fill-183"></path>
                        <path d="M328.774307,135.784607 C327.782472,135.723366 326.467965,136.040912 326.370514,134.496276 C326.268732,132.881326 327.574576,133.019685 328.58157,133.071854 C329.510604,133.119486 330.853263,132.597802 330.944217,134.298944 C331.033006,135.959257 329.781301,135.736975 328.774307,135.784607" id="Fill-187"></path>
                        <path d="M289.045153,100.003528 C287.965203,99.8171572 286.545228,100.323381 286.487488,98.5981916 C286.436163,97.024114 287.772736,97.2331515 288.651666,97.2961146 C289.566952,97.3615962 291.008312,96.7949283 291.06819,98.6107842 C291.123792,100.280566 289.750864,99.7315274 289.045153,100.003528" id="Fill-204"></path>
                        <path d="M339.687251,135.777553 C338.64218,135.752502 337.384436,136.039457 337.366142,134.374659 C337.350134,132.857893 338.491251,133.012758 339.45857,133.060584 C340.453331,133.106132 341.84371,132.650647 341.94433,134.292671 C342.042662,135.884592 340.784918,135.795773 339.687251,135.777553" id="Fill-214"></path>
                        <path d="M277.814889,100.003528 C276.828103,99.6948022 275.33395,100.352089 275.49734,98.4574094 C275.64568,96.7320306 277.077487,97.3743794 277.96108,97.342013 C278.769427,97.3096466 280.106641,96.936188 280.067943,98.6018134 C280.022796,100.451678 278.558741,99.6201105 277.814889,100.003528" id="Fill-218"></path>
                        <path d="M267.641383,100.003528 C266.75282,99.8254398 265.382858,100.273205 265.400854,98.6398809 C265.42335,96.785219 266.917035,97.3398366 267.868585,97.2965866 C268.772895,97.2533366 270.100115,97.0472631 269.976391,98.7441897 C269.859416,100.354616 268.55694,99.8559692 267.641383,100.003528" id="Fill-222"></path>
                        <path d="M246.632384,97.2511373 C247.414824,97.6162654 248.846333,96.7455755 248.897458,98.5252554 C248.955252,100.521969 247.457058,99.8964004 246.523465,99.9551273 C245.609878,100.011301 244.276174,100.238548 244.316185,98.5839823 C244.356196,96.9294162 245.714351,97.4502981 246.632384,97.2511373" id="Fill-236"></path>
                        <path d="M220.063,118.811531 C221.785047,119.045168 221.292712,120.80643 221.740085,121.913958 C222.135751,122.888943 221.456824,123.506732 220.485643,123.383174 C218.788326,123.165263 219.073835,121.572489 218.738867,120.476193 C218.469095,119.600055 218.752356,118.874433 220.063,118.811531" id="Fill-238"></path>
                        <path d="M235.214176,135.701584 C234.530816,135.26849 232.815584,135.680458 232.856586,134.09808 C232.897587,132.57697 234.161802,133.090345 235.098004,133.221329 C236.095709,133.362877 237.530764,132.993162 237.435094,134.605117 C237.369036,135.712148 236.501169,135.933976 235.214176,135.701584" id="Fill-240"></path>
                        <path d="M245.270452,133.032216 C246.28277,133.112041 247.514655,132.776777 247.5239,134.32994 C247.533145,136.006263 246.234234,135.746262 245.171069,135.775911 C244.140261,135.80556 242.968468,135.83749 242.940733,134.446257 C242.908376,132.790461 244.283557,133.100637 245.270452,133.032216" id="Fill-242"></path>
                        <path d="M220.816878,112.848018 C219.423746,112.731726 218.901889,112.309881 219.174162,111.386384 C219.539462,110.152773 219.612069,108.536083 221.164027,108.273855 C221.97631,108.139321 222.520856,109.058258 222.237238,110.043322 C221.905972,111.183442 221.978579,112.622274 220.816878,112.848018" id="Fill-244"></path>
                        <path d="M235.950515,99.9526116 C234.749059,100.106095 233.730433,99.9752567 233.773964,98.6744205 C233.832731,96.8376499 235.286667,97.4289391 236.194289,97.3635199 C237.021378,97.3006168 238.429607,96.8099725 238.353427,98.5284853 C238.264189,100.473449 236.61001,99.5500317 235.950515,99.9526116" id="Fill-260"></path>
                        <path d="M256.952712,100.003528 C256.09099,99.8430904 254.860286,100.273471 254.857995,98.7123875 C254.855703,96.687818 256.386634,97.3779543 257.333153,97.3168352 C258.160498,97.263356 259.457664,97.0596257 259.441622,98.5341235 C259.423287,100.421175 257.919857,99.7997978 256.952712,100.003528" id="Fill-262"></path>
                        <path d="M319.262484,135.760378 C318.104324,135.769441 317.149819,135.760378 317.19919,134.294523 C317.24239,132.969135 318.159866,133.066557 318.982715,133.037104 C319.943392,133.005385 320.930811,133.089213 320.860868,134.4871 C320.803269,135.640301 319.961906,135.869128 319.262484,135.760378" id="Fill-266"></path>
                        <path d="M225.119941,127.986167 C226.514063,128.476476 227.710403,129.31582 228.224154,130.541595 C228.499119,131.196034 227.534329,131.831775 226.776968,131.611551 C225.339431,131.193956 224.106912,130.346302 223.71376,129.022881 C223.53045,128.403761 224.372229,128.133675 225.119941,127.986167" id="Fill-270"></path>
                        <path d="M226.509547,104.106633 C225.368715,104.263052 225.053511,103.671195 225.063679,103.100476 C225.094183,101.356612 226.769844,101.291085 227.754092,100.589312 C228.451606,100.094688 228.740373,101.176941 228.730205,101.567989 C228.6875,103.233644 226.763743,103.013811 226.509547,104.106633" id="Fill-274"></path>
                        <path d="M282.803805,19.6062442 C282.269272,20.2505888 281.891187,21.3293778 280.915556,21.5466001 C280.346256,21.6735164 279.955134,20.8949334 280.098546,20.4287598 C280.39406,19.4598022 280.837331,18.4249458 281.943337,18.3517248 C282.499599,18.3151143 282.903758,18.6861006 282.803805,19.6062442" id="Fill-296"></path>
                        <path d="M201.685381,108.453539 C201.274969,109.123909 201.034962,110.112979 199.856528,110.095396 C199.254111,110.084406 198.733295,109.488766 199.014104,108.972252 C199.369314,108.317267 199.635722,107.405125 200.684552,107.345781 C201.378172,107.306218 201.704582,107.730419 201.685381,108.453539" id="Fill-298"></path>
                        <path d="M286.142199,17.4318076 C285.290731,17.3221188 285.001101,16.746862 285.147005,16.193543 C285.399614,15.2575319 285.883057,14.3605213 286.869541,14.2313323 C287.38347,14.165519 288.01935,14.3946467 287.825537,15.2039063 C287.57075,16.2739814 286.73888,16.8370506 286.142199,17.4318076" id="Fill-312"></path>
                        <path d="M386.737554,94.0400149 C386.057447,93.1328109 384.551496,93.4194151 384.579255,92.0631226 C384.590822,91.5440755 385.002587,91.185256 385.495318,91.3138894 C386.427573,91.5531024 387.588845,91.6433715 387.778534,92.8620037 C387.887259,93.5683591 386.978136,93.453266 386.737554,94.0400149" id="Fill-322"></path>
                        <path d="M282.817308,15.9498887 C282.84991,16.6333063 282.41521,17.0832584 281.90661,16.9495462 C280.961136,16.703346 280.33082,15.9647456 280.089561,15.0308829 C279.961324,14.5363602 280.452536,14.1946513 280.83942,14.2222427 C281.926171,14.2986497 282.278279,15.266471 282.817308,15.9498887" id="Fill-328"></path>
                        <path d="M174.875562,134.408412 C176.39733,135.073655 175.952635,136.617814 175.967853,138.078266 C174.468066,136.94603 174.462993,136.93061 174.875562,134.408412" id="Fill-338"></path>
                        <path d="M285.849917,18.3492712 C286.983563,18.478453 287.400536,19.3848432 287.791448,20.1641693 C288.065087,20.708427 287.48089,21.21033 286.950987,21.0811482 C285.997595,20.8460797 285.350418,20.1387565 285.131073,19.1815407 C285.0138,18.6754022 285.428601,18.4636288 285.849917,18.3492712" id="Fill-344"></path>
                        <path d="M139.447552,121.545518 C138.248101,121.545518 137.04865,121.547453 135.851345,121.545518 C135.287024,121.545518 134.857882,121.39457 134.776345,120.802387 C134.673351,120.066997 135.181884,119.799934 135.829888,119.788323 C138.312472,119.738007 140.795056,119.716719 143.27764,119.736071 C143.919207,119.741877 144.481382,120.086349 144.376243,120.750136 C144.279686,121.369411 143.738967,121.580352 143.043758,121.562935 C141.846453,121.530036 140.647002,121.553259 139.447552,121.553259 L139.447552,121.545518 Z" id="Fill-383"></path>
                        <path d="M139.78394,104.12292 C138.457124,104.12292 137.12807,104.117722 135.799017,104.124653 C135.199377,104.128118 134.767546,104.012027 134.763071,103.457559 C134.758596,102.899627 135.219514,102.766208 135.799017,102.764475 C138.454886,102.755812 141.112993,102.750614 143.768862,102.764475 C144.321516,102.767941 144.851795,102.90829 144.84732,103.448896 C144.845082,103.984303 144.343891,104.12292 143.768862,104.126385 C142.442046,104.136782 141.112993,104.129851 139.78394,104.129851 L139.78394,104.12292 Z" id="Fill-385"></path>
                        <path d="M139.720443,111.478779 C141.010718,111.476921 142.300993,111.462058 143.591268,111.482494 C144.094842,111.491783 144.356355,111.802042 144.386613,112.205192 C144.425516,112.691944 143.975973,112.836855 143.550204,112.840571 C140.883203,112.855434 138.216203,112.846144 135.549203,112.829424 C135.075886,112.825708 134.736567,112.617631 134.764664,112.153172 C134.790599,111.712866 135.101821,111.488068 135.590267,111.484352 C136.966992,111.473205 138.343718,111.478779 139.720443,111.478779" id="Fill-387"></path>
                        <path d="M133.846284,110.430762 C132.681335,111.960362 131.713715,113.674731 130.3134,114.914316 C129.421858,115.700166 128.808477,114.243069 128.199851,113.658359 C127.574583,113.061955 127.993013,112.058593 128.535071,112.147469 C130.548767,112.477246 131.005236,110.945306 131.801681,109.827341 C132.108371,109.394656 132.47212,109.04383 132.902438,109.228598 C133.256677,109.382962 133.44925,109.897506 133.846284,110.430762" id="Fill-389"></path>
                        <path d="M129.759451,123.398849 C128.653311,123.160028 128.103413,122.473153 127.910949,121.680606 C127.79674,121.198737 128.090723,120.52243 128.940949,120.621763 C130.222634,120.769705 130.556802,119.626323 131.142654,118.884499 C131.599492,118.305411 132.130355,118.197624 132.642182,118.569593 C133.134975,118.928882 132.904441,119.619983 132.614687,119.909527 C131.519122,120.993732 131.089779,122.663365 129.759451,123.398849" id="Fill-391"></path>
                        <path d="M132.917212,102.845069 C132.238144,104.19282 131.379261,105.744083 129.978816,106.742955 C129.255323,107.260042 128.464135,106.240404 128.066425,105.613253 C127.62006,104.91342 128.045271,104.325726 128.931655,104.352722 C130.321523,104.392179 130.604997,103.162798 131.241755,102.404818 C131.626772,101.947953 131.963133,101.765207 132.477193,101.864887 C132.857979,101.93757 132.970099,102.255298 132.917212,102.845069" id="Fill-393"></path>
                        <path d="M186.693186,79.3605979 C186.080223,79.3389935 185.115771,78.9781992 184.80286,77.6365628 C184.483519,76.2625198 185.205787,74.7069993 186.157379,74.7091598 C189.130035,74.7134807 190.246656,72.3197076 192.070541,70.8246796 C192.638497,70.3580235 193.110006,69.0898423 194.072315,70.1203746 C194.84602,70.947825 193.815128,71.5419474 193.386483,72.030208 C191.751201,73.8968325 189.423657,75.2125435 189.335784,78.1961181 C189.310066,79.0602961 188.182728,79.3411539 186.693186,79.3605979" id="Fill-449"></path>
                        <path d="M192.518627,66.025679 C192.809694,65.3154207 193.0638,64.6189539 194.001682,64.6856124 C194.863332,64.7453753 195.433915,65.2050893 195.22601,66.0509632 C195.071237,66.6853687 194.764,67.5105554 193.837668,67.4278069 C193.022219,67.3542526 192.64337,66.7589229 192.518627,66.025679" id="Fill-451"></path>
                        <path d="M198.105644,69.7275005 C198.913375,69.713327 199.367287,70.2590095 199.392892,70.9322542 C199.432464,71.9409401 198.627061,72.4653623 197.786742,72.4795359 C197.104711,72.4889849 196.676404,71.7118007 196.646143,71.0763522 C196.601916,70.1857794 197.256015,69.7794703 198.105644,69.7275005" id="Fill-453"></path>
                    </g>
                </g>
            </g>
        </g>
    </g>
</svg>