<?xml version="1.0" encoding="utf-8"?>
<!-- Generator: Adobe Illustrator 21.0.0, SVG Export Plug-In . SVG Version: 6.00 Build 0)  -->
<svg version="1.1" id="Layer_1" xmlns="http://www.w3.org/2000/svg" xmlns:xlink="http://www.w3.org/1999/xlink" x="0px" y="0px"
	 viewBox="0 0 19 19" style="enable-background:new 0 0 19 19;" xml:space="preserve">
<style type="text/css">
	.st0{display:none;}
	.st1{display:inline;fill:none;stroke:#000000;stroke-miterlimit:10;}
</style>
<g id="Print_-_Grey">
	<path d="M19,8.6c0-0.8-0.8-1.4-1.8-1.4h-0.4V5.8c0-0.6-0.4-1-0.9-1.2V3.9l-4-3.9H3.1v4.7C2.6,4.8,2.2,5.3,2.2,5.8v1.4H1.8
		C0.8,7.2,0,7.8,0,8.6c0,0.1,0,5.5,0,5.5c0,1,0.8,1.8,1.8,1.8h1.3V19h12.8v-3.1h1.3c1,0,1.8-0.8,1.8-1.8C19,14.1,19,8.7,19,8.6z
		 M14.5,3.8h-2.6V1.2L14.5,3.8z M11,1.2v3.5h3.7v2.5H4.3v-6H11z M14.7,17.8H4.3v-4.9h10.4V17.8z M17.2,14.4h-1.3v-2.6H3.1v2.6H1.8
		c-0.2,0-0.3-0.1-0.3-0.3V10h16v4.1C17.5,14.2,17.4,14.4,17.2,14.4z"/>
	<g class="st0">
		<line class="st1" x1="4.8" y1="11.9" x2="9.8" y2="16.9"/>
		<line class="st1" x1="14.2" y1="11.9" x2="9.2" y2="16.9"/>
		<line class="st1" x1="9.5" y1="0.3" x2="9.5" y2="16.7"/>
		<line class="st1" x1="4.2" y1="18.3" x2="14.8" y2="18.3"/>
	</g>
</g>
</svg>
