<?xml version="1.0" encoding="UTF-8"?>
<svg width="24px" height="24px" viewBox="0 0 24 24" version="1.1" xmlns="http://www.w3.org/2000/svg" xmlns:xlink="http://www.w3.org/1999/xlink">
    <!-- Generator: sketchtool 50 (54983) - http://www.bohemiancoding.com/sketch -->
    <title>86B839BF-9296-4408-B5B3-F8C0B9759809</title>
    <desc>Created with sketchtool.</desc>
    <defs></defs>
    <g id="Home.Desktop" stroke="none" stroke-width="1" fill="none" fill-rule="evenodd">
        <g id="job-owners" transform="translate(-328.000000, -709.000000)" fill="#4E5665" fill-rule="nonzero">
            <g id="icon-מכרזים" transform="translate(328.000000, 709.000000)">
                <path d="M24,12.524202 C24,12.4223348 23.9586667,12.3226009 23.8866667,12.2506005 C23.8146667,12.1786001 23.7149333,12.1372665 23.6130667,12.1372665 L18.6418667,12.1372665 L18.6418667,8.97351533 L18.6901333,8.94071515 C19.2677333,8.54657959 19.948,8.33031171 20.6472,8.31804497 C21.4469333,8.30417823 22.2274667,8.07031024 22.9032,7.64230783 L23.82,7.06150456 C24.0005333,6.94710391 24.0541333,6.70790257 23.94,6.52736822 C23.8256,6.34683387 23.5864,6.2929669 23.4058667,6.40736754 L22.4890667,6.98817081 C21.9333333,7.3401728 21.2914667,7.53244055 20.6338667,7.54364061 C19.7837333,7.55830736 18.9562667,7.82150884 18.2538667,8.30071154 L14.4050667,10.926593 C14.1786667,11.0807272 13.9248,11.1535276 13.6712,11.1537943 C13.2496,11.1532609 12.8384,10.9519265 12.5864,10.5759244 L12.5570667,10.5332575 C12.4069333,10.3092562 12.336,10.0585881 12.3357333,9.8081867 C12.3362667,9.39005101 12.5346667,8.98178205 12.9056,8.72898062 L13.9762667,7.99857651 L13.9768,7.99830984 L15.7506667,6.78816969 C15.9272,6.66763567 15.9728,6.42683432 15.8522667,6.25029999 C15.7317333,6.07376566 15.4909333,6.0281654 15.3144,6.14869942 L13.6405333,7.29057252 L8.75146667,7.29057252 L11.0024,4.71055798 C11.9144,3.66521876 13.2338667,3.06548204 14.6210667,3.06548204 L17.7941333,3.06548204 C18.5341333,3.06548204 19.2528,2.81908066 19.8376,2.3654781 L21.9922667,0.692935342 C22.1610667,0.561734603 22.1917333,0.318799901 22.0608,0.149732281 C21.9296,-0.0190686697 21.6866667,-0.0497355091 21.5176,0.081198562 L19.3629333,1.75374132 C18.9141333,2.10200995 18.3624,2.29107768 17.7944,2.29107768 L14.6210667,2.29107768 C13.0101333,2.29107768 11.4778667,2.98761494 10.4189333,4.20148844 L7.72373333,7.29030585 L5.7384,7.29030585 C5.63653333,7.29030585 5.5368,7.33163941 5.46453333,7.40363982 C5.39253333,7.47564023 5.3512,7.57537412 5.3512,7.67724136 L5.3512,12.1369998 L0.386933333,12.1369998 C0.285066667,12.1369998 0.185333333,12.1783334 0.113066667,12.2503338 C0.0413333333,12.3226009 0,12.4220681 0,12.524202 L0,15.9306212 L0,18.253301 L0,23.6130645 C0,23.8266657 0.173333333,24 0.3872,24 C0.601066667,24 0.7744,23.8266657 0.7744,23.6127978 L0.7744,18.6402365 L23.2261333,18.6402365 L23.2261333,23.6127978 C23.2261333,23.8266657 23.3994667,24 23.6133333,24 C23.8266667,24 24,23.8266657 24,23.6127978 L24,15.9306212 L24,15.9300879 L24,12.524202 Z M12.5058667,8.06444354 L12.4693333,8.08924368 C11.8802667,8.49111261 11.5610667,9.14498297 11.5616,9.8081867 C11.5613333,10.2060556 11.6762667,10.6105912 11.9144,10.9647266 L11.9432,11.0076601 C12.3437333,11.6052635 13.0029333,11.9289987 13.6709333,11.9284653 C14.0738667,11.928732 14.4837333,11.810598 14.8410667,11.5665966 L17.8674667,9.50178498 L17.8674667,15.0015493 L6.1256,15.0015493 L6.1256,8.06444354 L12.5058667,8.06444354 Z M23.2258667,17.8660988 L0.774133333,17.8660988 L0.774133333,15.9306212 L0.774133333,15.9290212 L0.774133333,12.9111375 L5.35146667,12.9111375 L5.35146667,15.0015493 L3.95413333,15.0015493 C3.74026667,15.0015493 3.56693333,15.1748836 3.56693333,15.3887515 C3.56693333,15.6026194 3.74026667,15.7759537 3.95413333,15.7759537 L19.9437333,15.7759537 C20.1576,15.7759537 20.3309333,15.6026194 20.3309333,15.3887515 C20.3309333,15.1748836 20.1576,15.0015493 19.9437333,15.0015493 L18.6418667,15.0015493 L18.6418667,12.9111375 L23.2258667,12.9111375 L23.2258667,17.8660988 Z" id="Shape"></path>
            </g>
        </g>
    </g>
</svg>